<svg width="130" height="130" viewBox="0 0 130 130" fill="none" xmlns="http://www.w3.org/2000/svg">
<circle cx="65.2333" cy="65.1579" r="64.2294" fill="#FEF9F4"/>
<path d="M48.978 93.3419C53.4102 101.017 61.6694 105.784 70.5321 105.784C84.2566 105.784 95.4223 94.6187 95.4223 80.8941V61.406C95.4223 57.9102 92.5784 55.0662 89.0824 55.0662C87.7425 55.0647 86.4369 55.49 85.3551 56.2806C84.6431 53.5585 82.1627 51.5441 79.2206 51.5441C77.8042 51.5426 76.4284 52.0179 75.315 52.8933C74.4262 50.4646 72.0916 48.7265 69.3587 48.7265C68.1043 48.725 66.878 49.0978 65.8366 49.7972V37.4557C65.8366 33.9599 62.9926 31.116 59.4967 31.116C56.0009 31.116 53.157 33.9599 53.157 37.4557V71.0667C53.1565 71.2792 53.0955 71.4871 52.9813 71.6662C52.8671 71.8453 52.7043 71.9882 52.5119 72.0783C52.2593 72.1972 51.9711 72.2165 51.7049 72.1324C51.4387 72.0483 51.214 71.867 51.0755 71.6245L46.8482 64.3026C44.3235 59.9297 38.7123 58.4262 34.3391 60.9508C33.9377 61.1811 33.586 61.4888 33.3043 61.8559C33.0226 62.223 32.8166 62.6424 32.698 63.0897C32.5771 63.5364 32.546 64.0026 32.6064 64.4614C32.6669 64.9202 32.8177 65.3625 33.0502 65.7626L48.978 93.3419ZM35.4202 63.8189C35.444 63.7295 35.4853 63.6456 35.5416 63.5722C35.598 63.4988 35.6683 63.4373 35.7485 63.3912C36.7254 62.8272 37.8093 62.5391 38.9078 62.5391C39.4584 62.5391 40.0129 62.6116 40.5588 62.7579C42.1945 63.1962 43.5616 64.2452 44.4083 65.7117L48.6356 73.0336C49.6621 74.8113 51.8397 75.4989 53.7007 74.6334C55.0823 73.9907 55.9751 72.5909 55.9751 71.0671V37.4557C55.9751 35.5136 57.5551 33.9336 59.4972 33.9336C61.4393 33.9336 63.0193 35.5136 63.0193 37.4557V63.5192C63.0193 63.8928 63.1677 64.2512 63.4319 64.5154C63.6962 64.7796 64.0545 64.9281 64.4282 64.9281C64.8019 64.9281 65.1602 64.7796 65.4244 64.5154C65.6887 64.2512 65.8371 63.8928 65.8371 63.5192V55.0662C65.8371 53.1241 67.4171 51.5441 69.3592 51.5441C71.3013 51.5441 72.8813 53.1241 72.8813 55.0662V63.5192C72.8813 63.8928 73.0297 64.2512 73.294 64.5154C73.5582 64.7796 73.9165 64.9281 74.2902 64.9281C74.6639 64.9281 75.0222 64.7796 75.2865 64.5154C75.5507 64.2512 75.6991 63.8928 75.6991 63.5192V57.8839C75.6991 55.9418 77.2791 54.3618 79.2212 54.3618C81.1633 54.3618 82.7433 55.9418 82.7433 57.8839V64.2236C82.7433 64.5973 82.8918 64.9557 83.156 65.2199C83.4202 65.4841 83.7786 65.6325 84.1522 65.6325C84.5259 65.6325 84.8842 65.4841 85.1485 65.2199C85.4127 64.9557 85.5611 64.5973 85.5611 64.2236V61.406C85.5611 59.4639 87.1411 57.8839 89.0832 57.8839C91.0253 57.8839 92.6053 59.4639 92.6053 61.406V80.8941C92.6053 93.065 82.7036 102.967 70.5325 102.967C62.6731 102.967 55.3492 98.7388 51.4185 91.9327L35.4906 64.3534C35.4441 64.2734 35.414 64.1849 35.4019 64.0932C35.3899 64.0014 35.3961 63.9082 35.4202 63.8189Z" fill="#EA8529"/>
<path d="M48.978 93.3419C53.4102 101.017 61.6694 105.784 70.5321 105.784C84.2566 105.784 95.4223 94.6187 95.4223 80.8941V61.406C95.4223 57.9102 92.5784 55.0662 89.0824 55.0662C87.7425 55.0647 86.4369 55.49 85.3551 56.2806C84.6431 53.5585 82.1627 51.5441 79.2206 51.5441C77.8042 51.5426 76.4284 52.0179 75.315 52.8933C74.4262 50.4646 72.0916 48.7265 69.3587 48.7265C68.1043 48.725 66.878 49.0978 65.8366 49.7972V37.4557C65.8366 33.9599 62.9926 31.116 59.4967 31.116C56.0009 31.116 53.157 33.9599 53.157 37.4557V71.0667C53.1565 71.2792 53.0955 71.4871 52.9813 71.6662C52.8671 71.8453 52.7043 71.9882 52.5119 72.0783C52.2593 72.1972 51.9711 72.2165 51.7049 72.1324C51.4387 72.0483 51.214 71.867 51.0755 71.6245L46.8482 64.3026C44.3235 59.9297 38.7123 58.4262 34.3391 60.9508C33.9377 61.1811 33.586 61.4888 33.3043 61.8559C33.0226 62.223 32.8166 62.6424 32.698 63.0897C32.5771 63.5364 32.546 64.0026 32.6064 64.4614C32.6669 64.9202 32.8177 65.3625 33.0502 65.7626L48.978 93.3419ZM35.4202 63.8189C35.444 63.7295 35.4853 63.6456 35.5416 63.5722C35.598 63.4988 35.6683 63.4373 35.7485 63.3912C36.7254 62.8272 37.8093 62.5391 38.9078 62.5391C39.4584 62.5391 40.0129 62.6116 40.5588 62.7579C42.1945 63.1962 43.5616 64.2452 44.4083 65.7117L48.6356 73.0336C49.6621 74.8113 51.8397 75.4989 53.7007 74.6334C55.0823 73.9907 55.9751 72.5909 55.9751 71.0671V37.4557C55.9751 35.5136 57.5551 33.9336 59.4972 33.9336C61.4393 33.9336 63.0193 35.5136 63.0193 37.4557V63.5192C63.0193 63.8928 63.1677 64.2512 63.4319 64.5154C63.6962 64.7796 64.0545 64.9281 64.4282 64.9281C64.8019 64.9281 65.1602 64.7796 65.4244 64.5154C65.6887 64.2512 65.8371 63.8928 65.8371 63.5192V55.0662C65.8371 53.1241 67.4171 51.5441 69.3592 51.5441C71.3013 51.5441 72.8813 53.1241 72.8813 55.0662V63.5192C72.8813 63.8928 73.0297 64.2512 73.294 64.5154C73.5582 64.7796 73.9165 64.9281 74.2902 64.9281C74.6639 64.9281 75.0222 64.7796 75.2865 64.5154C75.5507 64.2512 75.6991 63.8928 75.6991 63.5192V57.8839C75.6991 55.9418 77.2791 54.3618 79.2212 54.3618C81.1633 54.3618 82.7433 55.9418 82.7433 57.8839V64.2236C82.7433 64.5973 82.8918 64.9557 83.156 65.2199C83.4202 65.4841 83.7786 65.6325 84.1522 65.6325C84.5259 65.6325 84.8842 65.4841 85.1485 65.2199C85.4127 64.9557 85.5611 64.5973 85.5611 64.2236V61.406C85.5611 59.4639 87.1411 57.8839 89.0832 57.8839C91.0253 57.8839 92.6053 59.4639 92.6053 61.406V80.8941C92.6053 93.065 82.7036 102.967 70.5325 102.967C62.6731 102.967 55.3492 98.7388 51.4185 91.9327L35.4906 64.3534C35.4441 64.2734 35.414 64.1849 35.4019 64.0932C35.3899 64.0014 35.3961 63.9082 35.4202 63.8189Z" stroke="#EA8529" stroke-width="0.531429"/>
<path d="M48.978 93.3419C53.4102 101.017 61.6694 105.784 70.5321 105.784C84.2566 105.784 95.4223 94.6187 95.4223 80.8941V61.406C95.4223 57.9102 92.5784 55.0662 89.0824 55.0662C87.7425 55.0647 86.4369 55.49 85.3551 56.2806C84.6431 53.5585 82.1627 51.5441 79.2206 51.5441C77.8042 51.5426 76.4284 52.0179 75.315 52.8933C74.4262 50.4646 72.0916 48.7265 69.3587 48.7265C68.1043 48.725 66.878 49.0978 65.8366 49.7972V37.4557C65.8366 33.9599 62.9926 31.116 59.4967 31.116C56.0009 31.116 53.157 33.9599 53.157 37.4557V71.0667C53.1565 71.2792 53.0955 71.4871 52.9813 71.6662C52.8671 71.8453 52.7043 71.9882 52.5119 72.0783C52.2593 72.1972 51.9711 72.2165 51.7049 72.1324C51.4387 72.0483 51.214 71.867 51.0755 71.6245L46.8482 64.3026C44.3235 59.9297 38.7123 58.4262 34.3391 60.9508C33.9377 61.1811 33.586 61.4888 33.3043 61.8559C33.0226 62.223 32.8166 62.6424 32.698 63.0897C32.5771 63.5364 32.546 64.0026 32.6064 64.4614C32.6669 64.9202 32.8177 65.3625 33.0502 65.7626L48.978 93.3419ZM35.4202 63.8189C35.444 63.7295 35.4853 63.6456 35.5416 63.5722C35.598 63.4988 35.6683 63.4373 35.7485 63.3912C36.7254 62.8272 37.8093 62.5391 38.9078 62.5391C39.4584 62.5391 40.0129 62.6116 40.5588 62.7579C42.1945 63.1962 43.5616 64.2452 44.4083 65.7117L48.6356 73.0336C49.6621 74.8113 51.8397 75.4989 53.7007 74.6334C55.0823 73.9907 55.9751 72.5909 55.9751 71.0671V37.4557C55.9751 35.5136 57.5551 33.9336 59.4972 33.9336C61.4393 33.9336 63.0193 35.5136 63.0193 37.4557V63.5192C63.0193 63.8928 63.1677 64.2512 63.4319 64.5154C63.6962 64.7796 64.0545 64.9281 64.4282 64.9281C64.8019 64.9281 65.1602 64.7796 65.4244 64.5154C65.6887 64.2512 65.8371 63.8928 65.8371 63.5192V55.0662C65.8371 53.1241 67.4171 51.5441 69.3592 51.5441C71.3013 51.5441 72.8813 53.1241 72.8813 55.0662V63.5192C72.8813 63.8928 73.0297 64.2512 73.294 64.5154C73.5582 64.7796 73.9165 64.9281 74.2902 64.9281C74.6639 64.9281 75.0222 64.7796 75.2865 64.5154C75.5507 64.2512 75.6991 63.8928 75.6991 63.5192V57.8839C75.6991 55.9418 77.2791 54.3618 79.2212 54.3618C81.1633 54.3618 82.7433 55.9418 82.7433 57.8839V64.2236C82.7433 64.5973 82.8918 64.9557 83.156 65.2199C83.4202 65.4841 83.7786 65.6325 84.1522 65.6325C84.5259 65.6325 84.8842 65.4841 85.1485 65.2199C85.4127 64.9557 85.5611 64.5973 85.5611 64.2236V61.406C85.5611 59.4639 87.1411 57.8839 89.0832 57.8839C91.0253 57.8839 92.6053 59.4639 92.6053 61.406V80.8941C92.6053 93.065 82.7036 102.967 70.5325 102.967C62.6731 102.967 55.3492 98.7388 51.4185 91.9327L35.4906 64.3534C35.4441 64.2734 35.414 64.1849 35.4019 64.0932C35.3899 64.0014 35.3961 63.9082 35.4202 63.8189Z" stroke="#FEF9F4" stroke-width="0.531429"/>
<path d="M49.8848 44.7362C50.0442 44.6424 50.1836 44.518 50.295 44.3703C50.4064 44.2226 50.4876 44.0544 50.5339 43.8753C50.5803 43.6962 50.5909 43.5097 50.5653 43.3265C50.5396 43.1433 50.478 42.9669 50.3842 42.8075C49.4336 41.1926 48.9311 39.3421 48.9311 37.456C48.9311 31.6296 53.671 26.8897 59.4974 26.8897C65.3237 26.8897 70.0637 31.6296 70.0637 37.456C70.0637 39.3491 69.5574 41.206 68.5999 42.8256C68.4118 43.1471 68.3587 43.53 68.4522 43.8906C68.5458 44.2512 68.7783 44.5601 69.0989 44.7497C69.4196 44.9393 69.8023 44.9941 70.1633 44.9023C70.5243 44.8105 70.8343 44.5794 71.0254 44.2597C72.2397 42.2062 72.8815 39.8534 72.8815 37.456C72.8813 30.076 66.8774 24.072 59.4974 24.072C52.1174 24.072 46.1134 30.076 46.1134 37.456C46.1134 39.8443 46.7505 42.1891 47.9559 44.2368C48.3509 44.9075 49.2147 45.1309 49.8848 44.7362Z" fill="#EA8529"/>
<path d="M49.8848 44.7362C50.0442 44.6424 50.1836 44.518 50.295 44.3703C50.4064 44.2226 50.4876 44.0544 50.5339 43.8753C50.5803 43.6962 50.5909 43.5097 50.5653 43.3265C50.5396 43.1433 50.478 42.9669 50.3842 42.8075C49.4336 41.1926 48.9311 39.3421 48.9311 37.456C48.9311 31.6296 53.671 26.8897 59.4974 26.8897C65.3237 26.8897 70.0637 31.6296 70.0637 37.456C70.0637 39.3491 69.5574 41.206 68.5999 42.8256C68.4118 43.1471 68.3587 43.53 68.4522 43.8906C68.5458 44.2512 68.7783 44.5601 69.0989 44.7497C69.4196 44.9393 69.8023 44.9941 70.1633 44.9023C70.5243 44.8105 70.8343 44.5794 71.0254 44.2597C72.2397 42.2062 72.8815 39.8534 72.8815 37.456C72.8813 30.076 66.8774 24.072 59.4974 24.072C52.1174 24.072 46.1134 30.076 46.1134 37.456C46.1134 39.8443 46.7505 42.1891 47.9559 44.2368C48.3509 44.9075 49.2147 45.1309 49.8848 44.7362Z" stroke="#EA8529" stroke-width="0.531429"/>
<path d="M49.8848 44.7362C50.0442 44.6424 50.1836 44.518 50.295 44.3703C50.4064 44.2226 50.4876 44.0544 50.5339 43.8753C50.5803 43.6962 50.5909 43.5097 50.5653 43.3265C50.5396 43.1433 50.478 42.9669 50.3842 42.8075C49.4336 41.1926 48.9311 39.3421 48.9311 37.456C48.9311 31.6296 53.671 26.8897 59.4974 26.8897C65.3237 26.8897 70.0637 31.6296 70.0637 37.456C70.0637 39.3491 69.5574 41.206 68.5999 42.8256C68.4118 43.1471 68.3587 43.53 68.4522 43.8906C68.5458 44.2512 68.7783 44.5601 69.0989 44.7497C69.4196 44.9393 69.8023 44.9941 70.1633 44.9023C70.5243 44.8105 70.8343 44.5794 71.0254 44.2597C72.2397 42.2062 72.8815 39.8534 72.8815 37.456C72.8813 30.076 66.8774 24.072 59.4974 24.072C52.1174 24.072 46.1134 30.076 46.1134 37.456C46.1134 39.8443 46.7505 42.1891 47.9559 44.2368C48.3509 44.9075 49.2147 45.1309 49.8848 44.7362Z" stroke="#FEF9F4" stroke-width="0.531429"/>
</svg>
