<svg width="88" height="74" viewBox="0 0 88 74" fill="none" xmlns="http://www.w3.org/2000/svg">
<path d="M0.886719 0.107422H25.5019C28.7661 0.107422 31.8966 1.65037 34.2047 4.39684C36.5128 7.14331 37.8095 10.8683 37.8095 14.7524V58.6874C37.8095 62.5715 36.5128 66.2965 34.2047 69.043C31.8966 71.7895 28.7661 73.3324 25.5019 73.3324H0.886719V58.6874H25.5019V44.0424H7.04052V29.3974H25.5019V14.7524H0.886719V0.107422ZM50.1171 0.107422H68.5785C73.4748 0.107422 78.1705 2.42185 81.6327 6.54155C85.0948 10.6613 87.0399 16.2488 87.0399 22.0749V51.3649C87.0399 57.1911 85.0948 62.7786 81.6327 66.8983C78.1705 71.018 73.4748 73.3324 68.5785 73.3324H50.1171V0.107422ZM68.5785 58.6874C70.2106 58.6874 71.7758 57.9159 72.9299 56.5427C74.0839 55.1695 74.7323 53.307 74.7323 51.3649V22.0749C74.7323 20.1329 74.0839 18.2704 72.9299 16.8971C71.7758 15.5239 70.2106 14.7524 68.5785 14.7524H62.4247V58.6874H68.5785Z" fill="#89C8FF"/>
</svg>
