<svg width="96" height="97" viewBox="0 0 96 97" fill="none" xmlns="http://www.w3.org/2000/svg">
<circle cx="48" cy="48.7861" r="48" fill="white"/>
<path d="M31.2762 77.6897H31.6577H55.0083H55.0085C56.2185 77.69 57.4052 77.3572 58.4386 76.7278L58.4388 76.7277L75.8909 66.1044C76.2043 65.9135 76.4744 65.6592 76.6838 65.3579C76.8932 65.0565 77.0374 64.7147 77.107 64.3544L77.1079 64.3496C77.1771 64.0025 77.1739 63.6448 77.0985 63.2989C77.0231 62.953 76.8772 62.6264 76.6699 62.3395L76.649 62.3104L76.6305 62.2797C76.6291 62.2773 76.6275 62.275 76.6259 62.2728L76.6247 62.2713C76.2938 61.829 75.8319 61.5023 75.3047 61.3376C74.7775 61.1729 74.2118 61.1786 73.688 61.3538L73.6871 61.3541L56.4534 67.0988L56.4526 67.0991C56.081 67.2226 55.6921 67.2856 55.3005 67.2857H55.3002H54.7653H53.55L53.9669 66.1442C54.1421 65.6645 54.208 65.1518 54.16 64.6435C54.1119 64.1354 53.9513 63.6445 53.6897 63.2064C53.6895 63.2061 53.6893 63.2058 53.6891 63.2055L53.6079 63.0703C53.6077 63.07 53.6076 63.0698 53.6074 63.0695C53.1842 62.3695 52.588 61.7902 51.8762 61.3872C51.1644 60.9843 50.361 60.7713 49.5432 60.7687H44.675H44.674C42.7642 60.7664 40.9115 60.1165 39.4188 58.9252C38.9792 58.5745 38.5091 58.2699 38.0159 58.0138L39.3152 59.0506C40.8378 60.2655 42.7273 60.9283 44.6753 60.9308C44.6754 60.9308 44.6755 60.9308 44.6756 60.9308L49.544 60.9308H49.5463C50.335 60.9329 51.1098 61.1381 51.7962 61.5266C52.4825 61.915 53.0573 62.4737 53.4651 63.1487L53.4651 63.1488L53.549 63.2877L53.5505 63.29C53.8857 63.849 54.0469 64.4952 54.0136 65.1462C53.9803 65.7972 53.754 66.4235 53.3635 66.9454L53.1085 67.2862H52.6829H47.0243H47.0237C45.3535 67.2849 43.7206 67.7794 42.3318 68.707L42.3312 68.7074L41.6493 69.1621L41.6493 69.1622C41.6314 69.1741 41.619 69.1926 41.6148 69.2137L40.7813 69.0471L41.6148 69.2137C41.6106 69.2348 41.6149 69.2567 41.6268 69.2746C41.6388 69.2925 41.6573 69.3049 41.6784 69.3091C41.6995 69.3134 41.7214 69.309 41.7393 69.2971C41.7393 69.2971 41.7393 69.2971 41.7393 69.2971L42.4205 68.8428C42.4207 68.8427 42.4208 68.8426 42.4209 68.8425L42.4212 68.8424L42.8928 69.5495C44.1156 68.7324 45.5536 68.2968 47.0243 68.2981L31.2762 77.6897ZM31.2762 77.6897L31.0226 77.9748C30.8425 78.1773 30.6216 78.3395 30.3744 78.4509L30.7236 79.2259L30.3744 78.4509C30.1277 78.5621 29.8602 78.62 29.5896 78.6209H24.9367C23.8636 78.6198 22.9939 77.7503 22.9924 76.6772V57.1264C22.9939 56.0534 23.8633 55.184 24.9363 55.1825H29.5893C29.9891 55.184 30.3787 55.3091 30.7047 55.5406C31.031 55.7724 31.2775 56.0995 31.4105 56.477L31.6104 57.0445H32.2122H34.0578C35.4131 57.0465 36.7401 57.3679 37.935 57.9724L31.2762 77.6897ZM52.8215 63.7272C53.0699 64.1414 53.1894 64.6203 53.1647 65.1028C53.1401 65.5852 52.9723 66.0494 52.6829 66.4362L52.8215 63.7272ZM52.8215 63.7272L52.7376 63.5883M52.8215 63.7272L52.7376 63.5883M52.7376 63.5883C52.4052 63.0382 51.9368 62.5829 51.3775 62.2663C50.8182 61.9498 50.1867 61.7825 49.544 61.7808L52.7376 63.5883ZM23.1544 57.1251V57.1259L23.1544 76.6777L23.1544 76.6784C23.1553 77.6619 23.9528 78.4576 24.9351 78.4585H24.9358H29.5907H29.5914C30.5739 78.4576 31.3711 77.6616 31.3719 76.6784V76.6777V57.1258L31.3719 57.1249C31.3714 56.6528 31.1837 56.2003 30.8499 55.8665C30.5162 55.5328 30.0636 55.345 29.5916 55.3445H29.5907L24.9358 55.3445L24.935 55.3445C24.4629 55.345 24.0103 55.5327 23.6764 55.8665C23.3426 56.2004 23.1549 56.653 23.1544 57.1251Z" fill="#EA8529" stroke="#EA8529" stroke-width="1.7"/>
<path d="M75.0632 31.6428L75.9128 31.6163L75.0632 31.6428ZM54.9378 39.9897L54.7262 40.813C54.9161 40.8618 55.1169 40.8435 55.2948 40.7611L54.9378 39.9897ZM49.7201 32.5267L50.4311 32.0609L49.7201 32.5267ZM42.4333 23.4318C42.0892 23.7512 42.0693 24.289 42.3887 24.633C42.7081 24.977 43.246 24.997 43.59 24.6776L42.4333 23.4318ZM59.2501 20.3366C59.7111 20.425 60.1565 20.1229 60.2449 19.6618C60.3333 19.2008 60.0312 18.7554 59.5702 18.667L59.2501 20.3366ZM55.4647 33.5277C54.9952 33.5277 54.6147 33.9083 54.6147 34.3777C54.6147 34.8471 54.9952 35.2277 55.4647 35.2277V33.5277ZM57.4204 35.2277C57.8898 35.2277 58.2704 34.8471 58.2704 34.3777C58.2704 33.9083 57.8898 33.5277 57.4204 33.5277V35.2277ZM67.6094 39.1397C67.1399 39.1397 66.7594 39.5203 66.7594 39.9897C66.7594 40.4592 67.1399 40.8397 67.6094 40.8397V39.1397ZM68.3772 40.8397C68.8466 40.8397 69.2272 40.4592 69.2272 39.9897C69.2272 39.5203 68.8466 39.1397 68.3772 39.1397V40.8397ZM52.4268 42.3629C52.4613 41.8947 52.1097 41.4872 51.6416 41.4527C51.1734 41.4182 50.7659 41.7698 50.7314 42.2379L52.4268 42.3629ZM54.1924 52.8896L53.7145 53.5926L54.1924 52.8896ZM48.7971 50.6813C49.1985 50.4378 49.3265 49.9151 49.083 49.5137C48.8396 49.1123 48.3168 48.9843 47.9154 49.2278L48.7971 50.6813ZM43.757 50.6132L43.4725 51.4141L43.757 50.6132ZM47.0329 37.3031L47.7438 36.8372L47.7326 36.8201L47.7206 36.8036L47.0329 37.3031ZM39.199 30.195C38.7934 29.9588 38.273 30.0961 38.0367 30.5018C37.8005 30.9075 37.9379 31.4278 38.3435 31.6641L39.199 30.195ZM68.5604 45.6836L67.898 45.151L68.5604 45.6836ZM66.9642 45.4844L67.7295 45.1145L66.9642 45.4844ZM69.2228 46.2163C70.2616 44.9246 71.9615 42.6612 73.3853 40.0527C74.7962 37.4678 76.0007 34.429 75.9128 31.6163L74.2136 31.6694C74.2871 34.0191 73.2627 36.7291 71.8931 39.2382C70.5364 41.7238 68.9043 43.8997 67.898 45.151L69.2228 46.2163ZM75.9128 31.6163C75.6344 22.7053 67.5037 16.3596 58.8211 14.6431C50.0858 12.9163 40.287 15.7691 36.5973 25.7733L38.1923 26.3616C41.4974 17.4002 50.2718 14.686 58.4914 16.3109C66.7638 17.9462 73.9699 23.8709 74.2136 31.6694L75.9128 31.6163ZM55.1494 39.1665C53.8647 38.8363 53.1563 37.9347 52.5264 36.5971C52.2034 35.9112 51.9378 35.1949 51.6075 34.3957C51.288 33.6227 50.9215 32.8095 50.4311 32.0609L49.0091 32.9925C49.4093 33.6034 49.7271 34.2966 50.0364 35.0451C50.335 35.7674 50.6428 36.5876 50.9884 37.3214C51.6957 38.8232 52.7055 40.2937 54.7262 40.813L55.1494 39.1665ZM50.4311 32.0609C48.9152 29.747 47.0877 28.6047 45.0006 27.918C43.9768 27.5812 42.8941 27.3548 41.7795 27.1488C40.6483 26.9397 39.5022 26.7543 38.2646 26.4928L37.9131 28.156C39.1775 28.4232 40.3875 28.6203 41.4705 28.8205C42.57 29.0237 43.5594 29.2335 44.4693 29.5329C46.2494 30.1186 47.7357 31.0488 49.0091 32.9925L50.4311 32.0609ZM43.59 24.6776C46.2092 22.2456 48.3161 20.8517 50.6243 20.2044C52.9358 19.5562 55.5529 19.6277 59.2501 20.3366L59.5702 18.667C55.769 17.9382 52.8479 17.8153 50.1653 18.5676C47.4793 19.3208 45.1361 20.9222 42.4333 23.4318L43.59 24.6776ZM55.4647 35.2277H57.4204V33.5277H55.4647V35.2277ZM67.6094 40.8397H68.3772V39.1397H67.6094V40.8397ZM50.7314 42.2379C50.5476 44.7302 50.2577 46.9011 50.5126 48.7073C50.7856 50.6412 51.6732 52.2048 53.7145 53.5926L54.6703 52.1867C53.0086 51.057 52.3991 49.9093 52.1959 48.4697C51.9747 46.9024 52.2296 45.0374 52.4268 42.3629L50.7314 42.2379ZM67.7295 45.1145C67.6272 44.9028 67.5231 44.6889 67.417 44.4746L65.8933 45.2285C65.9962 45.4364 66.0978 45.6452 66.1989 45.8543L67.7295 45.1145ZM67.417 44.4746C66.4098 42.4392 65.154 40.1947 63.1301 38.9405C61.0172 37.6312 58.2746 37.5091 54.5808 39.2183L55.2948 40.7611C58.6539 39.2068 60.7581 39.4706 62.2347 40.3856C63.8003 41.3557 64.8767 43.174 65.8933 45.2285L67.417 44.4746ZM53.7145 53.5926C54.1356 53.8788 54.6346 53.9136 55.055 53.8737C55.4901 53.8325 55.9649 53.6999 56.4501 53.5158C57.4239 53.1463 58.5794 52.5143 59.794 51.7234C62.2293 50.1375 65.0252 47.8311 67.275 45.4331L66.0353 44.2699C63.8796 46.5675 61.1887 48.7864 58.8663 50.2988C57.7021 51.057 56.6611 51.6174 55.8469 51.9264C55.438 52.0816 55.121 52.1598 54.8946 52.1813C54.6535 52.2042 54.6215 52.1535 54.6703 52.1867L53.7145 53.5926ZM48.3563 49.9546C47.9154 49.2278 47.9157 49.2277 47.9159 49.2275C47.9159 49.2275 47.9161 49.2274 47.9163 49.2273C47.9165 49.2272 47.9167 49.227 47.9169 49.2269C47.9172 49.2267 47.9174 49.2266 47.9175 49.2266C47.9176 49.2265 47.9171 49.2268 47.9162 49.2274C47.9142 49.2285 47.91 49.231 47.9038 49.2346C47.8913 49.2418 47.8704 49.2537 47.8418 49.2693C47.7845 49.3007 47.6966 49.3469 47.5829 49.4011C47.3546 49.5102 47.0284 49.6489 46.6423 49.7652C45.8535 50.0029 44.9079 50.12 44.0415 49.8122L43.4725 51.4141C44.8219 51.8935 46.1759 51.6813 47.1328 51.3929C47.6196 51.2462 48.0278 51.0726 48.3155 50.9352C48.46 50.8662 48.5756 50.8056 48.6573 50.761C48.6982 50.7386 48.7307 50.7202 48.7542 50.7066C48.7659 50.6998 48.7754 50.6943 48.7826 50.69C48.7862 50.6879 48.7892 50.6861 48.7916 50.6846C48.7928 50.6839 48.7939 50.6833 48.7948 50.6827C48.7953 50.6824 48.7957 50.6822 48.7961 50.6819C48.7963 50.6818 48.7965 50.6817 48.7966 50.6816C48.7969 50.6814 48.7971 50.6813 48.3563 49.9546ZM44.0415 49.8122C43.5817 49.6489 43.3864 49.4375 43.2908 49.2455C43.1845 49.0322 43.1367 48.7117 43.2138 48.2326C43.3728 47.245 43.9943 45.9656 44.8088 44.5417C45.581 43.1918 46.5498 41.6771 47.1842 40.4518C47.5072 39.8278 47.7845 39.2057 47.9261 38.6394C48.0608 38.1008 48.1229 37.4157 47.7438 36.8372L46.3219 37.769C46.3026 37.7396 46.3769 37.827 46.2769 38.2269C46.1838 38.5991 45.9794 39.0814 45.6745 39.6702C45.053 40.8706 44.1811 42.2152 43.3332 43.6976C42.5276 45.106 41.7496 46.6319 41.5354 47.9624C41.426 48.6423 41.4481 49.359 41.7691 50.0034C42.1006 50.6691 42.6898 51.1361 43.4725 51.4141L44.0415 49.8122ZM47.7206 36.8036C45.455 33.6837 43.0464 32.4356 39.199 30.195L38.3435 31.6641C42.271 33.9512 44.3301 35.0278 46.3451 37.8026L47.7206 36.8036ZM36.5973 25.7733C36.2182 26.8013 36.8407 27.9294 37.9131 28.156L38.2646 26.4928C38.207 26.4806 38.1718 26.4173 38.1923 26.3616L36.5973 25.7733ZM67.898 45.151C67.8802 45.1732 67.8661 45.1803 67.8582 45.1834C67.8483 45.1873 67.8352 45.1895 67.8194 45.1874C67.8035 45.1854 67.7873 45.1793 67.7729 45.1691C67.7599 45.1599 67.7438 45.1442 67.7295 45.1145L66.1989 45.8543C66.7662 47.028 68.3689 47.2782 69.2228 46.2163L67.898 45.151Z" fill="#EA8529"/>
</svg>
