<svg width="88" height="88" viewBox="0 0 88 88" fill="none" xmlns="http://www.w3.org/2000/svg">
<path d="M71.4994 66.0002H68.7494V63.1402C68.7494 62.8047 68.6161 62.483 68.3789 62.2458C68.1416 62.0085 67.8199 61.8752 67.4844 61.8752H52.2494C51.9139 61.8752 51.5921 62.0085 51.3549 62.2458C51.1176 62.483 50.9844 62.8047 50.9844 63.1402V66.0002H48.2344V63.1402C48.2344 62.0754 48.6574 61.0542 49.4103 60.3012C50.1633 59.5482 51.1845 59.1252 52.2494 59.1252H67.4844C68.5492 59.1252 69.5704 59.5482 70.3234 60.3012C71.0764 61.0542 71.4994 62.0754 71.4994 63.1402V66.0002ZM56.3744 55.0002H53.6244V50.8752C53.652 49.6116 53.9355 48.3668 54.4578 47.2158C54.9801 46.0649 55.7303 45.0318 56.6631 44.179L63.0844 37.7577C63.8663 37.0291 64.9006 36.6324 65.9692 36.6513C67.0379 36.6701 68.0575 37.103 68.8133 37.8588C69.5691 38.6146 70.002 39.6342 70.0208 40.7029C70.0397 41.7715 69.643 42.8058 68.9144 43.5877L62.8369 49.6652L60.8981 47.7265L66.9756 41.649C67.2009 41.386 67.3186 41.0476 67.3052 40.7015C67.2919 40.3555 67.1484 40.0272 66.9035 39.7823C66.6586 39.5375 66.3304 39.394 65.9843 39.3806C65.6383 39.3673 65.2999 39.485 65.0369 39.7102L58.6156 46.1315C57.9426 46.7311 57.3972 47.4602 57.0121 48.2752C56.6271 49.0903 56.4102 49.9745 56.3744 50.8752V55.0002Z" fill="#EA8529"/>
<path d="M66 60.5002H63.25V59.1252C63.25 55.894 66.0825 52.979 66.3988 52.649L70.5238 48.524C71.7765 47.3103 72.6015 45.7229 72.875 44.0002H75.625C75.625 47.2315 72.7925 50.1465 72.4762 50.4765L68.3512 54.6015C67.0985 55.8152 66.2735 57.4026 66 59.1252V60.5002ZM75.625 44.0002H72.875V27.5002C72.875 27.1356 72.7301 26.7858 72.4723 26.528C72.2144 26.2701 71.8647 26.1252 71.5 26.1252C71.1353 26.1252 70.7856 26.2701 70.5277 26.528C70.2699 26.7858 70.125 27.1356 70.125 27.5002V41.2502H67.375V27.5002C67.375 26.4062 67.8096 25.357 68.5832 24.5834C69.3568 23.8098 70.406 23.3752 71.5 23.3752C72.594 23.3752 73.6432 23.8098 74.4168 24.5834C75.1904 25.357 75.625 26.4062 75.625 27.5002V44.0002ZM71.5 77.0002H48.29C47.9253 77.0002 47.5756 76.8554 47.3177 76.5975C47.0599 76.3397 46.915 75.9899 46.915 75.6252V66.0002C46.915 65.6356 47.0599 65.2858 47.3177 65.028C47.5756 64.7701 47.9253 64.6252 48.29 64.6252H71.5C71.8647 64.6252 72.2144 64.7701 72.4723 65.028C72.7301 65.2858 72.875 65.6356 72.875 66.0002V75.6252C72.875 75.9899 72.7301 76.3397 72.4723 76.5975C72.2144 76.8554 71.8647 77.0002 71.5 77.0002ZM49.6375 74.2502H70.125V67.3752H49.665L49.6375 74.2502ZM39.7375 66.0002H36.9875V63.1402C36.9876 62.8095 36.8581 62.4918 36.6268 62.2553C36.3954 62.0189 36.0807 61.8824 35.75 61.8752H20.515C20.1795 61.8752 19.8577 62.0085 19.6205 62.2458C19.3833 62.483 19.25 62.8047 19.25 63.1402V66.0002H16.5V63.1402C16.5 62.0754 16.923 61.0542 17.676 60.3012C18.4289 59.5483 19.4502 59.1252 20.515 59.1252H35.75C36.8148 59.1252 37.8361 59.5483 38.589 60.3012C39.342 61.0542 39.765 62.0754 39.765 63.1402L39.7375 66.0002Z" fill="#EA8529"/>
<path d="M34.375 60.5002H31.625V50.8752C31.591 49.9722 31.375 49.0853 30.9899 48.2677C30.6047 47.4502 30.0584 46.7189 29.3838 46.1177L22.9625 39.6965C22.8392 39.5525 22.6875 39.4356 22.517 39.3531C22.3464 39.2706 22.1606 39.2242 21.9712 39.2169C21.7818 39.2096 21.593 39.2415 21.4166 39.3106C21.2401 39.3797 21.0799 39.4846 20.9459 39.6186C20.8119 39.7526 20.707 39.9128 20.6379 40.0893C20.5687 40.2657 20.5368 40.4546 20.5442 40.6439C20.5515 40.8333 20.5978 41.0191 20.6804 41.1897C20.7629 41.3603 20.8798 41.512 21.0238 41.6352L27.1012 47.7127L25.1625 49.6652L19.085 43.5877C18.6797 43.2101 18.3547 42.7547 18.1292 42.2487C17.9037 41.7427 17.7825 41.1965 17.7727 40.6426C17.763 40.0887 17.8649 39.5386 18.0723 39.0249C18.2798 38.5113 18.5886 38.0447 18.9803 37.653C19.372 37.2613 19.8386 36.9525 20.3522 36.745C20.8658 36.5376 21.416 36.4357 21.9699 36.4455C22.5237 36.4552 23.07 36.5765 23.576 36.8019C24.082 37.0274 24.5374 37.3524 24.915 37.7577L31.3363 44.179C32.2691 45.0318 33.0193 46.0649 33.5416 47.2158C34.0638 48.3668 34.3474 49.6116 34.375 50.8752V60.5002ZM24.75 60.5002H22V59.1252C21.7256 57.4029 20.9007 55.8157 19.6487 54.6015L15.5237 50.4765C15.2075 50.1465 12.375 47.2315 12.375 44.0002H15.125C15.3994 45.7226 16.2243 47.3097 17.4763 48.524L21.6012 52.649C21.9175 52.979 24.75 55.894 24.75 59.1252V60.5002Z" fill="#EA8529"/>
<path d="M15.125 44.0002H12.375V27.5002C12.375 26.4062 12.8096 25.357 13.5832 24.5834C14.3568 23.8098 15.406 23.3752 16.5 23.3752C17.594 23.3752 18.6432 23.8098 19.4168 24.5834C20.1904 25.357 20.625 26.4062 20.625 27.5002V41.2502H17.875V27.5002C17.875 27.1355 17.7301 26.7858 17.4723 26.5279C17.2144 26.2701 16.8647 26.1252 16.5 26.1252C16.1353 26.1252 15.7856 26.2701 15.5277 26.5279C15.2699 26.7858 15.125 27.1355 15.125 27.5002V44.0002ZM39.71 77.0002H16.5C16.1353 77.0002 15.7856 76.8553 15.5277 76.5975C15.2699 76.3396 15.125 75.9899 15.125 75.6252V66.0002C15.125 65.6355 15.2699 65.2858 15.5277 65.0279C15.7856 64.7701 16.1353 64.6252 16.5 64.6252H39.7375C40.1022 64.6252 40.4519 64.7701 40.7098 65.0279C40.9676 65.2858 41.1125 65.6355 41.1125 66.0002V75.6252C41.1125 75.8081 41.0761 75.9892 41.0053 76.1578C40.9345 76.3265 40.8307 76.4793 40.7001 76.6073C40.5695 76.7354 40.4146 76.8361 40.2446 76.9035C40.0746 76.971 39.8929 77.0039 39.71 77.0002ZM17.875 74.2502H38.3625V67.3752H17.875V74.2502ZM44 38.5002C43.3794 38.5065 42.7638 38.388 42.1898 38.1518C41.6159 37.9156 41.0952 37.5665 40.6587 37.1252L29.81 25.9465L29.7412 25.864C28.3746 24.729 27.3347 23.2507 26.7282 21.581C26.1217 19.9113 25.9704 18.1102 26.29 16.3627C26.6169 14.472 27.4945 12.7197 28.8129 11.3255C30.1312 9.93136 31.8317 8.95723 33.7013 8.5252C35.0921 8.22179 36.5333 8.23478 37.9184 8.56321C39.3036 8.89165 40.5972 9.52713 41.7038 10.4227C42.6184 11.1501 43.3959 12.0348 44 13.0352C44.5987 12.0151 45.3766 11.1115 46.2962 10.3677C47.4044 9.47012 48.7003 8.83348 50.088 8.505C51.4757 8.17652 52.9196 8.16463 54.3125 8.4702C56.182 8.90223 57.8825 9.87636 59.2009 11.2705C60.5192 12.6647 61.3968 14.417 61.7237 16.3077C62.0433 18.0552 61.8921 19.8563 61.2856 21.526C60.6791 23.1957 59.6391 24.674 58.2725 25.809L58.2038 25.8915L47.3413 37.1252C46.9048 37.5665 46.3841 37.9156 45.8102 38.1518C45.2362 38.388 44.6206 38.5065 44 38.5002ZM31.9963 24.1865L42.6388 35.1865C42.8189 35.3677 43.0332 35.5116 43.2691 35.6097C43.5051 35.7079 43.7582 35.7584 44.0137 35.7584C44.2693 35.7584 44.5224 35.7079 44.7584 35.6097C44.9943 35.5116 45.2086 35.3677 45.3887 35.1865L56.045 24.1865C56.1287 24.0536 56.2358 23.9371 56.3613 23.8427C57.4069 23.0252 58.2085 21.9367 58.6788 20.6955C59.1491 19.4543 59.2702 18.1079 59.0288 16.8027C58.8023 15.4472 58.1803 14.1889 57.2409 13.1859C56.3015 12.1828 55.0865 11.4798 53.7487 11.1652C52.7557 10.9439 51.7253 10.9528 50.7362 11.1911C49.7472 11.4295 48.8257 11.8909 48.0425 12.5402C47.2086 13.215 46.5363 14.0678 46.0747 15.0361C45.6132 16.0044 45.3741 17.0638 45.375 18.1365C45.375 18.5011 45.2301 18.8509 44.9723 19.1087C44.7144 19.3666 44.3647 19.5115 44 19.5115C43.6353 19.5115 43.2856 19.3666 43.0277 19.1087C42.7699 18.8509 42.625 18.5011 42.625 18.1365C42.6317 17.0602 42.3967 15.9962 41.9374 15.0229C41.4781 14.0496 40.8062 13.1918 39.9712 12.5127C39.1875 11.8643 38.2661 11.4034 37.2772 11.1652C36.2883 10.9269 35.2581 10.9175 34.265 11.1377C32.9272 11.4523 31.7123 12.1553 30.7729 13.1584C29.8334 14.1614 29.2114 15.4197 28.985 16.7752C28.7378 18.08 28.8533 19.4275 29.3188 20.6712C29.7842 21.9149 30.5819 23.0071 31.625 23.829C31.7702 23.9237 31.8961 24.045 31.9963 24.1865Z" fill="#EA8529"/>
</svg>
