<svg width="36" height="43" viewBox="0 0 36 43" fill="none" xmlns="http://www.w3.org/2000/svg">
<g opacity="0.5">
<path d="M8.84936 0.857422C8.36974 0.857422 7.95766 1.19795 7.86728 1.66898L7.75 2.28017L6.01544 12.0371C6.00517 12.0949 6 12.1534 6 12.2121V18.2693C6 18.318 6.03945 18.3574 6.08811 18.3574C6.13195 18.3574 6.16908 18.3897 6.17557 18.433C6.42457 20.0973 7.0123 21.693 7.90272 23.1215C8.48425 24.0545 9.18668 24.903 9.98974 25.6458C10.5692 26.1818 10.4687 27.1998 9.77941 27.5844C4.6886 30.4247 1.12953 35.7209 0.778533 41.8573C0.746995 42.4086 1.19772 42.8574 1.75 42.8574H3.24865C3.80146 42.8574 4.24568 42.4083 4.2845 41.8569C4.4081 40.1012 4.86239 38.3815 5.6266 36.7894C6.39542 35.1877 7.46119 33.75 8.76436 32.5511C9.05196 32.2865 9.5 32.4986 9.5 32.8894C9.5 33.0043 9.54248 33.1152 9.61928 33.2008L9.99175 33.6157L16.9918 40.6157L17.5592 41.1578C17.9457 41.5271 18.5543 41.5271 18.9408 41.1578L19.5082 40.6157L26.5082 33.6157L26.8807 33.2008C26.9575 33.1152 27 33.0043 27 32.8894C27 32.4986 27.448 32.2865 27.7356 32.5511C29.0388 33.75 30.1046 35.1877 30.8734 36.7894C31.6376 38.3815 32.0919 40.1012 32.2155 41.8569C32.2543 42.4083 32.6985 42.8574 33.2513 42.8574H34.75C35.3023 42.8574 35.753 42.4086 35.7215 41.8573C35.3704 35.7205 31.8109 30.4253 26.7194 27.5828C26.0304 27.1982 25.9302 26.1806 26.5096 25.6448C27.3128 24.902 28.0153 24.0535 28.597 23.1206C29.4874 21.6924 30.0752 20.0969 30.3244 18.433C30.3309 18.3897 30.368 18.3574 30.4119 18.3574C30.4605 18.3574 30.5 18.318 30.5 18.2693V12.2104C30.5 12.1517 30.4948 12.0931 30.4846 12.0353L28.75 2.28017L28.6327 1.66898C28.5423 1.19795 28.1303 0.857422 27.6506 0.857422H8.84936ZM10.8312 5.18358C10.9155 4.70575 11.3307 4.35742 11.8159 4.35742H24.6841C25.1693 4.35742 25.5845 4.70575 25.6688 5.18358L26.9848 12.6379C26.9949 12.6953 27 12.7535 27 12.8118V13.8574C27 14.4097 26.5523 14.8574 26 14.8574H10.5C9.94771 14.8574 9.5 14.4097 9.5 13.8574V12.8118C9.5 12.7535 9.50509 12.6953 9.51523 12.6379L10.8312 5.18358ZM17.375 6.10742C16.8918 6.10742 16.5 6.49917 16.5 6.98242C16.5 7.46567 16.1082 7.85742 15.625 7.85742C15.1418 7.85742 14.75 8.24917 14.75 8.73242V10.4824C14.75 10.9657 15.1418 11.3574 15.625 11.3574C16.1082 11.3574 16.5 11.7492 16.5 12.2324C16.5 12.7157 16.8918 13.1074 17.375 13.1074H19.125C19.6082 13.1074 20 12.7157 20 12.2324C20 11.7492 20.3918 11.3574 20.875 11.3574C21.3582 11.3574 21.75 10.9657 21.75 10.4824V8.73242C21.75 8.24917 21.3582 7.85742 20.875 7.85742C20.3918 7.85742 20 7.46567 20 6.98242C20 6.49917 19.6082 6.10742 19.125 6.10742H17.375ZM9.99274 19.5366C9.78084 18.9404 10.2567 18.3574 10.8894 18.3574H25.6106C26.2433 18.3574 26.7192 18.9404 26.5073 19.5366C25.9738 21.0375 25.0377 22.3723 23.7912 23.3886C22.2265 24.6644 20.2689 25.3599 18.25 25.3574C16.2311 25.3599 14.2735 24.6644 12.7088 23.3886C11.4623 22.3723 10.5262 21.0375 9.99274 19.5366ZM18.25 28.8574C19.8199 28.8492 21.3784 29.1034 22.8616 29.6081C23.2502 29.7403 23.5 30.1124 23.5 30.5228V31.1785C23.5 31.4437 23.3946 31.698 23.2071 31.8856L18.9571 36.1356C18.5666 36.5261 17.9334 36.5261 17.5429 36.1356L13.2929 31.8856C13.1054 31.698 13 31.4437 13 31.1785V30.5228C13 30.1124 13.2498 29.7403 13.6384 29.6081C15.1216 29.1034 16.6801 28.8492 18.25 28.8574Z" fill="white"/>
</g>
</svg>
