<svg width="60" height="36" viewBox="0 0 60 36" fill="none" xmlns="http://www.w3.org/2000/svg">
<path opacity="0.5" d="M13.4 35.8574C11.3 35.8574 9.46667 35.6074 7.9 35.1074C6.33333 34.5741 5.01667 33.8741 3.95 33.0074C2.88333 32.1408 2.06667 31.1908 1.5 30.1574C0.966667 29.1241 0.683333 28.0574 0.65 26.9574C0.65 26.6574 0.75 26.4241 0.95 26.2574C1.15 26.0908 1.4 26.0074 1.7 26.0074H4.15C4.45 26.0074 4.71667 26.0741 4.95 26.2074C5.18333 26.3408 5.38333 26.6241 5.55 27.0574C5.88333 28.2574 6.45 29.1908 7.25 29.8574C8.08333 30.5241 9.03333 30.9908 10.1 31.2574C11.2 31.4908 12.3 31.6074 13.4 31.6074C15.7 31.6074 17.5667 31.0574 19 29.9574C20.4333 28.8574 21.15 27.2408 21.15 25.1074C21.15 22.9408 20.5 21.3908 19.2 20.4574C17.9 19.5241 16.1 19.0574 13.8 19.0574H9.05C8.71667 19.0574 8.43333 18.9574 8.2 18.7574C8 18.5574 7.9 18.2741 7.9 17.9074V16.5574C7.9 16.2574 7.95 16.0074 8.05 15.8074C8.18333 15.5741 8.31667 15.3741 8.45 15.2074L18.15 4.60742H3.4C3.06667 4.60742 2.78333 4.50742 2.55 4.30742C2.35 4.10742 2.25 3.82409 2.25 3.45742V1.55742C2.25 1.19075 2.35 0.90742 2.55 0.707421C2.78333 0.474087 3.06667 0.357419 3.4 0.357419H23.35C23.7167 0.357419 24 0.474087 24.2 0.707421C24.4333 0.90742 24.55 1.19075 24.55 1.55742V3.35742C24.55 3.59075 24.4833 3.80742 24.35 4.00742C24.25 4.17409 24.1333 4.34075 24 4.50742L14.35 15.2574L15.15 15.3074C17.35 15.3741 19.2667 15.7741 20.9 16.5074C22.5667 17.2408 23.85 18.3408 24.75 19.8074C25.6833 21.2408 26.15 23.0574 26.15 25.2574C26.15 27.4908 25.6 29.4074 24.5 31.0074C23.4 32.5741 21.8833 33.7741 19.95 34.6074C18.0167 35.4408 15.8333 35.8574 13.4 35.8574ZM34.0293 35.3574C33.6626 35.3574 33.3793 35.2574 33.1793 35.0574C32.9793 34.8241 32.8793 34.5408 32.8793 34.2074V1.55742C32.8793 1.19075 32.9793 0.90742 33.1793 0.707421C33.3793 0.474087 33.6626 0.357419 34.0293 0.357419H45.3793C48.8126 0.357419 51.5793 0.874086 53.6793 1.90742C55.7793 2.94075 57.3126 4.47409 58.2793 6.50742C59.246 8.50742 59.746 10.9741 59.7793 13.9074C59.8126 15.4074 59.8293 16.7241 59.8293 17.8574C59.8293 18.9908 59.8126 20.2908 59.7793 21.7574C59.7126 24.8241 59.196 27.3741 58.2293 29.4074C57.296 31.4074 55.796 32.9074 53.7293 33.9074C51.696 34.8741 48.996 35.3574 45.6293 35.3574H34.0293ZM37.7793 31.1074H45.3793C47.6793 31.1074 49.5126 30.7908 50.8793 30.1574C52.246 29.5241 53.2293 28.5074 53.8293 27.1074C54.4626 25.7074 54.796 23.8574 54.8293 21.5574C54.896 20.5574 54.9293 19.6908 54.9293 18.9574C54.9293 18.1908 54.9293 17.4408 54.9293 16.7074C54.9293 15.9408 54.896 15.0741 54.8293 14.1074C54.7626 10.8741 53.996 8.49075 52.5293 6.95742C51.0626 5.39075 48.596 4.60742 45.1293 4.60742H37.7793V31.1074Z" fill="white"/>
</svg>
