<svg width="100" height="101" viewBox="0 0 100 101" fill="none" xmlns="http://www.w3.org/2000/svg">
<g filter="url(#filter0_b_2705_8987)">
<circle cx="50" cy="50.2859" r="50" fill="white" fill-opacity="0.3"/>
</g>
<path d="M57.7278 31.9526C57.7278 36.0855 54.3774 39.4359 50.2445 39.4359C46.1115 39.4359 42.7611 36.0855 42.7611 31.9526C42.7611 29.7817 43.3149 27.7681 44.3478 26.3223C45.3616 24.9033 46.8482 24.0055 48.853 24.0055C50.9114 24.0055 53.1503 24.953 54.8816 26.4678C56.6149 27.9846 57.7278 29.9683 57.7278 31.9526Z" stroke="white" stroke-opacity="0.8" stroke-width="1.7"/>
<path d="M56.2446 59.9527C56.2446 60.0194 56.2446 60.0861 56.2446 60.1527C53.9113 60.3527 52.178 62.2861 52.2446 64.6194C52.2446 65.2861 52.4446 65.9527 52.778 66.4861C52.0446 66.7527 51.1113 66.8861 50.1113 66.8861C49.0446 66.8861 48.178 66.7527 47.5113 66.4861C48.5113 65.0194 48.5113 63.0194 47.4446 61.4861C46.6446 60.4194 45.5113 59.7527 44.2446 59.6194V58.2861H56.2446V59.9527ZM69.0446 47.7527L57.578 41.7527C57.3113 41.6861 57.0446 41.6194 56.778 41.6194H44.2446C43.9113 41.6194 43.6446 41.6861 43.3113 41.7527L31.3113 48.4194C29.9113 48.9527 29.2446 50.4861 29.7113 51.8194C30.1113 52.9527 31.178 53.6194 32.2446 53.6194C32.578 53.6194 32.8446 53.5527 33.178 53.4861L41.578 49.0861C41.578 49.0861 41.578 60.0861 41.578 60.2861C41.4446 60.3527 36.1113 64.0861 36.1113 64.0861C34.978 64.8861 34.6446 66.4861 35.378 67.6861L40.0446 75.0194C40.8446 76.2861 42.5113 76.6194 43.7113 75.8194C44.9113 75.0194 45.3113 73.3527 44.5113 72.1527L42.2446 68.4861H43.7113C44.178 68.4861 44.6446 68.4194 45.1113 68.2861C46.3113 69.0861 47.9113 69.5527 50.0446 69.5527C52.0446 69.5527 53.6446 69.0861 54.9113 68.4194C55.4446 68.6861 56.1113 68.7527 56.778 68.7527L57.978 68.6861L55.578 72.0194C54.7113 73.2194 54.978 74.8861 56.178 75.7527C57.378 76.6194 59.0446 76.3527 59.9113 75.1527L65.2446 67.8194C65.3113 67.7527 65.378 67.6861 65.378 67.5527C66.1113 66.2861 65.6446 64.6194 64.378 63.8861L58.9113 60.8194C58.9113 60.5527 58.9113 48.8194 58.9113 48.8194L67.4446 52.8861C67.7113 52.9527 67.978 53.0194 68.2446 53.0194C69.378 53.0194 70.4446 52.2861 70.778 51.1527C71.2446 49.6861 70.4446 48.2194 69.0446 47.7527Z" stroke="white" stroke-opacity="0.8" stroke-width="1.7" stroke-linejoin="round"/>
<defs>
<filter id="filter0_b_2705_8987" x="-18" y="-17.7141" width="136" height="136" filterUnits="userSpaceOnUse" color-interpolation-filters="sRGB">
<feFlood flood-opacity="0" result="BackgroundImageFix"/>
<feGaussianBlur in="BackgroundImageFix" stdDeviation="9"/>
<feComposite in2="SourceAlpha" operator="in" result="effect1_backgroundBlur_2705_8987"/>
<feBlend mode="normal" in="SourceGraphic" in2="effect1_backgroundBlur_2705_8987" result="shape"/>
</filter>
</defs>
</svg>
