<svg width="131" height="129" viewBox="0 0 131 129" fill="none" xmlns="http://www.w3.org/2000/svg">
<circle cx="66.162" cy="64.2294" r="64.2294" fill="#FEF9F4"/>
<path d="M33.5953 103.532H39.8253C40.3482 103.531 40.8649 103.419 41.3416 103.204C41.8183 102.99 42.2443 102.677 42.5918 102.286H73.8439C75.6721 102.286 77.4652 101.784 79.0266 100.833L102.385 86.6144C102.939 86.2764 103.418 85.8263 103.788 85.2928C104.159 84.7593 104.414 84.1543 104.537 83.5164C104.66 82.8983 104.655 82.2615 104.521 81.6457C104.386 81.0299 104.127 80.4484 103.758 79.9376C103.735 79.9008 103.711 79.8653 103.686 79.831C103.1 79.0476 102.281 78.4689 101.347 78.1771C100.414 77.8853 99.4114 77.8953 98.4835 78.2057L75.4182 85.8945C75.0364 86.0213 74.6368 86.086 74.2345 86.0862H73.5187C73.8111 85.2853 73.9213 84.4292 73.841 83.5804C73.7608 82.7316 73.4922 81.9113 73.0549 81.1794L72.9432 80.9935C72.2757 79.8891 71.3353 78.975 70.2123 78.3393C69.0893 77.7036 67.8216 77.3677 66.5311 77.3639H60.014C57.7152 77.3611 55.4854 76.5789 53.6887 75.145C51.449 73.3583 48.67 72.3835 45.805 72.3795H43.3339C43.0779 71.6528 42.6032 71.0231 41.975 70.5769C41.3468 70.1307 40.5959 69.8898 39.8253 69.8875H33.5953C31.5315 69.8898 29.859 71.5622 29.8567 73.626V99.7939C29.859 101.858 31.5315 103.53 33.5953 103.532ZM52.1309 77.0912C54.37 78.8779 57.1488 79.8526 60.0134 79.8561H66.5306C67.3907 79.8584 68.2358 80.0822 68.9844 80.5059C69.733 80.9296 70.3599 81.5389 70.8048 82.2752L70.917 82.4611C71.2496 83.0156 71.4095 83.6565 71.3765 84.3022C71.3434 84.9479 71.1189 85.5691 70.7316 86.0868H63.1582C60.6977 86.0849 58.292 86.8134 56.2459 88.1801L55.3332 88.7887C55.0583 88.9721 54.8674 89.2572 54.8026 89.5812C54.7378 89.9053 54.8044 90.2419 54.9878 90.5169C55.1712 90.7918 55.4562 90.9827 55.7803 91.0475C56.1044 91.1123 56.441 91.0456 56.716 90.8623L57.6286 90.2536C59.2653 89.16 61.1898 88.5771 63.1582 88.5787H74.2339C74.9042 88.5787 75.5699 88.4711 76.2053 88.2594L99.2718 80.5713C99.6842 80.4293 100.13 80.416 100.55 80.5331C100.97 80.6503 101.345 80.8924 101.624 81.2273C101.646 81.2638 101.67 81.2986 101.696 81.3335C101.877 81.5754 102.006 81.8525 102.074 82.1471C102.142 82.4417 102.147 82.7473 102.09 83.0442C102.033 83.341 101.915 83.6226 101.742 83.8709C101.57 84.1193 101.348 84.3288 101.09 84.4862L77.7318 98.7042C76.5601 99.4167 75.2152 99.7935 73.8439 99.7936H43.5638V74.8719H45.805C48.104 74.8749 50.334 75.6573 52.1309 77.0914V77.0912ZM32.3488 73.626C32.3491 73.2955 32.4805 72.9787 32.7142 72.745C32.9479 72.5113 33.2648 72.3799 33.5953 72.3795H39.8253C40.1558 72.3799 40.4726 72.5113 40.7063 72.745C40.9399 72.9786 41.0713 73.2954 41.0717 73.6259V99.7939C41.0711 100.482 40.5133 101.039 39.8253 101.04H33.5953C32.9073 101.039 32.3494 100.482 32.3488 99.7939V73.626Z" fill="#EA8529"/>
<path d="M33.5953 103.532H39.8253C40.3482 103.531 40.8649 103.419 41.3416 103.204C41.8183 102.99 42.2443 102.677 42.5918 102.286H73.8439C75.6721 102.286 77.4652 101.784 79.0266 100.833L102.385 86.6144C102.939 86.2764 103.418 85.8263 103.788 85.2928C104.159 84.7593 104.414 84.1543 104.537 83.5164C104.66 82.8983 104.655 82.2615 104.521 81.6457C104.386 81.0299 104.127 80.4484 103.758 79.9376C103.735 79.9008 103.711 79.8653 103.686 79.831C103.1 79.0476 102.281 78.4689 101.347 78.1771C100.414 77.8853 99.4114 77.8953 98.4835 78.2057L75.4182 85.8945C75.0364 86.0213 74.6368 86.086 74.2345 86.0862H73.5187C73.8111 85.2853 73.9213 84.4292 73.841 83.5804C73.7608 82.7316 73.4922 81.9113 73.0549 81.1794L72.9432 80.9935C72.2757 79.8891 71.3353 78.975 70.2123 78.3393C69.0893 77.7036 67.8216 77.3677 66.5311 77.3639H60.014C57.7152 77.3611 55.4854 76.5789 53.6887 75.145C51.449 73.3583 48.67 72.3835 45.805 72.3795H43.3339C43.0779 71.6528 42.6032 71.0231 41.975 70.5769C41.3468 70.1307 40.5959 69.8898 39.8253 69.8875H33.5953C31.5315 69.8898 29.859 71.5622 29.8567 73.626V99.7939C29.859 101.858 31.5315 103.53 33.5953 103.532ZM52.1309 77.0912C54.37 78.8779 57.1488 79.8526 60.0134 79.8561H66.5306C67.3907 79.8584 68.2358 80.0822 68.9844 80.5059C69.733 80.9296 70.3599 81.5389 70.8048 82.2752L70.917 82.4611C71.2496 83.0156 71.4095 83.6565 71.3765 84.3022C71.3434 84.9479 71.1189 85.5691 70.7316 86.0868H63.1582C60.6977 86.0849 58.292 86.8134 56.2459 88.1801L55.3332 88.7887C55.0583 88.9721 54.8674 89.2572 54.8026 89.5812C54.7378 89.9053 54.8044 90.2419 54.9878 90.5169C55.1712 90.7918 55.4562 90.9827 55.7803 91.0475C56.1044 91.1123 56.441 91.0456 56.716 90.8623L57.6286 90.2536C59.2653 89.16 61.1898 88.5771 63.1582 88.5787H74.2339C74.9042 88.5787 75.5699 88.4711 76.2053 88.2594L99.2718 80.5713C99.6842 80.4293 100.13 80.416 100.55 80.5331C100.97 80.6503 101.345 80.8924 101.624 81.2273C101.646 81.2638 101.67 81.2986 101.696 81.3335C101.877 81.5754 102.006 81.8525 102.074 82.1471C102.142 82.4417 102.147 82.7473 102.09 83.0442C102.033 83.341 101.915 83.6226 101.742 83.8709C101.57 84.1193 101.348 84.3288 101.09 84.4862L77.7318 98.7042C76.5601 99.4167 75.2152 99.7935 73.8439 99.7936H43.5638V74.8719H45.805C48.104 74.8749 50.334 75.6573 52.1309 77.0914V77.0912ZM32.3488 73.626C32.3491 73.2955 32.4805 72.9787 32.7142 72.745C32.9479 72.5113 33.2648 72.3799 33.5953 72.3795H39.8253C40.1558 72.3799 40.4726 72.5113 40.7063 72.745C40.9399 72.9786 41.0713 73.2954 41.0717 73.6259V99.7939C41.0711 100.482 40.5133 101.039 39.8253 101.04H33.5953C32.9073 101.039 32.3494 100.482 32.3488 99.7939V73.626Z" stroke="#EA8529" stroke-width="0.664286"/>
<path d="M33.5953 103.532H39.8253C40.3482 103.531 40.8649 103.419 41.3416 103.204C41.8183 102.99 42.2443 102.677 42.5918 102.286H73.8439C75.6721 102.286 77.4652 101.784 79.0266 100.833L102.385 86.6144C102.939 86.2764 103.418 85.8263 103.788 85.2928C104.159 84.7593 104.414 84.1543 104.537 83.5164C104.66 82.8983 104.655 82.2615 104.521 81.6457C104.386 81.0299 104.127 80.4484 103.758 79.9376C103.735 79.9008 103.711 79.8653 103.686 79.831C103.1 79.0476 102.281 78.4689 101.347 78.1771C100.414 77.8853 99.4114 77.8953 98.4835 78.2057L75.4182 85.8945C75.0364 86.0213 74.6368 86.086 74.2345 86.0862H73.5187C73.8111 85.2853 73.9213 84.4292 73.841 83.5804C73.7608 82.7316 73.4922 81.9113 73.0549 81.1794L72.9432 80.9935C72.2757 79.8891 71.3353 78.975 70.2123 78.3393C69.0893 77.7036 67.8216 77.3677 66.5311 77.3639H60.014C57.7152 77.3611 55.4854 76.5789 53.6887 75.145C51.449 73.3583 48.67 72.3835 45.805 72.3795H43.3339C43.0779 71.6528 42.6032 71.0231 41.975 70.5769C41.3468 70.1307 40.5959 69.8898 39.8253 69.8875H33.5953C31.5315 69.8898 29.859 71.5622 29.8567 73.626V99.7939C29.859 101.858 31.5315 103.53 33.5953 103.532ZM52.1309 77.0912C54.37 78.8779 57.1488 79.8526 60.0134 79.8561H66.5306C67.3907 79.8584 68.2358 80.0822 68.9844 80.5059C69.733 80.9296 70.3599 81.5389 70.8048 82.2752L70.917 82.4611C71.2496 83.0156 71.4095 83.6565 71.3765 84.3022C71.3434 84.9479 71.1189 85.5691 70.7316 86.0868H63.1582C60.6977 86.0849 58.292 86.8134 56.2459 88.1801L55.3332 88.7887C55.0583 88.9721 54.8674 89.2572 54.8026 89.5812C54.7378 89.9053 54.8044 90.2419 54.9878 90.5169C55.1712 90.7918 55.4562 90.9827 55.7803 91.0475C56.1044 91.1123 56.441 91.0456 56.716 90.8623L57.6286 90.2536C59.2653 89.16 61.1898 88.5771 63.1582 88.5787H74.2339C74.9042 88.5787 75.5699 88.4711 76.2053 88.2594L99.2718 80.5713C99.6842 80.4293 100.13 80.416 100.55 80.5331C100.97 80.6503 101.345 80.8924 101.624 81.2273C101.646 81.2638 101.67 81.2986 101.696 81.3335C101.877 81.5754 102.006 81.8525 102.074 82.1471C102.142 82.4417 102.147 82.7473 102.09 83.0442C102.033 83.341 101.915 83.6226 101.742 83.8709C101.57 84.1193 101.348 84.3288 101.09 84.4862L77.7318 98.7042C76.5601 99.4167 75.2152 99.7935 73.8439 99.7936H43.5638V74.8719H45.805C48.104 74.8749 50.334 75.6573 52.1309 77.0914V77.0912ZM32.3488 73.626C32.3491 73.2955 32.4805 72.9787 32.7142 72.745C32.9479 72.5113 33.2648 72.3799 33.5953 72.3795H39.8253C40.1558 72.3799 40.4726 72.5113 40.7063 72.745C40.9399 72.9786 41.0713 73.2954 41.0717 73.6259V99.7939C41.0711 100.482 40.5133 101.039 39.8253 101.04H33.5953C32.9073 101.039 32.3494 100.482 32.3488 99.7939V73.626Z" stroke="#FEF9F4" stroke-width="0.664286"/>
<path d="M100.685 39.5199L101.588 39.4917L100.685 39.5199ZM73.7491 50.6913L73.5243 51.5663C73.726 51.6181 73.9395 51.5987 74.1285 51.5112L73.7491 50.6913ZM66.7658 40.7029L67.5215 40.2078L66.7658 40.7029ZM57.1726 28.702C56.8069 29.0415 56.7858 29.6131 57.1253 29.9788C57.4647 30.3444 58.0364 30.3656 58.402 30.0261L57.1726 28.702ZM79.5647 24.1578C80.0547 24.2518 80.5281 23.9307 80.6221 23.4407C80.716 22.9506 80.3949 22.4772 79.9049 22.3833L79.5647 24.1578ZM74.4542 42.2768C73.9553 42.2768 73.5508 42.6813 73.5508 43.1802C73.5508 43.6792 73.9553 44.0837 74.4542 44.0837V42.2768ZM77.0718 44.0837C77.5707 44.0837 77.9752 43.6792 77.9752 43.1802C77.9752 42.6813 77.5707 42.2768 77.0718 42.2768V44.0837ZM90.7085 49.7879C90.2096 49.7879 89.8051 50.1923 89.8051 50.6913C89.8051 51.1902 90.2096 51.5947 90.7085 51.5947V49.7879ZM91.7362 51.5947C92.2351 51.5947 92.6396 51.1902 92.6396 50.6913C92.6396 50.1923 92.2351 49.7879 91.7362 49.7879V51.5947ZM70.1548 53.8503C70.1915 53.3527 69.8179 52.9196 69.3203 52.8829C68.8227 52.8462 68.3896 53.2198 68.3529 53.7174L70.1548 53.8503ZM72.7515 67.9563L72.2436 68.7034L72.7515 67.9563ZM65.4091 64.8005C65.8357 64.5417 65.9717 63.9861 65.7129 63.5595C65.4542 63.1329 64.8986 62.9968 64.472 63.2556L65.4091 64.8005ZM58.7849 64.9095L58.4825 65.7608L58.7849 64.9095ZM63.1693 47.0956L63.9249 46.6003L63.913 46.5822L63.9003 46.5647L63.1693 47.0956ZM52.5667 37.7846C52.1356 37.5335 51.5825 37.6795 51.3314 38.1106C51.0803 38.5418 51.2263 39.0949 51.6575 39.346L52.5667 37.7846ZM50.9127 33.679L50.7213 34.5619L50.9127 33.679ZM91.7218 58.6324L92.4217 59.2037L91.7218 58.6324ZM90.0224 58.4132L90.8365 58.0214L90.0224 58.4132ZM92.4217 59.2037C93.7293 57.6017 96.062 54.5621 98.0439 51.0068C100.011 47.4787 101.707 43.3127 101.588 39.4917L99.7817 39.5481C99.8853 42.8646 98.3908 46.6738 96.4658 50.127C94.5558 53.553 92.2956 56.5008 91.022 58.0611L92.4217 59.2037ZM101.588 39.4917C101.218 27.6762 90.3881 19.223 78.7748 16.9729C67.1028 14.7114 54.1028 18.6049 49.3187 32.031L51.0207 32.6375C55.4067 20.3285 67.3135 16.5927 78.4311 18.7467C89.6074 20.9122 99.4495 28.9193 99.7817 39.5481L101.588 39.4917ZM73.974 49.8163C72.1532 49.3484 71.1636 48.0633 70.3098 46.2505C69.8744 45.3259 69.5132 44.3528 69.0755 43.2938C68.6493 42.2626 68.1654 41.1907 67.5215 40.2078L66.0101 41.198C66.5582 42.0346 66.9902 42.9789 67.4057 43.984C67.8096 44.9613 68.2158 46.0448 68.6752 47.0203C69.6111 49.0077 70.9212 50.8973 73.5243 51.5663L73.974 49.8163ZM67.5215 40.2078C65.4971 37.1177 63.0582 35.6202 60.2602 34.7195C58.8829 34.2761 57.4209 33.9778 55.9043 33.7003C54.3724 33.42 52.7942 33.1624 51.1041 32.7961L50.7213 34.5619C52.4497 34.9365 54.0892 35.205 55.5791 35.4776C57.0843 35.753 58.4484 36.0344 59.7065 36.4394C62.1792 37.2354 64.2484 38.5088 66.0101 41.198L67.5215 40.2078ZM58.402 30.0261C61.9191 26.7605 64.7715 24.8663 67.9127 23.9854C71.0576 23.1035 74.6021 23.2063 79.5647 24.1578L79.9049 22.3833C74.8318 21.4106 70.9641 21.2532 67.4249 22.2457C63.8821 23.2392 60.7785 25.3539 57.1726 28.702L58.402 30.0261ZM74.4542 44.0837H77.0718V42.2768H74.4542V44.0837ZM90.7085 51.5947H91.7362V49.7879H90.7085V51.5947ZM68.3529 53.7174C68.1051 57.0782 67.7219 59.9415 68.0584 62.326C68.4141 64.8462 69.5638 66.8816 72.2436 68.7034L73.2594 67.2092C70.9831 65.6616 70.1291 64.0683 69.8476 62.0735C69.5468 59.9429 69.8928 57.4047 70.1548 53.8503L68.3529 53.7174ZM90.8365 58.0214C90.6424 57.6182 90.4443 57.2082 90.2412 56.7976L88.6217 57.5989C88.8203 58.0001 89.0148 58.4027 89.2084 58.805L90.8365 58.0214ZM90.2412 56.7976C88.8919 54.0708 87.2359 51.1256 84.5902 49.4861C81.85 47.7881 78.2673 47.6051 73.3697 49.8714L74.1285 51.5112C78.6704 49.4095 81.5746 49.743 83.6385 51.022C85.797 52.3596 87.2624 54.8518 88.6217 57.5989L90.2412 56.7976ZM72.2436 68.7034C72.7424 69.0425 73.346 69.0912 73.8839 69.0402C74.4374 68.9878 75.0512 68.8179 75.69 68.5754C76.9714 68.0891 78.5021 67.2532 80.1208 66.1991C83.3646 64.0867 87.0921 61.0119 90.0903 57.8164L88.7726 56.5801C85.8745 59.669 82.2586 62.6507 79.1348 64.685C77.5697 65.7043 76.1606 66.4642 75.0489 66.8861C74.4912 67.0978 74.0452 67.21 73.7134 67.2415C73.366 67.2744 73.2589 67.2088 73.2594 67.2092L72.2436 68.7034ZM64.9405 64.028C64.472 63.2556 64.4722 63.2555 64.4724 63.2553C64.4725 63.2553 64.4727 63.2552 64.4728 63.2551C64.4731 63.255 64.4732 63.2548 64.4734 63.2548C64.4737 63.2546 64.4737 63.2545 64.4736 63.2546C64.4735 63.2547 64.4725 63.2553 64.4708 63.2563C64.4675 63.2583 64.4612 63.262 64.4521 63.2672C64.4338 63.2778 64.4043 63.2946 64.3643 63.3164C64.2842 63.3602 64.1628 63.424 64.0064 63.4987C63.6926 63.6486 63.2447 63.839 62.7141 63.9989C61.6353 64.324 60.3134 64.4938 59.0873 64.0582L58.4825 65.7608C60.2221 66.3788 61.978 66.1078 63.2355 65.7289C63.8731 65.5367 64.4081 65.3092 64.7851 65.1292C64.9741 65.0389 65.1251 64.9598 65.231 64.9018C65.2841 64.8728 65.3259 64.8491 65.3559 64.8318C65.3708 64.8232 65.3828 64.8161 65.3917 64.8108C65.3962 64.8082 65.3999 64.806 65.4027 64.8043C65.4042 64.8034 65.4054 64.8027 65.4065 64.802C65.407 64.8017 65.4075 64.8014 65.4079 64.8012C65.4081 64.801 65.4084 64.8009 65.4085 64.8008C65.4088 64.8006 65.4091 64.8005 64.9405 64.028ZM59.0873 64.0582C58.4274 63.8238 58.1118 63.5057 57.9513 63.1834C57.7795 62.8386 57.719 62.3551 57.8267 61.6862C58.0471 60.3172 58.9005 58.5709 59.9894 56.6672C61.0332 54.8423 62.3166 52.8385 63.1638 51.2021C63.5937 50.3718 63.9547 49.5584 64.1376 48.8272C64.3131 48.1255 64.3774 47.2908 63.9249 46.6003L62.4137 47.5908C62.4427 47.6351 62.5234 47.8344 62.3847 48.3888C62.2535 48.9136 61.9698 49.5784 61.5593 50.3713C60.7257 51.9814 59.5454 53.8043 58.421 55.7701C57.3415 57.6572 56.3219 59.6656 56.0428 61.399C55.9008 62.2813 55.9339 63.1859 56.3339 63.989C56.7452 64.8147 57.4795 65.4045 58.4825 65.7608L59.0873 64.0582ZM63.9003 46.5647C60.9025 42.4366 57.7271 40.7897 52.5667 37.7846L51.6575 39.346C56.9029 42.4007 59.7069 43.8652 62.4383 47.6264L63.9003 46.5647ZM49.3187 32.031C48.932 33.1161 49.5821 34.315 50.7213 34.5619L51.1041 32.7961C51.0748 32.7897 51.0486 32.7719 51.0302 32.7386C51.0115 32.7047 51.0093 32.6696 51.0207 32.6375L49.3187 32.031ZM91.022 58.0611C91.0026 58.0848 90.9871 58.0927 90.9778 58.0963C90.9666 58.1006 90.9519 58.1029 90.9344 58.1006C90.9168 58.0983 90.899 58.0915 90.8833 58.0803C90.8691 58.0702 90.8518 58.0531 90.8365 58.0214L89.2084 58.805C89.8089 60.0526 91.5081 60.3229 92.4217 59.2037L91.022 58.0611Z" fill="#EA8529"/>
</svg>
