<svg width="100" height="100" viewBox="0 0 100 100" fill="none" xmlns="http://www.w3.org/2000/svg">
<circle cx="50" cy="50" r="50" fill="#FEF9F4"/>
<mask id="mask0_2945_6975" style="mask-type:alpha" maskUnits="userSpaceOnUse" x="12" y="12" width="76" height="76">
<circle cx="50" cy="50" r="38" fill="#D9D9D9"/>
</mask>
<g mask="url(#mask0_2945_6975)">
</g>
<path d="M49.0227 31.9136C51.7247 31.9136 53.9151 29.7233 53.9151 27.0213C53.9151 24.3193 51.7247 22.1289 49.0227 22.1289C46.3208 22.1289 44.1304 24.3193 44.1304 27.0213C44.1304 29.7233 46.3208 31.9136 49.0227 31.9136Z" stroke="#EA8529" stroke-width="1.7" stroke-linejoin="round"/>
<path d="M61.4771 35.6608C63.5036 35.6608 65.1464 34.018 65.1464 31.9915C65.1464 29.9651 63.5036 28.3223 61.4771 28.3223C59.4507 28.3223 57.8079 29.9651 57.8079 31.9915C57.8079 34.018 59.4507 35.6608 61.4771 35.6608Z" stroke="#EA8529" stroke-width="1.7" stroke-linejoin="round"/>
<path d="M52.9977 51.9723C52.8142 51.9723 52.3861 52.0946 52.0803 52.0946C49.6953 52.0946 47.7995 50.1988 47.7995 47.8138C47.7995 45.8569 49.0838 44.1445 50.9796 43.6553C51.1019 43.5942 53.6092 42.7991 54.6488 38.2737C54.9546 36.9895 55.8108 35.9498 56.9727 35.3994C55.8108 34.6656 54.5265 34.054 53.0588 33.626C51.7746 33.3813 50.4292 33.1367 49.0226 33.1367C47.6772 33.1367 46.3318 33.3813 44.9864 33.7483C43.0295 34.2375 41.3171 35.216 39.8494 36.4391C39.4825 36.806 39.2379 37.2952 39.1156 37.7845L35.6909 52.3393C35.6909 52.4616 35.5686 52.7062 35.5686 52.9508C35.5686 54.2962 36.6694 55.397 38.0148 55.397C39.1156 55.397 40.094 54.5408 40.3387 53.5623L42.9072 42.9215V77.168H47.7995V55.1524H50.2457V77.168H55.1381V51.1773C53.915 51.7889 53.12 51.9723 52.9977 51.9723Z" stroke="#EA8529" stroke-width="1.7" stroke-linejoin="round"/>
<path d="M62.2709 50.3465C63.0706 49.5531 63.044 48.2296 62.2114 47.3904C61.3789 46.5512 60.0556 46.5141 59.2559 47.3075C58.4562 48.1009 58.4828 49.4244 59.3154 50.2636C60.1479 51.1028 61.4712 51.1399 62.2709 50.3465Z" stroke="#EA8529" stroke-width="1.7" stroke-linejoin="round"/>
<path d="M57.0335 45.0184C57.6787 44.4022 58.5389 44.0427 59.399 44.0427C59.8291 44.0427 60.2055 44.1454 60.5818 44.2995C61.1194 43.3237 61.5495 42.1425 61.8721 40.756C62.1947 39.3694 61.2807 37.9828 59.8291 37.6746C58.3776 37.3665 56.926 38.2396 56.6034 39.6261C55.5282 44.0427 52.7863 44.8644 52.625 44.9157H52.6788C51.496 45.1725 50.582 46.1996 50.582 47.4321C50.582 48.8701 51.7648 49.9999 53.2701 49.9999C53.4852 49.9999 53.8615 49.9485 53.8615 49.9485C53.9691 49.9485 55.0443 49.6918 56.4421 48.8187C55.6894 47.6889 55.8507 46.0969 57.0335 45.0184Z" stroke="#EA8529" stroke-width="1.7" stroke-linejoin="round"/>
</svg>
