<svg width="145" height="146" viewBox="0 0 145 146" fill="none" xmlns="http://www.w3.org/2000/svg">
<g filter="url(#filter0_d_3010_7588)">
<circle cx="72.5" cy="73" r="58.5" fill="#FEF9F4"/>
<circle cx="72.5" cy="73" r="57.5" stroke="white" stroke-opacity="0.3" stroke-width="2"/>
</g>
<path d="M80.7278 54.1667C80.7278 58.2996 77.3774 61.65 73.2445 61.65C69.1115 61.65 65.7611 58.2996 65.7611 54.1667C65.7611 51.9958 66.3149 49.9822 67.3478 48.5364C68.3616 47.1174 69.8482 46.2196 71.853 46.2196C73.9114 46.2196 76.1503 47.1671 77.8816 48.682C79.6149 50.1987 80.7278 52.1824 80.7278 54.1667Z" stroke="#EA8529" stroke-width="1.7"/>
<path d="M79.2446 82.1668C79.2446 82.2335 79.2446 82.3002 79.2446 82.3668C76.9113 82.5668 75.178 84.5002 75.2446 86.8335C75.2446 87.5002 75.4446 88.1668 75.778 88.7002C75.0446 88.9668 74.1113 89.1002 73.1113 89.1002C72.0446 89.1002 71.178 88.9668 70.5113 88.7002C71.5113 87.2335 71.5113 85.2335 70.4446 83.7002C69.6446 82.6335 68.5113 81.9668 67.2446 81.8335V80.5002H79.2446V82.1668ZM92.0446 69.9668L80.578 63.9668C80.3113 63.9002 80.0446 63.8335 79.778 63.8335H67.2446C66.9113 63.8335 66.6446 63.9002 66.3113 63.9668L54.3113 70.6335C52.9113 71.1668 52.2446 72.7002 52.7113 74.0335C53.1113 75.1668 54.178 75.8335 55.2446 75.8335C55.578 75.8335 55.8446 75.7668 56.178 75.7002L64.578 71.3002C64.578 71.3002 64.578 82.3002 64.578 82.5002C64.4446 82.5668 59.1113 86.3002 59.1113 86.3002C57.978 87.1002 57.6446 88.7002 58.378 89.9002L63.0446 97.2335C63.8446 98.5002 65.5113 98.8335 66.7113 98.0335C67.9113 97.2335 68.3113 95.5668 67.5113 94.3668L65.2446 90.7002H66.7113C67.178 90.7002 67.6446 90.6335 68.1113 90.5002C69.3113 91.3002 70.9113 91.7668 73.0446 91.7668C75.0446 91.7668 76.6446 91.3002 77.9113 90.6335C78.4446 90.9002 79.1113 90.9668 79.778 90.9668L80.978 90.9002L78.578 94.2335C77.7113 95.4335 77.978 97.1002 79.178 97.9668C80.378 98.8335 82.0446 98.5668 82.9113 97.3668L88.2446 90.0335C88.3113 89.9668 88.378 89.9002 88.378 89.7668C89.1113 88.5002 88.6446 86.8335 87.378 86.1002L81.9113 83.0335C81.9113 82.7668 81.9113 71.0335 81.9113 71.0335L90.4446 75.1002C90.7113 75.1668 90.978 75.2335 91.2446 75.2335C92.378 75.2335 93.4446 74.5002 93.778 73.3668C94.2446 71.9002 93.4446 70.4335 92.0446 69.9668Z" stroke="#EA8529" stroke-width="1.7" stroke-linejoin="round"/>
<defs>
<filter id="filter0_d_3010_7588" x="0" y="0.5" width="145" height="145" filterUnits="userSpaceOnUse" color-interpolation-filters="sRGB">
<feFlood flood-opacity="0" result="BackgroundImageFix"/>
<feColorMatrix in="SourceAlpha" type="matrix" values="0 0 0 0 0 0 0 0 0 0 0 0 0 0 0 0 0 0 127 0" result="hardAlpha"/>
<feOffset/>
<feGaussianBlur stdDeviation="7"/>
<feComposite in2="hardAlpha" operator="out"/>
<feColorMatrix type="matrix" values="0 0 0 0 0.705882 0 0 0 0 0.682353 0 0 0 0 0.654902 0 0 0 0.19 0"/>
<feBlend mode="normal" in2="BackgroundImageFix" result="effect1_dropShadow_3010_7588"/>
<feBlend mode="normal" in="SourceGraphic" in2="effect1_dropShadow_3010_7588" result="shape"/>
</filter>
</defs>
</svg>
