<svg width="49" height="49" viewBox="0 0 49 49" fill="none" xmlns="http://www.w3.org/2000/svg">
<g opacity="0.5">
<path d="M24.25 18.8574C28.116 18.8574 31.25 15.7234 31.25 11.8574C31.25 7.99143 28.116 4.85742 24.25 4.85742C20.384 4.85742 17.25 7.99143 17.25 11.8574C17.25 15.7234 20.384 18.8574 24.25 18.8574Z" stroke="white" stroke-width="4" stroke-linecap="round" stroke-linejoin="round"/>
<path d="M4.25 41.8574C4.25 33.0204 12.309 25.8574 22.25 25.8574M32.1 28.8574C29.974 28.8574 28.25 30.8664 28.25 33.3434C28.25 37.8304 32.8 41.9084 35.25 42.8574C37.7 41.9084 42.25 37.8304 42.25 33.3434C42.25 30.8674 40.526 28.8574 38.4 28.8574C37.098 28.8574 35.947 29.6104 35.25 30.7634C34.553 29.6104 33.402 28.8574 32.1 28.8574Z" stroke="white" stroke-width="4" stroke-linecap="round" stroke-linejoin="round"/>
</g>
</svg>
