<svg width="100" height="101" viewBox="0 0 100 101" fill="none" xmlns="http://www.w3.org/2000/svg">
<g filter="url(#filter0_b_2705_9043)">
<circle cx="50" cy="50.2859" r="50" fill="white" fill-opacity="0.3"/>
</g>
<path d="M69.3749 61.6192C71.9522 61.6192 74.0416 59.5299 74.0416 56.9526C74.0416 54.3752 71.9522 52.2859 69.3749 52.2859C66.7976 52.2859 64.7083 54.3752 64.7083 56.9526C64.7083 59.5299 66.7976 61.6192 69.3749 61.6192Z" stroke="white" stroke-opacity="0.8" stroke-width="1.7" stroke-linejoin="round"/>
<path d="M51.3749 37.6193C54.3204 37.6193 56.7082 35.2315 56.7082 32.286C56.7082 29.3405 54.3204 26.9526 51.3749 26.9526C48.4294 26.9526 46.0416 29.3405 46.0416 32.286C46.0416 35.2315 48.4294 37.6193 51.3749 37.6193Z" stroke="white" stroke-opacity="0.8" stroke-width="1.7" stroke-linejoin="round"/>
<path d="M46.8416 51.4861L51.4416 53.5527L48.9082 57.3527C48.7082 57.6861 48.5082 58.0861 48.4416 58.5527C48.2416 60.0861 49.3082 61.4194 50.7749 61.6194C50.9082 61.6194 60.7082 61.6194 60.7082 61.6194C62.1749 61.6194 63.3749 60.4194 63.3749 58.9527L62.7082 51.4861C62.6416 50.7527 61.9749 50.2194 61.2416 50.2861C60.5082 50.3527 59.9749 51.0194 60.0416 51.7527L60.5082 56.2861H54.2416L54.6416 53.0861C54.7082 52.5527 54.4416 51.9527 53.9082 51.7527L47.9082 49.0861C47.2416 48.8194 46.4416 49.0861 46.1749 49.7527C45.8416 50.4194 46.1749 51.2194 46.8416 51.4861Z" stroke="white" stroke-opacity="0.8" stroke-width="1.7" stroke-linejoin="round"/>
<path d="M74.558 64.3721H45.8913V63.7054H74.558V64.3721Z" stroke="white" stroke-opacity="0.8" stroke-width="1.7" stroke-linejoin="round"/>
<path d="M54.0416 48.9527C55.0416 48.9527 56.0416 48.3527 56.4416 47.4194C57.0416 46.086 56.4416 44.486 55.1083 43.886L47.3749 40.286L44.3749 33.686C42.9083 32.0194 40.3749 31.8194 38.7083 33.286L26.7083 43.686C25.7083 44.5527 25.1749 45.6194 25.3749 47.286L26.7083 58.5527L25.3749 71.3527C25.2416 72.8194 26.3083 74.1527 27.7749 74.286C27.8416 74.286 27.9749 74.286 28.0416 74.286C29.3749 74.286 30.5749 73.286 30.7083 71.886L32.0416 58.8194C32.0416 58.6194 32.0416 58.4194 32.0416 58.2194L31.7083 55.286L34.7083 60.286L34.0416 71.486C33.9749 72.9527 35.1083 74.2194 36.5749 74.286C36.6416 74.286 36.7083 74.286 36.7083 74.286C38.1083 74.286 39.3083 73.2194 39.3749 71.7527L40.0416 59.7527C40.0416 59.2194 39.9083 58.686 39.6416 58.2194L33.6416 48.2194L41.9083 41.086L42.9083 43.3527C43.1749 43.9527 43.6416 44.4194 44.2416 44.686L52.9083 48.686C53.3083 48.886 53.6416 48.9527 54.0416 48.9527Z" stroke="white" stroke-opacity="0.8" stroke-width="1.7" stroke-linejoin="round"/>
<defs>
<filter id="filter0_b_2705_9043" x="-18" y="-17.7141" width="136" height="136" filterUnits="userSpaceOnUse" color-interpolation-filters="sRGB">
<feFlood flood-opacity="0" result="BackgroundImageFix"/>
<feGaussianBlur in="BackgroundImageFix" stdDeviation="9"/>
<feComposite in2="SourceAlpha" operator="in" result="effect1_backgroundBlur_2705_9043"/>
<feBlend mode="normal" in="SourceGraphic" in2="effect1_backgroundBlur_2705_9043" result="shape"/>
</filter>
</defs>
</svg>
