<svg width="100" height="101" viewBox="0 0 100 101" fill="none" xmlns="http://www.w3.org/2000/svg">
<g filter="url(#filter0_b_2705_9022)">
<circle cx="50" cy="50.2859" r="50" fill="white" fill-opacity="0.3"/>
</g>
<path d="M49.0226 32.1998C51.7246 32.1998 53.915 30.0094 53.915 27.3074C53.915 24.6054 51.7246 22.415 49.0226 22.415C46.3206 22.415 44.1302 24.6054 44.1302 27.3074C44.1302 30.0094 46.3206 32.1998 49.0226 32.1998Z" stroke="white" stroke-opacity="0.8" stroke-width="1.7" stroke-linejoin="round"/>
<path d="M61.477 35.9472C63.5035 35.9472 65.1463 34.3044 65.1463 32.2779C65.1463 30.2514 63.5035 28.6086 61.477 28.6086C59.4505 28.6086 57.8077 30.2514 57.8077 32.2779C57.8077 34.3044 59.4505 35.9472 61.477 35.9472Z" stroke="white" stroke-opacity="0.8" stroke-width="1.7" stroke-linejoin="round"/>
<path d="M52.9976 52.2585C52.8141 52.2585 52.3861 52.3808 52.0803 52.3808C49.6953 52.3808 47.7995 50.485 47.7995 48.1C47.7995 46.143 49.0837 44.4307 50.9795 43.9414C51.1018 43.8803 53.6091 43.0853 54.6488 38.5598C54.9545 37.2756 55.8107 36.236 56.9726 35.6856C55.8107 34.9517 54.5265 34.3402 53.0588 33.9121C51.7745 33.6675 50.4291 33.4229 49.0226 33.4229C47.6771 33.4229 46.3317 33.6675 44.9863 34.0344C43.0294 34.5236 41.3171 35.5021 39.8494 36.7252C39.4824 37.0921 39.2378 37.5814 39.1155 38.0706L35.6909 52.6254C35.6909 52.7477 35.5685 52.9923 35.5685 53.2369C35.5685 54.5823 36.6693 55.6831 38.0147 55.6831C39.1155 55.6831 40.094 54.827 40.3386 53.8485L42.9071 43.2076V77.4541H47.7995V55.4385H50.2456V77.4541H55.138V51.4635C53.9149 52.075 53.1199 52.2585 52.9976 52.2585Z" stroke="white" stroke-opacity="0.8" stroke-width="1.7" stroke-linejoin="round"/>
<path d="M62.2707 50.6326C63.0705 49.8392 63.0438 48.5157 62.2113 47.6765C61.3787 46.8373 60.0555 46.8002 59.2557 47.5937C58.456 48.3871 58.4826 49.7106 59.3152 50.5498C60.1478 51.3889 61.471 51.426 62.2707 50.6326Z" stroke="white" stroke-opacity="0.8" stroke-width="1.7" stroke-linejoin="round"/>
<path d="M57.0334 45.3046C57.6785 44.6883 58.5387 44.3288 59.3989 44.3288C59.829 44.3288 60.2054 44.4315 60.5817 44.5856C61.1193 43.6099 61.5494 42.4287 61.872 41.0421C62.1946 39.6555 61.2806 38.2689 59.829 37.9608C58.3774 37.6527 56.9259 38.5257 56.6033 39.9123C55.528 44.3288 52.7862 45.1505 52.6249 45.2019H52.6786C51.4959 45.4586 50.5819 46.4857 50.5819 47.7183C50.5819 49.1562 51.7647 50.286 53.27 50.286C53.4851 50.286 53.8614 50.2347 53.8614 50.2347C53.9689 50.2347 55.0442 49.9779 56.442 49.1049C55.6893 47.975 55.8506 46.383 57.0334 45.3046Z" stroke="white" stroke-opacity="0.8" stroke-width="1.7" stroke-linejoin="round"/>
<defs>
<filter id="filter0_b_2705_9022" x="-18" y="-17.7141" width="136" height="136" filterUnits="userSpaceOnUse" color-interpolation-filters="sRGB">
<feFlood flood-opacity="0" result="BackgroundImageFix"/>
<feGaussianBlur in="BackgroundImageFix" stdDeviation="9"/>
<feComposite in2="SourceAlpha" operator="in" result="effect1_backgroundBlur_2705_9022"/>
<feBlend mode="normal" in="SourceGraphic" in2="effect1_backgroundBlur_2705_9022" result="shape"/>
</filter>
</defs>
</svg>
