<svg width="96" height="97" viewBox="0 0 96 97" fill="none" xmlns="http://www.w3.org/2000/svg">
<circle cx="48" cy="48.2861" r="48" fill="white"/>
<path d="M51.6038 36.5809C53.3373 36.5809 54.8563 37.5168 55.6819 38.9099C55.6303 38.9477 55.5793 38.9864 55.5288 39.026L56.0542 39.6943L56.8524 39.4021C56.8303 39.3419 56.8073 39.2821 56.7832 39.2228C57.455 38.8715 58.2057 38.6854 58.9723 38.6862L51.6038 36.5809ZM51.6038 36.5809C50.99 36.5802 50.3852 36.6994 49.8222 36.9286L51.6038 36.5809ZM25.425 47.6375C25.4717 47.4628 25.5524 47.2991 25.6624 47.1557L25.425 47.6375ZM25.425 47.6375C25.378 47.8121 25.366 47.9942 25.3896 48.1734C25.4133 48.3529 25.4721 48.5259 25.5628 48.6825C25.563 48.6828 25.5632 48.6832 25.5634 48.6835L37.4634 69.2884C40.5521 74.6366 46.3049 77.9576 52.4809 77.9576C62.0442 77.9576 69.823 70.1787 69.823 60.6156V46.0546C69.823 44.1341 68.2619 42.573 66.3414 42.573C64.4209 42.573 62.8598 44.1341 62.8598 46.0546V48.1599C62.8598 48.2137 62.8384 48.2652 62.8004 48.3032C62.7624 48.3412 62.7109 48.3626 62.6571 48.3626C62.6033 48.3626 62.5518 48.3412 62.5138 48.3032C62.4758 48.2652 62.4544 48.2137 62.4544 48.1599V43.423C62.4544 41.5025 60.8933 39.9414 58.9728 39.9414C57.0523 39.9414 55.4912 41.5025 55.4912 43.423V47.6336C55.4912 47.6873 55.4698 47.7389 55.4318 47.7769C55.3938 47.8149 55.3423 47.8362 55.2885 47.8362C55.2347 47.8362 55.1832 47.8149 55.1452 47.7769C55.1072 47.7389 55.0858 47.6873 55.0858 47.6336V41.3178C55.0858 39.3972 53.5247 37.8362 51.6042 37.8362C49.6837 37.8362 48.1226 39.3972 48.1226 41.3178V47.6336C48.1226 47.6873 48.1012 47.7389 48.0632 47.7769C48.0252 47.8149 47.9737 47.8362 47.9199 47.8362C47.8661 47.8362 47.8146 47.8149 47.7766 47.7769C47.7386 47.7389 47.7172 47.6873 47.7172 47.6336V28.1597C47.7172 26.2392 46.1561 24.6781 44.2356 24.6781C42.3151 24.6781 40.754 26.2392 40.754 28.1597V53.2731C40.754 54.081 40.2787 54.8263 39.5461 55.1671C38.5549 55.628 37.403 55.2642 36.8563 54.3174L33.6978 48.8468C32.9525 47.5558 31.7454 46.6295 30.3055 46.2437C29.8262 46.1153 29.338 46.0513 28.8519 46.0513C27.8811 46.0513 26.9247 46.3062 26.0663 46.8018M25.425 47.6375L26.0677 46.801C26.0672 46.8013 26.0667 46.8015 26.0663 46.8018M26.0663 46.8018C25.9097 46.892 25.7725 47.0123 25.6625 47.1557L26.0663 46.8018ZM66.3398 42.1678H66.3408C68.4834 42.1678 70.2278 43.9122 70.2278 46.0546V60.6156C70.2278 70.4007 62.2656 78.3629 52.4805 78.3629C46.1623 78.3629 40.2718 74.9625 37.112 69.4911L36.376 69.9162L37.112 69.4911L25.2113 48.8847L25.2102 48.8827C25.0929 48.6809 25.0168 48.4579 24.9863 48.2265C24.9559 47.9951 24.9716 47.76 25.0325 47.5348L25.0337 47.5304C25.0935 47.3049 25.1974 47.0934 25.3395 46.9082C25.4815 46.7231 25.6589 46.5679 25.8613 46.4518L25.8632 46.4507C28.7242 44.799 32.3969 45.7832 34.0485 48.6439L34.7846 48.2189L34.0485 48.6439L37.205 54.1111C37.2054 54.1117 37.2058 54.1124 37.2061 54.113C37.4157 54.4789 37.7553 54.7526 38.1574 54.8796C38.5603 55.0069 38.9963 54.9776 39.3785 54.7977L39.0164 54.0286L39.3767 54.7985C39.6665 54.6629 39.9118 54.4476 40.0838 54.1778L39.3671 53.7208L40.0838 54.1778C40.2559 53.908 40.3476 53.5948 40.3484 53.2749V53.2729V28.1597C40.3484 26.0172 42.0928 24.2729 44.2352 24.2729C46.3779 24.2729 48.1222 26.0172 48.1222 28.1597V37.3809V38.9757L49.4462 38.0865C50.0838 37.6583 50.8347 37.43 51.6028 37.4309H51.6038C53.2768 37.4309 54.7102 38.4951 55.2559 39.9864L55.6586 41.0866L56.5795 40.3625C57.2615 39.8263 58.104 39.5352 58.9714 39.5362H58.9723C60.7738 39.5362 62.2968 40.7704 62.7335 42.4402L63.0494 43.648L64.0574 42.9114C64.7198 42.4273 65.5193 42.1668 66.3398 42.1678ZM24.1436 48.3376C24.1888 48.6804 24.3015 49.0108 24.4752 49.3098L24.2121 47.3127C24.1217 47.6464 24.0985 47.9948 24.1436 48.3376Z" fill="#EA8529" stroke="#EA8529" stroke-width="1.7"/>
<path d="M36.6221 32.8669L36.6223 32.8668C36.6452 32.8533 36.6652 32.8355 36.6813 32.8142C36.6973 32.793 36.709 32.7688 36.7156 32.743C36.7223 32.7173 36.7238 32.6905 36.7201 32.6641C36.7164 32.6378 36.7076 32.6124 36.6941 32.5895L36.6941 32.5894C35.9064 31.2513 35.4909 29.7196 35.4909 28.1598C35.4909 23.3371 39.413 19.4149 44.2357 19.4149C49.0584 19.4149 52.9805 23.3371 52.9805 28.1598C52.9805 29.7254 52.5619 31.2624 51.7685 32.6043L51.0368 32.1717L51.7705 32.6009C51.7434 32.6472 51.7358 32.7022 51.7493 32.7541L50.9265 32.9675L51.7493 32.7541C51.7627 32.806 51.7962 32.8504 51.8423 32.8777C51.8884 32.905 51.9435 32.9129 51.9954 32.8997C52.0469 32.8866 52.0912 32.8538 52.1188 32.8083C52.9473 31.4063 53.3859 29.7988 53.3859 28.1598C53.3858 23.1151 49.2803 19.0097 44.2357 19.0097C39.191 19.0097 35.0856 23.1151 35.0856 28.1598C35.0856 29.7934 35.5214 31.3962 36.3447 32.7948L36.6221 32.8669ZM36.6221 32.8669C36.5262 32.9234 36.4018 32.8917 36.3448 32.795L36.6221 32.8669Z" fill="#EA8529" stroke="#EA8529" stroke-width="1.7"/>
</svg>
