<svg width="96" height="97" viewBox="0 0 96 97" fill="none" xmlns="http://www.w3.org/2000/svg">
<circle cx="48" cy="48.7861" r="48" fill="#FEF9F4"/>
<path d="M54.0948 49.3723C54.0948 53.4421 50.7955 56.7414 46.7257 56.7414C42.6559 56.7414 39.3567 53.4421 39.3567 49.3723C39.3567 45.3025 42.6559 42.0033 46.7257 42.0033C50.7955 42.0033 54.0948 45.3025 54.0948 49.3723Z" stroke="#EA8529" stroke-width="1.7"/>
<path d="M71.5804 46.2153L71.5803 46.2154L71.5852 46.2211C72.2358 46.994 72.5925 47.9717 72.5925 48.9819C72.5925 49.9912 72.2364 50.9681 71.587 51.7406C71.5864 51.7413 71.5858 51.742 71.5852 51.7427L59.9386 65.3817L59.9385 65.3816L59.9306 65.3912C58.7149 66.858 58.0595 68.7086 58.0809 70.6133V81.3984H35.2471V70.6082C35.2471 68.7226 34.5896 66.8961 33.3877 65.4432L33.3878 65.4432L33.3792 65.4331L21.8034 51.8749C21.1589 51.1038 20.8058 50.1308 20.8058 49.1257C20.8058 48.1194 21.1598 47.1451 21.8059 46.3735L21.8059 46.3736L21.8091 46.3697C22.1046 46.0126 22.4753 45.7252 22.8948 45.5281C23.3141 45.331 23.7716 45.229 24.2348 45.2292C24.6987 45.2307 25.1567 45.3337 25.5765 45.531C25.9966 45.7284 26.3684 46.0155 26.6656 46.3721L26.6742 46.3825L26.6832 46.3926L35.8094 56.6582C37.1504 58.2457 38.8182 59.5252 40.699 60.4091C42.5832 61.2947 44.6365 61.7624 46.7184 61.7803L46.7294 61.7804L46.7405 61.7802C48.8003 61.7443 50.8286 61.2679 52.689 60.3829C54.5461 59.4994 56.193 58.2293 57.5192 56.6577L66.7586 46.2377L66.7683 46.2267L66.7777 46.2153C67.07 45.8617 67.4368 45.577 67.852 45.3816C68.2671 45.1862 68.7202 45.0849 69.179 45.0849C69.6378 45.0849 70.091 45.1862 70.5061 45.3816C70.9212 45.577 71.288 45.8617 71.5804 46.2153Z" stroke="#EA8529" stroke-width="1.7"/>
<path d="M72.9394 31.5712H71.3196V29.9514C71.3196 28.6787 70.2879 27.647 69.0152 27.647C67.7426 27.647 66.7108 28.6787 66.7108 29.9514V31.5712H65.091C63.8184 31.5712 62.7866 32.6029 62.7866 33.8756C62.7866 35.1482 63.8184 36.18 65.091 36.18H66.7108V37.7998C66.7108 39.0724 67.7426 40.1042 69.0152 40.1042C70.2879 40.1042 71.3196 39.0724 71.3196 37.7998V36.18H72.9394C74.2121 36.18 75.2438 35.1482 75.2438 33.8756C75.2438 32.6029 74.2121 31.5712 72.9394 31.5712Z" stroke="#EA8529" stroke-width="1.7" stroke-miterlimit="10" stroke-linecap="round" stroke-linejoin="round"/>
<path d="M34.084 34.1036H32.4642V32.4839C32.4642 31.2112 31.4325 30.1794 30.1598 30.1794C28.8872 30.1794 27.8554 31.2112 27.8554 32.4839V34.1036H26.2356C24.963 34.1036 23.9312 35.1354 23.9312 36.4081C23.9312 37.6807 24.963 38.7125 26.2356 38.7125H27.8554V40.3322C27.8554 41.6049 28.8872 42.6367 30.1598 42.6367C31.4325 42.6367 32.4642 41.6049 32.4642 40.3322V38.7125H34.084C35.3567 38.7125 36.3884 37.6807 36.3884 36.4081C36.3884 35.1354 35.3567 34.1036 34.084 34.1036Z" stroke="#EA8529" stroke-width="1.7" stroke-miterlimit="10" stroke-linecap="round" stroke-linejoin="round"/>
<path d="M46.1967 20.048H47.8165C49.0892 20.048 50.1209 21.0797 50.1209 22.3524C50.1209 23.6251 49.0892 24.6568 47.8165 24.6568H46.1967V26.2766C46.1967 27.5492 45.165 28.581 43.8923 28.581C42.6196 28.581 41.5879 27.5492 41.5879 26.2766V24.6568H39.9681C38.6954 24.6568 37.6637 23.6251 37.6637 22.3524C37.6637 21.0797 38.6954 20.048 39.9681 20.048H41.5879V18.4282C41.5879 17.1555 42.6196 16.1238 43.8923 16.1238C45.165 16.1238 46.1967 17.1555 46.1967 18.4282V20.048Z" stroke="#EA8529" stroke-width="1.7" stroke-miterlimit="10" stroke-linecap="round" stroke-linejoin="round"/>
<path d="M23.9312 23.8562V28.581M26.2937 26.2187H21.5689" stroke="#EA8529" stroke-width="1.7" stroke-miterlimit="10" stroke-linecap="round"/>
<path d="M61.586 39.51V44.2348M63.9484 41.8725H59.2236" stroke="#EA8529" stroke-width="1.7" stroke-miterlimit="10" stroke-linecap="round"/>
<path d="M55.7202 25.2844V30.0092M58.0827 27.6469H53.3579" stroke="#EA8529" stroke-width="1.7" stroke-miterlimit="10" stroke-linecap="round"/>
</svg>
