<svg width="100" height="101" viewBox="0 0 100 101" fill="none" xmlns="http://www.w3.org/2000/svg">
<g filter="url(#filter0_b_2705_9004)">
<circle cx="50" cy="50.2859" r="50" fill="white" fill-opacity="0.3"/>
</g>
<path d="M66.102 49.4715C70.0496 49.4715 73.2497 46.2713 73.2497 42.3237C73.2497 38.3762 70.0496 35.176 66.102 35.176C62.1544 35.176 58.9543 38.3762 58.9543 42.3237C58.9543 46.2713 62.1544 49.4715 66.102 49.4715Z" stroke="white" stroke-opacity="0.8" stroke-width="1.7" stroke-linejoin="round"/>
<path d="M32.3089 56.8202C32.3089 57.7672 32.6628 58.5958 33.2527 59.2468C31.837 58.5366 31.1291 57.2937 31.1291 55.0447C31.1291 50.6651 35.1404 50.0732 40.5674 49.7181V57.8856L39.3876 55.6366C38.6207 54.0978 37.4999 53.2692 35.8482 53.2692C33.9016 53.2692 32.3089 54.8672 32.3089 56.8202ZM26.9999 63.9223C26.9999 65.2244 28.0617 66.2897 29.3594 66.2897H41.1573C42.0421 66.2897 42.9269 65.757 43.2809 64.9285C43.6938 64.0999 43.4578 63.1529 42.9859 62.4427L42.1601 60.9631L41.6882 60.0754L56.0225 56.11L56.5534 59.0101C56.6124 59.4835 56.8483 59.957 57.2023 60.2529L62.5113 65.5795C62.9832 66.053 63.5731 66.2897 64.163 66.2897C64.7529 66.2897 65.3428 66.053 65.8147 65.5795C66.7585 64.6325 66.7585 63.1529 65.8147 62.206L61.0366 57.4121L59.3849 48.061C59.2079 46.9365 58.2051 46.1079 57.0843 46.1079L40.5674 47.2916C35.9662 47.5875 28.7695 48.061 28.7695 54.9855C28.7695 58.7141 30.4212 60.5488 32.7218 61.4958H29.3594C28.0617 61.555 26.9999 62.6203 26.9999 63.9223Z" stroke="white" stroke-opacity="0.8" stroke-width="1.7" stroke-linejoin="round"/>
<defs>
<filter id="filter0_b_2705_9004" x="-18" y="-17.7141" width="136" height="136" filterUnits="userSpaceOnUse" color-interpolation-filters="sRGB">
<feFlood flood-opacity="0" result="BackgroundImageFix"/>
<feGaussianBlur in="BackgroundImageFix" stdDeviation="9"/>
<feComposite in2="SourceAlpha" operator="in" result="effect1_backgroundBlur_2705_9004"/>
<feBlend mode="normal" in="SourceGraphic" in2="effect1_backgroundBlur_2705_9004" result="shape"/>
</filter>
</defs>
</svg>
