<svg width="145" height="145" viewBox="0 0 145 145" fill="none" xmlns="http://www.w3.org/2000/svg">
<g filter="url(#filter0_d_3010_7645)">
<circle cx="72.5" cy="72.5" r="58.5" fill="#FEF9F4"/>
<circle cx="72.5" cy="72.5" r="57.5" stroke="white" stroke-opacity="0.3" stroke-width="2"/>
</g>
<path d="M72.0227 53.9136C74.7247 53.9136 76.9151 51.7233 76.9151 49.0213C76.9151 46.3193 74.7247 44.1289 72.0227 44.1289C69.3208 44.1289 67.1304 46.3193 67.1304 49.0213C67.1304 51.7233 69.3208 53.9136 72.0227 53.9136Z" stroke="#EA8529" stroke-width="1.7" stroke-linejoin="round"/>
<path d="M84.4771 57.6608C86.5036 57.6608 88.1464 56.018 88.1464 53.9915C88.1464 51.9651 86.5036 50.3223 84.4771 50.3223C82.4507 50.3223 80.8079 51.9651 80.8079 53.9915C80.8079 56.018 82.4507 57.6608 84.4771 57.6608Z" stroke="#EA8529" stroke-width="1.7" stroke-linejoin="round"/>
<path d="M75.9977 73.9723C75.8142 73.9723 75.3861 74.0946 75.0803 74.0946C72.6953 74.0946 70.7995 72.1988 70.7995 69.8138C70.7995 67.8569 72.0838 66.1445 73.9796 65.6553C74.1019 65.5942 76.6092 64.7991 77.6488 60.2737C77.9546 58.9895 78.8108 57.9498 79.9727 57.3994C78.8108 56.6656 77.5265 56.054 76.0588 55.626C74.7746 55.3813 73.4292 55.1367 72.0226 55.1367C70.6772 55.1367 69.3318 55.3813 67.9864 55.7483C66.0295 56.2375 64.3171 57.216 62.8494 58.4391C62.4825 58.806 62.2379 59.2952 62.1156 59.7845L58.6909 74.3393C58.6909 74.4616 58.5686 74.7062 58.5686 74.9508C58.5686 76.2962 59.6694 77.397 61.0148 77.397C62.1156 77.397 63.094 76.5408 63.3387 75.5623L65.9072 64.9215V99.168H70.7995V77.1524H73.2457V99.168H78.1381V73.1773C76.915 73.7889 76.12 73.9723 75.9977 73.9723Z" stroke="#EA8529" stroke-width="1.7" stroke-linejoin="round"/>
<path d="M85.2709 72.3465C86.0706 71.5531 86.044 70.2296 85.2114 69.3904C84.3789 68.5512 83.0556 68.5141 82.2559 69.3075C81.4562 70.1009 81.4828 71.4244 82.3154 72.2636C83.1479 73.1028 84.4712 73.1399 85.2709 72.3465Z" stroke="#EA8529" stroke-width="1.7" stroke-linejoin="round"/>
<path d="M80.0335 67.0184C80.6787 66.4022 81.5389 66.0427 82.399 66.0427C82.8291 66.0427 83.2055 66.1454 83.5818 66.2995C84.1194 65.3237 84.5495 64.1425 84.8721 62.756C85.1947 61.3694 84.2807 59.9828 82.8291 59.6746C81.3776 59.3665 79.926 60.2396 79.6034 61.6261C78.5282 66.0427 75.7863 66.8644 75.625 66.9157H75.6788C74.496 67.1725 73.582 68.1996 73.582 69.4321C73.582 70.8701 74.7648 71.9999 76.2701 71.9999C76.4852 71.9999 76.8615 71.9485 76.8615 71.9485C76.9691 71.9485 78.0443 71.6918 79.4421 70.8187C78.6894 69.6889 78.8507 68.0969 80.0335 67.0184Z" stroke="#EA8529" stroke-width="1.7" stroke-linejoin="round"/>
<defs>
<filter id="filter0_d_3010_7645" x="0" y="0" width="145" height="145" filterUnits="userSpaceOnUse" color-interpolation-filters="sRGB">
<feFlood flood-opacity="0" result="BackgroundImageFix"/>
<feColorMatrix in="SourceAlpha" type="matrix" values="0 0 0 0 0 0 0 0 0 0 0 0 0 0 0 0 0 0 127 0" result="hardAlpha"/>
<feOffset/>
<feGaussianBlur stdDeviation="7"/>
<feComposite in2="hardAlpha" operator="out"/>
<feColorMatrix type="matrix" values="0 0 0 0 0.705882 0 0 0 0 0.682353 0 0 0 0 0.654902 0 0 0 0.19 0"/>
<feBlend mode="normal" in2="BackgroundImageFix" result="effect1_dropShadow_3010_7645"/>
<feBlend mode="normal" in="SourceGraphic" in2="effect1_dropShadow_3010_7645" result="shape"/>
</filter>
</defs>
</svg>
