<svg width="88" height="89" viewBox="0 0 88 89" fill="none" xmlns="http://www.w3.org/2000/svg">
<path d="M60.244 63.6849C48.9122 62.2322 49.7314 62.3304 49.3493 62.304L48.0798 56.3191C48.0103 56.0137 47.8234 55.748 47.5596 55.5793C47.2957 55.4106 46.9761 55.3524 46.6698 55.4174C46.3634 55.4824 46.0949 55.6653 45.9223 55.9266C45.7497 56.1879 45.6868 56.5066 45.7472 56.8139L46.9485 62.4774C45.6341 62.7598 44.3878 63.3448 43.3303 64.2029C38.3474 68.2468 39.8436 75.9573 44.1611 79.9516C44.3815 80.1554 44.6706 80.2686 44.9708 80.2686H59.0694C63.6816 80.2686 67.4682 76.5689 67.5107 72.0215C67.5498 67.8051 64.4259 64.221 60.244 63.6849ZM59.0692 77.8843H45.4594C44.5344 76.9184 42.4164 74.2776 42.6036 70.5143C42.7944 66.6767 46.1767 64.2857 49.5386 64.7162L59.9407 66.0498C62.925 66.4324 65.1542 68.9902 65.1261 71.9993C65.0959 75.2444 62.3788 77.8843 59.0692 77.8843ZM38.5782 79.0765C38.5782 79.3927 38.4526 79.6959 38.229 79.9195C38.0055 80.1431 37.7022 80.2687 37.386 80.2687H34.2848C26.3835 80.2687 19.9555 73.8406 19.9555 65.9393C19.9555 58.8508 20.89 55.7638 24.7084 36.9348C21.69 34.1046 19.8008 30.0837 19.8008 25.6294C19.8008 17.7375 25.7058 11.1162 33.5363 10.2274C33.8505 10.1918 34.166 10.2824 34.4134 10.4793C34.6608 10.6762 34.8198 10.9634 34.8555 11.2776C34.8911 11.5917 34.8005 11.9072 34.6036 12.1546C34.4067 12.402 34.1195 12.561 33.8053 12.5967C27.1806 13.3485 22.1852 18.9514 22.1852 25.6294C22.1852 32.8622 28.0694 38.7465 35.3023 38.7465C42.5352 38.7465 48.4196 32.8623 48.4196 25.6294C48.4223 23.2368 47.7695 20.8891 46.5321 18.8413C45.2946 16.7935 43.5198 15.1239 41.4004 14.0136C40.2658 15.5881 38.394 16.3365 36.6921 16.2224C36.3767 16.2012 36.0825 16.0556 35.8744 15.8176C35.6662 15.5795 35.5612 15.2686 35.5823 14.9531C35.5927 14.7968 35.6338 14.6441 35.7032 14.5038C35.7726 14.3634 35.869 14.2381 35.9869 14.135C36.1048 14.0319 36.2419 13.9531 36.3903 13.903C36.5387 13.853 36.6955 13.8327 36.8518 13.8433C37.8984 13.9107 39.1396 13.3825 39.7019 12.2177C39.7284 12.0773 39.781 11.9431 39.857 11.822C40.1174 10.9884 39.9527 10.2429 39.9426 10.1994C39.875 9.89318 39.9309 9.57266 40.098 9.30728C40.2651 9.0419 40.53 8.85304 40.8353 8.7816C41.1407 8.71016 41.4619 8.76189 41.7294 8.9256C41.9969 9.0893 42.1891 9.3518 42.2644 9.65622C42.3236 9.90912 42.4869 10.758 42.3141 11.8016C47.505 14.4317 50.804 19.747 50.804 25.6294C50.804 37.9409 37.061 45.3347 26.806 38.5883C24.506 49.8921 23.3201 55.1997 22.7642 59.321H40.3867C40.7029 59.321 41.0061 59.4466 41.2297 59.6701C41.4533 59.8937 41.5789 60.197 41.5789 60.5132C41.5789 60.8294 41.4533 61.1326 41.2297 61.3562C41.0061 61.5798 40.7029 61.7054 40.3867 61.7054H22.501C22.3864 63.0736 22.3399 64.4128 22.3399 65.9394C22.3399 72.5258 27.6983 77.8844 34.2848 77.8844H37.386C37.5426 77.8844 37.6976 77.9152 37.8422 77.9751C37.9869 78.035 38.1183 78.1228 38.229 78.2335C38.3397 78.3442 38.4276 78.4756 38.4875 78.6203C38.5474 78.7649 38.5782 78.9199 38.5782 79.0765ZM45.2854 43.2063L54.4865 41.1842C56.9028 40.6527 59.3409 42.0971 60.036 44.4722C60.7331 46.8539 59.4533 49.3866 57.1223 50.2382L46.7125 54.0418C44.7943 54.7428 42.6212 54.6247 40.7554 53.6475L33.4338 49.8124C33.1537 49.6657 32.9434 49.4137 32.8491 49.112C32.7547 48.8102 32.7842 48.4833 32.9308 48.2032C33.0035 48.0645 33.1027 47.9414 33.2229 47.8411C33.3431 47.7407 33.4819 47.665 33.6313 47.6183C33.7808 47.5716 33.938 47.5548 34.0939 47.5688C34.2499 47.5829 34.4015 47.6276 34.5402 47.7002L41.8618 51.5352C42.4784 51.8575 43.1555 52.0477 43.8498 52.0937C44.5441 52.1396 45.2404 52.0404 45.8941 51.8022L56.3042 47.9986C57.4588 47.5767 58.0929 46.322 57.7476 45.142C57.4032 43.9655 56.196 43.2501 54.9982 43.513L45.7973 45.5352C45.1115 45.686 44.4012 45.6878 43.7147 45.5404C43.0281 45.393 42.3812 45.0998 41.8178 44.6806L40.6882 43.8406C40.5612 43.7477 40.4539 43.6305 40.3724 43.496C40.2909 43.3614 40.2369 43.212 40.2134 43.0564C40.1899 42.9009 40.1975 42.7422 40.2356 42.5895C40.2737 42.4369 40.3417 42.2933 40.4355 42.1671C40.5294 42.0408 40.6474 41.9344 40.7826 41.8539C40.9178 41.7735 41.0676 41.7206 41.2233 41.6983C41.379 41.676 41.5376 41.6847 41.69 41.724C41.8423 41.7633 41.9854 41.8324 42.1109 41.9272L43.2406 42.7673C43.5301 42.9827 43.8624 43.1333 44.2152 43.2091C44.568 43.2848 44.933 43.2839 45.2854 43.2063Z" fill="#EA8529"/>
<path d="M17.8071 34.4426L16.832 31.7657L19.227 30.6779L20.2021 33.3548L17.8071 34.4426ZM22.5945 32.267L21.6194 29.5901L24.0131 28.5023L24.9882 31.1792L22.5945 32.267ZM27.3819 30.09L26.4068 27.4131L28.8018 26.3253L29.7769 29.0022L27.3819 30.09ZM32.1706 27.9129L31.1955 25.236L33.5892 24.1483L34.5643 26.8251L32.1706 27.9129ZM36.958 25.7359L35.9829 23.059L38.3779 21.9712L39.353 24.6481L36.958 25.7359ZM41.7467 23.5603L40.7716 20.8834L43.1666 19.7956L44.1417 22.4725L41.7467 23.5603ZM46.5341 21.3832L45.559 18.7064L47.954 17.6186L48.9291 20.2954L46.5341 21.3832ZM51.3215 19.2062L50.3464 16.5293L52.7414 15.4415L53.7165 18.1184L51.3215 19.2062Z" fill="#EA8529"/>
<path d="M61.4013 22.0445L53.8249 22.0856L57.0703 27.9556L61.4013 22.0445Z" fill="#EA8529"/>
</svg>
