<svg width="100" height="100" viewBox="0 0 100 100" fill="none" xmlns="http://www.w3.org/2000/svg">
<circle cx="50" cy="50" r="50" fill="#FEF9F4"/>
<mask id="mask0_2945_7006" style="mask-type:alpha" maskUnits="userSpaceOnUse" x="12" y="12" width="76" height="76">
<circle cx="50" cy="50" r="38" fill="#D9D9D9"/>
</mask>
<g mask="url(#mask0_2945_7006)">
</g>
<path d="M69.3749 61.3333C71.9522 61.3333 74.0416 59.244 74.0416 56.6667C74.0416 54.0893 71.9522 52 69.3749 52C66.7976 52 64.7083 54.0893 64.7083 56.6667C64.7083 59.244 66.7976 61.3333 69.3749 61.3333Z" stroke="#EA8529" stroke-width="1.7" stroke-linejoin="round"/>
<path d="M51.3748 37.3332C54.3204 37.3332 56.7082 34.9454 56.7082 31.9998C56.7082 29.0543 54.3204 26.6665 51.3748 26.6665C48.4293 26.6665 46.0415 29.0543 46.0415 31.9998C46.0415 34.9454 48.4293 37.3332 51.3748 37.3332Z" stroke="#EA8529" stroke-width="1.7" stroke-linejoin="round"/>
<path d="M46.8416 51.1999L51.4416 53.2666L48.9083 57.0666C48.7083 57.3999 48.5083 57.7999 48.4416 58.2666C48.2416 59.7999 49.3083 61.1333 50.775 61.3333C50.9083 61.3333 60.7083 61.3333 60.7083 61.3333C62.175 61.3333 63.375 60.1333 63.375 58.6666L62.7083 51.1999C62.6416 50.4666 61.975 49.9333 61.2416 49.9999C60.5083 50.0666 59.975 50.7333 60.0416 51.4666L60.5083 55.9999H54.2416L54.6416 52.7999C54.7083 52.2666 54.4416 51.6666 53.9083 51.4666L47.9083 48.7999C47.2416 48.5333 46.4416 48.7999 46.175 49.4666C45.8416 50.1333 46.175 50.9333 46.8416 51.1999Z" stroke="#EA8529" stroke-width="1.7" stroke-linejoin="round"/>
<path d="M74.5578 64.0859H45.8911V63.4193H74.5578V64.0859Z" stroke="#EA8529" stroke-width="1.7" stroke-linejoin="round"/>
<path d="M54.0415 48.6666C55.0415 48.6666 56.0415 48.0666 56.4415 47.1332C57.0415 45.7999 56.4415 44.1999 55.1082 43.5999L47.3749 39.9999L44.3749 33.3999C42.9082 31.7332 40.3749 31.5332 38.7082 32.9999L26.7082 43.3999C25.7082 44.2666 25.1749 45.3332 25.3749 46.9999L26.7082 58.2666L25.3749 71.0666C25.2415 72.5332 26.3082 73.8666 27.7749 73.9999C27.8415 73.9999 27.9749 73.9999 28.0415 73.9999C29.3749 73.9999 30.5749 72.9999 30.7082 71.5999L32.0415 58.5332C32.0415 58.3332 32.0415 58.1332 32.0415 57.9332L31.7082 54.9999L34.7082 59.9999L34.0415 71.1999C33.9749 72.6666 35.1082 73.9332 36.5749 73.9999C36.6415 73.9999 36.7082 73.9999 36.7082 73.9999C38.1082 73.9999 39.3082 72.9332 39.3749 71.4666L40.0415 59.4666C40.0415 58.9332 39.9082 58.3999 39.6415 57.9332L33.6415 47.9332L41.9082 40.7999L42.9082 43.0666C43.1749 43.6666 43.6415 44.1332 44.2415 44.3999L52.9082 48.3999C53.3082 48.5999 53.6415 48.6666 54.0415 48.6666Z" stroke="#EA8529" stroke-width="1.7" stroke-linejoin="round"/>
</svg>
