<svg width="96" height="97" viewBox="0 0 96 97" fill="none" xmlns="http://www.w3.org/2000/svg">
<circle cx="48" cy="48.7861" r="48" fill="#FEF9F4"/>
<path d="M64.1353 42.2815H67.1224C67.9758 42.2815 68.6159 42.9188 68.6159 43.7686V50.7793M59.3347 62.4639H56.6676V65.1195H54.3207V62.4639H51.6536V60.127H54.3207V57.4714H56.6676V60.127H59.3347V62.4639Z" stroke="#EA8529" stroke-width="1.3" stroke-miterlimit="10" stroke-linecap="round" stroke-linejoin="round"/>
<path d="M50.6937 50.8855V44.7246C50.6937 42.1752 52.7206 40.157 55.2809 40.157H60.1883C62.7486 40.157 64.7756 42.1752 64.7756 44.7246V50.8855" stroke="#EA8529" stroke-width="1.3" stroke-miterlimit="10" stroke-linecap="round" stroke-linejoin="round"/>
<path d="M57.735 37.6075C59.5026 37.6075 60.9355 36.1808 60.9355 34.4208C60.9355 32.6609 59.5026 31.2341 57.735 31.2341C55.9675 31.2341 54.5346 32.6609 54.5346 34.4208C54.5346 36.1808 55.9675 37.6075 57.735 37.6075Z" stroke="#EA8529" stroke-width="1.3" stroke-miterlimit="10" stroke-linecap="round" stroke-linejoin="round"/>
<path d="M69.8967 54.1785V68.4124H44.8267" stroke="#EA8529" stroke-width="1.3" stroke-miterlimit="10" stroke-linecap="round" stroke-linejoin="round"/>
<path d="M42.2662 50.8855H72.3503V54.1784H42.2662" stroke="#EA8529" stroke-width="1.3" stroke-miterlimit="10" stroke-linecap="round" stroke-linejoin="round"/>
<path d="M35.2244 43.3439C36.992 43.3439 38.4248 41.9171 38.4248 40.1572C38.4248 38.3972 36.992 36.9705 35.2244 36.9705C33.4569 36.9705 32.024 38.3972 32.024 40.1572C32.024 41.9171 33.4569 43.3439 35.2244 43.3439Z" stroke="#EA8529" stroke-width="1.3" stroke-miterlimit="10" stroke-linecap="round" stroke-linejoin="round"/>
<path d="M41.1991 66.1818V72.024C41.1991 73.0863 40.3456 73.8298 39.3855 73.8298C38.3187 73.8298 37.5719 72.98 37.5719 72.024V66.1818M41.1991 66.1818V63.2075H36.9318V50.567C36.9318 49.7172 36.2917 49.0798 35.4383 49.0798H24.3434C23.49 49.0798 22.8499 49.7172 22.8499 50.567V64.1635C22.8499 65.2258 23.81 66.1818 24.8769 66.1818H41.1991Z" stroke="#EA8529" stroke-width="1.3" stroke-miterlimit="10" stroke-linecap="round" stroke-linejoin="round"/>
<path d="M28.3973 49.0798C28.9307 47.1678 30.7443 45.7869 32.7712 45.7869H37.6786C40.2389 45.7869 42.2659 47.8051 42.2659 50.3545V59.3834H43.1193C44.0794 59.3834 44.8262 60.127 44.8262 61.083V72.024C44.8262 73.0862 43.9728 73.8298 43.0126 73.8298C41.9458 73.8298 41.199 72.98 41.199 72.024M22.8499 52.4789H36.9318M29.8909 66.1817V73.936M27.3305 73.936H32.3445M53.8941 50.8856V47.6989M61.5751 50.8856V47.6989M42.2659 59.4897H41.0924M52.0805 31.553H48.3467V35.377H44.9329V31.553H41.199V28.26H44.9329V24.5422H48.3467V28.26H52.0805V31.553Z" stroke="#EA8529" stroke-width="1.3" stroke-miterlimit="10" stroke-linecap="round" stroke-linejoin="round"/>
<path d="M27.4372 33.5712C29.9707 33.5712 32.0245 31.5262 32.0245 29.0036C32.0245 26.481 29.9707 24.436 27.4372 24.436C24.9037 24.436 22.8499 26.481 22.8499 29.0036C22.8499 31.5262 24.9037 33.5712 27.4372 33.5712Z" stroke="#EA8529" stroke-width="1.3" stroke-miterlimit="10" stroke-linecap="round" stroke-linejoin="round"/>
<path d="M27.4372 24.5422V25.392M27.4372 32.7214V33.5712M32.0245 29.0036H31.0644M23.7034 29.0036H22.8499M27.4372 27.9414V29.0036H26.2637" stroke="#EA8529" stroke-width="1.3" stroke-miterlimit="10" stroke-linecap="round" stroke-linejoin="round"/>
</svg>
