<svg width="64" height="64" viewBox="0 0 64 64" fill="none" xmlns="http://www.w3.org/2000/svg">
<path d="M48.1021 31.1856C52.0496 31.1856 55.2498 27.9854 55.2498 24.0379C55.2498 20.0903 52.0496 16.8901 48.1021 16.8901C44.1545 16.8901 40.9543 20.0903 40.9543 24.0379C40.9543 27.9854 44.1545 31.1856 48.1021 31.1856Z" stroke="#EA8529" stroke-width="1.7" stroke-linejoin="round"/>
<path d="M14.309 38.5341C14.309 39.4811 14.663 40.3096 15.2528 40.9607C13.8371 40.2504 13.1292 39.0076 13.1292 36.7586C13.1292 32.379 17.1405 31.7871 22.5675 31.432V39.5994L21.3877 37.3504C20.6208 35.8116 19.5001 34.9831 17.8484 34.9831C15.9017 34.9831 14.309 36.581 14.309 38.5341ZM9 45.6362C9 46.9383 10.0618 48.0036 11.3596 48.0036H23.1574C24.0422 48.0036 24.927 47.4709 25.281 46.6423C25.6939 45.8138 25.4579 44.8668 24.986 44.1566L24.1602 42.677L23.6883 41.7892L38.0226 37.8239L38.5535 40.7239C38.6125 41.1974 38.8485 41.6709 39.2024 41.9668L44.5114 47.2934C44.9833 47.7668 45.5732 48.0036 46.1631 48.0036C46.753 48.0036 47.3429 47.7668 47.8148 47.2934C48.7586 46.3464 48.7586 44.8668 47.8148 43.9199L43.0367 39.1259L41.385 29.7749C41.208 28.6504 40.2052 27.8218 39.0844 27.8218L22.5675 29.0055C17.9663 29.3014 10.7697 29.7749 10.7697 36.6994C10.7697 40.428 12.4214 42.2627 14.7219 43.2097H11.3596C10.0618 43.2688 9 44.3342 9 45.6362Z" stroke="#EA8529" stroke-width="1.7" stroke-linejoin="round"/>
</svg>
