<svg width="89" height="88" viewBox="0 0 89 88" fill="none" xmlns="http://www.w3.org/2000/svg">
<path d="M51.5629 44.2072C51.5629 48.6433 47.9668 52.2395 43.5307 52.2395C39.0946 52.2395 35.4984 48.6433 35.4984 44.2072C35.4984 39.7711 39.0946 36.175 43.5307 36.175C47.9668 36.175 51.5629 39.7711 51.5629 44.2072Z" stroke="#EA8529" stroke-width="2.2"/>
<path d="M71.0259 40.7985L71.0258 40.7986L71.0321 40.8061C71.7314 41.6367 72.1148 42.6876 72.1148 43.7734C72.1148 44.8579 71.7323 45.9077 71.0345 46.7379C71.0337 46.7388 71.0329 46.7398 71.0321 46.7407L58.0922 61.8943L58.0869 61.9005L58.0818 61.9067C56.7078 63.5644 55.9669 65.6559 55.9908 67.8087V79.6362H30.9311V67.8026C30.9311 65.6714 30.1878 63.6068 28.8294 61.9646L28.8239 61.958L28.8184 61.9515L15.9569 46.8875C15.2645 46.0588 14.8852 45.0132 14.8852 43.9332C14.8852 42.8516 15.2657 41.8044 15.9601 40.9751L15.9601 40.9751L15.9642 40.9702C16.2779 40.591 16.6715 40.2859 17.1169 40.0766C17.5619 39.8674 18.0476 39.7591 18.5393 39.7593C19.032 39.7609 19.5183 39.8703 19.9642 40.0798C20.4104 40.2896 20.8053 40.5945 21.121 40.9732L21.1322 40.9867L21.1438 40.9997L31.2827 52.4045C32.7869 54.1848 34.6575 55.6197 36.767 56.6111C38.8808 57.6046 41.1844 58.1293 43.52 58.1494L43.5343 58.1495L43.5486 58.1492C45.8595 58.109 48.1351 57.5745 50.2222 56.5816C52.3051 55.5908 54.1522 54.1663 55.6399 52.4038L65.9046 40.8274L65.9172 40.8132L65.9294 40.7985C66.2396 40.4233 66.6288 40.1212 67.0694 39.9138C67.5099 39.7064 67.9907 39.5989 68.4776 39.5989C68.9645 39.5989 69.4454 39.7064 69.8859 39.9138C70.3264 40.1212 70.7156 40.4233 71.0259 40.7985Z" stroke="#EA8529" stroke-width="2.2"/>
<path d="M72.6559 24.428H70.8561V22.6282C70.8561 21.2141 69.7097 20.0677 68.2957 20.0677C66.8816 20.0677 65.7352 21.2141 65.7352 22.6282V24.428H63.9355C62.5214 24.428 61.375 25.5744 61.375 26.9884C61.375 28.4025 62.5214 29.5489 63.9355 29.5489H65.7352V31.3486C65.7352 32.7627 66.8816 33.9091 68.2957 33.9091C69.7097 33.9091 70.8561 32.7627 70.8561 31.3486V29.5489H72.6559C74.07 29.5489 75.2164 28.4025 75.2164 26.9884C75.2164 25.5744 74.07 24.428 72.6559 24.428Z" stroke="#EA8529" stroke-width="2.2" stroke-miterlimit="10" stroke-linecap="round" stroke-linejoin="round"/>
<path d="M29.484 27.2418H27.6843V25.442C27.6843 24.028 26.5379 22.8816 25.1238 22.8816C23.7097 22.8816 22.5633 24.028 22.5633 25.442V27.2418H20.7636C19.3495 27.2418 18.2031 28.3882 18.2031 29.8023C18.2031 31.2163 19.3495 32.3627 20.7636 32.3627H22.5633V34.1625C22.5633 35.5766 23.7097 36.7229 25.1238 36.7229C26.5379 36.7229 27.6843 35.5766 27.6843 34.1625V32.3627H29.484C30.8981 32.3627 32.0445 31.2163 32.0445 29.8023C32.0445 28.3882 30.8981 27.2418 29.484 27.2418Z" stroke="#EA8529" stroke-width="2.2" stroke-miterlimit="10" stroke-linecap="round" stroke-linejoin="round"/>
<path d="M42.9421 11.6245H44.7418C46.1559 11.6245 47.3023 12.7709 47.3023 14.185C47.3023 15.599 46.1559 16.7454 44.7418 16.7454H42.9421V18.5452C42.9421 19.9593 41.7957 21.1056 40.3816 21.1056C38.9675 21.1056 37.8212 19.9593 37.8212 18.5452V16.7454H36.0214C34.6073 16.7454 33.4609 15.599 33.4609 14.185C33.4609 12.7709 34.6073 11.6245 36.0214 11.6245H37.8212V9.82474C37.8212 8.41066 38.9675 7.26428 40.3816 7.26428C41.7957 7.26428 42.9421 8.41066 42.9421 9.82474V11.6245Z" stroke="#EA8529" stroke-width="2.2" stroke-miterlimit="10" stroke-linecap="round" stroke-linejoin="round"/>
<path d="M18.2029 15.856V21.1057M20.8279 18.4809H15.5781" stroke="#EA8529" stroke-width="2.2" stroke-miterlimit="10" stroke-linecap="round"/>
<path d="M60.0428 33.249V38.4988M62.6677 35.874H57.418" stroke="#EA8529" stroke-width="2.2" stroke-miterlimit="10" stroke-linecap="round"/>
<path d="M53.5232 17.4429V22.6926M56.1482 20.0678H50.8984" stroke="#EA8529" stroke-width="2.2" stroke-miterlimit="10" stroke-linecap="round"/>
</svg>
