<svg width="80" height="80" viewBox="0 0 80 80" fill="none" xmlns="http://www.w3.org/2000/svg">
<path d="M46.0948 40.3723C46.0948 44.4421 42.7955 47.7414 38.7257 47.7414C34.6559 47.7414 31.3567 44.4421 31.3567 40.3723C31.3567 36.3025 34.6559 33.0033 38.7257 33.0033C42.7955 33.0033 46.0948 36.3025 46.0948 40.3723Z" stroke="#EA8529" stroke-width="1.7"/>
<path d="M63.5804 37.2153L63.5803 37.2154L63.5852 37.2211C64.2358 37.994 64.5925 38.9717 64.5925 39.9819C64.5925 40.9912 64.2364 41.9681 63.587 42.7406C63.5864 42.7413 63.5858 42.742 63.5852 42.7427L51.9386 56.3817L51.9385 56.3816L51.9306 56.3912C50.7149 57.858 50.0595 59.7086 50.0809 61.6133V72.3984H27.2471V61.6082C27.2471 59.7226 26.5896 57.8961 25.3877 56.4432L25.3878 56.4432L25.3792 56.4331L13.8034 42.8749C13.1589 42.1038 12.8058 41.1308 12.8058 40.1257C12.8058 39.1194 13.1598 38.1451 13.8059 37.3735L13.8059 37.3736L13.8091 37.3697C14.1046 37.0126 14.4753 36.7252 14.8948 36.5281C15.3141 36.331 15.7716 36.229 16.2348 36.2292C16.6987 36.2307 17.1567 36.3337 17.5765 36.531C17.9966 36.7284 18.3684 37.0155 18.6656 37.3721L18.6742 37.3825L18.6832 37.3926L27.8094 47.6582C29.1504 49.2457 30.8182 50.5252 32.699 51.4091C34.5832 52.2947 36.6365 52.7624 38.7184 52.7803L38.7294 52.7804L38.7405 52.7802C40.8003 52.7443 42.8286 52.2679 44.689 51.3829C46.5461 50.4994 48.193 49.2293 49.5192 47.6577L58.7586 37.2377L58.7683 37.2267L58.7777 37.2153C59.07 36.8617 59.4368 36.577 59.852 36.3816C60.2671 36.1862 60.7202 36.0849 61.179 36.0849C61.6378 36.0849 62.091 36.1862 62.5061 36.3816C62.9212 36.577 63.288 36.8617 63.5804 37.2153Z" stroke="#EA8529" stroke-width="1.7"/>
<path d="M64.9394 22.5712H63.3196V20.9514C63.3196 19.6787 62.2879 18.647 61.0152 18.647C59.7426 18.647 58.7108 19.6787 58.7108 20.9514V22.5712H57.091C55.8184 22.5712 54.7866 23.6029 54.7866 24.8756C54.7866 26.1482 55.8184 27.18 57.091 27.18H58.7108V28.7998C58.7108 30.0724 59.7426 31.1042 61.0152 31.1042C62.2879 31.1042 63.3196 30.0724 63.3196 28.7998V27.18H64.9394C66.2121 27.18 67.2438 26.1482 67.2438 24.8756C67.2438 23.6029 66.2121 22.5712 64.9394 22.5712Z" stroke="#EA8529" stroke-width="1.7" stroke-miterlimit="10" stroke-linecap="round" stroke-linejoin="round"/>
<path d="M26.084 25.1036H24.4642V23.4839C24.4642 22.2112 23.4325 21.1794 22.1598 21.1794C20.8872 21.1794 19.8554 22.2112 19.8554 23.4839V25.1036H18.2356C16.963 25.1036 15.9312 26.1354 15.9312 27.4081C15.9312 28.6807 16.963 29.7125 18.2356 29.7125H19.8554V31.3322C19.8554 32.6049 20.8872 33.6367 22.1598 33.6367C23.4325 33.6367 24.4642 32.6049 24.4642 31.3322V29.7125H26.084C27.3567 29.7125 28.3884 28.6807 28.3884 27.4081C28.3884 26.1354 27.3567 25.1036 26.084 25.1036Z" stroke="#EA8529" stroke-width="1.7" stroke-miterlimit="10" stroke-linecap="round" stroke-linejoin="round"/>
<path d="M38.1967 11.048H39.8165C41.0892 11.048 42.1209 12.0797 42.1209 13.3524C42.1209 14.6251 41.0892 15.6568 39.8165 15.6568H38.1967V17.2766C38.1967 18.5492 37.165 19.581 35.8923 19.581C34.6196 19.581 33.5879 18.5492 33.5879 17.2766V15.6568H31.9681C30.6954 15.6568 29.6637 14.6251 29.6637 13.3524C29.6637 12.0797 30.6954 11.048 31.9681 11.048H33.5879V9.42819C33.5879 8.15552 34.6196 7.12378 35.8923 7.12378C37.165 7.12378 38.1967 8.15552 38.1967 9.42819V11.048Z" stroke="#EA8529" stroke-width="1.7" stroke-miterlimit="10" stroke-linecap="round" stroke-linejoin="round"/>
<path d="M15.9312 14.8562V19.581M18.2937 17.2187H13.5689" stroke="#EA8529" stroke-width="1.7" stroke-miterlimit="10" stroke-linecap="round"/>
<path d="M53.586 30.51V35.2348M55.9484 32.8725H51.2236" stroke="#EA8529" stroke-width="1.7" stroke-miterlimit="10" stroke-linecap="round"/>
<path d="M47.7202 16.2844V21.0092M50.0827 18.6469H45.3579" stroke="#EA8529" stroke-width="1.7" stroke-miterlimit="10" stroke-linecap="round"/>
</svg>
