<svg width="42" height="43" viewBox="0 0 42 43" fill="none" xmlns="http://www.w3.org/2000/svg">
<path opacity="0.5" d="M3.81818 8.49379H0V39.0392C0 41.1392 1.71818 42.8574 3.81818 42.8574H34.3636V39.0392H3.81818V8.49379ZM24.8182 27.5847H28.6364V8.49379H21V12.312H24.8182V27.5847ZM38.1818 0.857422H11.4545C9.35455 0.857422 7.63636 2.5756 7.63636 4.6756V31.4029C7.63636 33.5029 9.35455 35.2211 11.4545 35.2211H38.1818C40.2818 35.2211 42 33.5029 42 31.4029V4.6756C42 2.5756 40.2818 0.857422 38.1818 0.857422ZM38.1818 31.4029H11.4545V4.6756H38.1818V31.4029Z" fill="white"/>
</svg>
