<svg width="24" height="22" viewBox="0 0 24 22" fill="none" xmlns="http://www.w3.org/2000/svg">
<path d="M0.752357 4.97321L0.391764 4.62684C0.203381 4.82296 0.206279 5.13368 0.398287 5.32625L0.752357 4.97321ZM4.87748 0.678711L5.21986 0.314323C5.02018 0.126706 4.70669 0.13474 4.51689 0.33234L4.87748 0.678711ZM21.7856 9.11042L21.965 9.57712C22.1293 9.51394 22.2483 9.36898 22.2783 9.19548C22.3082 9.02198 22.2447 8.84551 22.1111 8.73088L21.7856 9.11042ZM14.7094 6.53476L15.0114 6.13628C14.9245 6.07041 14.8185 6.03476 14.7094 6.03476V6.53476ZM7.92608 6.03476C7.64994 6.03476 7.42608 6.25862 7.42608 6.53476C7.42608 6.81091 7.64994 7.03476 7.92608 7.03476V6.03476ZM0.752357 17.4175L1.25232 17.4113L0.752357 17.4175ZM23.2496 17.4175L22.7496 17.4117L23.2496 17.4175ZM5.99667 21.0801L6.12966 21.5621L5.99667 21.0801ZM4.26596 21.2207L4.18335 21.7138L4.26596 21.2207ZM18.9021 9.71234L18.6 10.1108L18.9021 9.71234ZM13.8487 8.50991L14.3071 8.70966L13.8487 8.50991ZM15.7961 3.97358L16.1216 3.59404L15.7961 3.97358ZM7.41671 3.06455L7.07433 3.42894L7.41671 3.06455ZM16.4269 13.8382L16.6051 14.3054L16.4269 13.8382ZM18.5373 13.5012L18.6077 13.0062L18.5373 13.5012ZM4.58441 8.81649L4.93848 8.46345L4.58441 8.81649ZM4.93848 8.46345L1.10643 4.62018L0.398287 5.32625L4.23034 9.16953L4.93848 8.46345ZM1.11295 5.31958L5.23807 1.02508L4.51689 0.33234L0.391764 4.62684L1.11295 5.31958ZM8.01774 3.83344L15.173 4.23343L15.2288 3.23498L8.07355 2.835L8.01774 3.83344ZM15.4706 4.35311L21.4601 9.48995L22.1111 8.73088L16.1216 3.59404L15.4706 4.35311ZM21.6062 8.64372L19.6855 9.38207L20.0443 10.3155L21.965 9.57712L21.6062 8.64372ZM19.2041 9.31385L15.0114 6.13628L14.4074 6.93325L18.6 10.1108L19.2041 9.31385ZM14.7094 6.03476H7.92608V7.03476H14.7094V6.03476ZM14.2511 6.33502L13.3903 8.31017L14.3071 8.70966L15.1678 6.73451L14.2511 6.33502ZM12.932 8.61042H5.29255V9.61042H12.932V8.61042ZM4.5351 1.0431L5.9374 2.36069L6.62216 1.63192L5.21986 0.314323L4.5351 1.0431ZM5.9374 2.36069L7.07433 3.42894L7.75908 2.70017L6.62216 1.63192L5.9374 2.36069ZM16.2487 13.3711C13.2108 14.5299 10.7199 14.4417 6.12966 13.1752L5.86368 14.1391C10.5543 15.4334 13.2861 15.5714 16.6051 14.3054L16.2487 13.3711ZM22.7496 17.4117C22.7371 18.5019 22.3567 19.2522 21.6882 19.774C20.9947 20.3154 19.9366 20.653 18.4997 20.7732L18.5831 21.7697C20.1086 21.6421 21.3906 21.2749 22.3035 20.5623C23.2415 19.8302 23.734 18.7773 23.7496 17.4232L22.7496 17.4117ZM16.6051 20.4318C13.2861 19.1658 10.5543 19.3039 5.86368 20.5981L6.12966 21.5621C10.7199 20.2955 13.2108 20.2074 16.2487 21.3662L16.6051 20.4318ZM4.34856 20.7275C3.22404 20.5392 2.46958 20.1412 1.99168 19.6069C1.51643 19.0756 1.26388 18.3525 1.25232 17.4113L0.252395 17.4236C0.266121 18.5407 0.570865 19.5184 1.24633 20.2736C1.91915 21.0258 2.90885 21.5003 4.18335 21.7138L4.34856 20.7275ZM4.1784 13.0309C3.11918 13.2231 2.12725 13.6359 1.39958 14.3614C0.660567 15.0983 0.236332 16.1163 0.252395 17.4236L1.25232 17.4113C1.23922 16.345 1.57736 15.5963 2.10565 15.0696C2.64529 14.5315 3.4256 14.1838 4.35695 14.0148L4.1784 13.0309ZM23.7496 17.4232C23.7655 16.0373 23.0361 14.9991 22.0423 14.2875C21.0593 13.5836 19.791 13.1743 18.6077 13.0062L18.467 13.9962C19.5438 14.1492 20.6453 14.5171 21.4601 15.1005C22.2642 15.6763 22.7608 16.4357 22.7496 17.4117L23.7496 17.4232ZM5.86368 20.5981C5.33863 20.743 4.82674 20.8076 4.34856 20.7275L4.18335 21.7138C4.85833 21.8269 5.52761 21.7282 6.12966 21.5621L5.86368 20.5981ZM6.12966 13.1752C5.52918 13.0095 4.85674 12.9078 4.1784 13.0309L4.35695 14.0148C4.82903 13.9291 5.33706 13.9938 5.86368 14.1391L6.12966 13.1752ZM19.6855 9.38207C19.524 9.44414 19.3419 9.41834 19.2041 9.31385L18.6 10.1108C19.0136 10.4243 19.5599 10.5017 20.0443 10.3155L19.6855 9.38207ZM13.3903 8.31017C13.3109 8.49251 13.1309 8.61042 12.932 8.61042V9.61042C13.5287 9.61042 14.0687 9.25671 14.3071 8.70966L13.3903 8.31017ZM18.4997 20.7732C17.8832 20.8247 17.2476 20.6769 16.6051 20.4318L16.2487 21.3662C16.9597 21.6374 17.756 21.8389 18.5831 21.7697L18.4997 20.7732ZM15.173 4.23343C15.2827 4.23955 15.3872 4.28162 15.4706 4.35311L16.1216 3.59404C15.8715 3.37956 15.5578 3.25337 15.2288 3.23498L15.173 4.23343ZM8.07355 2.835C7.95613 2.82844 7.84479 2.7807 7.75908 2.70017L7.07433 3.42894C7.33144 3.67053 7.66548 3.81375 8.01774 3.83344L8.07355 2.835ZM16.6051 14.3054C17.2534 14.0581 17.8747 13.9121 18.467 13.9962L18.6077 13.0062C17.7657 12.8866 16.9539 13.1021 16.2487 13.3711L16.6051 14.3054ZM4.23034 9.16953C4.51177 9.45178 4.89396 9.61042 5.29255 9.61042V8.61042C5.15969 8.61042 5.03229 8.55754 4.93848 8.46345L4.23034 9.16953Z" fill="#2993DD"/>
<circle cx="4.85733" cy="16.0526" r="0.656161" fill="#2993DD"/>
<circle cx="4.85733" cy="18.9167" r="0.656161" fill="#2993DD"/>
<circle cx="7.66788" cy="17.4884" r="0.656161" fill="#2993DD"/>
<circle cx="10.4569" cy="17.4884" r="0.656161" fill="#2993DD"/>
<circle cx="13.3124" cy="17.4884" r="0.656161" fill="#2993DD"/>
<circle cx="16.1015" cy="17.4884" r="0.656161" fill="#2993DD"/>
<circle cx="18.871" cy="16.0346" r="0.656161" fill="#2993DD"/>
<circle cx="18.871" cy="18.8007" r="0.656161" fill="#2993DD"/>
</svg>
