<svg width="65" height="65" viewBox="0 0 65 65" fill="none" xmlns="http://www.w3.org/2000/svg">
<path d="M31.5182 14.2553C34.2432 14.2553 36.4523 12.0462 36.4523 9.32115C36.4523 6.59607 34.2432 4.38696 31.5182 4.38696C28.7931 4.38696 26.584 6.59607 26.584 9.32115C26.584 12.0462 28.7931 14.2553 31.5182 14.2553Z" stroke="#EA8529" stroke-width="1.7" stroke-linejoin="round"/>
<path d="M44.0795 18.0347C46.1233 18.0347 47.7802 16.3779 47.7802 14.3341C47.7802 12.2903 46.1233 10.6334 44.0795 10.6334C42.0357 10.6334 40.3789 12.2903 40.3789 14.3341C40.3789 16.3779 42.0357 18.0347 44.0795 18.0347Z" stroke="#EA8529" stroke-width="1.7" stroke-linejoin="round"/>
<path d="M35.5272 34.4855C35.3422 34.4855 34.9105 34.6088 34.6021 34.6088C32.1967 34.6088 30.2847 32.6969 30.2847 30.2914C30.2847 28.3178 31.5799 26.5908 33.4919 26.0974C33.6152 26.0357 36.144 25.2339 37.1925 20.6698C37.5009 19.3746 38.3644 18.326 39.5363 17.771C38.3644 17.0308 37.0692 16.4141 35.5889 15.9823C34.2937 15.7356 32.9368 15.4889 31.5182 15.4889C30.1613 15.4889 28.8044 15.7356 27.4475 16.1057C25.4738 16.5991 23.7469 17.5859 22.2666 18.8195C21.8966 19.1895 21.6499 19.6829 21.5265 20.1764L18.0726 34.8556C18.0726 34.9789 17.9492 35.2256 17.9492 35.4723C17.9492 36.8292 19.0594 37.9394 20.4163 37.9394C21.5265 37.9394 22.5133 37.0759 22.76 36.0891L25.3505 25.3573V59.8965H30.2847V37.6927H32.7518V59.8965H37.6859V33.6837C36.4524 34.3005 35.6506 34.4855 35.5272 34.4855Z" stroke="#EA8529" stroke-width="1.7" stroke-linejoin="round"/>
<path d="M44.8801 32.8456C45.6866 32.0454 45.6598 30.7106 44.8201 29.8643C43.9804 29.0179 42.6459 28.9805 41.8393 29.7807C41.0328 30.5809 41.0596 31.9157 41.8993 32.7621C42.739 33.6084 44.0735 33.6459 44.8801 32.8456Z" stroke="#EA8529" stroke-width="1.7" stroke-linejoin="round"/>
<path d="M39.5984 27.4721C40.2491 26.8506 41.1166 26.488 41.9842 26.488C42.4179 26.488 42.7975 26.5916 43.1771 26.747C43.7193 25.7629 44.153 24.5716 44.4784 23.1732C44.8037 21.7748 43.8819 20.3763 42.4179 20.0656C40.954 19.7548 39.49 20.6353 39.1646 22.0337C38.0802 26.488 35.3149 27.3167 35.1522 27.3685H35.2064C34.0136 27.6275 33.0918 28.6634 33.0918 29.9064C33.0918 31.3567 34.2847 32.4961 35.8029 32.4961C36.0198 32.4961 36.3993 32.4444 36.3993 32.4444C36.5078 32.4444 37.5922 32.1854 39.002 31.3049C38.2429 30.1654 38.4055 28.5598 39.5984 27.4721Z" stroke="#EA8529" stroke-width="1.7" stroke-linejoin="round"/>
</svg>
