<svg width="65" height="65" viewBox="0 0 65 65" fill="none" xmlns="http://www.w3.org/2000/svg">
<path d="M40.3048 14.0061C40.3048 18.1783 36.9225 21.5606 32.7503 21.5606C28.578 21.5606 25.1957 18.1783 25.1957 14.0061C25.1957 11.8155 25.7545 9.78313 26.7973 8.3234C27.821 6.89051 29.3224 5.98379 31.347 5.98379C33.425 5.98379 35.6847 6.9402 37.4318 8.46896C39.181 9.99958 40.3048 12.0021 40.3048 14.0061Z" stroke="#EA8529" stroke-width="1.7"/>
<path d="M38.8018 42.2456C38.8018 42.3129 38.8018 42.3801 38.8018 42.4474C36.4485 42.6491 34.7003 44.5989 34.7676 46.9522C34.7676 47.6246 34.9693 48.2969 35.3055 48.8348C34.5659 49.1038 33.6246 49.2382 32.616 49.2382C31.5402 49.2382 30.6662 49.1038 29.9938 48.8348C31.0023 47.3556 31.0023 45.3385 29.9266 43.7921C29.1197 42.7163 27.9767 42.0439 26.6992 41.9095V40.5647H38.8018V42.2456ZM51.7112 29.9414L40.1465 23.8901C39.8776 23.8229 39.6086 23.7556 39.3397 23.7556H26.6992C26.363 23.7556 26.0941 23.8229 25.7579 23.8901L13.6553 30.6137C12.2434 31.1516 11.571 32.6981 12.0417 34.0428C12.4451 35.1858 13.5209 35.8582 14.5966 35.8582C14.9328 35.8582 15.2018 35.7909 15.538 35.7237L24.0097 31.2861C24.0097 31.2861 24.0097 42.3801 24.0097 42.5818C23.8753 42.6491 18.4964 46.4143 18.4964 46.4143C17.3533 47.2211 17.0172 48.8348 17.7568 50.0451L22.4633 57.4411C23.2701 58.7186 24.9511 59.0548 26.1613 58.2479C27.3716 57.4411 27.775 55.7602 26.9681 54.5499L24.6821 50.8519H26.1613C26.632 50.8519 27.1026 50.7847 27.5733 50.6502C28.7835 51.457 30.3972 51.9277 32.5488 51.9277C34.5659 51.9277 36.1795 51.457 37.457 50.7847C37.9949 51.0536 38.6673 51.1209 39.3397 51.1209L40.5499 51.0536L38.1294 54.4154C37.2553 55.6257 37.5243 57.3066 38.7345 58.1807C39.9448 59.0548 41.6257 58.7858 42.4998 57.5756L47.8787 50.1796C47.9459 50.1123 48.0132 50.0451 48.0132 49.9106C48.7528 48.6331 48.2821 46.9522 47.0046 46.2126L41.4912 43.1197C41.4912 42.8508 41.4912 31.0172 41.4912 31.0172L50.0975 35.1186C50.3664 35.1858 50.6354 35.2531 50.9043 35.2531C52.0474 35.2531 53.1231 34.5135 53.4593 33.3704C53.93 31.8912 53.1231 30.412 51.7112 29.9414Z" stroke="#EA8529" stroke-width="1.7" stroke-linejoin="round"/>
</svg>
