<svg width="40" height="40" viewBox="0 0 40 40" fill="none" xmlns="http://www.w3.org/2000/svg">
<path d="M8.55336 35.2953H10.9043C11.1016 35.2947 11.2966 35.2526 11.4765 35.1715C11.6564 35.0905 11.8172 34.9724 11.9483 34.825H23.7415C24.4314 34.8251 25.1081 34.6354 25.6973 34.2765L34.5116 28.9112C34.721 28.7836 34.9014 28.6138 35.0413 28.4125C35.1812 28.2111 35.2775 27.9828 35.324 27.7421C35.3704 27.5089 35.3683 27.2686 35.3176 27.0362C35.267 26.8038 35.169 26.5844 35.0297 26.3916C35.0214 26.3778 35.0123 26.3643 35.0026 26.3514C34.7814 26.0558 34.4726 25.8374 34.1202 25.7273C33.7678 25.6172 33.3896 25.621 33.0395 25.7381L24.3356 28.6395C24.1915 28.6874 24.0407 28.7118 23.8889 28.7119H23.6188C23.7292 28.4096 23.7707 28.0866 23.7404 27.7663C23.7102 27.446 23.6088 27.1364 23.4438 26.8602L23.4016 26.7901C23.1498 26.3733 22.7949 26.0284 22.3711 25.7885C21.9473 25.5486 21.4689 25.4219 20.982 25.4204H18.5227C17.6552 25.4194 16.8138 25.1242 16.1358 24.5831C15.2906 23.9089 14.2419 23.541 13.1608 23.5395H12.2283C12.1317 23.2653 11.9526 23.0277 11.7155 22.8593C11.4785 22.6909 11.1951 22.6 10.9043 22.5991H8.55336C7.77457 22.6 7.14346 23.2311 7.14258 24.0099V33.8846C7.14346 34.6633 7.77457 35.2945 8.55336 35.2953ZM15.5479 25.3175C16.3929 25.9918 17.4415 26.3596 18.5225 26.3609H20.9818C21.3064 26.3618 21.6253 26.4462 21.9078 26.6061C22.1903 26.766 22.4268 26.9959 22.5947 27.2737L22.6371 27.3439C22.7625 27.5531 22.8229 27.795 22.8104 28.0386C22.798 28.2823 22.7132 28.5167 22.5671 28.7121H19.7092C18.7807 28.7114 17.8729 28.9863 17.1008 29.502L16.7564 29.7317C16.6526 29.8009 16.5806 29.9084 16.5561 30.0307C16.5317 30.153 16.5568 30.28 16.626 30.3838C16.6952 30.4876 16.8028 30.5596 16.9251 30.584C17.0474 30.6085 17.1744 30.5833 17.2782 30.5142L17.6226 30.2845C18.2402 29.8718 18.9664 29.6518 19.7092 29.6524H23.8887C24.1416 29.6524 24.3928 29.6118 24.6326 29.5319L33.337 26.6308C33.4926 26.5772 33.6608 26.5721 33.8194 26.6163C33.9779 26.6606 34.1193 26.7519 34.2247 26.8783C34.2328 26.8921 34.2421 26.9052 34.2516 26.9184C34.32 27.0097 34.3686 27.1142 34.3942 27.2254C34.4199 27.3366 34.422 27.4519 34.4005 27.5639C34.379 27.6759 34.3343 27.7822 34.2693 27.8759C34.2043 27.9696 34.1204 28.0487 34.023 28.1081L25.2087 33.4734C24.7665 33.7422 24.259 33.8844 23.7415 33.8844H12.3151V24.4801H13.1608C14.0283 24.4812 14.8699 24.7764 15.5479 25.3176V25.3175ZM8.08299 24.0099C8.08311 23.8852 8.1327 23.7656 8.22089 23.6774C8.30907 23.5892 8.42865 23.5396 8.55336 23.5395H10.9043C11.029 23.5397 11.1486 23.5893 11.2368 23.6774C11.3249 23.7656 11.3745 23.8852 11.3747 24.0098V33.8846C11.3744 34.1441 11.1639 34.3544 10.9043 34.3547H8.55336C8.29376 34.3544 8.08321 34.1442 8.08299 33.8846V24.0099Z" fill="#EA8529"/>
<path d="M33.8712 11.1397L34.371 11.1241L33.8712 11.1397ZM23.7069 15.3554L23.5824 15.8396C23.6941 15.8683 23.8122 15.8575 23.9168 15.8091L23.7069 15.3554ZM21.0717 11.5862L21.4899 11.3122L21.0717 11.5862ZM17.3433 6.94094C17.141 7.12883 17.1292 7.4452 17.3171 7.64756C17.505 7.84992 17.8214 7.86165 18.0237 7.67376L17.3433 6.94094ZM25.8715 5.49896C26.1427 5.55096 26.4047 5.37327 26.4567 5.10206C26.5087 4.83086 26.331 4.56886 26.0598 4.51686L25.8715 5.49896ZM23.973 12.021C23.6968 12.021 23.473 12.2449 23.473 12.521C23.473 12.7971 23.6968 13.021 23.973 13.021V12.021ZM24.9607 13.021C25.2368 13.021 25.4607 12.7971 25.4607 12.521C25.4607 12.2449 25.2368 12.021 24.9607 12.021V13.021ZM30.1066 14.8554C29.8305 14.8554 29.6066 15.0792 29.6066 15.3554C29.6066 15.6315 29.8305 15.8554 30.1066 15.8554V14.8554ZM30.4944 15.8554C30.7706 15.8554 30.9944 15.6315 30.9944 15.3554C30.9944 15.0792 30.7706 14.8554 30.4944 14.8554V15.8554ZM22.5092 16.5591C22.5295 16.2837 22.3227 16.044 22.0473 16.0237C21.7719 16.0034 21.5322 16.2102 21.5119 16.4856L22.5092 16.5591ZM23.3304 21.8705L23.0493 22.2839L23.3304 21.8705ZM20.6422 20.8156C20.8783 20.6724 20.9536 20.3649 20.8104 20.1288C20.6671 19.8927 20.3597 19.8174 20.1235 19.9606L20.6422 20.8156ZM18.06 20.7207L17.8926 21.1919L18.06 20.7207ZM19.7145 13.9985L20.1327 13.7244L20.1261 13.7144L20.1191 13.7047L19.7145 13.9985ZM15.7936 10.3474C15.5549 10.2085 15.2488 10.2893 15.1099 10.5279C14.9709 10.7665 15.0517 11.0726 15.2903 11.2116L15.7936 10.3474ZM15.7149 9.0623L15.6214 9.55349L15.7149 9.0623ZM30.8068 17.9533L30.4122 17.6461L30.8068 17.9533ZM31.2013 18.2605C31.766 17.5352 32.5708 16.4143 33.227 15.1567C33.877 13.9107 34.4131 12.471 34.371 11.1241L33.3715 11.1554C33.4055 12.2441 32.9641 13.4986 32.3404 14.6942C31.7227 15.8781 30.9573 16.9461 30.4122 17.6461L31.2013 18.2605ZM34.371 11.1241C34.2314 6.6562 30.2249 3.46657 25.913 2.53257C21.5765 1.59325 16.6396 2.86892 14.5818 7.63989L15.5 8.03594C17.3043 3.85279 21.6529 2.63298 25.7013 3.50991C29.7743 4.39215 33.2519 7.33049 33.3715 11.1554L34.371 11.1241ZM23.8313 14.8711C23.2131 14.7122 22.8679 14.2805 22.5529 13.6118C22.3907 13.2674 22.2584 12.9099 22.0903 12.5031C21.9285 12.1117 21.7413 11.6959 21.4899 11.3122L20.6534 11.8602C20.8518 12.163 21.0103 12.5081 21.1661 12.8851C21.3155 13.2467 21.4728 13.6652 21.6482 14.0379C22.0087 14.8032 22.5312 15.5695 23.5824 15.8396L23.8313 14.8711ZM21.4899 11.3122C20.0374 9.09501 18.0027 8.98877 15.8084 8.57112L15.6214 9.55349C17.9792 10.0022 19.4839 10.075 20.6534 11.8602L21.4899 11.3122ZM18.0237 7.67376C19.3431 6.44872 20.3974 5.75335 21.5474 5.43085C22.6994 5.1078 24.0085 5.14176 25.8715 5.49896L26.0598 4.51686C24.1357 4.14793 22.6477 4.08373 21.2774 4.468C19.9051 4.85282 18.7119 5.67023 17.3433 6.94094L18.0237 7.67376ZM23.973 13.021H24.9607V12.021H23.973V13.021ZM30.1066 15.8554H30.4944V14.8554H30.1066V15.8554ZM21.5119 16.4856C21.4197 17.7368 21.2718 18.8459 21.4019 19.768C21.5427 20.7653 22.0026 21.5723 23.0493 22.2839L23.6115 21.457C22.788 20.8971 22.4918 20.3348 22.3921 19.6283C22.2818 18.8466 22.4091 17.9175 22.5092 16.5591L21.5119 16.4856ZM30.0729 17.5891C29.5646 16.5619 28.9229 15.4106 27.8816 14.7654C26.7881 14.0877 25.3763 14.0319 23.4969 14.9016L23.9168 15.8091C25.5995 15.0305 26.6356 15.1697 27.3549 15.6154C28.1266 16.0936 28.6627 16.9941 29.1766 18.0326L30.0729 17.5891ZM23.0493 22.2839C23.2815 22.4418 23.553 22.4587 23.7727 22.4379C24.0011 22.4162 24.2475 22.347 24.4957 22.2528C24.9942 22.0637 25.5826 21.7415 26.1981 21.3407C27.4327 20.5367 28.8491 19.3682 29.9894 18.1529L29.2601 17.4687C28.1753 18.6249 26.8206 19.7419 25.6524 20.5027C25.0665 20.8843 24.5455 21.1644 24.1409 21.3179C23.9376 21.395 23.784 21.4323 23.6784 21.4423C23.5641 21.4532 23.5673 21.4269 23.6115 21.457L23.0493 22.2839ZM20.3829 20.3881C20.1235 19.9606 20.1237 19.9605 20.1238 19.9604C20.1238 19.9604 20.124 19.9603 20.124 19.9603C20.1242 19.9602 20.1243 19.9601 20.1244 19.9601C20.1247 19.9599 20.1248 19.9598 20.1249 19.9598C20.125 19.9597 20.1249 19.9598 20.1245 19.96C20.1238 19.9605 20.1219 19.9616 20.119 19.9632C20.1131 19.9666 20.1031 19.9724 20.0891 19.98C20.0612 19.9952 20.0179 20.018 19.9618 20.0448C19.849 20.0987 19.6876 20.1673 19.4968 20.2248C19.1054 20.3427 18.6448 20.3979 18.2274 20.2496L17.8926 21.1919C18.5943 21.4411 19.2951 21.33 19.7854 21.1822C20.0354 21.1069 20.2449 21.0178 20.3928 20.9472C20.467 20.9117 20.5265 20.8805 20.5688 20.8574C20.59 20.8458 20.6069 20.8363 20.6192 20.8292C20.6253 20.8256 20.6304 20.8226 20.6342 20.8204C20.6361 20.8192 20.6378 20.8183 20.6391 20.8175C20.6398 20.8171 20.6403 20.8167 20.6409 20.8164C20.6411 20.8162 20.6414 20.8161 20.6416 20.816C20.6417 20.8159 20.6418 20.8158 20.6419 20.8158C20.642 20.8157 20.6422 20.8156 20.3829 20.3881ZM18.2274 20.2496C18.0086 20.1718 17.9263 20.0758 17.8878 19.9985C17.8431 19.9087 17.8178 19.7633 17.8555 19.5297C17.9335 19.0452 18.2408 18.4092 18.6526 17.6894C19.0394 17.0132 19.5328 16.2411 19.8537 15.6212C20.0176 15.3046 20.1606 14.9846 20.2342 14.6905C20.3037 14.4128 20.3407 14.0419 20.1327 13.7244L19.2963 14.2726C19.27 14.2324 19.3132 14.2517 19.2641 14.4479C19.2191 14.6278 19.1189 14.8656 18.9656 15.1615C18.6523 15.7667 18.216 16.4387 17.7846 17.1929C17.3781 17.9036 16.9787 18.6845 16.8682 19.3707C16.8115 19.7224 16.8216 20.1009 16.9927 20.4443C17.17 20.8002 17.4839 21.0467 17.8926 21.1919L18.2274 20.2496ZM20.1191 13.7047C18.9644 12.1146 17.7334 11.4771 15.7936 10.3474L15.2903 11.2116C17.2772 12.3687 18.3026 12.9053 19.3099 14.2923L20.1191 13.7047ZM14.5818 7.63989C14.2176 8.4842 14.7618 9.38987 15.6214 9.55349L15.8084 8.57112C15.5334 8.51878 15.4068 8.25217 15.5 8.03594L14.5818 7.63989ZM30.4122 17.6461C30.3634 17.7088 30.3034 17.7272 30.2446 17.7198C30.1825 17.7119 30.1144 17.673 30.0729 17.5891L29.1766 18.0326C29.5604 18.8083 30.6314 18.9924 31.2013 18.2605L30.4122 17.6461Z" fill="#EA8529"/>
</svg>
