<svg width="24" height="24" viewBox="0 0 24 24" fill="none" xmlns="http://www.w3.org/2000/svg">
<path d="M7.82289 21.658C6.97128 21.658 6.39063 21.6386 6.25515 21.6193C5.40353 21.4451 4.88095 20.8064 4.84224 19.9161C4.80353 18.9677 5.03579 17.129 5.03579 17.0515C5.03579 17.0322 5.03579 17.0128 5.05515 16.9935C5.05515 16.9741 5.69386 14.9999 5.32611 11.7096C4.95837 8.32251 4.84224 2.6709 4.84224 2.61283C4.84224 2.53541 4.88095 2.45799 4.93902 2.39993C4.99708 2.34186 5.0745 2.32251 5.15192 2.32251C5.53902 2.34186 8.82934 2.57412 9.58418 3.92896C10.939 3.77412 11.6745 3.92896 11.7519 4.39348C11.7519 4.41283 11.7519 4.43219 11.7519 4.43219C11.7519 4.4709 11.7519 4.50961 11.7326 4.54832C11.5584 5.22573 11.5777 5.63219 11.6551 5.84509C11.6551 5.86445 11.6745 5.8838 11.6745 5.92251C11.6939 6.29025 11.6939 7.19993 11.481 7.50961C11.4229 7.56767 11.3842 7.62574 11.3648 7.66445C11.3261 7.72251 11.3068 7.74186 11.2681 8.14832C11.2487 8.30316 11.2487 8.45799 11.2487 8.59348C11.2487 8.8838 11.2487 9.11606 11.0745 9.29025C10.9584 9.38702 10.8035 9.44509 10.5906 9.42574C10.4745 9.40638 10.339 9.38703 10.2229 9.36767C10.0487 9.32896 9.81644 9.2709 9.71966 9.32896C9.68095 9.36767 9.64224 9.44509 9.62289 9.58057C9.54547 10.1999 9.62289 13.3161 9.68095 15.0193C9.71966 15.0193 9.75837 15.0193 9.81644 14.9999C10.3003 14.9225 10.8422 14.9225 11.1326 15.329C11.3068 15.5999 11.539 15.7935 11.6745 15.8515C11.6939 15.8515 12.6616 16.3741 12.7003 16.7612C12.7003 16.8193 12.7003 16.8773 12.7003 16.9161H12.7197C12.7584 16.9354 12.7971 16.9548 12.8551 16.9935C13.3971 17.2644 13.8422 17.5161 13.8229 17.9032C13.8229 18.2903 13.4745 18.8322 13.1648 19.1806C12.9906 19.3741 13.1455 19.7032 13.1455 19.7032C13.1648 19.7419 13.1842 19.7999 13.1842 19.8386C13.1648 20.2644 13.2616 20.787 13.4164 20.8451C13.7261 20.9419 16.3971 20.9612 18.7777 20.9419C18.9326 20.9419 19.0681 21.058 19.0681 21.2322C19.0681 21.4064 18.9519 21.5225 18.7777 21.5225C17.2293 21.5225 10.8229 21.658 7.82289 21.658ZM5.63579 17.1483C5.61644 17.3806 5.40353 19.0451 5.44224 19.8773C5.48095 20.729 6.0616 20.9806 6.39063 21.058C6.6616 21.0967 9.56482 21.0773 12.8358 21.0386C12.6035 20.6709 12.6035 20.1096 12.6035 19.8773C12.4874 19.6064 12.4293 19.1612 12.739 18.7935C13.0293 18.4451 13.2229 18.0773 13.2616 17.9032C13.1648 17.787 12.739 17.5548 12.6035 17.4967C12.5455 17.458 12.4874 17.4386 12.4487 17.4193C12.1197 17.2451 12.1003 17.0515 12.139 16.858C12.0229 16.7225 11.6164 16.4515 11.4422 16.3741C11.1906 16.258 10.9003 15.987 10.6681 15.658C10.5713 15.5225 10.339 15.5032 9.91321 15.5612C9.60353 15.5999 9.39063 15.5612 9.25515 15.4451C9.17773 15.3677 9.11966 15.2709 9.11966 15.1741C9.10031 14.9032 8.92612 10.3161 9.04224 9.4838C9.08095 9.17412 9.19708 8.96122 9.37128 8.84509C9.6616 8.65154 10.0293 8.72896 10.3197 8.78703C10.4358 8.80638 10.5326 8.82574 10.61 8.84509C10.6293 8.84509 10.6293 8.84509 10.6293 8.84509C10.6293 8.78703 10.6293 8.6709 10.6293 8.59348C10.6293 8.45799 10.6293 8.2838 10.6487 8.09025C10.7068 7.56767 10.7261 7.4709 10.9003 7.27735C10.9197 7.25799 10.9584 7.21928 10.9777 7.18057C11.0358 7.06445 11.0745 6.52251 11.0745 5.98057C10.9777 5.57412 10.9971 5.09025 11.1326 4.50961C10.881 4.43219 10.1455 4.43219 9.42934 4.52896C9.29386 4.54832 9.15837 4.4709 9.11966 4.33541C8.88741 3.50315 6.85515 3.03864 5.44224 2.92251C5.48095 4.16122 5.59708 8.74832 5.92611 11.6515C6.29386 14.9032 5.71321 16.8773 5.63579 17.1483Z" fill="#2993DD"/>
<path d="M11.3069 6.23224C10.0101 6.13546 9.31334 6.0774 9.21657 6.01933C9.17786 5.99998 9.1585 5.98062 9.13915 5.96127C9.08108 5.92256 9.04237 5.88385 8.86818 5.9032C8.57786 5.92256 7.68753 6.09675 7.66818 6.09675C7.59076 6.11611 7.51334 6.05804 7.49399 5.98062C7.47463 5.9032 7.5327 5.82579 7.61011 5.80643C7.64882 5.80643 8.53915 5.63224 8.82947 5.61288C9.08108 5.59353 9.19721 5.65159 9.29398 5.72901C9.31334 5.74837 9.3327 5.74837 9.35205 5.76772C9.44882 5.80643 10.4359 5.88385 11.3069 5.94192C11.3843 5.94192 11.4424 6.01933 11.4424 6.09675C11.4617 6.17417 11.3843 6.23224 11.3069 6.23224Z" fill="#2993DD"/>
<path d="M7.301 6.9289C6.97196 6.9289 6.68164 6.65793 6.68164 6.30954C6.68164 5.96115 6.95261 5.69019 7.301 5.69019C7.64938 5.69019 7.92035 5.96115 7.92035 6.30954C7.92035 6.65793 7.63003 6.9289 7.301 6.9289ZM7.301 5.99986C7.1268 5.99986 6.97196 6.1547 6.97196 6.3289C6.97196 6.50309 7.1268 6.65793 7.301 6.65793C7.47519 6.65793 7.63003 6.50309 7.63003 6.3289C7.63003 6.1547 7.47519 5.99986 7.301 5.99986Z" fill="#2993DD"/>
<path d="M11.1915 7.54825L8.96571 7.47083C8.94635 7.47083 8.94635 7.47083 8.927 7.47083C7.45603 6.9676 7.51409 6.67728 7.53345 6.59986C7.5528 6.52244 7.63022 6.46438 7.70764 6.48373C7.78506 6.50309 7.82377 6.56115 7.82377 6.61922C7.90119 6.73535 8.42377 6.98696 9.00442 7.18051L11.1915 7.25793C11.2689 7.25793 11.327 7.33535 11.327 7.41276C11.327 7.49018 11.2689 7.54825 11.1915 7.54825Z" fill="#2993DD"/>
<path d="M7.36493 19.5107C7.32622 19.5107 7.28751 19.4913 7.26816 19.472C7.21009 19.4139 7.21009 19.3171 7.26816 19.2591C8.06171 18.4849 9.25611 17.4776 9.64321 17.0905C9.83676 16.7421 10.9649 15.7752 11.1004 15.6591C11.1585 15.6203 11.2553 15.6397 11.294 15.6978C11.3327 15.7558 11.3133 15.8526 11.2553 15.8913C10.694 16.2784 9.99159 17.0131 9.87547 17.226C9.4303 17.7292 7.65525 19.2591 7.46171 19.4526C7.44235 19.5107 7.40364 19.5107 7.36493 19.5107Z" fill="#2993DD"/>
<path d="M8.03587 20.3999C7.97781 20.3999 7.9391 20.3805 7.91975 20.3224C7.88104 20.245 7.90039 20.1676 7.97781 20.1289C9.62297 19.1999 12.2939 16.7611 12.3133 16.7418C12.3714 16.6837 12.4681 16.6837 12.5068 16.7418C12.5649 16.7999 12.5649 16.8966 12.5068 16.9353C12.3907 17.0321 9.79716 19.4128 8.11329 20.3611C8.07458 20.3805 8.05523 20.3999 8.03587 20.3999Z" fill="#2993DD"/>
</svg>
