<svg width="65" height="65" viewBox="0 0 65 65" fill="none" xmlns="http://www.w3.org/2000/svg">
<path d="M52.0444 43.9263C54.6438 43.9263 56.751 41.8191 56.751 39.2197C56.751 36.6204 54.6438 34.5132 52.0444 34.5132C49.4451 34.5132 47.3379 36.6204 47.3379 39.2197C47.3379 41.8191 49.4451 43.9263 52.0444 43.9263Z" stroke="#EA8529" stroke-width="1.7" stroke-linejoin="round"/>
<path d="M33.8906 19.7212C36.8613 19.7212 39.2696 17.313 39.2696 14.3423C39.2696 11.3716 36.8613 8.96338 33.8906 8.96338C30.9199 8.96338 28.5117 11.3716 28.5117 14.3423C28.5117 17.313 30.9199 19.7212 33.8906 19.7212Z" stroke="#EA8529" stroke-width="1.7" stroke-linejoin="round"/>
<path d="M29.3199 33.7064L33.9592 35.7908L31.4042 39.6232C31.2025 39.9594 31.0008 40.3628 30.9335 40.8335C30.7318 42.3799 31.8076 43.7247 33.2868 43.9264C33.4213 43.9264 43.3051 43.9264 43.3051 43.9264C44.7843 43.9264 45.9945 42.7161 45.9945 41.2369L45.3222 33.7064C45.2549 32.9668 44.5826 32.4289 43.843 32.4962C43.1034 32.5634 42.5655 33.2358 42.6327 33.9754L43.1034 38.5475H36.7831L37.1865 35.3201C37.2538 34.7822 36.9848 34.1771 36.4469 33.9754L30.3957 31.2859C29.7233 31.017 28.9165 31.2859 28.6475 31.9583C28.3113 32.6307 28.6475 33.4375 29.3199 33.7064Z" stroke="#EA8529" stroke-width="1.7" stroke-linejoin="round"/>
<path d="M57.273 46.7025H28.3613V46.0302H57.273V46.7025Z" stroke="#EA8529" stroke-width="1.7" stroke-linejoin="round"/>
<path d="M36.5806 31.1514C37.5892 31.1514 38.5977 30.5463 39.0011 29.605C39.6062 28.2603 39.0011 26.6466 37.6564 26.0415L29.857 22.4107L26.8313 15.7543C25.3521 14.0734 22.7971 13.8717 21.1162 15.3509L9.01365 25.8398C8.0051 26.7138 7.46721 27.7896 7.66892 29.4705L9.01365 40.8335L7.66892 53.7429C7.53445 55.2221 8.61023 56.5668 10.0894 56.7013C10.1567 56.7013 10.2911 56.7013 10.3584 56.7013C11.7031 56.7013 12.9134 55.6927 13.0478 54.2808L14.3926 41.1024C14.3926 40.9007 14.3926 40.699 14.3926 40.4973L14.0564 37.5389L17.082 42.5816L16.4097 53.8774C16.3424 55.3566 17.4854 56.6341 18.9646 56.7013C19.0319 56.7013 19.0991 56.7013 19.0991 56.7013C20.5111 56.7013 21.7213 55.6255 21.7886 54.1463L22.4609 42.0437C22.4609 41.5059 22.3265 40.968 22.0575 40.4973L16.0062 30.4118L24.3436 23.2175L25.3521 25.5036C25.6211 26.1087 26.0917 26.5794 26.6968 26.8483L35.4376 30.8825C35.841 31.0842 36.1772 31.1514 36.5806 31.1514Z" stroke="#EA8529" stroke-width="1.7" stroke-linejoin="round"/>
</svg>
