<svg width="25" height="25" viewBox="0 0 25 25" fill="none" xmlns="http://www.w3.org/2000/svg">
<g clip-path="url(#clip0_3903_27857)">
<path d="M23.9812 16.8758L21.4466 13.002C21.3863 12.9096 21.3039 12.8336 21.2068 12.7811C21.1098 12.7286 21.0011 12.7012 20.8907 12.7014H17.3563C17.2506 12.3866 17.089 12.1582 16.939 11.9473C16.7135 11.6305 16.5353 11.3801 16.5353 10.8337C16.5353 10.2873 16.7135 10.037 16.939 9.72016C17.3642 9.20102 17.632 8.37222 17.3781 7.50016C17.3653 7.45549 17.3438 7.4138 17.3148 7.3775C17.2858 7.3412 17.2498 7.31102 17.2091 7.2887C17.1683 7.26638 17.1235 7.25236 17.0773 7.24745C17.0311 7.24255 16.9844 7.24685 16.9398 7.26012C16.8953 7.27339 16.8538 7.29535 16.8178 7.32474C16.7818 7.35414 16.752 7.39038 16.7301 7.43137C16.7082 7.47235 16.6947 7.51728 16.6902 7.56354C16.6858 7.6098 16.6906 7.65648 16.7043 7.70088C16.8765 8.33899 16.7136 8.88105 16.3661 9.31249C15.6514 10.1815 15.653 11.4881 16.3661 12.3551C16.4504 12.4735 16.528 12.5826 16.5922 12.7014H12.7937C12.688 12.3866 12.5263 12.1583 12.3763 11.9474C12.1508 11.6305 11.9727 11.3802 11.9727 10.8338C11.9727 10.2874 12.1508 10.0371 12.3763 9.72021C13.091 8.85114 13.0894 7.5445 12.3763 6.6775C12.1508 6.36053 11.9727 6.11018 11.9727 5.56371C11.9727 5.305 12.0268 5.17253 12.1089 4.97196C12.218 4.70514 12.3585 4.36146 12.4155 3.64324L12.9173 4.15343C13.2535 4.47475 13.7342 4.00141 13.4186 3.66035L12.3404 2.56418C12.2093 2.42529 11.9703 2.42529 11.8392 2.56418L10.761 3.66035C10.6956 3.72682 10.6593 3.81655 10.6601 3.90978C10.6609 4.00301 10.6986 4.09212 10.7651 4.1575C10.8316 4.22288 10.9213 4.25918 11.0145 4.2584C11.1078 4.25763 11.1969 4.21985 11.2623 4.15338L11.7046 3.70366C11.652 4.23105 11.5472 4.48755 11.458 4.70575C11.061 5.55232 11.3357 6.5185 11.8033 7.08513C12.0289 7.4021 12.207 7.65241 12.207 8.19893C12.207 8.7453 12.0289 8.99561 11.8033 9.31249C11.0884 10.1823 11.0903 11.4879 11.8034 12.3551C11.8876 12.4735 11.9653 12.5826 12.0295 12.7014H8.23096C8.12525 12.3866 7.96363 12.1583 7.81358 11.9474C7.58807 11.6305 7.40994 11.3802 7.40994 10.8338C7.40994 10.2874 7.58807 10.0371 7.81358 9.72021C8.52833 8.85114 8.52664 7.5445 7.81363 6.6775C7.58807 6.36053 7.40994 6.11018 7.40994 5.56371C7.40994 5.305 7.46413 5.17253 7.54616 4.97196C7.65528 4.70514 7.79577 4.36146 7.85282 3.64324L8.35461 4.15343C8.6908 4.47475 9.17146 4.00141 8.85589 3.66035L7.77782 2.56413C7.64666 2.42524 7.40769 2.42524 7.27653 2.56413L6.19836 3.6603C6.13299 3.72678 6.09669 3.8165 6.09746 3.90973C6.09824 4.00297 6.13602 4.09208 6.20249 4.15746C6.26896 4.22284 6.35869 4.25913 6.45192 4.25836C6.54515 4.25758 6.63426 4.2198 6.69964 4.15333L7.14196 3.70361C7.08941 4.231 6.9846 4.4875 6.89539 4.70571C6.49841 5.55227 6.7731 6.51846 7.24067 7.08508C7.46624 7.40205 7.64436 7.65236 7.64436 8.19888C7.64436 8.74525 7.46624 8.99557 7.24072 9.31244C6.52578 10.1823 6.52771 11.4878 7.24077 12.355C7.325 12.4735 7.40268 12.5826 7.46689 12.7014H3.28897C3.17859 12.7012 3.06992 12.7286 2.97283 12.7811C2.87574 12.8336 2.79331 12.9096 2.73303 13.002L0.198456 16.8758C0.132755 16.9761 0.0954232 17.0923 0.090422 17.212C0.0854207 17.3318 0.112937 17.4507 0.17005 17.5561C0.226958 17.6615 0.311321 17.7495 0.414196 17.8109C0.517071 17.8722 0.634624 17.9045 0.754394 17.9045H2.52107C2.98593 17.8901 2.98555 17.2156 2.52107 17.2014H0.825691L3.31002 13.4045H7.64305C7.60438 13.9557 8.39197 13.954 8.34604 13.4045H12.2057C12.167 13.9557 12.9546 13.954 12.9087 13.4045H16.7684C16.7297 13.9557 17.5173 13.954 17.4714 13.4045H20.8697L23.354 17.2014H4.17496C3.7101 17.2158 3.71047 17.8902 4.17496 17.9045H7.42902C7.54607 18.1 7.64436 18.3416 7.64436 18.7383C7.64436 19.2847 7.46624 19.535 7.24072 19.8519C6.99046 20.2035 6.70682 20.6021 6.70682 21.3732C6.70682 21.4664 6.74386 21.5559 6.80979 21.6218C6.87572 21.6877 6.96514 21.7248 7.05838 21.7248C7.15162 21.7248 7.24104 21.6877 7.30697 21.6218C7.3729 21.5559 7.40994 21.4664 7.40994 21.3732C7.40994 20.8268 7.58807 20.5765 7.81358 20.2595C8.28285 19.6852 8.52561 18.7888 8.20771 17.9045H11.9914C12.1072 18.0988 12.207 18.3406 12.207 18.7383C12.207 19.2847 12.0289 19.535 11.8034 19.8519C11.5531 20.2036 11.2695 20.6021 11.2695 21.3732C11.2695 21.4665 11.3065 21.5559 11.3725 21.6218C11.4384 21.6878 11.5278 21.7248 11.621 21.7248C11.7143 21.7248 11.8037 21.6878 11.8696 21.6218C11.9356 21.5559 11.9726 21.4665 11.9726 21.3732C11.9726 20.8268 12.1507 20.5765 12.3763 20.2596C12.8458 19.6875 13.0879 18.7834 12.7695 17.9046H16.5539C16.685 18.1246 16.7697 18.3614 16.7697 18.7383C16.7697 19.2848 16.5916 19.5351 16.3661 19.852C16.1158 20.2036 15.8322 20.6022 15.8322 21.3733C15.8322 21.4665 15.8692 21.5559 15.9351 21.6219C16.0011 21.6878 16.0905 21.7248 16.1837 21.7248C16.277 21.7248 16.3664 21.6878 16.4323 21.6219C16.4982 21.5559 16.5353 21.4665 16.5353 21.3733C16.5353 20.8269 16.7134 20.5765 16.9389 20.2597C17.4093 19.6841 17.6502 18.7878 17.3332 17.9046H23.4253C23.6695 17.9046 23.8934 17.7711 24.0096 17.5563C24.0667 17.4508 24.0943 17.3319 24.0893 17.2121C24.0843 17.0923 24.0469 16.9761 23.9812 16.8758Z" fill="#EA8529"/>
<path d="M6.02937 16.2894C6.49422 16.275 6.49385 15.6005 6.02937 15.5862H5.65305C5.18819 15.6006 5.18857 16.2751 5.65305 16.2894H6.02937ZM9.15433 16.2894C9.61919 16.275 9.61882 15.6005 9.15433 15.5862H8.77802C8.31316 15.6006 8.31354 16.2751 8.77802 16.2894H9.15433ZM12.2793 16.2894C12.7441 16.275 12.7437 15.6005 12.2793 15.5862H11.9029C11.4381 15.6006 11.4385 16.2751 11.9029 16.2894H12.2793ZM15.4042 16.2894C15.869 16.275 15.8687 15.6005 15.4042 15.5862H15.0279C14.563 15.6006 14.5634 16.2751 15.0279 16.2894H15.4042ZM18.5291 16.2894C18.994 16.275 18.9936 15.6005 18.5291 15.5862H18.1527C17.6879 15.6006 17.6883 16.2751 18.1527 16.2894H18.5291ZM4.22547 14.7156H4.64412C5.10897 14.7012 5.1086 14.0267 4.64412 14.0125H4.22547C3.76062 14.0268 3.76094 14.7014 4.22547 14.7156ZM7.7066 14.7156C8.17146 14.7012 8.17108 14.0267 7.7066 14.0125H7.28801C6.82315 14.0268 6.82352 14.7013 7.28801 14.7156H7.7066ZM10.7691 14.7156C11.234 14.7012 11.2336 14.0267 10.7691 14.0125H10.3505C9.88568 14.0268 9.88605 14.7013 10.3505 14.7156H10.7691ZM13.8317 14.7156C14.2965 14.7012 14.2961 14.0267 13.8317 14.0125H13.4131C12.9482 14.0268 12.9486 14.7013 13.4131 14.7156H13.8317ZM16.8942 14.7156C17.3591 14.7012 17.3587 14.0267 16.8942 14.0125H16.4756C16.0107 14.0268 16.0111 14.7013 16.4756 14.7156H16.8942ZM19.9567 14.7156C20.4216 14.7012 20.4212 14.0267 19.9567 14.0125H19.5381C19.0732 14.0268 19.0736 14.7013 19.5381 14.7156H19.9567ZM15.8262 4.15338L16.2686 3.70366C16.216 4.23105 16.1112 4.48755 16.022 4.70575C15.9293 4.93239 15.8334 5.16677 15.8334 5.56366C15.8334 5.81721 15.8637 6.04352 15.9261 6.25554C15.9803 6.44346 16.1813 6.54846 16.3626 6.49361C16.4069 6.48059 16.4482 6.45896 16.4841 6.42998C16.52 6.40099 16.5499 6.36521 16.572 6.32467C16.5941 6.28414 16.608 6.23965 16.613 6.19374C16.6179 6.14783 16.6137 6.10141 16.6007 6.05711C16.4984 5.72529 16.5165 5.27632 16.6728 4.97191C16.7819 4.7051 16.9224 4.36141 16.9795 3.64319L17.4813 4.15338C17.8174 4.47471 18.2981 4.00136 17.9825 3.6603L16.9044 2.56413C16.7732 2.42524 16.5342 2.42524 16.4031 2.56413L15.325 3.6603C15.2596 3.72678 15.2233 3.8165 15.2241 3.90973C15.2249 4.00297 15.2627 4.09208 15.3291 4.15746C15.362 4.18984 15.401 4.21542 15.4438 4.23273C15.4866 4.25005 15.5324 4.25877 15.5785 4.25839C15.6247 4.25802 15.6703 4.24855 15.7128 4.23053C15.7553 4.21251 15.7939 4.18629 15.8262 4.15338Z" fill="#EA8529"/>
</g>
<defs>
<clipPath id="clip0_3903_27857">
<rect width="24" height="24" fill="white" transform="translate(0.0898438 0.0898438)"/>
</clipPath>
</defs>
</svg>
