<svg width="40" height="40" viewBox="0 0 40 40" fill="none" xmlns="http://www.w3.org/2000/svg">
<path d="M36.25 6.25H3.75C2.71875 6.25 1.875 7.09375 1.875 8.125V31.875C1.875 32.9062 2.71875 33.75 3.75 33.75H23.75V36.25C23.75 36.4875 23.8812 36.7 24.0937 36.8062C24.3062 36.9125 24.5562 36.8875 24.75 36.75L26.875 35.1562L29 36.75C29.1125 36.8312 29.2438 36.875 29.375 36.875C29.4688 36.875 29.5688 36.85 29.6563 36.8062C29.7593 36.7543 29.846 36.6748 29.9067 36.5767C29.9673 36.4785 29.9997 36.3654 30 36.25V33.75H36.25C37.2812 33.75 38.125 32.9062 38.125 31.875V8.125C38.125 7.09375 37.2812 6.25 36.25 6.25ZM24.2375 27.8688C23.9625 27.8563 23.5938 27.8438 23.4938 27.75C23.4 27.6563 23.3875 27.2812 23.375 27.0062C23.3625 26.65 23.3437 26.25 23.2 25.8938C23.0562 25.5438 22.8 25.275 22.55 25.0062C22.35 24.7937 22.0937 24.525 22.0937 24.3688C22.0937 24.2125 22.3438 23.95 22.55 23.7313C22.8 23.4688 23.0562 23.1937 23.2 22.8437C23.35 22.4875 23.3625 22.0813 23.375 21.7313C23.3875 21.4563 23.4 21.0875 23.4938 20.9875C23.5875 20.8938 23.9625 20.8812 24.2375 20.8687C24.5937 20.8562 24.9938 20.8375 25.35 20.6938C25.6938 20.55 25.9688 20.2937 26.2313 20.0437C26.45 19.8437 26.7125 19.5875 26.8688 19.5875C27.025 19.5875 27.2875 19.8375 27.5062 20.0437C27.7687 20.2937 28.0438 20.55 28.3938 20.6938C28.75 20.8438 29.1562 20.8562 29.5062 20.8687C29.7812 20.8812 30.15 20.8938 30.25 20.9875C30.3438 21.0813 30.3563 21.4563 30.3688 21.7313C30.3813 22.0875 30.4 22.4875 30.5437 22.8437C30.6875 23.1937 30.9437 23.4625 31.1937 23.7313C31.3937 23.9438 31.65 24.2125 31.65 24.3688C31.65 24.525 31.4 24.7875 31.1937 25.0062C30.9437 25.2687 30.6875 25.5438 30.5437 25.8938C30.3937 26.25 30.3813 26.6562 30.3688 27.0062C30.3563 27.2812 30.3438 27.65 30.25 27.75C30.1563 27.8438 29.7812 27.8563 29.5062 27.8688C29.15 27.8813 28.75 27.9 28.3938 28.0437C28.05 28.1875 27.775 28.4437 27.5125 28.6937C27.2938 28.8937 27.0312 29.15 26.875 29.15C26.7188 29.15 26.4562 28.9 26.2375 28.6937C25.975 28.4437 25.7 28.1875 25.35 28.0437C24.9938 27.8937 24.5875 27.8813 24.2375 27.8688ZM30 29.0937C30.4 29.0562 30.8187 28.9562 31.1375 28.6375C31.5812 28.1937 31.6 27.5687 31.625 27.0625C31.6375 26.8 31.6437 26.5312 31.7062 26.3812C31.7625 26.2437 31.9375 26.0563 32.1125 25.875C32.4625 25.5 32.9063 25.0312 32.9063 24.3812C32.9063 23.7312 32.4688 23.2687 32.1125 22.8875C31.9438 22.7062 31.7625 22.5188 31.7062 22.3813C31.6437 22.2313 31.6312 21.9563 31.625 21.7C31.6062 21.1938 31.5813 20.5625 31.1438 20.125C30.7 19.6813 30.075 19.6625 29.5688 19.6375C29.3063 19.625 29.0375 19.6188 28.8875 19.5563C28.75 19.5 28.5625 19.325 28.3812 19.15C28.0062 18.8 27.5375 18.3563 26.8875 18.3563C26.2375 18.3563 25.775 18.7937 25.3938 19.15C25.2125 19.3187 25.025 19.5 24.8875 19.5563C24.7375 19.6188 24.4625 19.6313 24.2062 19.6375C23.7 19.6563 23.0687 19.6813 22.6312 20.125C22.1875 20.5688 22.1688 21.1938 22.1438 21.7C22.1313 21.9625 22.125 22.2313 22.0625 22.3813C22.0062 22.5188 21.8313 22.7062 21.6563 22.8875C21.3063 23.2625 20.8625 23.7312 20.8625 24.3812C20.8625 25.0312 21.3 25.4938 21.6563 25.875C21.825 26.0563 22.0062 26.2437 22.0625 26.3812C22.125 26.5312 22.1375 26.8062 22.1438 27.0625C22.1625 27.5687 22.1875 28.2 22.625 28.6375C22.9438 28.9562 23.3625 29.0562 23.7625 29.0937V30H5.625V10H34.375V30H30V29.0937ZM27.25 33.875C27.1422 33.7929 27.0105 33.7484 26.875 33.7484C26.7395 33.7484 26.6078 33.7929 26.5 33.875L25 35V29.275C25.1187 29.3563 25.25 29.4812 25.3813 29.6062C25.7563 29.9562 26.225 30.4 26.875 30.4C27.525 30.4 27.9875 29.9625 28.3687 29.6062C28.5 29.4812 28.6375 29.3563 28.75 29.275V35L27.25 33.875ZM36.875 31.875C36.875 32.2188 36.5938 32.5 36.25 32.5H30V31.25H35C35.3438 31.25 35.625 30.9688 35.625 30.625V9.375C35.625 9.03125 35.3438 8.75 35 8.75H5C4.65625 8.75 4.375 9.03125 4.375 9.375V30.625C4.375 30.9688 4.65625 31.25 5 31.25H23.75V32.5H3.75C3.40625 32.5 3.125 32.2188 3.125 31.875V8.125C3.125 7.78125 3.40625 7.5 3.75 7.5H36.25C36.5938 7.5 36.875 7.78125 36.875 8.125V31.875ZM30 24.375C30 22.65 28.6 21.25 26.875 21.25C25.15 21.25 23.75 22.65 23.75 24.375C23.75 26.1 25.15 27.5 26.875 27.5C28.6 27.5 30 26.1 30 24.375ZM25 24.375C25 23.3438 25.8438 22.5 26.875 22.5C27.9062 22.5 28.75 23.3438 28.75 24.375C28.75 25.4062 27.9062 26.25 26.875 26.25C25.8438 26.25 25 25.4062 25 24.375ZM15.175 12.7562C15.175 12.4125 15.4563 12.1312 15.8 12.1312H24.55C24.8937 12.1312 25.175 12.4125 25.175 12.7562C25.175 13.1 24.8937 13.3812 24.55 13.3812H15.8C15.4563 13.3812 15.175 13.1 15.175 12.7562ZM31.425 15.8812C31.425 16.225 31.1437 16.5062 30.8 16.5062H9.55C9.20625 16.5062 8.925 16.225 8.925 15.8812C8.925 15.5375 9.20625 15.2562 9.55 15.2562H30.8C31.1437 15.2562 31.425 15.5375 31.425 15.8812ZM20.8 19.0062C20.8 19.35 20.5187 19.6312 20.175 19.6312H9.55C9.20625 19.6312 8.925 19.35 8.925 19.0062C8.925 18.6625 9.20625 18.3812 9.55 18.3812H20.175C20.5187 18.3812 20.8 18.6625 20.8 19.0062ZM18.925 22.1312C18.925 22.475 18.6438 22.7562 18.3 22.7562H9.55C9.20625 22.7562 8.925 22.475 8.925 22.1312C8.925 21.7875 9.20625 21.5062 9.55 21.5062H18.3C18.6438 21.5062 18.925 21.7875 18.925 22.1312ZM18.125 25.7312C18.125 26.075 17.8438 26.3562 17.5 26.3562C17.2813 26.3562 16.875 26.6375 16.55 26.8625C16.1125 27.1625 15.6625 27.475 15.1688 27.5375C15.0452 27.5545 14.9194 27.5337 14.8079 27.4779C14.6964 27.4222 14.6043 27.334 14.5438 27.225C14.525 27.1938 14.5125 27.1563 14.5 27.125C14.2188 27.3125 13.9062 27.4687 13.5375 27.5187C13.4147 27.5353 13.2898 27.5151 13.1785 27.4606C13.0672 27.406 12.9746 27.3197 12.9125 27.2125C12.7125 27.3875 12.4875 27.5625 12.2125 27.6875C11.975 27.8 11.6937 27.75 11.5062 27.5625C11.3187 27.375 11.2687 27.0938 11.3812 26.8563C11.7187 26.1313 11.8063 25.725 11.825 25.525C11.3625 25.6938 10.3813 26.4688 9.88125 27.5125C9.775 27.7375 9.55 27.8688 9.31875 27.8688C9.23125 27.8688 9.1375 27.85 9.05 27.8063C8.97588 27.7712 8.90943 27.7219 8.85448 27.6611C8.79954 27.6002 8.75719 27.5291 8.72987 27.4518C8.70256 27.3746 8.69083 27.2926 8.69536 27.2108C8.69989 27.1289 8.72058 27.0488 8.75625 26.975C9.44375 25.5312 11.3062 23.7938 12.475 24.3438C12.95 24.5688 13.0938 24.9938 13.0875 25.4688C13.2125 25.4 13.35 25.3437 13.4938 25.3C13.7625 25.2187 14.0562 25.3375 14.2062 25.5813C14.2375 25.6313 14.2563 25.675 14.275 25.725C14.5375 25.5187 14.8313 25.3 15.1688 25.1688C15.3563 25.0938 15.5688 25.1188 15.7313 25.225C15.9 25.3313 16 25.5125 16.0187 25.7063C16.4687 25.4 16.9688 25.1 17.5063 25.1C17.85 25.1 18.1313 25.3812 18.1313 25.725L18.125 25.7312Z" fill="#EA8529"/>
</svg>
