<svg width="20" height="20" viewBox="0 0 20 20" fill="none" xmlns="http://www.w3.org/2000/svg">
<path d="M0.730607 11.6942L1.64492 12.9449C1.32491 13.1381 1.01933 13.3543 0.730607 13.5917V11.6942ZM2.22589 12.6168L0.730607 10.572V8.97545L3.0932 12.21C2.77408 12.345 2.48509 12.4818 2.22589 12.6168ZM3.73243 11.9637L0.730607 7.85423V6.41158C0.806082 6.47415 0.892482 6.544 0.989807 6.61583L4.67786 11.6621C4.35914 11.7512 4.04378 11.8519 3.73243 11.964V11.9637ZM5.36972 11.4863L2.45894 7.504C2.99283 7.76403 3.5445 7.98583 4.10981 8.16772L6.38799 11.2828C6.03047 11.3433 5.69182 11.4115 5.36972 11.4863ZM7.12752 11.1719L5.14694 8.464C5.57199 8.56894 6.02782 8.66262 6.51808 8.74306L8.21199 11.0603C7.83461 11.0898 7.47345 11.1265 7.12752 11.1719ZM8.99952 11.0166L7.42843 8.86687C7.82567 8.91189 8.23748 8.94764 8.67179 8.97147L10.1505 10.9964C10.0999 10.9964 10.0512 10.9944 9.99957 10.9944C9.6661 10.9952 9.33269 11.0024 8.99952 11.0166ZM10.9857 11.0166L9.51461 9.00259C9.67483 9.0059 9.83505 9.00888 10.0002 9.00888C10.2303 9.00888 10.4554 9.00557 10.6755 8.99928L12.2115 11.099C11.8035 11.0604 11.3946 11.0328 10.9851 11.0163L10.9857 11.0166ZM13.1096 11.2053L11.4697 8.96287C11.8368 8.94093 12.2033 8.90925 12.5687 8.86786L14.452 11.445C14.0075 11.3481 13.5595 11.268 13.109 11.205L13.1096 11.2053ZM15.46 11.7038L13.3142 8.76822C13.6593 8.71606 14.0028 8.65346 14.3441 8.58052L17.0384 12.2686C16.5251 12.0475 15.9985 11.8588 15.4616 11.7035L15.46 11.7038ZM18.3522 12.9445L15.0419 8.415C15.3651 8.33178 15.6853 8.23715 16.0019 8.13131L19.2685 12.6023V13.5917C18.9794 13.3542 18.6735 13.1378 18.3532 12.9442L18.3522 12.9445ZM19.2685 8.76193L18.1238 7.19448C18.5273 6.96702 18.9103 6.70508 19.2685 6.41158V8.76193ZM17.5326 7.50764L19.2685 9.88447V11.4801L16.6501 7.89561C16.9494 7.77839 17.2438 7.64896 17.5326 7.50764ZM0.843489 5.1179C0.90377 5.0649 0.981375 5.03581 1.06164 5.03614H1.08415C1.17419 5.04243 1.25761 5.0848 1.31588 5.15365C1.33839 5.1798 3.69568 7.68441 9.99957 7.68441C16.3167 7.68441 18.6654 5.17484 18.6886 5.14902C18.7479 5.08878 18.828 5.05351 18.9125 5.05046C18.997 5.04741 19.0794 5.0768 19.1429 5.1326C19.2065 5.18841 19.2462 5.2664 19.2541 5.35058C19.2619 5.43476 19.2372 5.51875 19.1851 5.58532C19.0878 5.6982 16.6981 8.34648 9.99957 8.34648C3.30109 8.34648 0.911351 5.6982 0.812372 5.58499C0.754564 5.51892 0.725366 5.4326 0.731202 5.345C0.737037 5.25741 0.777428 5.17572 0.843489 5.1179ZM19.156 14.8851C19.0888 14.942 19.002 14.9704 18.9142 14.9642C18.8264 14.958 18.7445 14.9177 18.6859 14.852C18.5909 14.748 16.2856 12.3189 9.99957 12.3189C3.68244 12.3189 1.33375 14.8285 1.31058 14.8543C1.25126 14.9145 1.17114 14.9498 1.08665 14.9528C1.00216 14.9559 0.919707 14.9265 0.856196 14.8707C0.792686 14.8149 0.752934 14.7369 0.745092 14.6527C0.737251 14.5685 0.761916 14.4846 0.814027 14.418C0.911351 14.3051 3.30109 11.6568 9.99957 11.6568C16.6981 11.6568 19.0878 14.3051 19.1868 14.4183C19.2445 14.4843 19.2737 14.5706 19.2679 14.6581C19.2622 14.7456 19.2219 14.8272 19.156 14.8851Z" fill="#2993DD"/>
<mask id="path-2-inside-1_3903_28028" fill="white">
<path d="M9.87484 5.97259L7.92174 3.65535C7.90083 3.63142 7.88725 3.60198 7.88262 3.57055C7.878 3.53911 7.88251 3.50701 7.89564 3.47807C7.90876 3.44913 7.92994 3.42459 7.95664 3.40736C7.98334 3.39013 8.01443 3.38095 8.04621 3.38092H8.84069C8.88459 3.38092 8.92669 3.36348 8.95773 3.33244C8.98877 3.3014 9.00621 3.2593 9.00621 3.2154V0.732646C9.00621 0.64485 9.04108 0.56065 9.10317 0.498569C9.16525 0.436488 9.24945 0.401611 9.33724 0.401611H10.6614C10.7492 0.401611 10.8334 0.436488 10.8955 0.498569C10.9575 0.56065 10.9924 0.64485 10.9924 0.732646V3.2154C10.9924 3.2593 11.0099 3.3014 11.0409 3.33244C11.0719 3.36348 11.114 3.38092 11.1579 3.38092H11.9524C11.9842 3.38095 12.0153 3.39013 12.042 3.40736C12.0687 3.42459 12.0899 3.44913 12.103 3.47807C12.1161 3.50701 12.1206 3.53911 12.116 3.57055C12.1114 3.60198 12.0978 3.63142 12.0769 3.65535L10.1238 5.97259C10.1082 5.99031 10.0891 6.00451 10.0676 6.01424C10.0462 6.02397 10.0229 6.02901 9.99931 6.02901C9.97574 6.02901 9.95245 6.02397 9.93098 6.01424C9.90952 6.00451 9.89038 5.99031 9.87484 5.97259ZM9.87484 14.0306L7.92174 16.3479C7.90083 16.3718 7.88725 16.4012 7.88262 16.4327C7.878 16.4641 7.88251 16.4962 7.89564 16.5252C7.90876 16.5541 7.92994 16.5786 7.95664 16.5959C7.98334 16.6131 8.01443 16.6223 8.04621 16.6223H8.84069C8.88459 16.6223 8.92669 16.6397 8.95773 16.6708C8.98877 16.7018 9.00621 16.7439 9.00621 16.7878V19.2706C9.00621 19.3584 9.04108 19.4426 9.10317 19.5047C9.16525 19.5667 9.24945 19.6016 9.33724 19.6016H10.6614C10.7492 19.6016 10.8334 19.5667 10.8955 19.5047C10.9575 19.4426 10.9924 19.3584 10.9924 19.2706V16.7878C10.9924 16.7439 11.0099 16.7018 11.0409 16.6708C11.0719 16.6397 11.114 16.6223 11.1579 16.6223H11.9524C11.9842 16.6223 12.0153 16.6131 12.042 16.5959C12.0687 16.5786 12.0899 16.5541 12.103 16.5252C12.1161 16.4962 12.1206 16.4641 12.116 16.4327C12.1114 16.4012 12.0978 16.3718 12.0769 16.3479L10.1238 14.0306C10.1082 14.0129 10.0891 13.9987 10.0676 13.989C10.0462 13.9792 10.0229 13.9742 9.99931 13.9742C9.97574 13.9742 9.95245 13.9792 9.93098 13.989C9.90952 13.9987 9.89038 14.0129 9.87484 14.0306Z"/>
</mask>
<path d="M9.87484 5.97259L9.49246 6.29489L9.49884 6.30217L9.87484 5.97259ZM7.92174 3.65535L8.30411 3.33306L8.29825 3.32635L7.92174 3.65535ZM8.04621 3.38092V2.88092L8.0457 2.88092L8.04621 3.38092ZM9.33724 0.401611V-0.0983887V0.401611ZM11.9524 3.38092L11.9529 2.88092H11.9524V3.38092ZM12.0769 3.65535L11.7003 3.3263L11.6946 3.33311L12.0769 3.65535ZM10.1238 5.97259L10.4999 6.30223L10.5061 6.29483L10.1238 5.97259ZM9.87484 14.0306L9.49877 13.701L9.49253 13.7084L9.87484 14.0306ZM7.92174 16.3479L8.29831 16.6769L8.30405 16.6701L7.92174 16.3479ZM8.04621 16.6223L8.0457 17.1223H8.04621V16.6223ZM11.9524 16.6223V17.1223H11.9529L11.9524 16.6223ZM12.0769 16.3479L11.6945 16.6702L11.7004 16.6769L12.0769 16.3479ZM10.1238 14.0306L10.5062 13.7083L10.4998 13.7011L10.1238 14.0306ZM10.2572 5.65035L8.30405 3.33311L7.53943 3.97759L9.49253 6.29483L10.2572 5.65035ZM8.29825 3.32635C8.3405 3.3747 8.36794 3.43419 8.37729 3.49772L7.38796 3.64338C7.40657 3.76978 7.46117 3.88815 7.54523 3.98435L8.29825 3.32635ZM8.37729 3.49772C8.38665 3.56125 8.37751 3.62612 8.35099 3.6846L7.44029 3.27154C7.38752 3.38789 7.36935 3.51697 7.38796 3.64338L8.37729 3.49772ZM8.35099 3.6846C8.32447 3.74308 8.28167 3.79268 8.22772 3.8275L7.68556 2.98722C7.57821 3.05649 7.49306 3.15519 7.44029 3.27154L8.35099 3.6846ZM8.22772 3.8275C8.17376 3.86231 8.11093 3.88086 8.04672 3.88092L8.0457 2.88092C7.91794 2.88105 7.79292 2.91795 7.68556 2.98722L8.22772 3.8275ZM8.04621 3.88092H8.84069V2.88092H8.04621V3.88092ZM8.84069 3.88092C9.0172 3.88092 9.18647 3.81081 9.31128 3.686L8.60418 2.97889C8.6669 2.91616 8.75198 2.88092 8.84069 2.88092V3.88092ZM9.31128 3.686C9.43609 3.56119 9.50621 3.39191 9.50621 3.2154H8.50621C8.50621 3.1267 8.54145 3.04162 8.60418 2.97889L9.31128 3.686ZM9.50621 3.2154V0.732646H8.50621V3.2154H9.50621ZM9.50621 0.732646C9.50621 0.777457 9.48841 0.820435 9.45672 0.852122L8.74961 0.145016C8.59376 0.300866 8.50621 0.512243 8.50621 0.732646H9.50621ZM9.45672 0.852122C9.42503 0.88381 9.38205 0.901611 9.33724 0.901611V-0.0983887C9.11684 -0.0983887 8.90546 -0.0108338 8.74961 0.145016L9.45672 0.852122ZM9.33724 0.901611H10.6614V-0.0983887H9.33724V0.901611ZM10.6614 0.901611C10.6166 0.901611 10.5736 0.88381 10.5419 0.852122L11.249 0.145016C11.0932 -0.0108338 10.8818 -0.0983887 10.6614 -0.0983887V0.901611ZM10.5419 0.852122C10.5102 0.820435 10.4924 0.777457 10.4924 0.732646H11.4924C11.4924 0.512243 11.4049 0.300866 11.249 0.145016L10.5419 0.852122ZM10.4924 0.732646V3.2154H11.4924V0.732646H10.4924ZM10.4924 3.2154C10.4924 3.39191 10.5625 3.56119 10.6873 3.686L11.3944 2.97889C11.4572 3.04162 11.4924 3.1267 11.4924 3.2154H10.4924ZM10.6873 3.686C10.8122 3.81081 10.9814 3.88092 11.1579 3.88092V2.88092C11.2466 2.88092 11.3317 2.91616 11.3944 2.97889L10.6873 3.686ZM11.1579 3.88092H11.9524V2.88092H11.1579V3.88092ZM11.9519 3.88092C11.8877 3.88086 11.8249 3.86231 11.7709 3.8275L12.3131 2.98722C12.2057 2.91796 12.0807 2.88105 11.9529 2.88092L11.9519 3.88092ZM11.7709 3.8275C11.7169 3.79268 11.6742 3.74308 11.6476 3.6846L12.5583 3.27154C12.5056 3.15519 12.4204 3.05649 12.3131 2.98722L11.7709 3.8275ZM11.6476 3.6846C11.6211 3.62612 11.612 3.56124 11.6213 3.49772L12.6107 3.64338C12.6293 3.51698 12.6111 3.3879 12.5583 3.27154L11.6476 3.6846ZM11.6213 3.49772C11.6307 3.4342 11.6581 3.37471 11.7004 3.32635L12.4534 3.98435C12.5375 3.88814 12.5921 3.76976 12.6107 3.64338L11.6213 3.49772ZM11.6946 3.33311L9.74147 5.65035L10.5061 6.29483L12.4592 3.97759L11.6946 3.33311ZM9.74778 5.64301C9.77917 5.60719 9.81786 5.5785 9.86123 5.55884L10.274 6.46965C10.3604 6.43053 10.4373 6.37343 10.4998 6.30217L9.74778 5.64301ZM9.86123 5.55884C9.90461 5.53918 9.95168 5.52901 9.99931 5.52901V6.52901C10.0941 6.52901 10.1877 6.50877 10.274 6.46965L9.86123 5.55884ZM9.99931 5.52901C10.0469 5.52901 10.094 5.53918 10.1374 5.55884L9.72457 6.46965C9.81088 6.50877 9.90455 6.52901 9.99931 6.52901V5.52901ZM10.1374 5.55884C10.1808 5.5785 10.2194 5.60719 10.2508 5.64301L9.49884 6.30217C9.56131 6.37343 9.63827 6.43053 9.72457 6.46965L10.1374 5.55884ZM9.49253 13.7084L7.53943 16.0256L8.30405 16.6701L10.2572 14.3529L9.49253 13.7084ZM7.54523 16.0189C7.46117 16.1151 7.40657 16.2334 7.38796 16.3598L8.37729 16.5055C8.36794 16.569 8.3405 16.6285 8.29825 16.6769L7.54523 16.0189ZM7.38796 16.3598C7.36935 16.4862 7.38752 16.6153 7.44029 16.7317L8.35099 16.3186C8.37751 16.3771 8.38665 16.442 8.37729 16.5055L7.38796 16.3598ZM7.44029 16.7317C7.49306 16.848 7.5782 16.9467 7.68556 17.016L8.22772 16.1757C8.28168 16.2105 8.32447 16.2602 8.35099 16.3186L7.44029 16.7317ZM7.68556 17.016C7.79292 17.0853 7.91794 17.1222 8.0457 17.1223L8.04672 16.1223C8.11093 16.1224 8.17376 16.1409 8.22772 16.1757L7.68556 17.016ZM8.04621 17.1223H8.84069V16.1223H8.04621V17.1223ZM8.84069 17.1223C8.75198 17.1223 8.6669 17.0871 8.60418 17.0243L9.31128 16.3172C9.18647 16.1924 9.0172 16.1223 8.84069 16.1223V17.1223ZM8.60418 17.0243C8.54145 16.9616 8.50621 16.8765 8.50621 16.7878H9.50621C9.50621 16.6113 9.43609 16.442 9.31128 16.3172L8.60418 17.0243ZM8.50621 16.7878V19.2706H9.50621V16.7878H8.50621ZM8.50621 19.2706C8.50621 19.491 8.59376 19.7024 8.74961 19.8582L9.45672 19.1511C9.48841 19.1828 9.50621 19.2258 9.50621 19.2706H8.50621ZM8.74961 19.8582C8.90546 20.0141 9.11684 20.1016 9.33724 20.1016V19.1016C9.38205 19.1016 9.42503 19.1194 9.45672 19.1511L8.74961 19.8582ZM9.33724 20.1016H10.6614V19.1016H9.33724V20.1016ZM10.6614 20.1016C10.8818 20.1016 11.0932 20.0141 11.249 19.8582L10.5419 19.1511C10.5736 19.1194 10.6166 19.1016 10.6614 19.1016V20.1016ZM11.249 19.8582C11.4049 19.7024 11.4924 19.491 11.4924 19.2706H10.4924C10.4924 19.2258 10.5102 19.1828 10.5419 19.1511L11.249 19.8582ZM11.4924 19.2706V16.7878H10.4924V19.2706H11.4924ZM11.4924 16.7878C11.4924 16.8765 11.4572 16.9616 11.3944 17.0243L10.6873 16.3172C10.5625 16.442 10.4924 16.6113 10.4924 16.7878H11.4924ZM11.3944 17.0243C11.3317 17.0871 11.2466 17.1223 11.1579 17.1223V16.1223C10.9814 16.1223 10.8122 16.1924 10.6873 16.3172L11.3944 17.0243ZM11.1579 17.1223H11.9524V16.1223H11.1579V17.1223ZM11.9529 17.1223C12.0807 17.1222 12.2057 17.0853 12.3131 17.016L11.7709 16.1757C11.8249 16.1409 11.8877 16.1224 11.9519 16.1223L11.9529 17.1223ZM12.3131 17.016C12.4204 16.9467 12.5056 16.848 12.5583 16.7317L11.6476 16.3186C11.6742 16.2602 11.7169 16.2105 11.7709 16.1757L12.3131 17.016ZM12.5583 16.7317C12.6111 16.6153 12.6293 16.4862 12.6107 16.3598L11.6213 16.5055C11.612 16.442 11.6211 16.3771 11.6476 16.3186L12.5583 16.7317ZM12.6107 16.3598C12.5921 16.2335 12.5375 16.1151 12.4534 16.0189L11.7004 16.6769C11.6581 16.6285 11.6307 16.569 11.6213 16.5055L12.6107 16.3598ZM12.4592 16.0256L10.5061 13.7084L9.74147 14.3529L11.6946 16.6701L12.4592 16.0256ZM10.4998 13.7011C10.4373 13.6298 10.3604 13.5727 10.274 13.5336L9.86123 14.4444C9.81784 14.4247 9.77917 14.396 9.74778 14.3602L10.4998 13.7011ZM10.274 13.5336C10.1877 13.4945 10.0941 13.4742 9.99931 13.4742V14.4742C9.95168 14.4742 9.90461 14.464 9.86123 14.4444L10.274 13.5336ZM9.99931 13.4742C9.90455 13.4742 9.81088 13.4945 9.72457 13.5336L10.1374 14.4444C10.094 14.464 10.0469 14.4742 9.99931 14.4742V13.4742ZM9.72457 13.5336C9.63825 13.5727 9.5613 13.6298 9.49884 13.7011L10.2508 14.3602C10.2195 14.396 10.1808 14.4247 10.1374 14.4444L9.72457 13.5336Z" fill="#2993DD" mask="url(#path-2-inside-1_3903_28028)"/>
</svg>
