<svg width="65" height="65" viewBox="0 0 65 65" fill="none" xmlns="http://www.w3.org/2000/svg">
<path d="M48.742 31.6747C52.7233 31.6747 55.9508 28.4472 55.9508 24.4659C55.9508 20.4846 52.7233 17.2571 48.742 17.2571C44.7607 17.2571 41.5332 20.4846 41.5332 24.4659C41.5332 28.4472 44.7607 31.6747 48.742 31.6747Z" stroke="#EA8529" stroke-width="1.7" stroke-linejoin="round"/>
<path d="M14.661 39.0861C14.661 40.0412 15.018 40.8768 15.6129 41.5334C14.1851 40.8171 13.4712 39.5636 13.4712 37.2954C13.4712 32.8784 17.5167 32.2815 22.9901 31.9233V40.1605L21.8002 37.8923C21.0268 36.3404 19.8964 35.5047 18.2306 35.5047C16.2674 35.5047 14.661 37.1163 14.661 39.0861ZM9.30664 46.2489C9.30664 47.5621 10.3775 48.6365 11.6864 48.6365H23.585C24.4774 48.6365 25.3698 48.0993 25.7268 47.2636C26.1432 46.428 25.9053 45.4729 25.4293 44.7567L24.5964 43.2644L24.1205 42.3691L38.5773 38.3698L39.1128 41.2946C39.1723 41.7722 39.4102 42.2497 39.7672 42.5481L45.1216 47.9202C45.5975 48.3978 46.1925 48.6365 46.7874 48.6365C47.3823 48.6365 47.9773 48.3978 48.4532 47.9202C49.4051 46.9652 49.4051 45.4729 48.4532 44.5179L43.6342 39.683L41.9684 30.252C41.79 29.1179 40.7786 28.2822 39.6482 28.2822L22.9901 29.476C18.3496 29.7745 11.0914 30.252 11.0914 37.2357C11.0914 40.9962 12.7572 42.8466 15.0775 43.8016H11.6864C10.3775 43.8613 9.30664 44.9357 9.30664 46.2489Z" stroke="#EA8529" stroke-width="1.7" stroke-linejoin="round"/>
</svg>
