<svg width="23" height="23" viewBox="0 0 23 23" fill="none" xmlns="http://www.w3.org/2000/svg">
<path d="M6.65146 0.210938H15.9452C19.4856 0.210938 22.3622 3.08756 22.3622 6.62802V15.9217C22.3622 17.6236 21.6862 19.2558 20.4827 20.4593C19.2793 21.6627 17.6471 22.3388 15.9452 22.3388H6.65146C3.111 22.3388 0.234375 19.4622 0.234375 15.9217V6.62802C0.234375 4.9261 0.910459 3.29389 2.11389 2.09046C3.31733 0.887021 4.94954 0.210938 6.65146 0.210938ZM6.43018 2.42372C5.37382 2.42372 4.36072 2.84336 3.61376 3.59032C2.8668 4.33728 2.44716 5.35038 2.44716 6.40674V16.143C2.44716 18.3447 4.22845 20.126 6.43018 20.126H16.1664C17.2228 20.126 18.2359 19.7064 18.9829 18.9594C19.7298 18.2125 20.1495 17.1994 20.1495 16.143V6.40674C20.1495 4.20502 18.3682 2.42372 16.1664 2.42372H6.43018ZM17.1069 4.08331C17.4737 4.08331 17.8254 4.22902 18.0848 4.48838C18.3442 4.74774 18.4899 5.09951 18.4899 5.46631C18.4899 5.8331 18.3442 6.18487 18.0848 6.44423C17.8254 6.70359 17.4737 6.8493 17.1069 6.8493C16.7401 6.8493 16.3883 6.70359 16.1289 6.44423C15.8696 6.18487 15.7239 5.8331 15.7239 5.46631C15.7239 5.09951 15.8696 4.74774 16.1289 4.48838C16.3883 4.22902 16.7401 4.08331 17.1069 4.08331ZM11.2983 5.7429C12.7655 5.7429 14.1726 6.32573 15.21 7.36318C16.2474 8.40062 16.8303 9.8077 16.8303 11.2749C16.8303 12.742 16.2474 14.1491 15.21 15.1866C14.1726 16.224 12.7655 16.8068 11.2983 16.8068C9.83114 16.8068 8.42406 16.224 7.38662 15.1866C6.34917 14.1491 5.76634 12.742 5.76634 11.2749C5.76634 9.8077 6.34917 8.40062 7.38662 7.36318C8.42406 6.32573 9.83114 5.7429 11.2983 5.7429ZM11.2983 7.95569C10.418 7.95569 9.57376 8.30539 8.95129 8.92785C8.32882 9.55032 7.97913 10.3946 7.97913 11.2749C7.97913 12.1552 8.32882 12.9994 8.95129 13.6219C9.57376 14.2444 10.418 14.594 11.2983 14.594C12.1786 14.594 13.0229 14.2444 13.6453 13.6219C14.2678 12.9994 14.6175 12.1552 14.6175 11.2749C14.6175 10.3946 14.2678 9.55032 13.6453 8.92785C13.0229 8.30539 12.1786 7.95569 11.2983 7.95569Z" fill="#EA8529"/>
</svg>
