<svg width="248" height="72" viewBox="0 0 248 72" fill="none" xmlns="http://www.w3.org/2000/svg">
<g clip-path="url(#clip0_4311_40058)">
<g clip-path="url(#clip1_4311_40058)">
<path d="M7.1446 46.6863L15.048 41.7965C18.0588 39.9338 22.0186 40.8666 23.8813 43.8774L28.771 51.7808C29.6665 53.2281 29.9503 54.9718 29.5601 56.6284C29.1698 58.285 28.1375 59.7187 26.6902 60.6141L18.7868 65.5039C15.776 67.3666 11.8162 66.4338 9.95346 63.423L5.06374 55.5196C4.1683 54.0723 3.88449 52.3285 4.27472 50.672C4.66496 49.0154 5.69729 47.5817 7.1446 46.6863ZM8.12064 48.6844C7.22231 49.2402 6.58156 50.1301 6.33934 51.1583C6.09713 52.1865 6.27329 53.2689 6.82907 54.1672L11.9516 62.4469C13.11 64.3193 15.5621 64.8969 17.4344 63.7385L25.7141 58.6159C26.6125 58.0602 27.2532 57.1703 27.4954 56.1421C27.7377 55.1138 27.5615 54.0315 27.0057 53.1332L21.8831 44.8534C20.7247 42.9811 18.2727 42.4035 16.4004 43.5619L8.12064 48.6844ZM18.0733 44.4784C18.3852 44.2854 18.761 44.2243 19.118 44.3084C19.4751 44.3925 19.784 44.6149 19.977 44.9269C20.17 45.2388 20.2312 45.6146 20.1471 45.9716C20.063 46.3286 19.8405 46.6376 19.5286 46.8306C19.2166 47.0236 18.8408 47.0847 18.4838 47.0006C18.1268 46.9165 17.8178 46.6941 17.6248 46.3821C17.4319 46.0702 17.3707 45.6944 17.4548 45.3374C17.5389 44.9804 17.7614 44.6714 18.0733 44.4784ZM14.0068 48.9458C15.2545 48.1739 16.7578 47.9292 18.1858 48.2656C19.6139 48.602 20.8499 49.492 21.6218 50.7396C22.3937 51.9873 22.6384 53.4906 22.302 54.9186C21.9656 56.3467 21.0756 57.5827 19.8279 58.3546C18.5803 59.1265 17.077 59.3712 15.649 59.0348C14.2209 58.6984 12.9849 57.8084 12.213 56.5607C11.4411 55.3131 11.1964 53.8098 11.5328 52.3818C11.8692 50.9537 12.7592 49.7177 14.0068 48.9458ZM15.1711 50.8276C14.4225 51.2907 13.8885 52.0323 13.6866 52.8891C13.4848 53.746 13.6316 54.6479 14.0948 55.3965C14.5579 56.1451 15.2995 56.6791 16.1563 56.8809C17.0132 57.0828 17.9151 56.936 18.6637 56.4728C19.4123 56.0097 19.9463 55.2681 20.1481 54.4113C20.35 53.5544 20.2032 52.6525 19.74 51.9039C19.2769 51.1553 18.5353 50.6213 17.6785 50.4194C16.8216 50.2176 15.9197 50.3644 15.1711 50.8276Z" fill="#2993DD"/>
</g>
</g>
<path d="M47.4001 49.6446C46.3159 50.0933 45.3021 50.2935 44.3586 50.2453C43.407 50.1774 42.5403 49.9242 41.7586 49.4858C40.9884 49.0195 40.2998 48.4156 39.6928 47.674C39.1055 46.9243 38.5963 46.0845 38.1653 45.1547C38.0151 44.8474 37.8829 44.5558 37.7687 44.2799C37.6545 44.0039 37.5419 43.7041 37.4311 43.3806C37.0871 42.4378 36.858 41.4937 36.7438 40.5482C36.6493 39.5945 36.7097 38.6806 36.9252 37.8064C37.1603 36.9241 37.5946 36.1326 38.2281 35.4317C38.8534 34.7112 39.7082 34.1266 40.7923 33.6779C41.9554 33.1966 43.0069 33.0038 43.947 33.0996C44.8871 33.1954 45.7299 33.4469 46.4756 33.854L43.6612 27.0534C43.5796 26.8563 43.5735 26.6741 43.6428 26.5069C43.7237 26.3118 43.8627 26.1735 44.0598 26.0919L45.4791 25.5045C45.6762 25.4229 45.8625 25.4267 46.0379 25.5157C46.2248 25.5769 46.359 25.706 46.4406 25.9031L54.5657 45.5363C54.6473 45.7334 54.6476 45.9295 54.5667 46.1246C54.4974 46.2918 54.3642 46.4162 54.1671 46.4978L52.8365 47.0485C52.6197 47.1382 52.4277 47.1484 52.2604 47.0791C52.0851 46.99 51.9566 46.8469 51.875 46.6498L51.3611 45.408C51.1293 46.2427 50.7089 47.04 50.0999 47.8C49.4828 48.5403 48.5828 49.1551 47.4001 49.6446ZM47.0299 46.9926C48.0155 46.5847 48.7101 46.0317 49.1139 45.3336C49.5176 44.6355 49.7245 43.8803 49.7347 43.0681C49.7367 42.2361 49.5966 41.4513 49.3145 40.7138C49.2037 40.3903 49.0586 40.0116 48.8791 39.578C48.6915 39.1246 48.5225 38.7443 48.3723 38.4371C48.0671 37.7553 47.6181 37.1446 47.0253 36.6049C46.4523 36.0571 45.7705 35.6927 44.9799 35.512C44.2091 35.323 43.3506 35.4244 42.4044 35.8159C41.3991 36.232 40.6946 36.789 40.2909 37.4871C39.879 38.1655 39.6958 38.9224 39.7414 39.7578C39.7788 40.5735 39.9491 41.4035 40.2523 42.2477C40.4692 42.8275 40.7058 43.3991 40.9621 43.9626C41.3441 44.7742 41.8142 45.4917 42.3723 46.115C42.9222 46.7185 43.5867 47.1246 44.3656 47.3333C45.1365 47.5222 46.0245 47.4087 47.0299 46.9926Z" fill="#454E55"/>
<path d="M60.1007 44.2925C59.9002 44.3655 59.7079 44.3674 59.5238 44.2982C59.3525 44.2017 59.2303 44.0532 59.1573 43.8527L53.9688 29.5997C53.8959 29.3992 53.8976 29.217 53.9741 29.0529C54.0633 28.8615 54.2082 28.7293 54.4087 28.6563L55.852 28.1309C56.0525 28.0579 56.2384 28.0697 56.4097 28.1663C56.5738 28.2428 56.6923 28.3812 56.7653 28.5817L61.9538 42.8347C62.0268 43.0352 62.0287 43.2274 61.9595 43.4116C61.883 43.5756 61.7445 43.6941 61.544 43.7671L60.1007 44.2925ZM53.1063 25.8272C52.9059 25.9001 52.7136 25.902 52.5295 25.8328C52.3581 25.7363 52.2359 25.5878 52.163 25.3873L51.5719 23.7636C51.4989 23.5631 51.5007 23.3808 51.5771 23.2168C51.6664 23.0254 51.8112 22.8932 52.0117 22.8202L53.9061 22.1306C54.1066 22.0576 54.2925 22.0694 54.4638 22.1659C54.6479 22.2351 54.7765 22.37 54.8495 22.5704L55.4406 24.1942C55.5135 24.3946 55.5054 24.5906 55.4161 24.782C55.3397 24.946 55.2012 25.0646 55.0007 25.1375L53.1063 25.8272Z" fill="#454E55"/>
<path d="M67.1999 41.4963C66.9949 41.5554 66.8029 41.5441 66.624 41.4624C66.4597 41.3543 66.348 41.1978 66.2889 40.9928L62.0909 26.4173C62.0319 26.2123 62.0461 26.0306 62.1337 25.8722C62.2359 25.6873 62.3894 25.5654 62.5944 25.5064L63.9782 25.1078C64.1832 25.0488 64.3679 25.0733 64.5322 25.1814C64.7111 25.263 64.8301 25.4064 64.8891 25.6114L65.1991 26.6876C65.4876 25.9163 65.9374 25.2428 66.5487 24.6672C67.154 24.071 67.9589 23.6283 68.9634 23.339C71.274 22.6513 73.1856 23.1219 74.6982 24.7509C74.9217 23.7541 75.4106 22.8696 76.165 22.0973C76.9194 21.325 77.8706 20.7735 79.0186 20.4429C80.0846 20.1358 81.119 20.1043 82.1217 20.3483C83.1449 20.5864 84.0471 21.1369 84.8284 21.9997C85.6244 22.8361 86.2378 24.0025 86.6689 25.499L89.2284 34.3858C89.2875 34.5908 89.2659 34.7857 89.1637 34.9705C89.0762 35.1289 88.9299 35.2377 88.7249 35.2967L87.2796 35.713C87.0746 35.772 86.8827 35.7607 86.7037 35.679C86.5394 35.571 86.4277 35.4144 86.3687 35.2094L83.8888 26.5994C83.5582 25.4514 83.1344 24.5967 82.6174 24.0351C82.1005 23.4736 81.5269 23.1393 80.8966 23.0322C80.2664 22.9251 79.6233 22.9661 78.9673 23.155C78.4343 23.3085 77.9294 23.5982 77.4526 24.0242C76.9759 24.4501 76.6475 25.0442 76.4674 25.8065C76.3079 26.5628 76.3934 27.515 76.7241 28.663L79.2039 37.273C79.263 37.478 79.2414 37.6729 79.1392 37.8578C79.0517 38.0162 78.9054 38.1249 78.7004 38.184L77.2551 38.6002C77.0501 38.6593 76.8582 38.648 76.6792 38.5663C76.5149 38.4582 76.4032 38.3017 76.3442 38.0967L73.8643 29.4867C73.5337 28.3387 73.0996 27.4869 72.5622 26.9313C72.0248 26.3756 71.4409 26.0443 70.8106 25.9372C70.1804 25.8301 69.5578 25.8651 68.9428 26.0423C68.4098 26.1958 67.9049 26.4855 67.4282 26.9114C66.9514 27.3373 66.623 27.9314 66.443 28.6937C66.2834 29.4501 66.366 30.392 66.6907 31.5195L69.1794 40.1603C69.2385 40.3653 69.2169 40.5602 69.1148 40.745C69.0272 40.9034 68.8809 41.0122 68.6759 41.0712L67.1999 41.4963Z" fill="#454E55"/>
<path d="M92.6804 35.746C92.449 35.7848 92.2578 35.7411 92.1069 35.615C91.9595 35.5099 91.8682 35.3521 91.8329 35.1417L91.632 33.9425C91.5968 33.7321 91.6317 33.5532 91.7368 33.4058C91.8383 33.2373 92.0048 33.1337 92.2363 33.095L110.541 30.0282C110.752 29.9929 110.932 30.0383 111.083 30.1645C111.252 30.266 111.353 30.422 111.389 30.6324L111.59 31.8317C111.625 32.0421 111.579 32.2228 111.453 32.3737C111.352 32.5421 111.196 32.644 110.985 32.6792L92.6804 35.746Z" fill="#454E55"/>
<path d="M122.832 30.8115C121.213 30.9001 119.844 30.6653 118.724 30.1071C117.603 29.5488 116.726 28.7423 116.091 27.6874C115.456 26.6112 115.067 25.372 114.926 23.9696C114.885 23.6086 114.849 23.1512 114.819 22.5974C114.788 22.0222 114.773 21.5637 114.776 21.2217C114.761 19.791 115.012 18.5167 115.528 17.3988C116.065 16.2798 116.86 15.3817 117.912 14.7044C118.965 14.0272 120.29 13.6448 121.887 13.5573C123.485 13.4698 124.844 13.7052 125.964 14.2634C127.084 14.8217 127.962 15.6282 128.596 16.6831C129.252 17.7368 129.651 18.9755 129.793 20.3992C129.833 20.7389 129.869 21.1963 129.9 21.7714C129.931 22.3252 129.945 22.7838 129.944 23.1471C129.957 24.5565 129.706 25.8308 129.192 26.9699C128.676 28.0878 127.892 28.9854 126.839 29.6626C125.787 30.3398 124.451 30.7228 122.832 30.8115ZM122.697 28.3511C124.018 28.2788 125.05 27.8057 125.792 26.9318C126.534 26.0365 126.892 24.7777 126.868 23.1553C126.871 22.8346 126.86 22.4293 126.833 21.9394C126.806 21.4495 126.773 21.0453 126.735 20.727C126.582 19.1116 126.089 17.9101 125.255 17.1225C124.42 16.3136 123.343 15.9453 122.022 16.0176C120.701 16.09 119.66 16.5743 118.897 17.4707C118.154 18.3446 117.806 19.5922 117.852 21.2134C117.848 21.5341 117.86 21.9394 117.886 22.4294C117.913 22.9193 117.946 23.3235 117.985 23.6418C118.116 25.2584 118.599 26.4711 119.434 27.28C120.289 28.0664 121.377 28.4235 122.697 28.3511Z" fill="#454E55"/>
<path d="M133.659 30.1683C133.445 30.1635 133.266 30.0954 133.119 29.964C132.995 29.8118 132.935 29.6291 132.94 29.4158L133.284 14.2837C133.289 14.0704 133.357 13.8906 133.488 13.7442C133.641 13.5983 133.824 13.5278 134.037 13.5327L135.509 13.5662C135.722 13.571 135.902 13.6498 136.048 13.8025C136.194 13.9552 136.264 14.1382 136.259 14.3514L136.227 15.7591C136.67 15.0436 137.269 14.5131 138.024 14.1675C138.779 13.822 139.679 13.6611 140.724 13.6849L142.003 13.714C142.217 13.7188 142.386 13.7974 142.51 13.9496C142.635 14.0805 142.695 14.2525 142.69 14.4658L142.661 15.7775C142.656 15.9908 142.588 16.1599 142.457 16.285C142.326 16.41 142.154 16.4701 141.941 16.4653L140.021 16.4216C138.87 16.3954 137.955 16.716 137.279 17.3834C136.602 18.0295 136.251 18.9284 136.225 20.0801L136.011 29.4857C136.006 29.699 135.927 29.8786 135.775 30.0245C135.622 30.149 135.44 30.2089 135.226 30.204L133.659 30.1683Z" fill="#454E55"/>
<path d="M151.32 31.1079C150.13 31.0022 149.183 30.6932 148.479 30.1809C147.777 29.6474 147.292 28.9512 147.026 28.0922C146.761 27.212 146.68 26.1982 146.782 25.0507L147.529 16.6358L145.043 16.4151C144.831 16.3962 144.656 16.3164 144.518 16.1757C144.404 16.0156 144.356 15.8293 144.375 15.6168L144.471 14.5331C144.49 14.3206 144.569 14.1563 144.708 14.0401C144.87 13.9046 145.057 13.8462 145.27 13.8651L147.756 14.0859L148.229 8.76283C148.247 8.55033 148.326 8.386 148.465 8.26982C148.627 8.13428 148.814 8.07595 149.027 8.09482L150.525 8.22786C150.737 8.24673 150.901 8.3362 151.015 8.49627C151.152 8.63698 151.212 8.81358 151.193 9.02608L150.72 14.3491L154.673 14.7001C154.885 14.719 155.048 14.8085 155.163 14.9685C155.3 15.1093 155.359 15.2859 155.341 15.4984L155.244 16.5821C155.225 16.7946 155.135 16.9686 154.973 17.1041C154.834 17.2203 154.659 17.269 154.446 17.2501L150.494 16.8991L149.766 25.0909C149.678 26.0896 149.778 26.8909 150.067 27.4949C150.356 28.0988 150.936 28.4395 151.807 28.5168L153.752 28.6895C153.964 28.7084 154.127 28.7978 154.242 28.9579C154.379 29.0986 154.438 29.2752 154.42 29.4877L154.318 30.6352C154.299 30.8477 154.208 31.0217 154.046 31.1573C153.908 31.2734 153.732 31.3221 153.519 31.3032L151.32 31.1079Z" fill="#454E55"/>
<path d="M163.47 33.0467C161.871 32.7784 160.586 32.2492 159.616 31.459C158.645 30.6689 157.966 29.6896 157.578 28.5213C157.193 27.332 157.086 26.0377 157.256 24.6385C157.295 24.2773 157.36 23.8232 157.452 23.2762C157.547 22.7081 157.634 22.2575 157.711 21.9244C158.011 20.5254 158.535 19.337 159.283 18.3594C160.052 17.3852 161.024 16.6831 162.199 16.2529C163.375 15.8228 164.751 15.7402 166.329 16.0049C167.907 16.2697 169.182 16.7971 170.152 17.5873C171.123 18.3775 171.802 19.3567 172.19 20.525C172.599 21.6969 172.717 22.9929 172.544 24.4131C172.508 24.7533 172.443 25.2074 172.348 25.7754C172.256 26.3225 172.169 26.773 172.088 27.1272C171.792 28.5052 171.268 29.6935 170.517 30.6923C169.769 31.67 168.807 32.3739 167.632 32.804C166.456 33.2341 165.069 33.315 163.47 33.0467ZM163.878 30.6167C165.182 30.8355 166.292 30.6 167.209 29.9101C168.128 29.1991 168.754 28.0495 169.085 26.4611C169.159 26.149 169.237 25.751 169.318 25.2671C169.399 24.7832 169.456 24.3817 169.488 24.0626C169.693 22.453 169.475 21.1727 168.834 20.2215C168.197 19.2493 167.226 18.6538 165.922 18.4349C164.617 18.2161 163.495 18.4604 162.554 19.1678C161.638 19.8577 161.025 20.9986 160.714 22.5906C160.64 22.9026 160.563 23.3006 160.481 23.7845C160.4 24.2684 160.344 24.6699 160.312 24.989C160.086 26.5951 160.291 27.8842 160.928 28.8564C161.59 29.811 162.573 30.3978 163.878 30.6167Z" fill="#454E55"/>
<path d="M173.209 40.6656C173.002 40.6131 172.845 40.4962 172.737 40.3147C172.644 40.1592 172.624 39.978 172.677 39.7712L177.9 19.1753C177.953 18.9685 178.057 18.8188 178.212 18.7262C178.394 18.6182 178.588 18.5904 178.794 18.6428L180.221 19.0047C180.428 19.0571 180.575 19.1715 180.663 19.3477C180.776 19.5085 180.806 19.6922 180.754 19.899L180.408 21.2638C181.077 20.7073 181.883 20.3065 182.825 20.0613C183.768 19.8161 184.86 19.8509 186.1 20.1656C187.258 20.4593 188.191 20.9048 188.898 21.5022C189.625 22.1049 190.161 22.813 190.505 23.6265C190.869 24.4453 191.076 25.323 191.124 26.2597C191.173 27.1964 191.082 28.1636 190.851 29.1614C190.787 29.4975 190.709 29.8517 190.614 30.2239C190.52 30.5961 190.42 30.945 190.316 31.2706C190.049 32.2373 189.668 33.1311 189.173 33.9521C188.684 34.7525 188.084 35.4256 187.374 35.9717C186.689 36.5023 185.881 36.8695 184.949 37.0733C184.042 37.2616 183.01 37.209 181.852 36.9153C180.653 36.6111 179.695 36.137 178.978 35.493C178.287 34.8335 177.767 34.1074 177.417 33.3145L175.592 40.5107C175.54 40.7175 175.436 40.8672 175.28 40.9598C175.12 41.0731 174.925 41.1009 174.698 41.0432L173.209 40.6656ZM181.838 34.2376C182.913 34.5103 183.809 34.4953 184.524 34.1924C185.265 33.8742 185.864 33.3769 186.322 32.7006C186.784 32.0037 187.147 31.2262 187.408 30.3682C187.581 29.7738 187.733 29.1741 187.865 28.5692C188.044 27.6902 188.093 26.8444 188.013 26.0318C187.938 25.1985 187.648 24.4757 187.143 23.8634C186.664 23.2357 185.887 22.7855 184.812 22.5128C183.799 22.2559 182.911 22.2839 182.149 22.5969C181.408 22.9152 180.788 23.4072 180.289 24.073C179.816 24.7233 179.462 25.4258 179.227 26.1804C179.122 26.506 179.012 26.8963 178.897 27.3512C178.781 27.8061 178.69 28.212 178.621 28.5688C178.458 29.2978 178.443 30.0531 178.575 30.8349C178.727 31.6219 179.066 32.3241 179.592 32.9416C180.117 33.5591 180.866 33.9911 181.838 34.2376Z" fill="#454E55"/>
<path d="M198.156 41.6843C196.07 40.9945 194.62 39.8074 193.807 38.1228C193 36.418 192.904 34.4315 193.519 32.1632C193.586 31.8932 193.686 31.5557 193.82 31.1506C193.96 30.7252 194.084 30.3842 194.192 30.1276C194.748 28.7163 195.498 27.571 196.44 26.6917C197.389 25.7921 198.467 25.216 199.674 24.9635C200.901 24.7176 202.203 24.8224 203.581 25.2778C205.12 25.7867 206.299 26.536 207.118 27.5257C207.957 28.5221 208.452 29.7083 208.604 31.0841C208.756 32.46 208.567 33.948 208.038 35.5481L207.867 36.0646C207.794 36.2874 207.666 36.4362 207.484 36.5108C207.322 36.5922 207.14 36.5993 206.938 36.5324L196.425 33.0567C196.418 33.077 196.405 33.1175 196.385 33.1783C196.365 33.239 196.348 33.2897 196.335 33.3302C196.101 34.174 196.025 35.0141 196.108 35.8505C196.198 36.6665 196.473 37.3978 196.933 38.0443C197.394 38.6908 198.049 39.1547 198.9 39.436C199.629 39.6771 200.273 39.7666 200.833 39.7045C201.393 39.6424 201.868 39.5299 202.259 39.3671C202.657 39.184 202.93 39.0383 203.078 38.93C203.347 38.7269 203.539 38.6219 203.654 38.6149C203.775 38.5876 203.947 38.6108 204.17 38.6844L205.628 39.1666C205.831 39.2336 205.973 39.3479 206.054 39.5096C206.163 39.6578 206.173 39.8298 206.086 40.0256C205.965 40.3227 205.679 40.6439 205.228 40.989C204.784 41.314 204.208 41.5953 203.5 41.8332C202.792 42.071 201.986 42.1978 201.082 42.2135C200.185 42.2089 199.21 42.0325 198.156 41.6843ZM197.118 30.9604L205.443 33.7127L205.473 33.6216C205.775 32.7101 205.87 31.843 205.76 31.0202C205.671 30.2041 205.379 29.4898 204.885 28.8771C204.398 28.2441 203.718 27.7836 202.847 27.4957C201.977 27.2077 201.157 27.1726 200.388 27.3904C199.647 27.5946 198.997 27.9976 198.438 28.5993C197.88 29.2011 197.45 29.9577 197.148 30.8692L197.118 30.9604Z" fill="#454E55"/>
<path d="M214.564 47.6217C213.474 47.1875 212.608 46.6242 211.965 45.9318C211.33 45.2196 210.885 44.4338 210.63 43.5745C210.403 42.7033 210.331 41.7903 210.413 40.8355C210.514 39.8885 210.735 38.9315 211.074 37.9644C211.181 37.6394 211.289 37.3382 211.4 37.0608C211.51 36.7833 211.639 36.49 211.785 36.1808C212.196 35.2651 212.69 34.4285 213.267 33.6711C213.864 32.9216 214.545 32.3086 215.309 31.8321C216.092 31.3636 216.956 31.099 217.898 31.0382C218.849 30.9577 219.869 31.1346 220.959 31.5688C222.129 32.0347 223.017 32.6296 223.624 33.3538C224.231 34.0779 224.66 34.8458 224.911 35.6576L227.635 28.8202C227.714 28.622 227.836 28.4872 228.003 28.4156C228.197 28.3322 228.393 28.3299 228.591 28.4089L230.018 28.9774C230.216 29.0563 230.347 29.1889 230.41 29.375C230.502 29.5491 230.508 29.7353 230.429 29.9335L222.565 49.6727C222.486 49.8708 222.35 50.0117 222.156 50.0951C221.989 50.1667 221.807 50.1629 221.609 50.084L220.271 49.551C220.053 49.4642 219.908 49.3376 219.837 49.1713C219.773 48.9852 219.781 48.7931 219.86 48.5949L220.357 47.3463C219.609 47.7831 218.752 48.0616 217.785 48.1818C216.827 48.2822 215.753 48.0955 214.564 47.6217ZM216.147 45.4625C217.138 45.8573 218.022 45.9452 218.798 45.7263C219.574 45.5073 220.249 45.1102 220.823 44.535C221.404 43.94 221.851 43.2798 222.163 42.5544C222.309 42.2452 222.469 41.8726 222.643 41.4366C222.824 40.9808 222.968 40.5903 223.075 40.2654C223.331 39.5638 223.435 38.813 223.387 38.0128C223.358 37.2205 223.123 36.484 222.683 35.8033C222.262 35.1304 221.576 34.6045 220.624 34.2255C219.614 33.8228 218.72 33.7309 217.944 33.9499C217.176 34.149 216.517 34.5639 215.967 35.1945C215.425 35.8054 214.968 36.5191 214.597 37.3356C214.348 37.9025 214.119 38.4772 213.91 39.0598C213.618 39.908 213.455 40.7501 213.421 41.586C213.394 42.4021 213.587 43.1565 214 43.8492C214.421 44.5221 215.137 45.0598 216.147 45.4625Z" fill="#454E55"/>
<path d="M225.824 51.9393C225.629 51.8535 225.488 51.722 225.403 51.5448C225.346 51.3566 225.36 51.1648 225.446 50.9695L231.544 37.0813C231.63 36.886 231.757 36.7554 231.926 36.6897C232.122 36.613 232.319 36.6175 232.514 36.7033L233.92 37.3208C234.116 37.4066 234.242 37.5436 234.299 37.7318C234.365 37.9004 234.355 38.0824 234.269 38.2778L228.171 52.1659C228.085 52.3613 227.954 52.5016 227.776 52.5868C227.608 52.6526 227.426 52.6426 227.23 52.5568L225.824 51.9393ZM233.527 33.7583C233.332 33.6725 233.192 33.541 233.106 33.3638C233.049 33.1756 233.064 32.9838 233.149 32.7885L233.844 31.2063C233.93 31.011 234.057 30.8804 234.226 30.8147C234.423 30.738 234.619 30.7425 234.814 30.8283L236.66 31.6388C236.855 31.7246 236.981 31.8616 237.039 32.0497C237.124 32.227 237.124 32.4133 237.038 32.6086L236.343 34.1908C236.257 34.3861 236.116 34.5221 235.919 34.5988C235.751 34.6646 235.569 34.6546 235.373 34.5688L233.527 33.7583Z" fill="#454E55"/>
<path d="M231.011 54.5135C230.816 54.4277 230.676 54.2962 230.591 54.119C230.533 53.9308 230.548 53.739 230.633 53.5437L236.732 39.6555C236.817 39.4602 236.945 39.3297 237.113 39.2639C237.31 39.1872 237.506 39.1918 237.701 39.2775L239.108 39.8951C239.303 39.9808 239.429 40.1178 239.486 40.306C239.552 40.4747 239.542 40.6567 239.456 40.852L233.358 54.7402C233.273 54.9355 233.141 55.0758 232.964 55.1611C232.795 55.2268 232.613 55.2168 232.418 55.131L231.011 54.5135ZM238.715 36.3325C238.52 36.2467 238.379 36.1152 238.294 35.938C238.237 35.7498 238.251 35.558 238.337 35.3627L239.032 33.7805C239.117 33.5852 239.245 33.4546 239.413 33.3889C239.61 33.3122 239.806 33.3167 240.001 33.4025L241.847 34.213C242.043 34.2988 242.169 34.4358 242.226 34.624C242.311 34.8012 242.311 34.9875 242.225 35.1828L241.531 36.765C241.445 36.9603 241.304 37.0964 241.107 37.1731C240.938 37.2388 240.756 37.2288 240.561 37.143L238.715 36.3325Z" fill="#454E55"/>
<defs>
<clipPath id="clip0_4311_40058">
<rect width="26" height="26" fill="white" transform="translate(0 49.6797) rotate(-31.7445)"/>
</clipPath>
<clipPath id="clip1_4311_40058">
<rect width="36" height="27" fill="white" transform="translate(-4.77734 51.4609) rotate(-31.7445)"/>
</clipPath>
</defs>
</svg>
