<svg width="172" height="49" viewBox="0 0 172 49" fill="none" xmlns="http://www.w3.org/2000/svg">
<path d="M2.17411 20.2389C1.40133 19.618 0.841183 18.9483 0.493673 18.2297C0.157453 17.4972 -0.00702806 16.7523 0.00023006 15.9951C0.0328287 15.2352 0.200536 14.4798 0.503352 13.7289C0.820218 12.9892 1.23556 12.271 1.74938 11.574C1.91597 11.3379 2.0783 11.1215 2.23636 10.9248C2.39442 10.7281 2.5708 10.523 2.76549 10.3095C3.32422 9.67173 3.93063 9.11851 4.58471 8.64984C5.25284 8.19246 5.95447 7.86604 6.68959 7.67059C7.43877 7.48642 8.20162 7.48665 8.97816 7.67129C9.76598 7.84187 10.5463 8.23762 11.3191 8.85855C12.148 9.52463 12.718 10.2253 13.0289 10.9607C13.3397 11.696 13.4958 12.4226 13.4971 13.1404L17.3922 8.29316C17.5051 8.15266 17.6375 8.07413 17.7896 8.05757C17.9669 8.03824 18.1259 8.08503 18.2664 8.19793L19.278 9.01077C19.4185 9.12367 19.4914 9.26316 19.4967 9.42924C19.5273 9.59257 19.4862 9.74448 19.3733 9.88498L8.12837 23.8786C8.01547 24.0191 7.87033 24.099 7.69295 24.1184C7.5409 24.1349 7.39463 24.0868 7.25412 23.9739L6.30571 23.2118C6.15115 23.0876 6.0656 22.9495 6.04903 22.7975C6.04376 22.6314 6.09757 22.4781 6.21047 22.3376L6.92175 21.4525C6.2092 21.6198 5.44773 21.6323 4.63733 21.4898C3.83821 21.3332 3.01714 20.9163 2.17411 20.2389ZM3.98844 18.8875C4.69097 19.452 5.38283 19.742 6.06401 19.7575C6.7452 19.773 7.38875 19.6196 7.99466 19.2972C8.61186 18.9608 9.13635 18.5383 9.56814 18.0297C9.76283 17.8162 9.98436 17.5549 10.2327 17.2458C10.4924 16.9227 10.7055 16.643 10.8721 16.4069C11.2532 15.9039 11.5233 15.3232 11.6824 14.6649C11.8555 14.0179 11.8484 13.3648 11.6612 12.7057C11.4881 12.058 11.0643 11.4631 10.3899 10.9212C9.67333 10.3455 8.97445 10.0498 8.29326 10.0343C7.62336 10.0047 6.98822 10.1764 6.38783 10.5495C5.79873 10.9085 5.25304 11.3718 4.75076 11.9393C4.40929 12.3355 4.08188 12.7429 3.76852 13.1617C3.32244 13.7743 2.98186 14.414 2.74679 15.0806C2.523 15.7331 2.49203 16.3903 2.65387 17.0522C2.82701 17.6999 3.27187 18.3117 3.98844 18.8875Z" fill="#EA8529"/>
<path d="M12.1006 27.2451C11.9503 27.1457 11.8524 27.016 11.8069 26.8562C11.7863 26.6913 11.8258 26.5337 11.9252 26.3834L18.9979 15.6969C19.0974 15.5466 19.222 15.4562 19.3719 15.4257C19.5468 15.3901 19.7093 15.4221 19.8597 15.5215L20.9419 16.2377C21.0922 16.3372 21.1776 16.4694 21.1982 16.6343C21.2287 16.7841 21.1942 16.9342 21.0947 17.0845L14.0221 27.771C13.9226 27.9213 13.7929 28.0192 13.6331 28.0648C13.4832 28.0953 13.3332 28.0608 13.1828 27.9613L12.1006 27.2451ZM21.1266 13.2153C20.9763 13.1158 20.8784 12.9862 20.8329 12.8263C20.8123 12.6615 20.8518 12.5039 20.9513 12.3536L21.757 11.1361C21.8565 10.9858 21.9811 10.8954 22.131 10.8649C22.3059 10.8293 22.4684 10.8613 22.6188 10.9607L24.0392 11.9007C24.1895 12.0002 24.2749 12.1324 24.2955 12.2973C24.341 12.4571 24.314 12.6121 24.2146 12.7624L23.4088 13.9799C23.3093 14.1302 23.1722 14.2231 22.9973 14.2587C22.8475 14.2892 22.6974 14.2547 22.5471 14.1553L21.1266 13.2153Z" fill="#EA8529"/>
<path d="M18.9185 31.9215C18.7563 31.8429 18.642 31.7275 18.5757 31.5751C18.5334 31.4144 18.5516 31.253 18.6302 31.0908L24.2197 19.5591C24.2983 19.3969 24.4099 19.2908 24.5544 19.2406C24.7229 19.1821 24.8883 19.1922 25.0505 19.2708L26.1454 19.8014C26.3076 19.88 26.4098 19.9997 26.4521 20.1604C26.5185 20.3127 26.5123 20.47 26.4337 20.6322L26.021 21.4837C26.6377 21.1617 27.3007 20.9923 28.0099 20.9755C28.727 20.9425 29.4829 21.1186 30.2777 21.5038C32.1184 22.3759 33.0543 23.7508 33.0855 25.6287C33.7887 25.1283 34.5955 24.8483 35.5057 24.7887C36.4159 24.7291 37.3251 24.9194 38.2334 25.3597C39.0769 25.7684 39.7449 26.3325 40.2374 27.052C40.7462 27.7793 41.0026 28.6346 41.0066 29.618C41.0348 30.593 40.7619 31.6725 40.188 32.8565L36.78 39.8874C36.7014 40.0496 36.5778 40.16 36.4093 40.2185C36.2648 40.2686 36.1114 40.2544 35.9492 40.1758L34.8057 39.6216C34.6435 39.5429 34.5293 39.4275 34.4629 39.2751C34.4206 39.1144 34.4388 38.953 34.5174 38.7908L37.8192 31.9788C38.2595 31.0706 38.4756 30.2941 38.4677 29.6493C38.4597 29.0045 38.2879 28.4706 37.9522 28.0475C37.6164 27.6244 37.189 27.287 36.67 27.0355C36.2483 26.8311 35.7674 26.7282 35.2273 26.7268C34.6871 26.7254 34.1453 26.9134 33.6018 27.2909C33.0745 27.6763 32.5907 28.3231 32.1504 29.2314L28.8486 36.0433C28.77 36.2055 28.6464 36.3159 28.4778 36.3744C28.3333 36.4245 28.18 36.4103 28.0178 36.3317L26.8743 35.7774C26.7121 35.6988 26.5978 35.5834 26.5314 35.431C26.4892 35.2703 26.5073 35.1089 26.5859 34.9467L29.8878 28.1347C30.328 27.2265 30.5361 26.446 30.5119 25.7934C30.4877 25.1407 30.3078 24.6029 29.9721 24.1798C29.6363 23.7567 29.2252 23.4272 28.7386 23.1914C28.3169 22.987 27.8359 22.8841 27.2958 22.8827C26.7557 22.8813 26.2138 23.0693 25.6703 23.4468C25.143 23.8322 24.6632 24.4709 24.2308 25.3629L20.9172 32.1992C20.8385 32.3614 20.7149 32.4717 20.5464 32.5302C20.4019 32.5804 20.2485 32.5662 20.0863 32.4876L18.9185 31.9215Z" fill="#EA8529"/>
<path d="M42.2393 43.5511C42.0479 43.4993 41.9165 43.3984 41.8451 43.2484C41.7689 43.1158 41.7544 42.9625 41.8015 42.7885L42.0698 41.7968C42.1169 41.6228 42.2068 41.4978 42.3394 41.4216C42.4768 41.3281 42.6411 41.3072 42.8325 41.359L57.9695 45.4546C58.1435 45.5017 58.2662 45.6003 58.3376 45.7503C58.4312 45.8877 58.4544 46.0433 58.4073 46.2173L58.139 47.209C58.0919 47.383 57.9933 47.5057 57.8433 47.5771C57.7059 47.6706 57.5503 47.6939 57.3763 47.6468L42.2393 43.5511Z" fill="#EA8529"/>
<path d="M69.0171 48.4244C67.6561 48.2692 66.5485 47.8798 65.6945 47.2563C64.8404 46.6328 64.2237 45.8368 63.8443 44.8684C63.467 43.882 63.3189 42.7948 63.4001 41.6068C63.4169 41.3004 63.4518 40.9143 63.505 40.4487C63.5601 39.9652 63.613 39.5812 63.6636 39.2968C63.8542 38.1031 64.2433 37.0772 64.8311 36.2191C65.4367 35.363 66.2258 34.7274 67.1983 34.3122C68.1709 33.8971 69.3288 33.7661 70.6719 33.9193C72.015 34.0726 73.1136 34.4609 73.9677 35.0844C74.8218 35.7079 75.4385 36.5039 75.8178 37.4723C76.2151 38.4428 76.3721 39.531 76.289 40.7369C76.2742 41.0255 76.2392 41.4115 76.1841 41.895C76.131 42.3606 76.0781 42.7446 76.0255 43.047C75.8369 44.2228 75.4477 45.2487 74.858 46.1247C74.2703 46.9828 73.4901 47.6195 72.5175 48.0346C71.545 48.4497 70.3782 48.5797 69.0171 48.4244ZM69.2531 46.3561C70.3634 46.4828 71.2897 46.2347 72.032 45.6119C72.7763 44.9712 73.253 43.9734 73.462 42.6185C73.5105 42.352 73.5583 42.0127 73.6053 41.6009C73.6523 41.189 73.6821 40.8477 73.6949 40.5771C73.7964 39.21 73.5557 38.1395 72.9728 37.3655C72.3919 36.5736 71.5463 36.1143 70.436 35.9877C69.3256 35.861 68.3893 36.117 67.6271 36.7557C66.8848 37.3785 66.4182 38.3683 66.2271 39.7252C66.1785 39.9918 66.1308 40.331 66.0838 40.7429C66.0368 41.1548 66.0069 41.496 65.9942 41.7667C65.8747 43.1317 66.1055 44.2102 66.6864 45.0021C67.2872 45.7781 68.1428 46.2294 69.2531 46.3561Z" fill="#EA8529"/>
<path d="M80.9934 48.9943C80.8131 48.9935 80.6602 48.9388 80.5345 48.8301C80.4269 48.7034 80.3734 48.55 80.3742 48.3698L80.4295 35.5821C80.4302 35.4019 80.485 35.2489 80.5937 35.1232C80.7204 34.9976 80.8739 34.9352 81.0541 34.936L82.2978 34.9413C82.478 34.9421 82.631 35.0059 82.7566 35.1326C82.8822 35.2593 82.9446 35.4128 82.9439 35.593L82.9387 36.7825C83.3018 36.1713 83.7995 35.7138 84.4317 35.4102C85.0639 35.1065 85.8215 34.9566 86.7047 34.9604L87.7862 34.965C87.9664 34.9658 88.1104 35.0295 88.218 35.1562C88.3256 35.2648 88.3791 35.4092 88.3783 35.5894L88.3735 36.6979C88.3727 36.8781 88.318 37.0221 88.2094 37.1297C88.1008 37.2374 87.9564 37.2908 87.7762 37.2901L86.154 37.2831C85.1806 37.2789 84.4134 37.5639 83.8521 38.1383C83.2909 38.6946 83.0083 39.4594 83.0041 40.4326L82.9697 48.381C82.9689 48.5612 82.9052 48.7141 82.7785 48.8398C82.6518 48.9474 82.4984 49.0008 82.3182 49L80.9934 48.9943Z" fill="#EA8529"/>
<path d="M96.7916 48.3812C95.7857 48.4647 94.9528 48.3441 94.2927 48.0191C93.6312 47.6762 93.1276 47.1664 92.782 46.4897C92.4349 45.7952 92.2211 44.9629 92.1405 43.993L91.5495 36.8801L89.4479 37.0547C89.2683 37.0696 89.1111 37.0284 88.9764 36.9311C88.8582 36.8143 88.7916 36.6661 88.7767 36.4865L88.7006 35.5704C88.6857 35.3908 88.7276 35.2427 88.8265 35.1259C88.9417 34.9898 89.0892 34.9142 89.2688 34.8993L91.3705 34.7247L90.9966 30.2253C90.9817 30.0457 91.0237 29.8975 91.1225 29.7808C91.2378 29.6446 91.3852 29.569 91.5648 29.5541L92.8312 29.4489C93.0108 29.434 93.1598 29.4849 93.278 29.6017C93.4127 29.699 93.4875 29.8375 93.5024 30.0171L93.8762 34.5165L97.2173 34.2389C97.3969 34.224 97.5458 34.275 97.6641 34.3917C97.7988 34.4891 97.8736 34.6275 97.8885 34.8071L97.9646 35.7232C97.9795 35.9028 97.9293 36.0607 97.814 36.1969C97.7152 36.3136 97.576 36.3794 97.3964 36.3944L94.0553 36.6719L94.6306 43.5962C94.7008 44.4404 94.8997 45.093 95.2274 45.5541C95.5551 46.0152 96.0872 46.2152 96.8236 46.154L98.4672 46.0174C98.6468 46.0025 98.7958 46.0534 98.914 46.1702C99.0487 46.2675 99.1235 46.406 99.1384 46.5856L99.219 47.5556C99.2339 47.7352 99.1837 47.8931 99.0684 48.0293C98.9696 48.146 98.8304 48.2118 98.6508 48.2267L96.7916 48.3812Z" fill="#EA8529"/>
<path d="M109.041 46.8236C107.697 47.09 106.524 47.0563 105.52 46.7224C104.517 46.3885 103.687 45.8181 103.031 45.0111C102.371 44.1865 101.899 43.196 101.615 42.0396C101.538 41.7426 101.453 41.3643 101.362 40.9046C101.268 40.4272 101.201 40.0454 101.163 39.759C100.981 38.564 101.039 37.4683 101.338 36.472C101.654 35.4722 102.212 34.6265 103.012 33.935C103.812 33.2435 104.875 32.7663 106.201 32.5033C107.527 32.2404 108.692 32.2758 109.695 32.6097C110.698 32.9436 111.528 33.514 112.184 34.321C112.858 35.1245 113.339 36.1132 113.627 37.2872C113.701 37.5666 113.785 37.945 113.88 38.4223C113.971 38.882 114.037 39.2638 114.079 39.5679C114.258 40.7452 114.199 41.8409 113.904 42.8549C113.606 43.8512 113.057 44.6951 112.257 45.3866C111.457 46.0781 110.385 46.5571 109.041 46.8236ZM108.636 44.7816C109.732 44.5642 110.539 44.0459 111.056 43.2267C111.57 42.3898 111.721 41.2943 111.507 39.9402C111.472 39.6715 111.414 39.3338 111.334 38.9272C111.253 38.5205 111.178 38.1864 111.107 37.9247C110.788 36.5916 110.233 35.6452 109.442 35.0854C108.647 34.5079 107.702 34.3279 106.606 34.5453C105.51 34.7627 104.696 35.2915 104.164 36.132C103.647 36.9512 103.504 38.0361 103.735 39.3867C103.77 39.6554 103.827 39.9931 103.908 40.3997C103.989 40.8063 104.064 41.1405 104.135 41.4022C104.436 42.7388 104.984 43.6958 105.779 44.2733C106.587 44.8295 107.54 44.999 108.636 44.7816Z" fill="#EA8529"/>
<path d="M122.474 48.6127C122.303 48.6708 122.138 48.6604 121.978 48.5816C121.841 48.514 121.743 48.3949 121.685 48.2243L115.903 31.2293C115.845 31.0587 115.85 30.9047 115.917 30.7675C115.996 30.6075 116.121 30.4984 116.291 30.4403L117.469 30.0398C117.64 29.9818 117.796 29.995 117.939 30.0797C118.094 30.1414 118.2 30.2576 118.258 30.4282L118.641 31.5544C118.859 30.852 119.245 30.197 119.8 29.5894C120.355 28.9818 121.144 28.5039 122.168 28.1556C123.124 27.8305 123.99 27.7169 124.765 27.8147C125.558 27.9067 126.264 28.1617 126.882 28.5796C127.517 28.9918 128.068 29.5185 128.533 30.1597C128.999 30.8009 129.38 31.5281 129.675 32.3413C129.785 32.6085 129.892 32.8957 129.997 33.2028C130.101 33.51 130.192 33.803 130.267 34.0818C130.523 34.8895 130.665 35.698 130.693 36.5072C130.715 37.2993 130.6 38.0524 130.348 38.7664C130.107 39.4576 129.703 40.0899 129.137 40.6633C128.581 41.2139 127.826 41.6517 126.87 41.9768C125.881 42.3135 124.984 42.4188 124.179 42.2926C123.386 42.1436 122.683 41.8687 122.071 41.4678L124.091 47.4058C124.149 47.5764 124.144 47.7304 124.077 47.8676C124.015 48.0218 123.89 48.1309 123.703 48.1948L122.474 48.6127ZM125.628 40.0865C126.515 39.7846 127.142 39.3618 127.509 38.8181C127.888 38.2515 128.083 37.6233 128.096 36.9336C128.103 36.2268 128.002 35.5093 127.792 34.781C127.641 34.2803 127.473 33.7855 127.287 33.2965C127.009 32.5914 126.655 31.9695 126.224 31.4307C125.787 30.8748 125.249 30.4963 124.61 30.295C123.981 30.0709 123.223 30.1098 122.336 30.4116C121.5 30.6961 120.884 31.1245 120.489 31.6969C120.11 32.2635 119.898 32.8975 119.851 33.5988C119.815 34.2773 119.887 34.938 120.068 35.581C120.144 35.8598 120.246 36.1869 120.373 36.5623C120.501 36.9377 120.623 37.2675 120.739 37.5518C120.959 38.1432 121.296 38.6854 121.749 39.1785C122.219 39.6658 122.783 40.0071 123.44 40.2026C124.096 40.398 124.826 40.3593 125.628 40.0865Z" fill="#EA8529"/>
<path d="M141.563 35.7777C139.898 36.5987 138.322 36.7431 136.833 36.2109C135.337 35.6626 134.102 34.5232 133.128 32.7929C133.008 32.5907 132.869 32.328 132.709 32.0047C132.542 31.6652 132.414 31.3864 132.327 31.1683C131.826 29.9887 131.598 28.8549 131.645 27.767C131.683 26.6629 131.991 25.6772 132.568 24.8098C133.161 23.9345 134.007 23.2259 135.107 22.6838C136.335 22.0781 137.489 21.8306 138.569 21.9413C139.665 22.0441 140.666 22.4648 141.573 23.2033C142.48 23.9419 143.248 24.9497 143.877 26.2267L144.081 26.6389C144.168 26.8168 144.18 26.9821 144.114 27.1348C144.065 27.2797 143.96 27.3919 143.798 27.4716L135.408 31.6085C135.416 31.6247 135.432 31.657 135.456 31.7055C135.48 31.754 135.5 31.7944 135.515 31.8268C135.875 32.4736 136.327 33.0242 136.873 33.4786C137.41 33.9169 138.009 34.1943 138.67 34.3108C139.33 34.4273 140 34.3182 140.679 33.9834C141.261 33.6964 141.702 33.3684 142.002 32.9993C142.302 32.6301 142.522 32.2807 142.661 31.951C142.792 31.6051 142.87 31.3557 142.895 31.2027C142.937 30.9208 142.99 30.7438 143.055 30.6716C143.112 30.5832 143.229 30.4952 143.407 30.4075L144.571 29.8336C144.733 29.7539 144.886 29.7387 145.031 29.7878C145.184 29.8128 145.292 29.9102 145.355 30.0798C145.459 30.3302 145.477 30.6931 145.41 31.1683C145.335 31.6273 145.155 32.1382 144.869 32.7008C144.584 33.2635 144.174 33.8174 143.639 34.3625C143.096 34.8915 142.404 35.3632 141.563 35.7777ZM134.583 29.9354L141.227 26.6594L141.191 26.5866C140.833 25.8592 140.376 25.2803 139.822 24.8501C139.285 24.4118 138.686 24.1546 138.025 24.0784C137.357 23.986 136.675 24.1112 135.98 24.4539C135.284 24.7967 134.77 25.2614 134.436 25.8479C134.111 26.4104 133.958 27.0382 133.978 27.7315C133.999 28.4249 134.188 29.1352 134.547 29.8627L134.583 29.9354Z" fill="#EA8529"/>
<path d="M155.442 27.7743C154.618 28.3261 153.811 28.6603 153.022 28.7771C152.222 28.8789 151.462 28.8131 150.742 28.5798C150.026 28.3215 149.355 27.9356 148.729 27.4222C148.118 26.8987 147.557 26.2876 147.046 25.5889C146.87 25.3593 146.712 25.1398 146.572 24.9301C146.431 24.7205 146.288 24.4909 146.143 24.2413C145.701 23.5174 145.355 22.7734 145.103 22.0091C144.866 21.2348 144.764 20.4677 144.798 19.7078C144.846 18.9379 145.074 18.21 145.483 17.5243C145.881 16.8235 146.492 16.1973 147.315 15.6455C148.199 15.0537 149.038 14.7193 149.833 14.6425C150.627 14.5658 151.367 14.6341 152.053 14.8475L148.592 9.68149C148.491 9.53175 148.456 9.38186 148.486 9.23183C148.52 9.05679 148.612 8.91911 148.762 8.81879L149.84 8.09651C149.99 7.99619 150.145 7.96835 150.305 8.01298C150.47 8.0326 150.603 8.11728 150.703 8.26701L160.695 23.181C160.796 23.3307 160.828 23.4931 160.794 23.6681C160.764 23.8182 160.674 23.9433 160.525 24.0437L159.514 24.7208C159.349 24.8311 159.192 24.8715 159.042 24.8418C158.882 24.7972 158.751 24.7 158.651 24.5503L158.019 23.6069C157.966 24.3369 157.75 25.0672 157.372 25.7979C156.983 26.5136 156.34 27.1724 155.442 27.7743ZM154.694 25.639C155.443 25.1374 155.927 24.564 156.145 23.9186C156.364 23.2733 156.41 22.6133 156.283 21.9388C156.147 21.2492 155.9 20.6224 155.544 20.0584C155.398 19.8087 155.215 19.5192 154.995 19.1898C154.764 18.8454 154.561 18.5584 154.385 18.3289C154.019 17.8148 153.546 17.3835 152.965 17.0349C152.399 16.6763 151.774 16.4877 151.089 16.4693C150.419 16.4408 149.725 16.6673 149.006 17.1489C148.242 17.6605 147.751 18.239 147.533 18.8843C147.304 19.5147 147.278 20.1721 147.455 20.8565C147.621 21.526 147.9 22.1852 148.292 22.8342C148.568 23.2785 148.859 23.7127 149.164 24.1369C149.616 24.7458 150.124 25.262 150.69 25.6856C151.246 26.0942 151.864 26.3203 152.544 26.3637C153.214 26.3922 153.931 26.1506 154.694 25.639Z" fill="#EA8529"/>
<path d="M165.303 20.1904C165.164 20.3045 165.011 20.3597 164.845 20.3559C164.681 20.3267 164.542 20.2424 164.428 20.1029L156.312 10.1854C156.198 10.0459 156.149 9.9001 156.164 9.74792C156.182 9.57038 156.26 9.42454 156.4 9.3104L157.404 8.48857C157.544 8.37443 157.695 8.33193 157.859 8.36109C158.011 8.37629 158.144 8.45364 158.258 8.59313L166.374 18.5106C166.488 18.6501 166.544 18.8029 166.54 18.9691C166.525 19.1212 166.447 19.2544 166.308 19.3685L165.303 20.1904ZM154.572 7.41784C154.432 7.53198 154.279 7.58716 154.113 7.58336C153.949 7.55421 153.811 7.46989 153.696 7.3304L152.772 6.20056C152.658 6.06107 152.608 5.91524 152.623 5.76306C152.641 5.58552 152.72 5.43968 152.859 5.32554L154.177 4.24689C154.317 4.13275 154.469 4.09025 154.632 4.11941C154.798 4.1232 154.938 4.19484 155.053 4.33432L155.977 5.46417C156.091 5.60365 156.14 5.76217 156.122 5.93971C156.107 6.09189 156.029 6.22505 155.89 6.33919L154.572 7.41784Z" fill="#EA8529"/>
<path d="M170.836 15.4334C170.703 15.5553 170.554 15.6192 170.388 15.625C170.223 15.6053 170.079 15.5292 169.957 15.3965L161.283 5.9632C161.161 5.83053 161.104 5.68779 161.11 5.53499C161.117 5.35672 161.188 5.20659 161.32 5.08459L162.275 4.20625C162.408 4.08426 162.557 4.0331 162.722 4.05278C162.875 4.05919 163.012 4.12873 163.134 4.26141L171.808 13.6947C171.93 13.8274 171.994 13.9768 172 14.1428C171.994 14.2956 171.924 14.433 171.791 14.555L170.836 15.4334ZM159.386 3.30054C159.253 3.42254 159.104 3.48643 158.938 3.49222C158.773 3.47254 158.629 3.39636 158.507 3.26368L157.519 2.189C157.397 2.05633 157.339 1.91359 157.346 1.76079C157.353 1.58252 157.423 1.43239 157.556 1.3104L158.81 0.157571C158.942 0.0355794 159.091 -0.0155778 159.256 0.00409977C159.422 -0.00168916 159.566 0.0617549 159.688 0.194432L160.677 1.26911C160.799 1.40179 160.856 1.55726 160.848 1.73553C160.842 1.88833 160.772 2.02572 160.64 2.14772L159.386 3.30054Z" fill="#EA8529"/>
</svg>
