<svg width="68" height="68" viewBox="0 0 68 68" fill="none" xmlns="http://www.w3.org/2000/svg">
<g filter="url(#filter0_d_2523_10465)">
<circle cx="34" cy="34" r="28" fill="white"/>
</g>
<path d="M41.1213 25.2852C40.8049 25.2852 40.4955 25.379 40.2324 25.5549C39.9693 25.7307 39.7642 25.9806 39.6431 26.2729C39.522 26.5653 39.4903 26.887 39.552 27.1974C39.6138 27.5077 39.7662 27.7928 39.9899 28.0166C40.2137 28.2403 40.4988 28.3927 40.8092 28.4545C41.1195 28.5162 41.4412 28.4845 41.7336 28.3634C42.026 28.2423 42.2758 28.0372 42.4517 27.7741C42.6275 27.511 42.7213 27.2017 42.7213 26.8852C42.7213 26.4609 42.5527 26.0539 42.2527 25.7538C41.9526 25.4538 41.5456 25.2852 41.1213 25.2852ZM47.2546 28.5119C47.2287 27.4056 47.0215 26.3111 46.6413 25.2719C46.3023 24.3827 45.7746 23.5776 45.0946 22.9119C44.4344 22.2284 43.6274 21.7041 42.7346 21.3785C41.6982 20.9868 40.6024 20.7748 39.4946 20.7519C38.0813 20.6719 37.628 20.6719 34.0013 20.6719C30.3746 20.6719 29.9213 20.6719 28.508 20.7519C27.4002 20.7748 26.3044 20.9868 25.268 21.3785C24.3769 21.7074 23.5705 22.2313 22.908 22.9119C22.2245 23.5721 21.7002 24.3791 21.3746 25.2719C20.9828 26.3083 20.7709 27.4041 20.748 28.5119C20.668 29.9252 20.668 30.3785 20.668 34.0052C20.668 37.6319 20.668 38.0852 20.748 39.4985C20.7709 40.6063 20.9828 41.7021 21.3746 42.7385C21.7002 43.6313 22.2245 44.4383 22.908 45.0985C23.5705 45.7791 24.3769 46.303 25.268 46.6319C26.3044 47.0237 27.4002 47.2356 28.508 47.2585C29.9213 47.3385 30.3746 47.3385 34.0013 47.3385C37.628 47.3385 38.0813 47.3385 39.4946 47.2585C40.6024 47.2356 41.6982 47.0237 42.7346 46.6319C43.6274 46.3063 44.4344 45.782 45.0946 45.0985C45.7776 44.4353 46.3057 43.6295 46.6413 42.7385C47.0215 41.6993 47.2287 40.6048 47.2546 39.4985C47.2546 38.0852 47.3346 37.6319 47.3346 34.0052C47.3346 30.3785 47.3346 29.9252 47.2546 28.5119ZM44.8546 39.3385C44.8449 40.1849 44.6916 41.0235 44.4013 41.8185C44.1884 42.3988 43.8465 42.9231 43.4013 43.3519C42.9688 43.7925 42.4456 44.1338 41.868 44.3519C41.0729 44.6422 40.2343 44.7955 39.388 44.8052C38.0546 44.8719 37.5613 44.8852 34.0546 44.8852C30.548 44.8852 30.0546 44.8852 28.7213 44.8052C27.8425 44.8217 26.9674 44.6863 26.1346 44.4052C25.5823 44.176 25.0831 43.8356 24.668 43.4052C24.2254 42.9769 23.8878 42.4521 23.6813 41.8719C23.3558 41.0654 23.1752 40.2078 23.148 39.3385C23.148 38.0052 23.068 37.5119 23.068 34.0052C23.068 30.4985 23.068 30.0052 23.148 28.6719C23.1539 27.8066 23.3119 26.9491 23.6146 26.1385C23.8494 25.5758 24.2097 25.0741 24.668 24.6719C25.0731 24.2134 25.5737 23.8493 26.1346 23.6052C26.9474 23.3119 27.804 23.1586 28.668 23.1519C30.0013 23.1519 30.4946 23.0719 34.0013 23.0719C37.508 23.0719 38.0013 23.0719 39.3346 23.1519C40.181 23.1616 41.0196 23.3149 41.8146 23.6052C42.4205 23.8301 42.9644 24.1957 43.4013 24.6719C43.8382 25.0814 44.1796 25.5822 44.4013 26.1385C44.6976 26.9505 44.851 27.8076 44.8546 28.6719C44.9213 30.0052 44.9346 30.4985 44.9346 34.0052C44.9346 37.5119 44.9213 38.0052 44.8546 39.3385ZM34.0013 27.1652C32.649 27.1678 31.3279 27.5712 30.2048 28.3244C29.0818 29.0776 28.2071 30.1468 27.6915 31.3969C27.1758 32.647 27.0423 34.0218 27.3077 35.3478C27.5731 36.6737 28.2256 37.8913 29.1827 38.8465C30.1399 39.8018 31.3586 40.4519 32.6851 40.7147C34.0116 40.9776 35.3862 40.8413 36.6353 40.3233C37.8843 39.8052 38.9518 38.9285 39.7028 37.8039C40.4538 36.6794 40.8546 35.3575 40.8546 34.0052C40.8564 33.1053 40.6802 32.214 40.3363 31.3825C39.9923 30.5509 39.4874 29.7956 38.8505 29.1599C38.2135 28.5243 37.4572 28.0208 36.625 27.6784C35.7928 27.3361 34.9012 27.1617 34.0013 27.1652ZM34.0013 38.4452C33.1232 38.4452 32.2647 38.1848 31.5346 37.6969C30.8044 37.2091 30.2353 36.5156 29.8993 35.7043C29.5632 34.893 29.4753 34.0003 29.6466 33.139C29.8179 32.2777 30.2408 31.4866 30.8617 30.8657C31.4827 30.2447 32.2738 29.8218 33.1351 29.6505C33.9964 29.4792 34.8891 29.5671 35.7004 29.9032C36.5117 30.2392 37.2052 30.8083 37.693 31.5385C38.1809 32.2686 38.4413 33.1271 38.4413 34.0052C38.4413 34.5883 38.3265 35.1656 38.1033 35.7043C37.8802 36.243 37.5531 36.7325 37.1409 37.1448C36.7286 37.5571 36.2391 37.8841 35.7004 38.1072C35.1617 38.3304 34.5844 38.4452 34.0013 38.4452Z" fill="#EA8529"/>
<defs>
<filter id="filter0_d_2523_10465" x="0" y="0" width="68" height="68" filterUnits="userSpaceOnUse" color-interpolation-filters="sRGB">
<feFlood flood-opacity="0" result="BackgroundImageFix"/>
<feColorMatrix in="SourceAlpha" type="matrix" values="0 0 0 0 0 0 0 0 0 0 0 0 0 0 0 0 0 0 127 0" result="hardAlpha"/>
<feOffset/>
<feGaussianBlur stdDeviation="3"/>
<feComposite in2="hardAlpha" operator="out"/>
<feColorMatrix type="matrix" values="0 0 0 0 0.384314 0 0 0 0 0.313726 0 0 0 0 0.0588235 0 0 0 0.15 0"/>
<feBlend mode="normal" in2="BackgroundImageFix" result="effect1_dropShadow_2523_10465"/>
<feBlend mode="normal" in="SourceGraphic" in2="effect1_dropShadow_2523_10465" result="shape"/>
</filter>
</defs>
</svg>
