<svg width="18" height="20" viewBox="0 0 18 20" fill="none" xmlns="http://www.w3.org/2000/svg">
<path d="M16.6 8.5075C16.6 13.87 9.09246 18.875 9.09246 18.875C9.09246 18.875 1.58496 13.87 1.58496 8.5075C1.58496 6.51639 2.37593 4.60683 3.78386 3.1989C5.19179 1.79097 7.10135 1 9.09246 1C11.0836 1 12.9931 1.79097 14.4011 3.1989C15.809 4.60683 16.6 6.51639 16.6 8.5075Z" stroke="#5D5955" stroke-width="1.2" stroke-linecap="round" stroke-linejoin="round"/>
<path d="M9.09121 10.2937C10.0784 10.2937 10.8787 9.49346 10.8787 8.50625C10.8787 7.51904 10.0784 6.71875 9.09121 6.71875C8.104 6.71875 7.30371 7.51904 7.30371 8.50625C7.30371 9.49346 8.104 10.2937 9.09121 10.2937Z" fill="#5D5955" stroke="#5D5955" stroke-width="1.2" stroke-linecap="round" stroke-linejoin="round"/>
</svg>
