<svg width="723" height="452" viewBox="0 0 723 452" fill="none" xmlns="http://www.w3.org/2000/svg">
<path d="M2.23165 382.732C1.61175 382.732 1.08483 382.515 0.650898 382.081C0.216966 381.709 0 381.182 0 380.5V360.415C0 359.795 0.216966 359.268 0.650898 358.834C1.08483 358.4 1.61175 358.183 2.23165 358.183H4.09136C5.57912 358.183 6.84992 357.502 7.90376 356.138C8.95759 354.712 9.82546 352.666 10.5073 350.001C11.1892 347.273 11.6852 343.926 11.9951 339.958C12.3051 335.991 12.46 331.466 12.46 326.382V306.948C12.46 306.329 12.677 305.802 13.1109 305.368C13.5449 304.934 14.1028 304.717 14.7847 304.717H54.6754C55.3573 304.717 55.9152 304.934 56.3491 305.368C56.7831 305.802 57 306.36 57 307.041V358.183H61.4633C62.1452 358.183 62.7031 358.4 63.1371 358.834C63.571 359.268 63.788 359.795 63.788 360.415V380.5C63.788 381.182 63.571 381.709 63.1371 382.081C62.7031 382.515 62.1452 382.732 61.4633 382.732H53.0946C52.4128 382.732 51.8549 382.515 51.4209 382.081C51.049 381.709 50.863 381.182 50.863 380.5V369.807H12.925V380.5C12.925 381.182 12.708 381.709 12.2741 382.081C11.8401 382.515 11.2822 382.732 10.6003 382.732H2.23165ZM19.8989 358.183H44.0751V316.34H25.0131V328.056C25.0131 335.743 24.5791 342.035 23.7113 346.932C22.8434 351.767 21.5726 355.518 19.8989 358.183Z" fill="#62500F"/>
<path d="M79.1415 369.807C78.5216 369.807 77.9946 369.59 77.5607 369.156C77.1268 368.722 76.9098 368.195 76.9098 367.575V306.948C76.9098 306.329 77.1268 305.802 77.5607 305.368C77.9946 304.934 78.5216 304.717 79.1415 304.717H87.8821C88.564 304.717 89.0909 304.934 89.4628 305.368C89.8968 305.802 90.1137 306.329 90.1137 306.948V367.575C90.1137 368.195 89.8968 368.722 89.4628 369.156C89.0909 369.59 88.564 369.807 87.8821 369.807H79.1415Z" fill="#62500F"/>
<path d="M109.811 369.807C109.129 369.807 108.571 369.59 108.137 369.156C107.703 368.722 107.486 368.195 107.486 367.575V307.041C107.486 306.36 107.703 305.802 108.137 305.368C108.571 304.934 109.129 304.717 109.811 304.717H117.156C118.024 304.717 118.675 304.965 119.109 305.461C119.543 305.895 119.822 306.236 119.946 306.484L137.892 339.958L156.024 306.484C156.148 306.236 156.427 305.895 156.861 305.461C157.295 304.965 157.946 304.717 158.814 304.717H166.067C166.749 304.717 167.307 304.934 167.741 305.368C168.174 305.802 168.391 306.36 168.391 307.041V367.575C168.391 368.195 168.174 368.722 167.741 369.156C167.307 369.59 166.749 369.807 166.067 369.807H158.256C157.574 369.807 157.016 369.59 156.582 369.156C156.21 368.722 156.024 368.195 156.024 367.575V327.312L143.006 352.139C142.696 352.697 142.294 353.193 141.798 353.627C141.302 353.999 140.651 354.185 139.845 354.185H136.033C135.165 354.185 134.483 353.999 133.987 353.627C133.553 353.193 133.181 352.697 132.871 352.139L119.853 327.312V367.575C119.853 368.195 119.636 368.722 119.202 369.156C118.768 369.59 118.241 369.807 117.621 369.807H109.811Z" fill="#62500F"/>
<path d="M234.696 370.736C229.179 370.736 224.436 369.838 220.469 368.04C216.502 366.18 213.402 363.36 211.171 359.578C208.939 355.735 207.73 350.962 207.544 345.258C207.482 342.593 207.451 339.958 207.451 337.355C207.451 334.751 207.482 332.086 207.544 329.358C207.73 323.717 208.97 319.006 211.264 315.224C213.557 311.443 216.688 308.591 220.655 306.67C224.684 304.748 229.365 303.787 234.696 303.787C240.027 303.787 244.707 304.748 248.737 306.67C252.766 308.591 255.927 311.443 258.221 315.224C260.515 319.006 261.755 323.717 261.941 329.358C262.065 332.086 262.127 334.751 262.127 337.355C262.127 339.958 262.065 342.593 261.941 345.258C261.755 350.962 260.546 355.735 258.314 359.578C256.082 363.36 252.952 366.18 248.923 368.04C244.955 369.838 240.213 370.736 234.696 370.736ZM234.696 360.043C238.725 360.043 242.011 358.865 244.552 356.51C247.094 354.092 248.458 350.187 248.644 344.794C248.768 342.066 248.83 339.555 248.83 337.262C248.83 334.906 248.768 332.395 248.644 329.73C248.52 326.134 247.838 323.221 246.598 320.989C245.42 318.696 243.808 317.053 241.763 316.061C239.717 315.007 237.361 314.48 234.696 314.48C232.092 314.48 229.768 315.007 227.722 316.061C225.676 317.053 224.033 318.696 222.794 320.989C221.616 323.221 220.965 326.134 220.841 329.73C220.779 332.395 220.748 334.906 220.748 337.262C220.748 339.555 220.779 342.066 220.841 344.794C221.027 350.187 222.391 354.092 224.932 356.51C227.474 358.865 230.728 360.043 234.696 360.043Z" fill="#62500F"/>
<path d="M279.358 369.807C278.738 369.807 278.211 369.59 277.777 369.156C277.343 368.722 277.126 368.195 277.126 367.575V307.041C277.126 306.36 277.343 305.802 277.777 305.368C278.211 304.934 278.738 304.717 279.358 304.717H304.278C309.113 304.717 313.329 305.492 316.924 307.041C320.519 308.529 323.309 310.823 325.293 313.922C327.276 316.96 328.268 320.772 328.268 325.36C328.268 330.009 327.276 333.852 325.293 336.89C323.309 339.865 320.519 342.097 316.924 343.585C313.329 345.072 309.113 345.816 304.278 345.816H290.423V367.575C290.423 368.195 290.206 368.722 289.772 369.156C289.4 369.59 288.873 369.807 288.191 369.807H279.358ZM290.237 335.495H303.813C307.408 335.495 310.167 334.658 312.089 332.984C314.01 331.249 314.971 328.707 314.971 325.36C314.971 322.26 314.072 319.78 312.275 317.921C310.477 315.999 307.656 315.038 303.813 315.038H290.237V335.495Z" fill="#62500F"/>
<path d="M357.761 369.807C357.141 369.807 356.614 369.59 356.18 369.156C355.747 368.722 355.53 368.195 355.53 367.575V316.154H338.327C337.707 316.154 337.18 315.937 336.747 315.503C336.313 315.069 336.096 314.542 336.096 313.922V307.041C336.096 306.36 336.313 305.802 336.747 305.368C337.18 304.934 337.707 304.717 338.327 304.717H385.75C386.432 304.717 386.99 304.934 387.424 305.368C387.858 305.802 388.074 306.36 388.074 307.041V313.922C388.074 314.542 387.858 315.069 387.424 315.503C386.99 315.937 386.432 316.154 385.75 316.154H368.641V367.575C368.641 368.195 368.424 368.722 367.99 369.156C367.556 369.59 366.998 369.807 366.316 369.807H357.761Z" fill="#62500F"/>
<path d="M425.312 370.736C419.795 370.736 415.053 369.838 411.085 368.04C407.118 366.18 404.019 363.36 401.787 359.578C399.555 355.735 398.346 350.962 398.16 345.258C398.098 342.593 398.068 339.958 398.068 337.355C398.068 334.751 398.098 332.086 398.16 329.358C398.346 323.717 399.586 319.006 401.88 315.224C404.174 311.443 407.304 308.591 411.271 306.67C415.301 304.748 419.981 303.787 425.312 303.787C430.643 303.787 435.324 304.748 439.353 306.67C443.382 308.591 446.544 311.443 448.838 315.224C451.131 319.006 452.371 323.717 452.557 329.358C452.681 332.086 452.743 334.751 452.743 337.355C452.743 339.958 452.681 342.593 452.557 345.258C452.371 350.962 451.162 355.735 448.931 359.578C446.699 363.36 443.568 366.18 439.539 368.04C435.572 369.838 430.829 370.736 425.312 370.736ZM425.312 360.043C429.342 360.043 432.627 358.865 435.169 356.51C437.71 354.092 439.074 350.187 439.26 344.794C439.384 342.066 439.446 339.555 439.446 337.262C439.446 334.906 439.384 332.395 439.26 329.73C439.136 326.134 438.454 323.221 437.214 320.989C436.037 318.696 434.425 317.053 432.379 316.061C430.333 315.007 427.978 314.48 425.312 314.48C422.709 314.48 420.384 315.007 418.338 316.061C416.293 317.053 414.65 318.696 413.41 320.989C412.232 323.221 411.581 326.134 411.457 329.73C411.395 332.395 411.364 334.906 411.364 337.262C411.364 339.555 411.395 342.066 411.457 344.794C411.643 350.187 413.007 354.092 415.549 356.51C418.09 358.865 421.345 360.043 425.312 360.043Z" fill="#62500F"/>
<path d="M469.974 369.807C469.354 369.807 468.827 369.621 468.393 369.249C467.96 368.815 467.743 368.257 467.743 367.575V307.041C467.743 306.36 467.96 305.802 468.393 305.368C468.827 304.934 469.354 304.717 469.974 304.717H518.699C519.38 304.717 519.938 304.934 520.372 305.368C520.806 305.802 521.023 306.36 521.023 307.041V367.575C521.023 368.195 520.806 368.722 520.372 369.156C519.938 369.59 519.38 369.807 518.699 369.807H510.33C509.71 369.807 509.183 369.59 508.749 369.156C508.315 368.722 508.098 368.195 508.098 367.575V316.34H480.668V367.575C480.668 368.195 480.451 368.722 480.017 369.156C479.645 369.59 479.118 369.807 478.436 369.807H469.974Z" fill="#62500F"/>
<path d="M540.505 369.807C539.885 369.807 539.358 369.59 538.924 369.156C538.49 368.722 538.273 368.195 538.273 367.575V307.041C538.273 306.36 538.49 305.802 538.924 305.368C539.358 304.934 539.885 304.717 540.505 304.717H581.419C582.101 304.717 582.659 304.934 583.092 305.368C583.526 305.802 583.743 306.36 583.743 307.041V313.178C583.743 313.798 583.526 314.325 583.092 314.759C582.659 315.193 582.101 315.41 581.419 315.41H550.827V331.869H579.373C580.055 331.869 580.613 332.086 581.047 332.519C581.481 332.891 581.698 333.418 581.698 334.1V339.865C581.698 340.547 581.481 341.105 581.047 341.539C580.613 341.911 580.055 342.097 579.373 342.097H550.827V359.113H582.163C582.844 359.113 583.402 359.33 583.836 359.764C584.27 360.198 584.487 360.756 584.487 361.438V367.575C584.487 368.195 584.27 368.722 583.836 369.156C583.402 369.59 582.844 369.807 582.163 369.807H540.505Z" fill="#62500F"/>
<path d="M596.303 382.732C595.683 382.732 595.156 382.515 594.722 382.081C594.288 381.709 594.071 381.182 594.071 380.5V360.415C594.071 359.795 594.288 359.268 594.722 358.834C595.156 358.4 595.683 358.183 596.303 358.183H598.163C599.65 358.183 600.921 357.502 601.975 356.138C603.029 354.712 603.897 352.666 604.579 350.001C605.26 347.273 605.756 343.926 606.066 339.958C606.376 335.991 606.531 331.466 606.531 326.382V306.948C606.531 306.329 606.748 305.802 607.182 305.368C607.616 304.934 608.174 304.717 608.856 304.717H648.747C649.429 304.717 649.986 304.934 650.42 305.368C650.854 305.802 651.071 306.36 651.071 307.041V358.183H655.535C656.216 358.183 656.774 358.4 657.208 358.834C657.642 359.268 657.859 359.795 657.859 360.415V380.5C657.859 381.182 657.642 381.709 657.208 382.081C656.774 382.515 656.216 382.732 655.535 382.732H647.166C646.484 382.732 645.926 382.515 645.492 382.081C645.12 381.709 644.934 381.182 644.934 380.5V369.807H606.996V380.5C606.996 381.182 606.779 381.709 606.345 382.081C605.911 382.515 605.353 382.732 604.672 382.732H596.303ZM613.97 358.183H638.146V316.34H619.084V328.056C619.084 335.743 618.65 342.035 617.782 346.932C616.915 351.767 615.644 355.518 613.97 358.183Z" fill="#62500F"/>
<path d="M673.213 369.807C672.593 369.807 672.066 369.59 671.632 369.156C671.198 368.722 670.981 368.195 670.981 367.575V306.948C670.981 306.329 671.198 305.802 671.632 305.368C672.066 304.934 672.593 304.717 673.213 304.717H681.953C682.635 304.717 683.162 304.934 683.534 305.368C683.968 305.802 684.185 306.329 684.185 306.948V367.575C684.185 368.195 683.968 368.722 683.534 369.156C683.162 369.59 682.635 369.807 681.953 369.807H673.213Z" fill="#62500F"/>
<path d="M703.789 369.807C703.169 369.807 702.642 369.59 702.208 369.156C701.774 368.722 701.557 368.195 701.557 367.575V306.948C701.557 306.329 701.774 305.802 702.208 305.368C702.642 304.934 703.169 304.717 703.789 304.717H712.53C713.211 304.717 713.738 304.934 714.11 305.368C714.544 305.802 714.761 306.329 714.761 306.948V367.575C714.761 368.195 714.544 368.722 714.11 369.156C713.738 369.59 713.211 369.807 712.53 369.807H703.789ZM713.459 295.976C712.839 295.976 712.344 295.79 711.972 295.418C711.6 295.046 711.414 294.55 711.414 293.931V287.143C711.414 286.523 711.6 286.027 711.972 285.655C712.344 285.221 712.839 285.004 713.459 285.004H720.247C720.867 285.004 721.363 285.221 721.735 285.655C722.169 286.027 722.386 286.523 722.386 287.143V293.931C722.386 294.55 722.169 295.046 721.735 295.418C721.363 295.79 720.867 295.976 720.247 295.976H713.459ZM695.978 295.976C695.358 295.976 694.862 295.79 694.49 295.418C694.118 295.046 693.932 294.55 693.932 293.931V287.143C693.932 286.523 694.118 286.027 694.49 285.655C694.862 285.221 695.358 285.004 695.978 285.004H702.766C703.386 285.004 703.882 285.221 704.254 285.655C704.688 286.027 704.905 286.523 704.905 287.143V293.931C704.905 294.55 704.688 295.046 704.254 295.418C703.882 295.79 703.386 295.976 702.766 295.976H695.978Z" fill="#62500F"/>
<path d="M135.791 441.097C135.419 441.097 135.103 440.985 134.843 440.762C134.619 440.539 134.508 440.242 134.508 439.87V403.326C134.508 402.917 134.619 402.601 134.843 402.378C135.103 402.155 135.419 402.043 135.791 402.043H137.186C137.558 402.043 137.837 402.136 138.023 402.322C138.209 402.508 138.32 402.657 138.357 402.769L151.022 427.428L163.742 402.769C163.817 402.657 163.928 402.508 164.077 402.322C164.263 402.136 164.542 402.043 164.914 402.043H166.253C166.662 402.043 166.978 402.155 167.201 402.378C167.425 402.601 167.536 402.917 167.536 403.326V439.87C167.536 440.242 167.425 440.539 167.201 440.762C166.978 440.985 166.662 441.097 166.253 441.097H165.249C164.877 441.097 164.579 440.985 164.356 440.762C164.133 440.539 164.021 440.242 164.021 439.87V409.631L153.365 430.608C153.216 430.98 152.993 431.259 152.696 431.445C152.435 431.631 152.082 431.724 151.636 431.724H150.408C149.962 431.724 149.609 431.631 149.348 431.445C149.088 431.259 148.865 430.98 148.679 430.608L138.023 409.631V439.87C138.023 440.242 137.911 440.539 137.688 440.762C137.465 440.985 137.167 441.097 136.795 441.097H135.791Z" fill="#62500F"/>
<path d="M188.083 441.655C184.475 441.655 181.611 440.483 179.491 438.14C177.371 435.76 176.162 432.654 175.864 428.823C175.827 428.265 175.809 427.521 175.809 426.591C175.809 425.662 175.827 424.918 175.864 424.36C176.05 421.831 176.645 419.599 177.65 417.665C178.654 415.731 180.03 414.224 181.778 413.146C183.564 412.067 185.665 411.528 188.083 411.528C190.686 411.528 192.899 412.104 194.722 413.257C196.544 414.41 197.939 416.065 198.906 418.223C199.91 420.38 200.413 422.946 200.413 425.922V426.759C200.413 427.131 200.282 427.428 200.022 427.651C199.799 427.875 199.501 427.986 199.129 427.986H179.268C179.268 427.986 179.268 428.061 179.268 428.209C179.268 428.358 179.268 428.47 179.268 428.544C179.342 430.218 179.733 431.817 180.439 433.342C181.146 434.83 182.15 436.057 183.452 437.024C184.754 437.954 186.297 438.419 188.083 438.419C189.682 438.419 191.002 438.177 192.044 437.694C193.122 437.21 193.978 436.69 194.61 436.132C195.243 435.537 195.652 435.09 195.838 434.793C196.172 434.309 196.433 434.03 196.619 433.956C196.805 433.844 197.102 433.788 197.511 433.788H198.404C198.739 433.788 199.018 433.9 199.241 434.123C199.501 434.309 199.613 434.57 199.576 434.904C199.538 435.425 199.241 436.076 198.683 436.857C198.162 437.601 197.4 438.345 196.396 439.089C195.428 439.832 194.238 440.446 192.825 440.93C191.412 441.413 189.831 441.655 188.083 441.655ZM179.268 424.862H197.009V424.639C197.009 422.779 196.656 421.105 195.949 419.617C195.243 418.13 194.22 416.958 192.881 416.103C191.542 415.21 189.942 414.764 188.083 414.764C186.223 414.764 184.624 415.21 183.285 416.103C181.983 416.958 180.979 418.13 180.272 419.617C179.602 421.105 179.268 422.779 179.268 424.639V424.862Z" fill="#62500F"/>
<path d="M205.595 447.234C205.223 447.234 204.926 447.123 204.703 446.899C204.48 446.676 204.368 446.379 204.368 446.007V439.089C204.368 438.717 204.48 438.419 204.703 438.196C204.926 437.973 205.223 437.861 205.595 437.861H205.763C206.804 437.824 207.715 437.229 208.497 436.076C209.278 434.923 209.873 433.063 210.282 430.497C210.728 427.893 210.951 424.453 210.951 420.175V413.313C210.951 412.941 211.063 412.644 211.286 412.42C211.509 412.197 211.807 412.086 212.179 412.086H228.247C228.619 412.086 228.916 412.197 229.139 412.42C229.362 412.644 229.474 412.941 229.474 413.313V437.75H232.208C232.58 437.75 232.877 437.861 233.101 438.084C233.324 438.308 233.435 438.605 233.435 438.977V446.007C233.435 446.379 233.324 446.676 233.101 446.899C232.877 447.123 232.58 447.234 232.208 447.234H231.259C230.887 447.234 230.59 447.123 230.367 446.899C230.144 446.676 230.032 446.379 230.032 446.007V441.097H207.771V446.007C207.771 446.379 207.66 446.676 207.437 446.899C207.213 447.123 206.916 447.234 206.544 447.234H205.595ZM210.672 437.861L226.071 437.75V415.322H214.355V420.566C214.355 425.029 214.038 428.656 213.406 431.445C212.774 434.235 211.863 436.373 210.672 437.861Z" fill="#62500F"/>
<path d="M241.032 441.097C240.735 441.097 240.475 440.985 240.251 440.762C240.028 440.539 239.917 440.279 239.917 439.981V413.313C239.917 412.941 240.028 412.644 240.251 412.42C240.475 412.197 240.772 412.086 241.144 412.086H242.092C242.464 412.086 242.762 412.197 242.985 412.42C243.208 412.644 243.32 412.941 243.32 413.313V438.363L242.316 436.745L260.504 412.923C260.69 412.699 260.876 412.513 261.062 412.365C261.285 412.179 261.582 412.086 261.954 412.086H263.014C263.312 412.086 263.572 412.197 263.795 412.42C264.018 412.606 264.13 412.848 264.13 413.146V439.87C264.13 440.242 264.018 440.539 263.795 440.762C263.572 440.985 263.275 441.097 262.903 441.097H261.954C261.582 441.097 261.285 440.985 261.062 440.762C260.838 440.539 260.727 440.242 260.727 439.87V416.493L261.898 416.214L243.543 440.26C243.394 440.446 243.208 440.632 242.985 440.818C242.762 441.004 242.464 441.097 242.092 441.097H241.032Z" fill="#62500F"/>
<path d="M291.34 441.097C290.968 441.097 290.67 440.985 290.447 440.762C290.224 440.539 290.112 440.242 290.112 439.87V428.488C289.071 429.53 287.806 430.292 286.318 430.776C284.831 431.222 283.12 431.445 281.186 431.445C278.024 431.445 275.551 430.794 273.765 429.493C272.017 428.191 271.143 426.071 271.143 423.132V413.313C271.143 412.941 271.255 412.644 271.478 412.42C271.701 412.197 271.999 412.086 272.371 412.086H273.319C273.691 412.086 273.989 412.197 274.212 412.42C274.435 412.644 274.546 412.941 274.546 413.313V422.853C274.546 424.676 275.104 426.033 276.22 426.926C277.373 427.782 279.103 428.209 281.409 428.209C284.05 428.209 286.151 427.893 287.713 427.261C289.312 426.629 290.112 425.457 290.112 423.746V413.313C290.112 412.941 290.224 412.644 290.447 412.42C290.67 412.197 290.968 412.086 291.34 412.086H292.288C292.66 412.086 292.958 412.197 293.181 412.42C293.404 412.644 293.515 412.941 293.515 413.313V439.87C293.515 440.242 293.404 440.539 293.181 440.762C292.958 440.985 292.66 441.097 292.288 441.097H291.34Z" fill="#62500F"/>
<path d="M303.8 441.097C303.428 441.097 303.131 440.985 302.908 440.762C302.684 440.539 302.573 440.242 302.573 439.87V413.313C302.573 412.941 302.684 412.644 302.908 412.42C303.131 412.197 303.428 412.086 303.8 412.086H304.749C305.121 412.086 305.418 412.197 305.641 412.42C305.864 412.644 305.976 412.941 305.976 413.313V424.639H323.383V413.313C323.383 412.941 323.495 412.644 323.718 412.42C323.941 412.197 324.238 412.086 324.61 412.086H325.559C325.931 412.086 326.228 412.197 326.451 412.42C326.675 412.644 326.786 412.941 326.786 413.313V439.87C326.786 440.242 326.675 440.539 326.451 440.762C326.228 440.985 325.931 441.097 325.559 441.097H324.61C324.238 441.097 323.941 440.985 323.718 440.762C323.495 440.539 323.383 440.242 323.383 439.87V427.875H305.976V439.87C305.976 440.242 305.864 440.539 305.641 440.762C305.418 440.985 305.121 441.097 304.749 441.097H303.8Z" fill="#62500F"/>
<path d="M336.924 441.097C336.626 441.097 336.366 440.985 336.143 440.762C335.919 440.539 335.808 440.279 335.808 439.981V413.313C335.808 412.941 335.919 412.644 336.143 412.42C336.366 412.197 336.663 412.086 337.035 412.086H337.984C338.356 412.086 338.653 412.197 338.876 412.42C339.099 412.644 339.211 412.941 339.211 413.313V438.363L338.207 436.745L356.395 412.923C356.581 412.699 356.767 412.513 356.953 412.365C357.176 412.179 357.473 412.086 357.845 412.086H358.905C359.203 412.086 359.463 412.197 359.686 412.42C359.91 412.606 360.021 412.848 360.021 413.146V439.87C360.021 440.242 359.91 440.539 359.686 440.762C359.463 440.985 359.166 441.097 358.794 441.097H357.845C357.473 441.097 357.176 440.985 356.953 440.762C356.73 440.539 356.618 440.242 356.618 439.87V416.493L357.79 416.214L339.434 440.26C339.285 440.446 339.099 440.632 338.876 440.818C338.653 441.004 338.356 441.097 337.984 441.097H336.924Z" fill="#62500F"/>
<path d="M370.159 441.097C369.861 441.097 369.601 440.985 369.378 440.762C369.154 440.539 369.043 440.279 369.043 439.981V413.313C369.043 412.941 369.154 412.644 369.378 412.42C369.601 412.197 369.898 412.086 370.27 412.086H371.219C371.591 412.086 371.888 412.197 372.111 412.42C372.334 412.644 372.446 412.941 372.446 413.313V438.363L371.442 436.745L389.63 412.923C389.816 412.699 390.002 412.513 390.188 412.365C390.411 412.179 390.708 412.086 391.08 412.086H392.14C392.438 412.086 392.698 412.197 392.921 412.42C393.145 412.606 393.256 412.848 393.256 413.146V439.87C393.256 440.242 393.145 440.539 392.921 440.762C392.698 440.985 392.401 441.097 392.029 441.097H391.08C390.708 441.097 390.411 440.985 390.188 440.762C389.965 440.539 389.853 440.242 389.853 439.87V416.493L391.025 416.214L372.669 440.26C372.52 440.446 372.334 440.632 372.111 440.818C371.888 441.004 371.591 441.097 371.219 441.097H370.159ZM381.15 408.18C379.067 408.18 377.449 407.864 376.296 407.232C375.18 406.6 374.399 405.781 373.952 404.777C373.543 403.773 373.339 402.75 373.339 401.708C373.339 401.411 373.432 401.169 373.618 400.983C373.804 400.76 374.064 400.648 374.399 400.648H375.236C375.57 400.648 375.831 400.76 376.017 400.983C376.203 401.169 376.296 401.411 376.296 401.708C376.296 402.601 376.612 403.438 377.244 404.219C377.914 405 379.215 405.391 381.15 405.391C383.121 405.391 384.423 405 385.055 404.219C385.687 403.438 386.003 402.601 386.003 401.708C386.003 401.411 386.096 401.169 386.282 400.983C386.468 400.76 386.729 400.648 387.063 400.648H387.9C388.235 400.648 388.495 400.76 388.681 400.983C388.867 401.169 388.96 401.411 388.96 401.708C388.96 402.75 388.737 403.773 388.291 404.777C387.882 405.781 387.101 406.6 385.948 407.232C384.832 407.864 383.232 408.18 381.15 408.18Z" fill="#62500F"/>
<path d="M441.544 448.35C441.172 448.35 440.875 448.238 440.652 448.015C440.429 447.792 440.317 447.494 440.317 447.123V441.097H417.889C417.517 441.097 417.219 440.985 416.996 440.762C416.773 440.539 416.661 440.242 416.661 439.87V413.313C416.661 412.941 416.773 412.644 416.996 412.42C417.219 412.197 417.517 412.086 417.889 412.086H418.837C419.209 412.086 419.507 412.197 419.73 412.42C419.953 412.644 420.065 412.941 420.065 413.313V437.861H436.356V413.313C436.356 412.941 436.467 412.644 436.691 412.42C436.914 412.197 437.211 412.086 437.583 412.086H438.532C438.904 412.086 439.201 412.197 439.424 412.42C439.647 412.644 439.759 412.941 439.759 413.313L439.703 437.861H442.493C442.865 437.861 443.162 437.973 443.385 438.196C443.609 438.419 443.72 438.717 443.72 439.089V447.123C443.72 447.494 443.609 447.792 443.385 448.015C443.162 448.238 442.865 448.35 442.493 448.35H441.544Z" fill="#62500F"/>
<path d="M460.937 441.655C457.329 441.655 454.465 440.483 452.345 438.14C450.225 435.76 449.016 432.654 448.718 428.823C448.681 428.265 448.663 427.521 448.663 426.591C448.663 425.662 448.681 424.918 448.718 424.36C448.904 421.831 449.499 419.599 450.504 417.665C451.508 415.731 452.884 414.224 454.632 413.146C456.418 412.067 458.519 411.528 460.937 411.528C463.54 411.528 465.753 412.104 467.576 413.257C469.398 414.41 470.793 416.065 471.76 418.223C472.764 420.38 473.267 422.946 473.267 425.922V426.759C473.267 427.131 473.136 427.428 472.876 427.651C472.653 427.875 472.355 427.986 471.983 427.986H452.122C452.122 427.986 452.122 428.061 452.122 428.209C452.122 428.358 452.122 428.47 452.122 428.544C452.196 430.218 452.587 431.817 453.293 433.342C454 434.83 455.004 436.057 456.306 437.024C457.608 437.954 459.151 438.419 460.937 438.419C462.536 438.419 463.856 438.177 464.898 437.694C465.976 437.21 466.832 436.69 467.464 436.132C468.097 435.537 468.506 435.09 468.692 434.793C469.026 434.309 469.287 434.03 469.473 433.956C469.659 433.844 469.956 433.788 470.365 433.788H471.258C471.593 433.788 471.872 433.9 472.095 434.123C472.355 434.309 472.467 434.57 472.43 434.904C472.392 435.425 472.095 436.076 471.537 436.857C471.016 437.601 470.254 438.345 469.25 439.089C468.282 439.832 467.092 440.446 465.679 440.93C464.266 441.413 462.685 441.655 460.937 441.655ZM452.122 424.862H469.863V424.639C469.863 422.779 469.51 421.105 468.803 419.617C468.096 418.13 467.074 416.958 465.735 416.103C464.396 415.21 462.796 414.764 460.937 414.764C459.077 414.764 457.478 415.21 456.139 416.103C454.837 416.958 453.833 418.13 453.126 419.617C452.456 421.105 452.122 422.779 452.122 424.639V424.862Z" fill="#62500F"/>
<path d="M481.853 441.097C481.481 441.097 481.183 440.985 480.96 440.762C480.737 440.539 480.625 440.242 480.625 439.87V413.313C480.625 412.941 480.737 412.644 480.96 412.42C481.183 412.197 481.481 412.086 481.853 412.086H482.801C483.173 412.086 483.471 412.197 483.694 412.42C483.917 412.644 484.029 412.941 484.029 413.313V424.639H501.435V413.313C501.435 412.941 501.547 412.644 501.77 412.42C501.993 412.197 502.291 412.086 502.663 412.086H503.611C503.983 412.086 504.281 412.197 504.504 412.42C504.727 412.644 504.839 412.941 504.839 413.313V439.87C504.839 440.242 504.727 440.539 504.504 440.762C504.281 440.985 503.983 441.097 503.611 441.097H502.663C502.291 441.097 501.993 440.985 501.77 440.762C501.547 440.539 501.435 440.242 501.435 439.87V427.875H484.029V439.87C484.029 440.242 483.917 440.539 483.694 440.762C483.471 440.985 483.173 441.097 482.801 441.097H481.853Z" fill="#62500F"/>
<path d="M522.731 441.097C522.359 441.097 522.062 440.985 521.838 440.762C521.615 440.539 521.504 440.242 521.504 439.87V415.322H511.294C510.922 415.322 510.624 415.21 510.401 414.987C510.178 414.764 510.066 414.466 510.066 414.094V413.313C510.066 412.941 510.178 412.644 510.401 412.42C510.624 412.197 510.922 412.086 511.294 412.086H535.117C535.489 412.086 535.786 412.197 536.009 412.42C536.233 412.644 536.344 412.941 536.344 413.313V414.094C536.344 414.466 536.233 414.764 536.009 414.987C535.786 415.21 535.489 415.322 535.117 415.322H524.907V439.87C524.907 440.242 524.795 440.539 524.572 440.762C524.349 440.985 524.051 441.097 523.68 441.097H522.731Z" fill="#62500F"/>
<path d="M542.876 451.697C542.504 451.697 542.206 451.586 541.983 451.363C541.76 451.139 541.648 450.842 541.648 450.47V413.313C541.648 412.941 541.76 412.644 541.983 412.42C542.206 412.197 542.504 412.086 542.876 412.086H543.824C544.196 412.086 544.494 412.197 544.717 412.42C544.94 412.644 545.052 412.941 545.052 413.313V415.935C545.981 414.671 547.19 413.629 548.678 412.811C550.203 411.955 552.118 411.528 554.424 411.528C556.619 411.528 558.46 411.918 559.948 412.699C561.436 413.443 562.644 414.447 563.574 415.712C564.504 416.977 565.192 418.39 565.638 419.952C566.085 421.514 566.327 423.114 566.364 424.75C566.401 425.308 566.42 425.922 566.42 426.591C566.42 427.261 566.401 427.875 566.364 428.432C566.327 430.069 566.085 431.668 565.638 433.231C565.192 434.793 564.504 436.206 563.574 437.471C562.644 438.735 561.436 439.758 559.948 440.539C558.46 441.283 556.619 441.655 554.424 441.655C552.118 441.655 550.203 441.227 548.678 440.372C547.19 439.516 545.981 438.475 545.052 437.247V450.47C545.052 450.842 544.94 451.139 544.717 451.363C544.494 451.586 544.196 451.697 543.824 451.697H542.876ZM554.09 438.419C556.284 438.419 558.014 437.936 559.278 436.969C560.543 436.001 561.454 434.737 562.012 433.175C562.57 431.613 562.886 429.939 562.961 428.154C562.998 427.112 562.998 426.071 562.961 425.029C562.886 423.244 562.57 421.57 562.012 420.008C561.454 418.446 560.543 417.181 559.278 416.214C558.014 415.247 556.284 414.764 554.09 414.764C551.97 414.764 550.259 415.266 548.957 416.27C547.655 417.274 546.688 418.539 546.056 420.064C545.461 421.552 545.126 423.058 545.052 424.583C545.014 425.141 544.996 425.866 544.996 426.759C544.996 427.651 545.014 428.377 545.052 428.935C545.089 430.422 545.423 431.892 546.056 433.342C546.725 434.793 547.711 436.001 549.013 436.969C550.352 437.936 552.044 438.419 554.09 438.419Z" fill="#62500F"/>
<path d="M201.637 16.9218C199.226 19.3322 197.16 20.1938 195.438 19.5047C193.715 18.8156 191.477 19.1607 188.722 20.5379C185.966 21.9151 183.384 21.7436 180.973 20.0213C178.563 18.299 176.324 17.6109 174.258 17.955C172.191 18.299 169.781 19.6773 167.025 22.0876C164.27 24.498 162.032 27.426 160.31 30.8696C158.587 34.3132 157.727 36.8961 157.727 38.6184C157.727 39.479 157.727 40.3407 157.727 41.2013C158.243 40.8573 158.76 40.5122 159.277 40.1681C160.31 39.479 161.859 36.8961 163.926 32.4193C165.992 27.9426 167.886 25.0146 169.608 23.6374C171.331 22.2602 173.052 21.5711 174.774 21.5711C176.496 21.5711 178.046 22.4317 179.423 24.154C180.801 25.8763 182.006 26.7369 183.039 26.7369C184.073 26.7369 185.278 26.0478 186.656 24.6706C188.033 23.2934 190.444 22.6042 193.888 22.6042C197.331 22.6042 200.087 21.5711 202.153 19.5047C204.219 17.4384 206.458 16.7492 208.869 17.4384C211.279 18.1275 212.657 20.7104 213.001 25.1872C213.345 29.6639 212.312 34.8297 209.902 40.6847C207.492 46.5397 207.836 56.6989 210.935 71.1633C214.035 85.6277 217.307 95.9594 220.75 102.158C224.194 108.357 230.393 116.623 239.347 126.954C248.302 137.286 255.361 147.962 260.527 158.983C263.11 164.493 265.693 170.004 268.276 175.514C266.899 170.692 265.521 165.871 264.143 161.049C261.388 151.407 258.633 144.518 255.878 140.386C253.123 136.253 247.613 129.71 239.347 120.755C231.082 111.801 225.227 104.052 221.783 97.5091C218.34 90.966 215.584 80.8058 213.518 67.0306C211.452 53.2553 211.452 44.4734 213.518 40.6847C215.584 36.8961 216.79 32.5919 217.134 27.7701C217.478 22.9483 217.134 19.5047 216.101 17.4384C215.068 15.372 213.001 14.1663 209.902 13.8223C206.802 13.4782 204.047 14.5114 201.637 16.9218Z" fill="#EA8529" stroke="#EA8529" stroke-width="0.811583"/>
<path d="M359.196 28.7967C359.196 31.5522 360.229 35.3398 362.295 40.1616C364.361 44.9834 368.322 51.354 374.177 59.2753C380.031 67.1966 385.541 73.7397 390.707 78.9055C395.873 84.0714 400.522 90.4429 404.655 98.0192C406.721 101.808 408.788 105.595 410.854 109.384C411.027 108.178 411.198 106.974 411.371 105.768C411.715 103.358 411.198 99.913 409.821 95.4363C408.444 90.9595 403.966 84.4154 396.39 75.806C392.601 71.5008 388.813 67.1966 385.025 62.8914C386.402 62.5473 387.78 62.2023 389.157 61.8582C391.913 61.1691 393.634 60.3085 394.323 59.2753C394.667 58.7587 395.012 58.2421 395.357 57.7255C393.118 57.8981 390.88 58.0696 388.641 58.2421C384.164 58.5862 379.859 56.3483 375.726 51.5265C371.594 46.7047 367.805 41.0223 364.361 34.4792C362.639 31.2071 360.918 27.9361 359.196 24.6641C359.196 26.0413 359.196 27.4195 359.196 28.7967Z" fill="#EA8529" stroke="#EA8529" stroke-width="0.811583"/>
<path d="M149.572 52.5976C147.408 52.8248 145.318 53.359 143.299 54.2C141.152 55.0947 139.087 56.3376 137.105 57.9287C133.258 61.0138 130.874 63.482 129.953 65.3314C129.492 66.2561 129.031 67.1808 128.571 68.1054C128.878 68.2594 129.186 68.4123 129.495 68.5662C130.111 68.8731 132.881 66.7902 137.803 62.3166C142.726 57.844 147.42 55.3727 151.885 54.9046C154.119 54.6711 156.351 54.4366 158.584 54.2021C158.199 53.8177 157.813 53.4334 157.427 53.049C156.656 52.2804 154.038 52.1295 149.572 52.5976Z" fill="#EA8529" stroke="#EA8529" stroke-width="0.811583"/>
<path d="M170.069 53.5131C169.291 53.8819 167.279 53.7001 166.501 54.0689C168.249 55.1848 172.837 57.7739 174.584 58.8908C178.079 61.1224 180.555 64.1796 182.012 68.0622C183.468 71.9449 183.867 74.8812 183.208 76.869C182.879 77.8639 182.31 79.0231 183.453 79.2215C184.596 79.4199 184.64 79.3682 185.33 79.5366C186.71 79.8745 188.443 79.7154 191.091 82.4698C191.766 83.1713 191.704 86.3586 187.474 89.6483C181.663 94.1653 175.582 92.2488 168.393 97.0241C161.204 101.798 163.387 108.192 166.5 106.718C169.613 105.245 167.271 103.719 170.882 100.562C174.494 97.4043 189.271 92.6909 191.94 89.517C195.779 84.9525 194.573 83.0969 194.606 81.5565C194.639 80.017 192.213 77.8185 187.468 76.6613C185.102 76.0848 184.477 75.2025 185.136 73.2136C185.795 71.2248 185.764 69.0675 185.044 66.7418C184.324 64.4151 182.305 61.5987 178.988 58.2925C175.67 54.9854 171.626 52.7765 170.069 53.5131Z" fill="#EA8529" stroke="#EA8529" stroke-width="0.811583"/>
<path d="M484.211 65.4831C484.211 72.0262 484.555 75.9873 485.244 77.3646C485.933 78.7418 486.794 79.4309 487.827 79.4309C488.344 79.4309 488.86 79.4309 489.377 79.4309C488.86 75.4708 488.344 71.5096 487.827 67.5494C486.794 59.6281 485.933 55.668 485.244 55.668C484.9 55.668 484.555 55.668 484.211 55.668C484.211 58.94 484.211 62.211 484.211 65.4831Z" fill="#EA8529" stroke="#EA8529" stroke-width="0.811583"/>
<path d="M268.791 73.2321C254.671 80.8083 245.372 86.8358 240.895 91.3126C236.419 95.7893 233.836 99.7505 233.147 103.194C232.803 104.916 232.458 106.638 232.113 108.36C232.458 108.36 232.803 108.36 233.147 108.36C233.836 108.36 234.524 107.154 235.213 104.744C235.902 102.333 238.485 98.8888 242.962 94.4121C247.439 89.9353 252.26 85.9742 257.426 82.5306C262.592 79.087 268.964 75.815 276.54 72.7155C284.116 69.616 288.594 67.5496 289.971 66.5165C291.348 65.4833 292.037 64.4501 292.037 63.4169C292.037 62.9004 292.037 62.3838 292.037 61.8672C291.693 61.8672 291.348 61.8672 291.004 61.8672C290.315 61.8672 282.911 65.6558 268.791 73.2321Z" fill="#EA8529" stroke="#EA8529" stroke-width="0.811583"/>
<path d="M268.791 73.2321C254.671 80.8083 245.372 86.8358 240.895 91.3126C236.419 95.7893 233.836 99.7505 233.147 103.194C232.803 104.916 232.458 106.638 232.113 108.36C232.458 108.36 232.803 108.36 233.147 108.36C233.836 108.36 234.524 107.154 235.213 104.744C235.902 102.333 238.485 98.8888 242.962 94.4121C247.439 89.9353 252.26 85.9742 257.426 82.5306C262.592 79.087 268.964 75.815 276.54 72.7155C284.116 69.616 288.594 67.5496 289.971 66.5165C291.348 65.4833 292.037 64.4501 292.037 63.4169C292.037 62.9004 292.037 62.3838 292.037 61.8672C291.693 61.8672 291.348 61.8672 291.004 61.8672C290.315 61.8672 282.911 65.6558 268.791 73.2321Z" fill="#EA8529" stroke="#EA8529" stroke-width="0.811583"/>
<path d="M108.65 72.1959C106.928 73.5731 105.895 75.6394 105.551 78.3949C105.207 81.1504 108.134 90.4489 114.333 106.291C120.532 122.132 124.32 135.563 125.698 146.584C127.075 157.605 130.691 167.42 136.546 176.03C142.401 184.639 147.222 193.938 151.01 203.925C154.799 213.913 159.448 223.728 164.958 233.371C170.468 243.013 174.429 249.041 176.84 251.451C179.25 253.861 185.277 258.167 194.92 264.366C199.742 267.465 204.563 270.565 209.384 273.664C209.557 273.148 209.729 272.631 209.901 272.114C210.245 271.081 205.941 267.638 196.986 261.783C188.032 255.928 182.349 251.795 179.939 249.385C177.529 246.974 173.223 240.259 167.024 229.238C160.825 218.217 155.832 207.885 152.043 198.243C148.255 188.6 143.951 180.506 139.129 173.963C134.307 167.42 130.863 157.605 128.797 144.518C126.731 131.431 122.771 118.172 116.916 104.741C111.061 91.3095 108.134 83.0442 108.134 79.9447C108.134 76.8451 108.823 74.9513 110.2 74.2622C110.889 73.9182 111.577 73.5731 112.266 73.229C113.3 75.6394 114.333 78.0509 115.366 80.4612C117.432 85.2831 118.465 89.2432 118.465 92.3427C118.465 95.4422 118.121 97.336 117.432 98.0252C117.088 98.3692 116.743 98.7143 116.399 99.0583C116.743 99.4024 117.088 99.7474 117.432 100.091C117.776 100.436 118.121 100.781 118.465 101.125C118.982 100.608 119.499 100.091 120.015 99.5749C121.048 98.5417 121.565 96.3029 121.565 92.8593C121.565 89.4157 120.359 85.2831 117.949 80.4612C116.743 78.0509 115.538 75.6394 114.333 73.229C115.366 73.9182 116.399 74.6063 117.432 75.2954C119.499 76.6726 120.876 77.0177 121.565 76.3286C121.909 75.9845 122.254 75.6394 122.598 75.2954C121.737 74.6063 120.876 73.9182 120.015 73.229C118.293 71.8518 116.399 70.9902 114.333 70.6461C112.266 70.3021 110.373 70.8187 108.65 72.1959Z" fill="#EA8529" stroke="#EA8529" stroke-width="0.811583"/>
<path d="M128.216 76.3564C127.484 76.4215 126.816 76.5826 126.214 76.8409C123.804 77.8741 122.598 79.7679 122.598 82.5234C122.598 85.2788 124.32 92.3385 127.764 103.703C131.207 115.068 133.79 126.433 135.513 137.798C137.235 149.163 140.334 159.495 144.811 168.793C149.288 178.092 153.593 185.496 157.726 191.006C161.858 196.516 164.614 200.994 165.991 204.438C167.368 207.881 168.574 209.776 169.607 210.12C170.124 210.292 170.64 210.464 171.157 210.637C170.813 209.259 170.468 207.881 170.124 206.504C169.435 203.748 167.024 199.616 162.892 194.106C158.759 188.596 154.11 180.675 148.944 170.343C143.778 160.011 140.334 149.507 138.612 138.831C136.89 128.155 134.996 119.89 132.93 114.035C130.863 108.18 130.347 104.392 131.38 102.67C132.413 100.948 132.413 96.8152 131.38 90.2721C130.347 83.7291 129.83 79.9404 129.83 78.9073C129.83 78.3907 129.83 77.8741 129.83 77.3575C130.174 77.3575 130.519 77.3575 130.863 77.3575C131.552 77.3575 134.479 79.2513 139.645 83.0399C144.811 86.8286 148.944 91.3053 152.043 96.4712C155.143 101.637 157.898 107.147 160.309 113.002C162.719 118.857 165.13 126.433 167.541 135.732C169.951 145.03 174.084 153.812 179.939 162.078C185.794 170.343 190.443 178.608 193.887 186.874C197.33 195.139 201.463 201.338 206.285 205.471C211.107 209.603 215.411 212.703 219.199 214.769C222.988 216.836 226.259 219.246 229.014 222.001C231.77 224.757 234.008 228.028 235.73 231.817C237.452 235.605 239.002 237.843 240.379 238.532C241.068 238.876 241.757 239.221 242.446 239.565C241.412 236.982 240.379 234.399 239.346 231.817C237.28 226.651 234.524 222.518 231.081 219.418C227.637 216.319 222.299 212.53 215.067 208.054C207.834 203.577 202.325 197.033 198.536 188.423C194.747 179.814 189.754 171.032 183.555 162.078C177.356 153.123 173.223 144.514 171.157 136.248C169.091 127.983 165.647 118.684 160.825 108.353C156.003 98.0209 151.871 90.9613 148.427 87.1726C144.984 83.384 141.022 80.457 136.546 78.3907C133.188 76.8409 130.412 76.1632 128.216 76.3564ZM125.697 78.3907C126.041 78.5632 126.387 78.7347 126.731 78.9073C127.42 79.2513 128.108 82.5234 128.797 88.7224C129.141 91.8219 129.486 94.9214 129.83 98.0209C129.486 98.0209 129.141 98.0209 128.797 98.0209C128.108 98.0209 127.247 95.9546 126.214 91.8219C125.181 87.6892 124.837 84.4172 125.181 82.0068C125.353 80.8011 125.525 79.5964 125.697 78.3907Z" fill="#EA8529" stroke="#EA8529" stroke-width="0.811583"/>
<path d="M437.719 104.222C437.719 108.355 438.752 111.971 440.818 115.071C442.885 118.17 443.918 121.959 443.918 126.436C443.918 130.912 445.468 134.874 448.567 138.317C450.117 140.039 451.667 141.761 453.217 143.483C452.872 142.277 452.527 141.073 452.183 139.867C451.494 137.456 450.29 135.218 448.567 133.151C446.845 131.085 445.984 128.158 445.984 124.369C445.984 120.581 444.951 117.137 442.885 114.038C440.818 110.938 439.441 107.495 438.752 103.706C438.408 101.812 438.063 99.9172 437.719 98.0234C437.719 100.09 437.719 102.156 437.719 104.222Z" fill="#EA8529" stroke="#EA8529" stroke-width="0.811583"/>
<path d="M172.004 107.166C171.499 109.169 171.577 111.675 172.239 114.684C172.901 117.692 174.104 121.37 175.849 125.716C177.595 130.064 179.468 133.2 181.469 135.125C182.469 136.087 183.469 137.05 184.47 138.013C182.975 133.374 181.481 128.735 179.987 124.096C176.999 114.818 175.549 109.303 175.637 107.549C175.723 105.796 175.266 104.792 174.265 104.539C173.764 104.413 173.262 104.286 172.761 104.16C172.509 105.162 172.256 106.165 172.004 107.166Z" fill="#EA8529" stroke="#EA8529" stroke-width="0.811583"/>
<path d="M460.964 107.322C461.997 110.766 462.341 114.382 461.997 118.17C461.653 121.959 462.341 124.886 464.064 126.952C465.786 129.019 468.024 130.741 470.779 132.118C472.156 132.807 473.535 133.495 474.912 134.185C474.912 133.495 474.912 132.807 474.912 132.118C474.912 130.741 473.19 128.846 469.746 126.436C466.302 124.025 464.753 120.753 465.097 116.621C465.441 112.488 465.269 109.388 464.58 107.322C463.891 105.256 462.858 103.879 461.481 103.189C460.791 102.845 460.103 102.5 459.414 102.156C459.931 103.879 460.447 105.6 460.964 107.322Z" fill="#EA8529" stroke="#EA8529" stroke-width="0.811583"/>
<path d="M503.323 132.632C502.979 136.42 504.184 140.208 506.939 143.997C509.695 147.785 511.589 149.852 512.622 150.196C513.138 150.368 513.655 150.54 514.171 150.712C513.827 149.335 513.482 147.957 513.138 146.579C512.449 143.824 511.072 141.586 509.006 139.864C506.939 138.142 505.906 135.559 505.906 132.115C505.906 130.393 505.906 128.672 505.906 126.949C505.562 126.949 505.217 126.949 504.873 126.949C504.184 126.949 503.667 128.843 503.323 132.632Z" fill="#EA8529" stroke="#EA8529" stroke-width="0.811583"/>
<path d="M378.826 143.486C376.759 148.308 374.349 152.441 371.594 155.884C368.838 159.328 366.428 161.223 364.361 161.567C362.295 161.911 360.918 161.223 360.229 159.5C359.885 158.64 359.54 157.778 359.196 156.917C359.368 158.123 359.54 159.328 359.712 160.533C360.056 162.944 361.434 164.15 363.845 164.15C366.255 164.15 368.494 163.289 370.56 161.567C372.627 159.844 375.21 156.057 378.309 150.202C381.409 144.347 382.786 140.559 382.442 138.837C382.269 137.976 382.098 137.115 381.925 136.254C380.892 138.664 379.859 141.076 378.826 143.486Z" fill="#EA8529" stroke="#EA8529" stroke-width="0.811583"/>
<path d="M188.206 140.899C183.729 143.309 181.318 146.237 180.974 149.681C180.801 151.403 180.63 153.124 180.457 154.846C180.974 153.469 181.49 152.091 182.007 150.714C183.04 147.958 184.762 145.72 187.173 143.998C189.583 142.276 192.511 141.243 195.955 140.899C199.398 140.555 202.326 140.899 204.737 141.932C207.147 142.965 214.552 150.37 226.95 164.145C239.348 177.92 248.13 186.531 253.296 189.974C258.462 193.418 264.661 196.346 271.893 198.756C279.125 201.167 286.53 205.644 294.106 212.187C301.682 218.73 308.57 225.963 314.769 233.884C320.968 241.805 325.618 250.071 328.717 258.68C331.817 267.289 334.056 271.939 335.433 272.628C336.122 272.972 336.81 273.317 337.499 273.661C336.81 270.734 336.122 267.806 335.433 264.879C334.056 259.024 332.333 254.031 330.267 249.898C328.201 245.765 322.691 238.361 313.736 227.685C304.782 217.009 297.722 209.604 292.556 205.472C287.39 201.339 279.986 197.379 270.343 193.59C260.701 189.802 251.746 184.119 243.481 176.543C235.215 168.967 228.327 161.735 222.817 154.846C217.307 147.958 213.346 143.654 210.936 141.932C208.525 140.209 205.253 139.005 201.121 138.316C196.988 137.627 192.683 138.488 188.206 140.899Z" fill="#EA8529" stroke="#EA8529" stroke-width="0.811583"/>
<path d="M389.674 148.132C385.198 154.675 381.926 158.807 379.859 160.53C377.793 162.252 375.554 163.285 373.144 163.629C371.938 163.802 370.733 163.973 369.528 164.146C369.7 164.49 369.872 164.835 370.044 165.179C370.388 165.868 371.766 166.039 374.177 165.695C376.587 165.351 378.999 164.146 381.409 162.079C383.819 160.013 387.091 156.224 391.224 150.714C395.357 145.205 397.596 141.76 397.94 140.383C398.112 139.694 398.284 139.006 398.456 138.316C398.112 138.316 397.767 138.316 397.423 138.316C396.734 138.316 394.151 141.588 389.674 148.132Z" fill="#EA8529" stroke="#EA8529" stroke-width="0.811583"/>
<path d="M305.628 129.131C305.516 123.651 305.109 120.033 304.407 118.278C303.705 116.522 302.527 115.117 300.873 114.061C300.047 113.533 297.639 112.121 296.813 111.593C297.115 111.449 298.12 111.44 298.423 111.296C299.029 111.007 301.038 112.139 302.691 113.195C304.346 114.249 305.567 115.819 306.357 117.901C307.148 119.983 307.727 123.395 308.096 128.137C308.465 132.881 308.434 135.723 308.004 136.665C307.79 137.137 307.575 137.608 307.36 138.08C307.099 137.958 306.839 137.837 306.577 137.715C306.055 137.472 305.739 134.611 305.628 129.131Z" fill="#EA8529" stroke="#EA8529" stroke-width="0.811583"/>
<path d="M316.89 151.894C315.512 160.16 315.167 165.153 315.856 166.875C316.546 168.597 318.439 170.664 321.539 173.074C324.638 175.485 327.049 178.067 328.771 180.823C330.493 183.578 332.731 187.883 335.487 193.738C338.242 199.593 340.308 205.446 341.686 211.301C342.375 214.228 343.063 217.156 343.752 220.083C344.613 219.739 345.474 219.394 346.335 219.05C348.057 218.361 349.607 216.64 350.984 213.884C352.361 211.129 355.289 208.891 359.766 207.169C364.243 205.446 371.475 203.553 381.463 201.486C391.45 199.42 401.61 197.87 411.941 196.837C422.273 195.804 427.439 194.943 427.439 194.254C427.439 193.91 427.439 193.565 427.439 193.221C426.233 193.221 425.029 193.221 423.823 193.221C421.412 193.221 412.114 194.598 395.927 197.354C379.74 200.109 368.892 202.347 363.382 204.069C357.872 205.792 353.567 207.858 350.468 210.268C348.918 211.474 347.368 212.679 345.818 213.884C344.269 209.408 342.719 204.93 341.169 200.453C338.07 191.499 335.314 185.128 332.904 181.34C330.493 177.551 327.565 174.107 324.122 171.008C320.678 167.908 318.956 161.882 318.956 152.927C318.956 148.451 318.956 143.973 318.956 139.496C318.267 143.629 317.579 147.761 316.89 151.894Z" fill="#EA8529" stroke="#EA8529" stroke-width="0.811583"/>
<path d="M417.05 147.622C414.984 151.065 413.09 155.543 411.368 161.053C409.646 166.563 408.096 169.835 406.719 170.868C405.341 171.901 403.792 172.418 402.069 172.418C400.347 172.418 398.97 171.901 397.937 170.868C397.42 170.352 396.904 169.835 396.387 169.319C396.387 170.008 396.387 170.696 396.387 171.385C396.387 172.762 397.937 173.624 401.036 173.968C404.136 174.312 406.719 173.624 408.785 171.901C410.851 170.179 413.607 165.013 417.05 156.404C420.494 147.794 421.872 143.317 421.183 142.973C420.494 142.629 419.117 144.178 417.05 147.622Z" fill="#EA8529" stroke="#EA8529" stroke-width="0.811583"/>
<path d="M317.841 140.476C318.17 135.935 319.191 132.404 318.443 131.1C317.694 129.797 316.659 128.776 315.336 128.039C314.014 127.301 312.801 127.066 311.698 127.337C311.147 127.472 310.595 127.607 310.043 127.742C310.25 127.267 310.456 126.792 310.662 126.316C311.075 125.366 312.524 125.436 315.008 126.526C317.491 127.617 319.268 129.199 320.339 131.272C321.41 133.347 320.998 137.106 320.205 143.248C319.588 148.039 318.764 152.569 317.865 149.382C317.383 147.675 317.726 142.06 317.841 140.476Z" fill="#EA8529" stroke="#EA8529" stroke-width="0.811583"/>
<path d="M407.753 148.654C406.376 152.098 404.137 155.714 401.037 159.502C397.938 163.291 394.494 166.218 390.706 168.284C386.917 170.351 383.99 171.211 381.924 170.867C379.857 170.523 378.48 169.834 377.791 168.801C377.102 167.768 376.414 167.251 375.725 167.251C375.381 167.251 375.036 167.251 374.692 167.251C374.864 167.768 375.036 168.284 375.208 168.801C375.552 169.834 377.447 170.867 380.891 171.9C384.334 172.934 387.95 172.417 391.739 170.351C395.528 168.284 398.971 165.357 402.071 161.569C405.17 157.78 407.581 153.993 409.303 150.204C411.025 146.415 411.542 144.349 410.853 144.005C410.509 143.832 410.163 143.661 409.819 143.488C409.13 145.211 408.442 146.932 407.753 148.654Z" fill="#EA8529" stroke="#EA8529" stroke-width="0.811583"/>
<path d="M197.503 152.783C199.913 157.605 200.947 161.048 200.603 163.115C200.258 165.181 199.569 166.731 198.536 167.764C197.503 168.797 196.986 169.83 196.986 170.863C196.986 171.38 196.986 171.897 196.986 172.413C197.33 172.413 197.676 172.413 198.02 172.413C198.709 172.413 199.742 171.553 201.119 169.83C202.496 168.108 203.358 166.042 203.702 163.631C204.046 161.221 203.53 158.465 202.152 155.366C200.775 152.266 199.053 149.856 196.986 148.134C195.953 147.273 194.92 146.411 193.887 145.551C195.093 147.961 196.297 150.373 197.503 152.783Z" fill="#EA8529" stroke="#EA8529" stroke-width="0.811583"/>
<path d="M278.254 1.00298C271.862 0.93789 262.854 1.93903 251.231 4.00537C235.733 6.76084 226.435 8.82718 223.335 10.2044C220.235 11.5816 218.513 12.9599 218.169 14.3371C217.997 15.0262 217.825 15.7143 217.653 16.4034C220.063 15.3703 222.474 14.3371 224.885 13.3039C229.707 11.2376 238.316 9.34377 250.714 7.62147C263.112 5.89917 271.55 5.03854 276.027 5.03854C280.503 5.03854 285.842 6.24425 292.041 8.65464C298.24 11.065 301.512 12.6148 301.856 13.3039C302.029 13.648 302.2 13.993 302.373 14.3371C300.823 15.0262 299.273 15.7143 297.723 16.4034C294.624 17.7806 293.935 24.3247 295.657 36.0337C297.379 47.7426 301.167 57.0411 307.022 63.9293C312.877 70.8174 321.83 78.3937 333.884 86.659C345.938 94.9244 352.309 101.467 352.998 106.289C353.687 111.111 355.064 116.448 357.131 122.303C359.197 128.158 360.23 134.874 360.23 142.45C360.23 146.239 360.23 150.027 360.23 153.815C360.919 151.405 361.607 148.993 362.296 146.583C363.674 141.761 364.363 137.457 364.363 133.668C364.363 129.88 362.986 124.197 360.23 116.621C357.475 109.045 355.925 103.017 355.581 98.5405C355.237 94.0638 354.548 91.4808 353.515 90.7917C352.998 90.4477 352.481 90.1026 351.965 89.7586C351.792 90.4477 351.621 91.1358 351.448 91.8249C351.276 92.514 351.104 93.2021 350.932 93.8912C348.521 92.3415 346.11 90.7917 343.699 89.242C338.878 86.1425 333.195 82.1823 326.652 77.3605C320.109 72.5387 314.598 67.7179 310.121 62.8961C305.645 58.0743 302.717 53.9416 301.339 50.4981C299.962 47.0545 298.756 41.1995 297.723 32.9342C296.69 24.6688 300.823 18.8138 310.121 15.3703C319.42 11.9267 335.09 11.5816 357.131 14.3371C379.171 17.0925 395.185 20.1921 405.173 23.6356C415.161 27.0792 422.048 31.0404 425.836 35.5171C429.625 39.9938 432.036 44.4716 433.069 48.9483C434.102 53.425 433.413 56.6971 431.002 58.7634C428.592 60.8298 426.353 65.8231 424.287 73.7444C422.22 81.6657 420.843 93.2021 420.154 108.356C419.465 123.509 421.36 135.391 425.836 144C430.313 152.609 435.308 160.014 440.817 166.213C446.327 172.412 451.322 176.717 455.798 179.128C460.275 181.538 462.514 183.777 462.514 185.843C462.514 187.91 460.964 191.87 457.865 197.725C454.765 203.58 448.91 208.746 440.301 213.222C431.691 217.699 418.26 227.514 400.007 242.668C381.754 257.821 372.456 266.087 372.112 267.464C371.939 268.153 371.768 268.841 371.595 269.53C372.972 269.014 374.35 268.497 375.728 267.98C378.483 266.947 380.377 265.57 381.41 263.848C382.443 262.126 383.821 260.921 385.543 260.232C387.265 259.543 390.365 256.96 394.841 252.483C399.318 248.006 406.55 241.807 416.538 233.886C426.526 225.965 434.102 220.455 439.268 217.355C444.434 214.256 450.289 211.673 456.832 209.606C463.375 207.54 468.196 206.851 471.296 207.54C474.396 208.229 479.905 208.401 487.827 208.057C495.748 207.713 503.152 205.646 510.04 201.858C516.928 198.069 522.265 193.765 526.054 188.943C529.843 184.121 533.975 179.817 538.452 176.028C542.929 172.24 548.611 168.624 555.499 165.18C562.388 161.736 567.208 160.187 569.964 160.531C571.341 160.703 572.719 160.875 574.096 161.047C572.547 162.253 570.997 163.458 569.447 164.663C566.348 167.074 563.765 169.657 561.698 172.412C559.632 175.168 558.426 177.578 558.082 179.644C557.738 181.711 558.082 183.433 559.116 184.81C560.149 186.187 562.215 187.221 565.315 187.91C568.414 188.599 569.964 189.46 569.964 190.493C569.964 191.526 567.553 195.831 562.732 203.407C557.91 210.984 551.883 217.183 544.651 222.004C537.419 226.826 533.114 230.27 531.736 232.336C531.047 233.369 530.359 234.402 529.67 235.436C531.736 234.402 533.803 233.369 535.869 232.336C540.002 230.27 544.824 226.998 550.334 222.521C555.843 218.044 562.215 210.467 569.447 199.791C576.679 189.115 580.985 183.95 582.362 184.294C583.739 184.638 587.872 182.744 594.76 178.611C601.648 174.479 607.502 169.657 612.324 164.147C617.146 158.637 619.9 156.054 620.589 156.398C621.278 156.742 621.622 157.948 621.622 160.014C621.622 162.081 618.35 170.69 611.807 185.843C605.264 200.997 592.866 215.978 574.613 230.786C556.36 245.595 540.691 255.755 527.604 261.265C514.517 266.775 505.218 270.907 499.708 273.663C494.198 276.418 490.926 278.485 489.893 279.862C489.376 280.551 488.86 281.239 488.343 281.928C498.331 277.623 508.318 273.319 518.305 269.014C538.28 260.404 556.189 250.073 572.03 238.019C587.872 225.965 597.515 218.044 600.959 214.256C604.402 210.467 609.224 201.168 615.423 186.36C621.622 171.552 624.894 162.941 625.238 160.531C625.582 158.12 625.411 156.054 624.722 154.332C624.033 152.609 625.582 149.682 629.371 145.55C633.16 141.417 636.259 136.94 638.67 132.119C641.08 127.297 642.802 123.337 643.836 120.237C644.869 117.138 645.385 112.144 645.385 105.256C645.385 98.368 644.696 91.1358 643.319 83.5595C641.942 75.9833 639.703 68.2345 636.603 60.3132C633.504 52.3919 626.616 43.0933 615.94 32.4176C605.264 21.7418 596.999 14.8537 591.144 11.7542C585.289 8.65464 579.951 6.41576 575.13 5.03854C570.308 3.66133 564.625 2.79966 558.082 2.45562C551.539 2.11157 545.684 2.28308 540.518 2.9722C535.353 3.66133 529.498 5.03854 522.955 7.10489C516.411 9.17123 509.179 12.4433 501.258 16.92C493.337 21.3967 486.794 24.4962 481.628 26.2185C476.462 27.9408 467.852 32.4176 455.798 39.6498C449.772 43.2659 443.744 46.882 437.718 50.4981C437.374 48.7758 437.029 47.0545 436.685 45.3322C435.996 41.8886 434.274 38.2725 431.519 34.4839C428.763 30.6953 423.081 26.9077 414.472 23.119C405.862 19.3304 390.02 15.5428 366.946 11.7542C343.872 7.96552 328.029 6.93235 319.42 8.65464C310.81 10.3769 304.266 9.86035 299.79 7.10489C295.313 4.34942 289.975 2.45562 283.775 1.42245C282.226 1.16415 280.386 1.02468 278.254 1.00298ZM558.599 4.52196C566.175 4.866 573.752 6.5883 581.329 9.68781C588.905 12.7873 595.621 16.576 601.476 21.0527C607.331 25.5294 611.635 29.8346 614.39 33.9673C617.146 38.1 620.245 41.7161 623.689 44.8156C627.132 47.9151 630.404 53.9416 633.504 62.8961C636.603 71.8506 638.67 80.116 639.703 87.6922C640.736 95.2684 641.253 101.123 641.253 105.256C641.253 109.389 639.875 115.244 637.12 122.82C634.364 130.396 631.265 136.94 627.821 142.45C624.378 147.96 619.556 153.988 613.357 160.531C607.158 167.074 600.959 172.068 594.76 175.512C588.561 178.955 585.117 180.334 584.428 179.644C583.739 178.955 584.084 176.717 585.461 172.929C586.839 169.14 587.011 166.213 585.978 164.147C584.945 162.081 583.051 160.358 580.296 158.981C577.54 157.604 574.269 156.915 570.48 156.915C566.692 156.915 560.149 159.498 550.85 164.663C541.552 169.829 533.286 176.201 526.054 183.777C518.822 191.353 510.901 196.692 502.291 199.791C493.682 202.891 483.867 204.441 472.846 204.441C467.336 204.441 461.825 204.441 456.315 204.441C458.037 202.03 459.759 199.619 461.481 197.208C464.924 192.387 466.647 188.943 466.647 186.877C466.647 185.843 466.647 184.81 466.647 183.777C468.886 184.466 471.123 185.154 473.362 185.843C477.839 187.221 483.522 187.91 490.41 187.91C497.298 187.91 502.635 187.566 506.424 186.877C510.212 186.187 512.106 185.499 512.106 184.81C512.106 184.466 512.106 184.121 512.106 183.777C506.424 183.777 500.741 183.777 495.059 183.777C483.694 183.777 475.429 183.088 470.263 181.711C465.097 180.334 459.415 177.234 453.215 172.412C447.016 167.59 441.851 162.425 437.718 156.915C433.585 151.405 429.969 145.377 426.87 138.834C423.77 132.291 422.22 126.78 422.22 122.303C422.22 117.827 422.564 111.972 423.254 104.74C423.943 97.5073 425.492 88.5528 427.903 77.8771C430.313 67.2013 432.725 60.4857 435.135 57.7303C437.545 54.9748 440.817 52.2204 444.95 49.4649C449.083 46.7094 461.825 39.8223 483.177 28.8015C504.53 17.7806 520.544 10.8935 531.22 8.13806C541.896 5.38259 551.023 4.17791 558.599 4.52196ZM578.907 162.371C580.973 162.716 582.352 164.61 583.04 168.053C583.729 171.498 582.523 175.458 579.424 179.935C576.324 184.413 573.224 186.65 570.125 186.65C567.025 186.65 564.788 185.962 563.409 184.584C562.032 183.207 561.343 181.83 561.343 180.451C561.343 179.074 563.754 175.631 568.575 170.12C573.397 164.61 576.841 162.027 578.907 162.371Z" fill="#EA8529" stroke="#EA8529" stroke-width="0.811583"/>
<path d="M296.068 110.744C295.515 110.794 294.973 110.962 294.552 111.074C293.821 111.27 292.898 111.07 292.154 111.239C290.368 111.646 289.369 114.115 289.193 115.401C289.13 115.859 289.447 117.806 288.876 118.077C288.414 118.295 281.822 117.805 279.815 118.209C275.753 119.026 270.2 124.329 269.062 127.26C268.643 128.339 268.24 128.843 267.581 129.771C267.04 130.532 263.786 131.901 263.386 133.899H263.35C262.812 135.184 263.254 134.769 262.01 137.203C261.911 137.397 261.01 138.741 261.059 139.119C261 139.12 260.941 139.118 260.882 139.119C260.753 139.359 260.624 139.605 260.495 139.845C260.236 140.325 261.085 145.405 262.998 155.074C264.912 164.742 267.151 171.084 269.731 174.101C272.312 177.117 275.105 178.822 278.123 179.22C279.631 179.42 281.127 179.616 282.636 179.815C282.765 179.575 282.894 179.329 283.023 179.088C283.281 178.608 282.413 178.157 280.379 177.734C278.344 177.311 276.014 175.597 273.433 172.581C270.853 169.565 269.872 169.958 268.533 166.437C267.194 162.916 265.504 154.9 265.395 149.689C265.288 144.478 265.016 141.409 264.549 140.473C264.453 140.28 264.279 140.196 264.161 140.043C264.212 139.061 263.6 136.626 264.267 136.311C265.731 135.619 267.295 135.467 268.286 134.56C273.034 130.213 270.682 127.04 276.465 122.801C279.057 120.901 280.099 121.147 283.375 120.489C284.413 120.28 286.615 119.736 287.783 119.827C288.783 119.906 289.992 121.293 290.779 121.083C293.553 120.342 292.264 116.948 293.353 115.6C294.12 114.65 295.592 113.076 296.914 112.56C297.227 112.438 298.161 112.407 298.395 112.264C298.635 112.115 297.745 111.108 297.583 111.008C297.166 110.747 296.621 110.693 296.068 110.744Z" fill="#EA8529" stroke="#EA8529" stroke-width="0.811583"/>
</svg>
