<svg width="263" height="54" viewBox="0 0 263 54" fill="none" xmlns="http://www.w3.org/2000/svg">
<path d="M14.5331 5.66585C14.1937 5.99903 13.9028 6.11813 13.6604 6.02288C13.4179 5.92762 13.1029 5.97532 12.715 6.16569C12.3271 6.35605 11.9635 6.33234 11.6241 6.09428C11.2848 5.85622 10.9696 5.76111 10.6787 5.80866C10.3878 5.85622 10.0485 6.04673 9.66059 6.3799C9.27268 6.71307 8.95764 7.1178 8.71518 7.59378C8.47272 8.06976 8.35156 8.42679 8.35156 8.66485C8.35156 8.78381 8.35156 8.90291 8.35156 9.02187C8.42429 8.97432 8.49701 8.92662 8.56973 8.87906C8.71518 8.78381 8.93335 8.42679 9.22425 7.80799C9.51514 7.1892 9.78175 6.78448 10.0242 6.59411C10.2667 6.40375 10.509 6.3085 10.7514 6.3085C10.9939 6.3085 11.2121 6.42746 11.406 6.66552C11.5998 6.90358 11.7696 7.02254 11.915 7.02254C12.0605 7.02254 12.2302 6.92729 12.4241 6.73692C12.618 6.54656 12.9574 6.4513 13.4422 6.4513C13.927 6.4513 14.3149 6.3085 14.6058 6.02288C14.8967 5.73726 15.2119 5.642 15.5512 5.73726C15.8905 5.83251 16.0846 6.18954 16.133 6.80833C16.1814 7.42712 16.036 8.14117 15.6966 8.95047C15.3573 9.75977 15.4058 11.164 15.8421 13.1633C16.2784 15.1627 16.7391 16.5908 17.2238 17.4476C17.7086 18.3045 18.5813 19.447 19.8419 20.875C21.1025 22.3031 22.0963 23.7788 22.8236 25.3021C23.1872 26.0637 23.5508 26.8255 23.9144 27.5871C23.7205 26.9206 23.5265 26.2542 23.3326 25.5878C22.9447 24.2549 22.557 23.3028 22.1691 22.7316C21.7811 22.1603 21.0055 21.2559 19.8419 20.0182C18.6783 18.7805 17.8541 17.7094 17.3693 16.805C16.8845 15.9006 16.4966 14.4962 16.2057 12.5921C15.9148 10.688 15.9148 9.47415 16.2057 8.95047C16.4966 8.42679 16.6663 7.83184 16.7148 7.16535C16.7632 6.49886 16.7148 6.02288 16.5693 5.73726C16.4239 5.45164 16.133 5.28498 15.6966 5.23743C15.2603 5.18987 14.8724 5.33268 14.5331 5.66585Z" fill="#EA8529" stroke="#EA8529" stroke-width="0.8"/>
<path d="M36.7109 7.30757C36.7109 7.68844 36.8564 8.21198 37.1473 8.87847C37.4382 9.54496 37.9957 10.4255 38.8199 11.5204C39.6442 12.6154 40.4198 13.5198 41.1471 14.2338C41.8743 14.9479 42.5288 15.8286 43.1106 16.8758C43.4015 17.3995 43.6924 17.923 43.9833 18.4467C44.0076 18.28 44.0317 18.1135 44.056 17.9469C44.1045 17.6137 44.0317 17.1376 43.8379 16.5188C43.644 15.9 43.0136 14.9954 41.947 13.8054C41.4137 13.2103 40.8805 12.6154 40.3471 12.0203C40.541 11.9727 40.735 11.925 40.9289 11.8775C41.3168 11.7822 41.5591 11.6632 41.6561 11.5204C41.7046 11.449 41.7532 11.3776 41.8016 11.3062C41.4864 11.3301 41.1714 11.3538 40.8562 11.3776C40.226 11.4252 39.6199 11.1159 39.0381 10.4494C38.4563 9.78288 37.9229 8.99743 37.4382 8.09302C37.1957 7.64074 36.9534 7.18861 36.7109 6.73633C36.7109 6.92669 36.7109 7.1172 36.7109 7.30757Z" fill="#EA8529" stroke="#EA8529" stroke-width="0.8"/>
<path d="M7.19869 10.5953C6.89413 10.6267 6.59989 10.7005 6.31568 10.8168C6.01344 10.9405 5.72269 11.1123 5.44358 11.3322C4.90208 11.7586 4.56653 12.0998 4.4368 12.3554C4.37193 12.4832 4.30706 12.611 4.24219 12.7389C4.28553 12.7601 4.32887 12.7813 4.37236 12.8026C4.45905 12.845 4.84899 12.5571 5.5419 11.9387C6.23496 11.3205 6.89573 10.9789 7.52435 10.9142C7.83881 10.8819 8.15312 10.8495 8.46743 10.8171C8.41318 10.764 8.35892 10.7108 8.30453 10.6577C8.19602 10.5515 7.82746 10.5306 7.19869 10.5953Z" fill="#EA8529" stroke="#EA8529" stroke-width="0.8"/>
<path d="M10.0851 10.7247C9.97558 10.7757 9.69225 10.7506 9.58272 10.8015C9.82882 10.9558 10.4748 11.3137 10.7207 11.468C11.2128 11.7765 11.5612 12.1991 11.7663 12.7357C11.9714 13.2724 12.0275 13.6783 11.9348 13.9531C11.8884 14.0906 11.8084 14.2508 11.9692 14.2782C12.1301 14.3057 12.1363 14.2985 12.2335 14.3218C12.4277 14.3685 12.6717 14.3465 13.0445 14.7272C13.1395 14.8242 13.1308 15.2648 12.5353 15.7195C11.7173 16.3438 10.8612 16.0789 9.84918 16.739C8.83702 17.3989 9.14435 18.2826 9.58258 18.079C10.0208 17.8753 9.69123 17.6644 10.1996 17.228C10.708 16.7915 12.7882 16.14 13.1641 15.7013C13.7044 15.0704 13.5347 14.8139 13.5393 14.601C13.544 14.3882 13.2025 14.0843 12.5344 13.9244C12.2014 13.8447 12.1134 13.7227 12.2062 13.4478C12.299 13.1729 12.2946 12.8747 12.1932 12.5532C12.0918 12.2316 11.8076 11.8423 11.3406 11.3853C10.8736 10.9282 10.3043 10.6229 10.0851 10.7247Z" fill="#EA8529" stroke="#EA8529" stroke-width="0.8"/>
<path d="M54.3125 12.3762C54.3125 13.2806 54.3609 13.8282 54.4579 14.0185C54.555 14.2089 54.6761 14.3041 54.8216 14.3041C54.8943 14.3041 54.967 14.3041 55.0397 14.3041C54.967 13.7568 54.8943 13.2092 54.8216 12.6618C54.6761 11.5669 54.555 11.0195 54.4579 11.0195C54.4095 11.0195 54.3609 11.0195 54.3125 11.0195C54.3125 11.4718 54.3125 11.9239 54.3125 12.3762Z" fill="#EA8529" stroke="#EA8529" stroke-width="0.8"/>
<path d="M23.9837 13.4498C21.9959 14.497 20.6868 15.3302 20.0566 15.949C19.4264 16.5678 19.0628 17.1153 18.9658 17.5913C18.9173 17.8293 18.8687 18.0673 18.8203 18.3053C18.8687 18.3053 18.9173 18.3053 18.9658 18.3053C19.0628 18.3053 19.1596 18.1387 19.2567 17.8055C19.3537 17.4723 19.7173 16.9962 20.3475 16.3774C20.9777 15.7586 21.6565 15.2111 22.3838 14.7351C23.111 14.2591 24.008 13.8068 25.0745 13.3784C26.1411 12.95 26.7715 12.6644 26.9654 12.5215C27.1592 12.3787 27.2563 12.2359 27.2563 12.0931C27.2563 12.0217 27.2563 11.9503 27.2563 11.8789C27.2078 11.8789 27.1592 11.8789 27.1108 11.8789C27.0138 11.8789 25.9715 12.4026 23.9837 13.4498Z" fill="#EA8529" stroke="#EA8529" stroke-width="0.8"/>
<path d="M23.9837 13.4498C21.9959 14.497 20.6868 15.3302 20.0566 15.949C19.4264 16.5678 19.0628 17.1153 18.9658 17.5913C18.9173 17.8293 18.8687 18.0673 18.8203 18.3053C18.8687 18.3053 18.9173 18.3053 18.9658 18.3053C19.0628 18.3053 19.1596 18.1387 19.2567 17.8055C19.3537 17.4723 19.7173 16.9962 20.3475 16.3774C20.9777 15.7586 21.6565 15.2111 22.3838 14.7351C23.111 14.2591 24.008 13.8068 25.0745 13.3784C26.1411 12.95 26.7715 12.6644 26.9654 12.5215C27.1592 12.3787 27.2563 12.2359 27.2563 12.0931C27.2563 12.0217 27.2563 11.9503 27.2563 11.8789C27.2078 11.8789 27.1592 11.8789 27.1108 11.8789C27.0138 11.8789 25.9715 12.4026 23.9837 13.4498Z" fill="#EA8529" stroke="#EA8529" stroke-width="0.8"/>
<path d="M1.44016 13.3066C1.1977 13.497 1.05225 13.7826 1.00382 14.1635C0.955387 14.5443 1.36744 15.8296 2.24012 18.0193C3.11281 20.209 3.64616 22.0655 3.84004 23.5889C4.03392 25.1122 4.54299 26.4689 5.36724 27.6589C6.19149 28.849 6.87014 30.1342 7.4035 31.5148C7.93685 32.8953 8.59137 34.252 9.36704 35.5849C10.1427 36.9177 10.7004 37.7508 11.0397 38.084C11.379 38.4172 12.2275 39.0123 13.585 39.8691C14.2638 40.2976 14.9425 40.726 15.6213 41.1544C15.6456 41.083 15.6697 41.0116 15.694 40.9402C15.7424 40.7974 15.1365 40.3214 13.8759 39.5121C12.6153 38.7028 11.8154 38.1316 11.476 37.7984C11.1367 37.4652 10.5306 36.537 9.65793 35.0136C8.78525 33.4903 8.0823 32.0622 7.54895 30.7293C7.01559 29.3965 6.40966 28.2777 5.73086 27.3733C5.05205 26.4689 4.56728 25.1122 4.27638 23.3032C3.98549 21.4943 3.42799 19.6616 2.60374 17.8051C1.77949 15.9486 1.36744 14.8061 1.36744 14.3777C1.36744 13.9492 1.46445 13.6875 1.65833 13.5922C1.75535 13.5447 1.85221 13.497 1.94923 13.4494C2.09467 13.7826 2.24012 14.1159 2.38557 14.4491C2.67646 15.1156 2.82191 15.663 2.82191 16.0914C2.82191 16.5198 2.77348 16.7816 2.67646 16.8768C2.62803 16.9244 2.57945 16.9721 2.53102 17.0196C2.57945 17.0672 2.62803 17.1149 2.67646 17.1624C2.7249 17.21 2.77348 17.2577 2.82191 17.3053C2.89463 17.2339 2.96736 17.1624 3.04008 17.091C3.18553 16.9482 3.25825 16.6388 3.25825 16.1628C3.25825 15.6868 3.08852 15.1156 2.74919 14.4491C2.57945 14.1159 2.40986 13.7826 2.24012 13.4494C2.38557 13.5447 2.53102 13.6398 2.67646 13.735C2.96736 13.9254 3.16124 13.9731 3.25825 13.8778C3.30669 13.8303 3.35527 13.7826 3.4037 13.735C3.28254 13.6398 3.16124 13.5447 3.04008 13.4494C2.79762 13.259 2.53102 13.1399 2.24012 13.0924C1.94923 13.0448 1.68262 13.1162 1.44016 13.3066Z" fill="#EA8529" stroke="#EA8529" stroke-width="0.8"/>
<path d="M4.19329 13.8814C4.09016 13.8904 3.9962 13.9127 3.91141 13.9484C3.57208 14.0912 3.40234 14.353 3.40234 14.7338C3.40234 15.1147 3.6448 16.0905 4.12958 17.6614C4.61436 19.2323 4.97797 20.8032 5.22043 22.3741C5.46289 23.945 5.89924 25.3731 6.52946 26.6584C7.15968 27.9437 7.76576 28.9672 8.34755 29.7288C8.92934 30.4904 9.31725 31.1093 9.51113 31.5853C9.70501 32.0613 9.87475 32.3232 10.0202 32.3708C10.0929 32.3946 10.1656 32.4183 10.2384 32.4422C10.1899 32.2518 10.1414 32.0613 10.0929 31.8709C9.9959 31.4901 9.65658 30.9188 9.07479 30.1572C8.493 29.3956 7.83848 28.3007 7.11125 26.8726C6.38401 25.4445 5.89924 23.9926 5.65678 22.5169C5.41432 21.0413 5.14771 19.8988 4.85682 19.0895C4.56592 18.2802 4.4932 17.7567 4.63865 17.5186C4.78409 17.2805 4.78409 16.7093 4.63865 15.8049C4.4932 14.9005 4.42047 14.3768 4.42047 14.234C4.42047 14.1626 4.42047 14.0912 4.42047 14.0198C4.46891 14.0198 4.51749 14.0198 4.56592 14.0198C4.66294 14.0198 5.07499 14.2815 5.80222 14.8052C6.52946 15.3289 7.11125 15.9477 7.54759 16.6617C7.98393 17.3758 8.37184 18.1374 8.71117 18.9467C9.0505 19.756 9.38997 20.8032 9.7293 22.0885C10.0686 23.3738 10.6504 24.5877 11.4747 25.7301C12.2989 26.8726 12.9534 28.0151 13.4382 29.1576C13.923 30.3 14.5048 31.1569 15.1836 31.7281C15.8624 32.2994 16.4683 32.7278 17.0017 33.0134C17.535 33.299 17.9955 33.6322 18.3834 34.0131C18.7713 34.394 19.0864 34.8461 19.3288 35.3698C19.5713 35.8934 19.7894 36.2028 19.9833 36.298C20.0803 36.3456 20.1772 36.3933 20.2742 36.4408C20.1288 36.0838 19.9833 35.7268 19.8379 35.3698C19.547 34.6557 19.1591 34.0845 18.6743 33.6561C18.1895 33.2276 17.438 32.7039 16.4199 32.0852C15.4017 31.4664 14.6261 30.5618 14.0927 29.3718C13.5594 28.1817 12.8564 26.9679 11.9837 25.7301C11.111 24.4924 10.5293 23.3024 10.2384 22.1599C9.94747 21.0174 9.46269 19.7321 8.78389 18.3041C8.10509 16.876 7.5233 15.9001 7.03852 15.3765C6.55375 14.8528 5.9961 14.4482 5.36588 14.1626C4.89318 13.9484 4.50236 13.8547 4.19329 13.8814ZM3.83869 14.1626C3.88712 14.1864 3.9357 14.2101 3.98413 14.234C4.08115 14.2815 4.17801 14.7338 4.27503 15.5907C4.32346 16.0191 4.37204 16.4475 4.42047 16.876C4.37204 16.876 4.32346 16.876 4.27503 16.876C4.17801 16.876 4.05686 16.5903 3.91141 16.0191C3.76596 15.4479 3.71753 14.9956 3.76596 14.6624C3.79025 14.4958 3.8144 14.3292 3.83869 14.1626Z" fill="#EA8529" stroke="#EA8529" stroke-width="0.8"/>
<path d="M47.7656 17.7319C47.7656 18.3031 47.9111 18.8029 48.202 19.2314C48.4929 19.6598 48.6383 20.1835 48.6383 20.8023C48.6383 21.421 48.8565 21.9686 49.2928 22.4446C49.511 22.6826 49.7292 22.9205 49.9473 23.1586C49.8989 22.992 49.8503 22.8254 49.8019 22.6588C49.7049 22.3256 49.5353 22.0161 49.2928 21.7305C49.0504 21.4449 48.9292 21.0403 48.9292 20.5166C48.9292 19.993 48.7838 19.517 48.4929 19.0885C48.202 18.6601 48.0081 18.1841 47.9111 17.6605C47.8626 17.3987 47.8141 17.1368 47.7656 16.875C47.7656 17.1606 47.7656 17.4462 47.7656 17.7319Z" fill="#EA8529" stroke="#EA8529" stroke-width="0.8"/>
<path d="M10.3587 18.1381C10.2876 18.415 10.2986 18.7615 10.3917 19.1773C10.4849 19.593 10.6544 20.1014 10.9 20.7022C11.1457 21.3032 11.4094 21.7366 11.6911 22.0028C11.8319 22.1358 11.9727 22.2688 12.1136 22.4019C11.9032 21.7607 11.6929 21.1195 11.4826 20.4783C11.0619 19.1959 10.8577 18.4336 10.8701 18.1911C10.8823 17.9487 10.8179 17.8101 10.6769 17.7751C10.6064 17.7576 10.5358 17.7401 10.4653 17.7227C10.4298 17.8612 10.3942 17.9997 10.3587 18.1381Z" fill="#EA8529" stroke="#EA8529" stroke-width="0.8"/>
<path d="M51.0385 18.1613C51.1839 18.6373 51.2324 19.1371 51.1839 19.6608C51.1355 20.1845 51.2324 20.5891 51.4748 20.8747C51.7173 21.1603 52.0323 21.3984 52.4202 21.5887C52.6141 21.684 52.8081 21.7791 53.002 21.8744C53.002 21.7791 53.002 21.684 53.002 21.5887C53.002 21.3984 52.7596 21.1365 52.2748 20.8033C51.79 20.4701 51.5718 20.0178 51.6203 19.4466C51.6687 18.8754 51.6446 18.4469 51.5475 18.1613C51.4505 17.8757 51.3051 17.6853 51.1112 17.5901C51.0142 17.5425 50.9173 17.4948 50.8203 17.4473C50.893 17.6853 50.9658 17.9232 51.0385 18.1613Z" fill="#EA8529" stroke="#EA8529" stroke-width="0.8"/>
<path d="M57.0003 21.6605C56.9518 22.1841 57.1214 22.7077 57.5093 23.2314C57.8972 23.755 58.1638 24.0407 58.3093 24.0882C58.382 24.1121 58.4547 24.1358 58.5275 24.1596C58.479 23.9692 58.4304 23.7787 58.382 23.5884C58.285 23.2075 58.0911 22.8982 57.8002 22.6601C57.5093 22.4221 57.3639 22.065 57.3639 21.589C57.3639 21.351 57.3639 21.1131 57.3639 20.875C57.3154 20.875 57.2669 20.875 57.2184 20.875C57.1214 20.875 57.0487 21.1368 57.0003 21.6605Z" fill="#EA8529" stroke="#EA8529" stroke-width="0.8"/>
<path d="M39.4744 23.1598C39.1835 23.8263 38.8442 24.3975 38.4563 24.8735C38.0684 25.3495 37.7291 25.6114 37.4382 25.659C37.1473 25.7065 36.9534 25.6114 36.8564 25.3734C36.808 25.2544 36.7594 25.1353 36.7109 25.0163C36.7352 25.183 36.7594 25.3495 36.7837 25.5162C36.8321 25.8493 37.0261 26.016 37.3655 26.016C37.7048 26.016 38.02 25.897 38.3109 25.659C38.6018 25.4209 38.9654 24.8974 39.4017 24.0881C39.8381 23.2788 40.0319 22.7552 39.9835 22.5172C39.9592 22.3982 39.9351 22.2791 39.9108 22.1602C39.7653 22.4933 39.6199 22.8266 39.4744 23.1598Z" fill="#EA8529" stroke="#EA8529" stroke-width="0.8"/>
<path d="M12.6377 22.8028C12.0075 23.136 11.668 23.5407 11.6196 24.0167C11.5953 24.2548 11.5712 24.4927 11.5469 24.7308C11.6196 24.5404 11.6923 24.3499 11.765 24.1595C11.9105 23.7787 12.153 23.4693 12.4923 23.2313C12.8316 22.9932 13.2438 22.8504 13.7286 22.8028C14.2134 22.7553 14.6256 22.8028 14.9649 22.9456C15.3042 23.0885 16.3466 24.112 18.092 26.016C19.8374 27.9201 21.0737 29.1103 21.8009 29.5863C22.5281 30.0623 23.4008 30.467 24.419 30.8002C25.4371 31.1333 26.4795 31.7523 27.5461 32.6567C28.6126 33.5611 29.5823 34.5608 30.455 35.6557C31.3277 36.7506 31.9822 37.8931 32.4186 39.0831C32.8549 40.2731 33.1701 40.9158 33.364 41.011C33.461 41.0586 33.5578 41.1063 33.6549 41.1538C33.5578 40.7493 33.461 40.3445 33.364 39.94C33.1701 39.1307 32.9276 38.4405 32.6367 37.8692C32.3458 37.298 31.5702 36.2745 30.3096 34.7988C29.049 33.3232 28.0551 32.2997 27.3279 31.7284C26.6007 31.1572 25.5582 30.6098 24.2008 30.0861C22.8433 29.5624 21.5827 28.777 20.4192 27.7298C19.2556 26.6825 18.2859 25.6829 17.5102 24.7308C16.7345 23.7787 16.1769 23.1837 15.8376 22.9456C15.4982 22.7076 15.0376 22.5411 14.4558 22.4458C13.874 22.3506 13.268 22.4697 12.6377 22.8028Z" fill="#EA8529" stroke="#EA8529" stroke-width="0.8"/>
<path d="M41.0003 23.802C40.3701 24.7064 39.9094 25.2776 39.6185 25.5157C39.3276 25.7538 39.0125 25.8966 38.6731 25.9441C38.5034 25.968 38.3338 25.9917 38.1641 26.0155C38.1884 26.0631 38.2125 26.1108 38.2368 26.1584C38.2852 26.2536 38.4792 26.2773 38.8186 26.2298C39.1579 26.1822 39.4974 26.0155 39.8367 25.7299C40.176 25.4443 40.6367 24.9206 41.2185 24.159C41.8002 23.3974 42.1154 22.9213 42.1639 22.7309C42.1882 22.6357 42.2123 22.5406 42.2366 22.4453C42.1882 22.4453 42.1396 22.4453 42.0911 22.4453C41.9941 22.4453 41.6305 22.8976 41.0003 23.802Z" fill="#EA8529" stroke="#EA8529" stroke-width="0.8"/>
<path d="M29.1706 21.1747C29.1549 20.4173 29.0976 19.9172 28.9987 19.6745C28.9 19.4319 28.7342 19.2377 28.5013 19.0917C28.3849 19.0188 28.046 18.8235 27.9297 18.7506C27.9723 18.7306 28.1137 18.7294 28.1564 18.7094C28.2417 18.6696 28.5246 18.826 28.7573 18.9719C28.9901 19.1177 29.1621 19.3346 29.2733 19.6224C29.3846 19.9102 29.4662 20.3819 29.5181 21.0374C29.57 21.693 29.5657 22.0859 29.5052 22.2161C29.4751 22.2814 29.4448 22.3465 29.4146 22.4116C29.3778 22.3948 29.3411 22.3781 29.3043 22.3612C29.2309 22.3276 29.1864 21.9322 29.1706 21.1747Z" fill="#EA8529" stroke="#EA8529" stroke-width="0.8"/>
<path d="M30.7486 24.4442C30.5547 25.5867 30.5062 26.2769 30.6032 26.5149C30.7002 26.753 30.9668 27.0386 31.4031 27.3718C31.8395 27.7049 32.1788 28.062 32.4213 28.4428C32.6637 28.8237 32.9788 29.4187 33.3667 30.228C33.7546 31.0373 34.0455 31.8464 34.2394 32.6557C34.3364 33.0603 34.4332 33.465 34.5303 33.8696C34.6514 33.822 34.7727 33.7743 34.8939 33.7268C35.1363 33.6315 35.3545 33.3936 35.5484 33.0127C35.7423 32.6319 36.1545 32.3225 36.7847 32.0845C37.4149 31.8464 38.433 31.5846 39.8391 31.299C41.2451 31.0134 42.6753 30.7992 44.1298 30.6564C45.5842 30.5136 46.3115 30.3946 46.3115 30.2994C46.3115 30.2518 46.3115 30.2041 46.3115 30.1566C46.1417 30.1566 45.9722 30.1566 45.8024 30.1566C45.4631 30.1566 44.1541 30.3469 41.8753 30.7278C39.5966 31.1087 38.0694 31.418 37.2938 31.656C36.5181 31.8941 35.912 32.1797 35.4757 32.5129C35.2575 32.6796 35.0393 32.8461 34.8212 33.0127C34.603 32.3939 34.3848 31.775 34.1666 31.1562C33.7303 29.9185 33.3424 29.0379 33.0031 28.5142C32.6637 27.9906 32.2515 27.5146 31.7668 27.0862C31.282 26.6577 31.0395 25.8247 31.0395 24.587C31.0395 23.9682 31.0395 23.3493 31.0395 22.7305C30.9425 23.3017 30.8456 23.8729 30.7486 24.4442Z" fill="#EA8529" stroke="#EA8529" stroke-width="0.8"/>
<path d="M44.8543 23.7312C44.5634 24.2071 44.2968 24.8261 44.0543 25.5877C43.8118 26.3493 43.5937 26.8016 43.3998 26.9444C43.2059 27.0872 42.9877 27.1586 42.7453 27.1586C42.5028 27.1586 42.3089 27.0872 42.1635 26.9444C42.0908 26.873 42.018 26.8016 41.9453 26.7301C41.9453 26.8254 41.9453 26.9205 41.9453 27.0158C41.9453 27.2061 42.1635 27.3252 42.5998 27.3728C43.0362 27.4203 43.3998 27.3252 43.6907 27.0872C43.9816 26.8491 44.3695 26.1351 44.8543 24.945C45.339 23.755 45.5331 23.1361 45.436 23.0885C45.339 23.041 45.1452 23.2552 44.8543 23.7312Z" fill="#EA8529" stroke="#EA8529" stroke-width="0.8"/>
<path d="M30.8907 22.7443C30.9371 22.1166 31.0808 21.6285 30.9755 21.4483C30.87 21.2682 30.7243 21.1271 30.5381 21.0251C30.3519 20.9232 30.1812 20.8908 30.026 20.9282C29.9483 20.9469 29.8706 20.9655 29.793 20.9842C29.8221 20.9185 29.8511 20.8528 29.8801 20.7871C29.9383 20.6557 30.1422 20.6654 30.4918 20.8161C30.8415 20.9669 31.0917 21.1855 31.2423 21.4721C31.3932 21.7589 31.3351 22.2784 31.2236 23.1274C31.1366 23.7896 31.0207 24.4159 30.8941 23.9753C30.8262 23.7394 30.8745 22.9632 30.8907 22.7443Z" fill="#EA8529" stroke="#EA8529" stroke-width="0.8"/>
<path d="M43.5449 23.8742C43.3511 24.3502 43.0359 24.85 42.5995 25.3737C42.1632 25.8974 41.6784 26.302 41.1451 26.5876C40.6117 26.8732 40.1997 26.9922 39.9088 26.9446C39.6179 26.897 39.424 26.8018 39.327 26.659C39.23 26.5162 39.1331 26.4448 39.0361 26.4448C38.9876 26.4448 38.9391 26.4448 38.8906 26.4448C38.9149 26.5162 38.9391 26.5876 38.9633 26.659C39.0118 26.8018 39.2785 26.9446 39.7633 27.0874C40.2481 27.2302 40.7571 27.1588 41.2905 26.8732C41.8239 26.5876 42.3086 26.183 42.745 25.6593C43.1813 25.1356 43.5206 24.6121 43.7631 24.0884C44.0056 23.5647 44.0783 23.2791 43.9813 23.2316C43.9328 23.2077 43.8843 23.184 43.8358 23.1602C43.7388 23.3982 43.6419 23.6361 43.5449 23.8742Z" fill="#EA8529" stroke="#EA8529" stroke-width="0.8"/>
<path d="M13.9505 24.445C14.2898 25.1115 14.4352 25.5875 14.3868 25.8731C14.3384 26.1587 14.2414 26.3729 14.0959 26.5157C13.9505 26.6585 13.8777 26.8013 13.8777 26.9441C13.8777 27.0155 13.8777 27.087 13.8777 27.1584C13.9262 27.1584 13.9748 27.1584 14.0232 27.1584C14.1202 27.1584 14.2657 27.0394 14.4595 26.8013C14.6534 26.5633 14.7747 26.2776 14.8232 25.9445C14.8716 25.6113 14.7989 25.2304 14.605 24.802C14.4111 24.3736 14.1686 24.0404 13.8777 23.8023C13.7323 23.6834 13.5869 23.5643 13.4414 23.4453C13.6111 23.7785 13.7807 24.1118 13.9505 24.445Z" fill="#EA8529" stroke="#EA8529" stroke-width="0.8"/>
<path d="M25.3165 3.46526C24.4166 3.45626 23.1485 3.59464 21.5122 3.88026C19.3305 4.26113 18.0215 4.54675 17.5851 4.73712C17.1488 4.92748 16.9063 5.11799 16.8579 5.30835C16.8336 5.40361 16.8094 5.49872 16.7852 5.59397C17.1245 5.45116 17.464 5.30835 17.8033 5.16554C18.4821 4.87992 19.6941 4.61816 21.4395 4.38009C23.1848 4.14203 24.3727 4.02307 25.0029 4.02307C25.6331 4.02307 26.3847 4.18973 27.2574 4.5229C28.13 4.85608 28.5907 5.07029 28.6391 5.16554C28.6634 5.2131 28.6875 5.2608 28.7118 5.30835C28.4937 5.40361 28.2755 5.49872 28.0573 5.59397C27.621 5.78434 27.524 6.68889 27.7664 8.30735C28.0089 9.92581 28.5421 11.2111 29.3663 12.1632C30.1906 13.1153 31.451 14.1625 33.148 15.305C34.8449 16.4475 35.7417 17.3519 35.8387 18.0184C35.9358 18.6849 36.1296 19.4226 36.4205 20.2319C36.7114 21.0412 36.8569 21.9695 36.8569 23.0167C36.8569 23.5404 36.8569 24.0639 36.8569 24.5876C36.9539 24.2544 37.0508 23.9211 37.1478 23.5879C37.3416 22.9215 37.4387 22.3265 37.4387 21.8028C37.4387 21.2791 37.2448 20.4937 36.8569 19.4465C36.469 18.3993 36.2508 17.5661 36.2024 16.9473C36.1539 16.3285 36.0569 15.9715 35.9115 15.8762C35.8387 15.8287 35.766 15.781 35.6933 15.7334C35.669 15.8287 35.6449 15.9238 35.6206 16.0191C35.5963 16.1143 35.5721 16.2094 35.5478 16.3047C35.2085 16.0905 34.869 15.8762 34.5297 15.662C33.8509 15.2336 33.051 14.6862 32.1298 14.0197C31.2087 13.3532 30.4329 12.6869 29.8027 12.0204C29.1725 11.3539 28.7603 10.7827 28.5664 10.3067C28.3725 9.8307 28.2028 9.02139 28.0573 7.87892C27.9119 6.73645 28.4937 5.92715 29.8027 5.45116C31.1117 4.97518 33.3177 4.92748 36.4205 5.30835C39.5234 5.68922 41.7778 6.11765 43.1838 6.59364C44.5899 7.06962 45.5594 7.61715 46.0928 8.23594C46.6261 8.85474 46.9655 9.47367 47.1109 10.0925C47.2563 10.7113 47.1593 11.1635 46.82 11.4492C46.4807 11.7348 46.1655 12.425 45.8746 13.5199C45.5837 14.6148 45.3898 16.2094 45.2928 18.304C45.1958 20.3986 45.4625 22.0409 46.0928 23.2309C46.723 24.421 47.4261 25.4445 48.2018 26.3013C48.9774 27.1582 49.6805 27.7533 50.3107 28.0864C50.941 28.4196 51.2561 28.7291 51.2561 29.0147C51.2561 29.3003 51.038 29.8477 50.6016 30.657C50.1653 31.4663 49.341 32.1804 48.129 32.7991C46.917 33.4179 45.0262 34.7746 42.4566 36.8692C39.887 38.9638 38.5779 40.1063 38.5295 40.2966C38.5052 40.3919 38.4811 40.487 38.4568 40.5823C38.6507 40.5108 38.8447 40.4394 39.0386 40.368C39.4265 40.2252 39.6931 40.0349 39.8385 39.7968C39.984 39.5587 40.1779 39.3922 40.4203 39.297C40.6628 39.2017 41.0991 38.8447 41.7294 38.2259C42.3596 37.6071 43.3777 36.7503 44.7837 35.6553C46.1898 34.5604 47.2563 33.7988 47.9836 33.3704C48.7108 32.942 49.5351 32.5849 50.4562 32.2993C51.3773 32.0137 52.0561 31.9184 52.4925 32.0137C52.9288 32.1089 53.7045 32.1327 54.8196 32.0851C55.9347 32.0375 56.977 31.7519 57.9467 31.2282C58.9164 30.7046 59.6678 30.1096 60.2012 29.4431C60.7345 28.7766 61.3163 28.1817 61.9465 27.658C62.5767 27.1343 63.3767 26.6345 64.3464 26.1585C65.3161 25.6825 65.9948 25.4683 66.3827 25.5159C66.5765 25.5397 66.7706 25.5634 66.9644 25.5873C66.7463 25.7539 66.5281 25.9205 66.3099 26.0871C65.8736 26.4203 65.51 26.7773 65.2191 27.1582C64.9282 27.5391 64.7584 27.8722 64.71 28.1578C64.6616 28.4435 64.71 28.6815 64.8555 28.8719C65.0009 29.0623 65.2918 29.2051 65.7281 29.3003C66.1645 29.3956 66.3827 29.5145 66.3827 29.6573C66.3827 29.8002 66.0433 30.3952 65.3645 31.4425C64.6857 32.4897 63.8373 33.3465 62.8192 34.013C61.8011 34.6795 61.195 35.1555 61.0011 35.4411C60.9041 35.5839 60.8072 35.7267 60.7102 35.8695C61.0011 35.7267 61.292 35.5839 61.5829 35.4411C62.1647 35.1555 62.8435 34.7032 63.6192 34.0844C64.3948 33.4656 65.2918 32.4183 66.3099 30.9426C67.3281 29.467 67.9341 28.7529 68.128 28.8005C68.3219 28.848 68.9037 28.5863 69.8734 28.015C70.8431 27.4438 71.6672 26.7773 72.346 26.0157C73.0248 25.2541 73.4126 24.8971 73.5096 24.9446C73.6066 24.9922 73.655 25.1588 73.655 25.4445C73.655 25.7301 73.1944 26.9201 72.2733 29.0147C71.3522 31.1093 69.6068 33.18 67.0372 35.2269C64.4676 37.2738 62.2617 38.6782 60.4193 39.4398C58.5769 40.2014 57.2679 40.7726 56.4922 41.1535C55.7166 41.5344 55.2559 41.82 55.1105 42.0103C55.0378 42.1056 54.9651 42.2007 54.8923 42.296C56.2984 41.7009 57.7043 41.1059 59.1103 40.5108C61.9222 39.3208 64.4434 37.8927 66.6736 36.2266C68.9037 34.5604 70.2613 33.4656 70.7461 32.942C71.2309 32.4183 71.9097 31.133 72.7823 29.0861C73.655 27.0392 74.1157 25.849 74.1641 25.5159C74.2125 25.1827 74.1884 24.8971 74.0914 24.659C73.9944 24.421 74.2125 24.0164 74.7459 23.4451C75.2792 22.8739 75.7156 22.2551 76.0549 21.5886C76.3942 20.9221 76.6367 20.3747 76.7821 19.9463C76.9276 19.5179 77.0003 18.8277 77.0003 17.8756C77.0003 16.9235 76.9033 15.9238 76.7094 14.8766C76.5155 13.8294 76.2003 12.7583 75.764 11.6634C75.3277 10.5684 74.358 9.28316 72.8551 7.80752C71.3522 6.33187 70.1886 5.37976 69.3643 4.95133C68.5401 4.5229 67.7887 4.21343 67.1099 4.02307C66.4311 3.8327 65.6311 3.7136 64.71 3.66605C63.7889 3.61849 62.9646 3.6422 62.2374 3.73745C61.5102 3.8327 60.6859 4.02307 59.7648 4.30869C58.8437 4.59431 57.8256 5.04658 56.7104 5.66538C55.5953 6.28417 54.6742 6.7126 53.9469 6.95066C53.2197 7.18872 52.0077 7.80752 50.3107 8.80718C49.4623 9.30701 48.6138 9.80685 47.7654 10.3067C47.717 10.0686 47.6684 9.8307 47.62 9.59263C47.523 9.11665 47.2806 8.61682 46.8927 8.09313C46.5048 7.56945 45.7049 7.04591 44.4929 6.52223C43.2808 5.99855 41.0506 5.47501 37.8023 4.95133C34.554 4.42765 32.3237 4.28484 31.1117 4.5229C29.8997 4.76096 28.9784 4.68956 28.3482 4.30869C27.718 3.92781 26.9665 3.66605 26.0938 3.52324C25.8756 3.48753 25.6166 3.46825 25.3165 3.46526ZM64.7827 3.95166C65.8493 3.99922 66.916 4.23728 67.9826 4.66571C69.0491 5.09414 69.9946 5.61782 70.8188 6.23661C71.6431 6.85541 72.249 7.45049 72.6369 8.02173C73.0248 8.59297 73.4611 9.0928 73.9459 9.52123C74.4307 9.94966 74.8913 10.7827 75.3277 12.0204C75.764 13.2581 76.0549 14.4006 76.2003 15.4478C76.3458 16.495 76.4185 17.3043 76.4185 17.8756C76.4185 18.4468 76.2246 19.2561 75.8367 20.3033C75.4488 21.3506 75.0125 22.2551 74.5277 23.0167C74.0429 23.7783 73.3641 24.6115 72.4914 25.5159C71.6188 26.4203 70.7461 27.1106 69.8734 27.5866C69.0007 28.0626 68.5159 28.2531 68.4189 28.1578C68.3219 28.0626 68.3705 27.7533 68.5644 27.2296C68.7582 26.7059 68.7825 26.3013 68.6371 26.0157C68.4916 25.7301 68.225 25.492 67.8371 25.3017C67.4492 25.1113 66.9887 25.016 66.4554 25.016C65.922 25.016 65.0009 25.3731 63.6919 26.0871C62.3829 26.8012 61.2193 27.6819 60.2012 28.7291C59.183 29.7763 58.0679 30.5142 56.8559 30.9426C55.6439 31.3711 54.2621 31.5853 52.7106 31.5853C51.935 31.5853 51.1591 31.5853 50.3835 31.5853C50.6259 31.2521 50.8682 30.9188 51.1107 30.5856C51.5955 29.9191 51.8379 29.4431 51.8379 29.1575C51.8379 29.0147 51.8379 28.8719 51.8379 28.7291C52.1531 28.8243 52.4682 28.9194 52.7833 29.0147C53.4136 29.2051 54.2135 29.3003 55.1832 29.3003C56.1529 29.3003 56.9043 29.2528 57.4377 29.1575C57.971 29.0623 58.2376 28.9671 58.2376 28.8719C58.2376 28.8243 58.2376 28.7766 58.2376 28.7291C57.4377 28.7291 56.6377 28.7291 55.8377 28.7291C54.2378 28.7291 53.0742 28.6338 52.347 28.4435C51.6198 28.2531 50.8198 27.8247 49.9471 27.1582C49.0744 26.4917 48.3472 25.7776 47.7654 25.016C47.1836 24.2544 46.6746 23.4213 46.2382 22.5169C45.8019 21.6125 45.5837 20.8507 45.5837 20.2319C45.5837 19.6131 45.6321 18.8038 45.7292 17.8042C45.8262 16.8045 46.0443 15.5668 46.3837 14.0911C46.723 12.6155 47.0625 11.6872 47.4018 11.3063C47.7411 10.9255 48.2018 10.5447 48.7835 10.1639C49.3653 9.783 51.1591 8.83103 54.1651 7.30768C57.1711 5.78434 59.4255 4.83237 60.9284 4.4515C62.4313 4.07062 63.7162 3.90411 64.7827 3.95166ZM67.6417 25.7702C67.9325 25.8179 68.1266 26.0797 68.2234 26.5557C68.3205 27.0318 68.1507 27.5792 67.7144 28.198C67.278 28.8169 66.8417 29.1262 66.4053 29.1262C65.969 29.1262 65.654 29.0311 65.4599 28.8406C65.2661 28.6503 65.169 28.4599 65.169 28.2694C65.169 28.079 65.5085 27.603 66.1872 26.8413C66.866 26.0797 67.3508 25.7227 67.6417 25.7702Z" fill="#EA8529" stroke="#EA8529" stroke-width="0.8"/>
<path d="M35.9837 42.8258C35.8867 43.0638 35.8625 43.754 35.9109 44.8965C35.9594 46.039 36.0321 46.6578 36.1291 46.753C36.1776 46.8006 36.2261 46.8483 36.2746 46.8958C36.2989 46.1579 36.323 45.4202 36.3473 44.6823C36.3716 43.9444 36.3957 43.2066 36.42 42.4688C36.3716 42.4688 36.323 42.4688 36.2746 42.4688C36.1776 42.4688 36.0807 42.5877 35.9837 42.8258Z" fill="#EA8529" stroke="#EA8529" stroke-width="0.8"/>
<path d="M47.3309 45.8957C47.6218 47.9903 47.8399 49.3945 47.9854 50.1086C48.1308 50.8226 48.2763 51.2272 48.4217 51.3225C48.4945 51.37 48.5672 51.4177 48.6399 51.4653C48.446 50.0133 48.252 48.5615 48.0581 47.1096C47.6702 44.2058 47.3793 42.7539 47.1854 42.7539C47.0884 42.7539 46.9915 42.7539 46.8945 42.7539C47.04 43.8011 47.1854 44.8485 47.3309 45.8957Z" fill="#EA8529" stroke="#EA8529" stroke-width="0.8"/>
<path d="M25.2223 44.5407C25.1252 45.6357 25.1495 46.3259 25.295 46.6115C25.3677 46.7543 25.4404 46.8971 25.5132 47.0399C25.4889 46.5639 25.4647 46.0878 25.4404 45.6118C25.392 44.6597 25.4404 44.1123 25.5859 43.9695C25.7313 43.8267 25.8041 43.66 25.8041 43.4697C25.8041 43.2793 25.7313 43.1365 25.5859 43.0412C25.5132 42.9937 25.4404 42.946 25.3677 42.8984C25.3193 43.4458 25.2707 43.9934 25.2223 44.5407Z" fill="#EA8529" stroke="#EA8529" stroke-width="0.8"/>
<path d="M25.5883 48.468C25.6368 48.9439 25.7338 49.2296 25.8792 49.3248C25.952 49.3724 26.0247 49.4201 26.0974 49.4676C26.1217 49.3248 26.1458 49.182 26.1701 49.0392C26.2186 48.7536 26.1944 48.4918 26.0974 48.2537C26.0004 48.0157 25.8792 47.8729 25.7338 47.8253C25.6611 47.8015 25.5883 47.7778 25.5156 47.7539C25.5399 47.992 25.5641 48.2299 25.5883 48.468Z" fill="#EA8529" stroke="#EA8529" stroke-width="0.8"/>
<path d="M27.8268 18.6332C27.749 18.6402 27.6726 18.6634 27.6134 18.6789C27.5104 18.7059 27.3805 18.6784 27.2758 18.7016C27.0243 18.7579 26.8837 19.0992 26.859 19.277C26.8501 19.3403 26.8947 19.6095 26.8143 19.6469C26.7493 19.677 25.8213 19.6093 25.5387 19.6652C24.9668 19.778 24.1852 20.511 24.0249 20.9162C23.966 21.0653 23.9093 21.135 23.8165 21.2632C23.7403 21.3685 23.2823 21.5577 23.2258 21.8339H23.2209C23.1451 22.0115 23.2074 21.9541 23.0322 22.2906C23.0183 22.3174 22.8915 22.5031 22.8983 22.5553C22.89 22.5555 22.8817 22.5552 22.8734 22.5553C22.8552 22.5886 22.8371 22.6226 22.8189 22.6557C22.7825 22.7221 22.9019 23.4242 23.1713 24.7607C23.4407 26.0972 23.756 26.9737 24.1192 27.3907C24.4825 27.8076 24.8756 28.0434 25.3005 28.0983C25.5129 28.1259 25.7235 28.153 25.9358 28.1806C25.954 28.1473 25.9722 28.1133 25.9904 28.0801C26.0267 28.0137 25.9045 27.9514 25.6182 27.893C25.3316 27.8344 25.0036 27.5975 24.6403 27.1807C24.2771 26.7638 24.139 26.8181 23.9505 26.3314C23.762 25.8447 23.524 24.7368 23.5087 24.0164C23.4936 23.2961 23.4554 22.872 23.3896 22.7426C23.3761 22.7159 23.3516 22.7043 23.3351 22.6832C23.3422 22.5473 23.2561 22.2107 23.3499 22.1672C23.556 22.0716 23.7762 22.0507 23.9157 21.9253C24.5842 21.3243 24.253 20.8858 25.0672 20.2998C25.432 20.0372 25.5787 20.0712 26.0399 19.9802C26.186 19.9514 26.4961 19.8762 26.6604 19.8888C26.8012 19.8997 26.9714 20.0915 27.0822 20.0623C27.4728 19.9599 27.2912 19.4908 27.4445 19.3044C27.5526 19.1732 27.7597 18.9556 27.9459 18.8843C27.99 18.8674 28.1214 18.8632 28.1543 18.8433C28.1882 18.8227 28.0628 18.6836 28.0401 18.6698C27.9814 18.6337 27.9046 18.6262 27.8268 18.6332Z" fill="#EA8529" stroke="#EA8529" stroke-width="0.8"/>
<path d="M98.0138 23.5221C97.8671 23.5221 97.7425 23.4781 97.6398 23.3901C97.5518 23.3021 97.5078 23.1774 97.5078 23.0161V18.9901C97.5078 18.8434 97.5518 18.7261 97.6398 18.6381C97.7425 18.5354 97.8671 18.4841 98.0138 18.4841H98.4758C98.8278 18.4841 99.1358 18.3227 99.3998 18.0001C99.6638 17.6774 99.8838 17.1861 100.06 16.5261C100.25 15.8514 100.39 15.0007 100.478 13.9741C100.566 12.9474 100.61 11.7301 100.61 10.3221V5.57006C100.61 5.4234 100.654 5.30606 100.742 5.21806C100.844 5.1154 100.969 5.06406 101.116 5.06406H109.696C109.857 5.06406 109.982 5.1154 110.07 5.21806C110.172 5.30606 110.224 5.43073 110.224 5.59206V18.4841H111.302C111.463 18.4841 111.588 18.5354 111.676 18.6381C111.778 18.7261 111.83 18.8434 111.83 18.9901V23.0161C111.83 23.1627 111.778 23.2801 111.676 23.3681C111.588 23.4707 111.463 23.5221 111.302 23.5221H110.18C110.018 23.5221 109.894 23.4707 109.806 23.3681C109.718 23.2801 109.674 23.1627 109.674 23.0161V20.4641H99.6638V23.0161C99.6638 23.1627 99.6125 23.2801 99.5098 23.3681C99.4218 23.4707 99.2971 23.5221 99.1358 23.5221H98.0138ZM101.292 18.4841H108.068V7.04406H102.722V10.5861C102.722 12.6687 102.597 14.3481 102.348 15.6241C102.113 16.9001 101.761 17.8534 101.292 18.4841Z" fill="#62500F"/>
<path d="M115.658 20.4641C115.497 20.4641 115.372 20.4201 115.284 20.3321C115.196 20.2294 115.152 20.1047 115.152 19.9581V5.57006C115.152 5.4234 115.196 5.30606 115.284 5.21806C115.372 5.1154 115.497 5.06406 115.658 5.06406H116.824C116.971 5.06406 117.088 5.1154 117.176 5.21806C117.279 5.30606 117.33 5.4234 117.33 5.57006V19.9581C117.33 20.1047 117.279 20.2294 117.176 20.3321C117.088 20.4201 116.971 20.4641 116.824 20.4641H115.658Z" fill="#62500F"/>
<path d="M122.334 20.4641C122.187 20.4641 122.062 20.4201 121.96 20.3321C121.872 20.2294 121.828 20.1047 121.828 19.9581V5.59206C121.828 5.43073 121.872 5.30606 121.96 5.21806C122.062 5.1154 122.187 5.06406 122.334 5.06406H123.434C123.61 5.06406 123.742 5.10806 123.83 5.19606C123.918 5.28406 123.969 5.3574 123.984 5.41606L128.648 14.3041L133.334 5.41606C133.363 5.3574 133.414 5.28406 133.488 5.19606C133.576 5.10806 133.708 5.06406 133.884 5.06406H134.962C135.123 5.06406 135.248 5.1154 135.336 5.21806C135.438 5.30606 135.49 5.43073 135.49 5.59206V19.9581C135.49 20.1047 135.438 20.2294 135.336 20.3321C135.248 20.4201 135.123 20.4641 134.962 20.4641H133.884C133.737 20.4641 133.612 20.4201 133.51 20.3321C133.422 20.2294 133.378 20.1047 133.378 19.9581V9.13406L129.704 16.3061C129.645 16.4527 129.557 16.5701 129.44 16.6581C129.322 16.7314 129.176 16.7681 129 16.7681H128.318C128.127 16.7681 127.973 16.7314 127.856 16.6581C127.753 16.5701 127.665 16.4527 127.592 16.3061L123.918 9.13406V19.9581C123.918 20.1047 123.866 20.2294 123.764 20.3321C123.676 20.4201 123.558 20.4641 123.412 20.4641H122.334Z" fill="#62500F"/>
<path d="M151.529 20.6841C150.282 20.6841 149.212 20.4714 148.317 20.0461C147.422 19.6061 146.733 18.9387 146.249 18.0441C145.765 17.1347 145.494 15.9981 145.435 14.6341C145.42 13.9887 145.413 13.3727 145.413 12.7861C145.413 12.1847 145.42 11.5614 145.435 10.9161C145.494 9.56673 145.772 8.44473 146.271 7.55006C146.784 6.64073 147.488 5.96606 148.383 5.52606C149.292 5.0714 150.341 4.84406 151.529 4.84406C152.732 4.84406 153.78 5.0714 154.675 5.52606C155.584 5.96606 156.296 6.64073 156.809 7.55006C157.322 8.44473 157.601 9.56673 157.645 10.9161C157.674 11.5614 157.689 12.1847 157.689 12.7861C157.689 13.3727 157.674 13.9887 157.645 14.6341C157.601 15.9981 157.33 17.1347 156.831 18.0441C156.347 18.9387 155.658 19.6061 154.763 20.0461C153.868 20.4714 152.79 20.6841 151.529 20.6841ZM151.529 18.8141C152.658 18.8141 153.575 18.4767 154.279 17.8021C154.998 17.1274 155.386 16.0347 155.445 14.5241C155.474 13.8641 155.489 13.2774 155.489 12.7641C155.489 12.2361 155.474 11.6494 155.445 11.0041C155.416 9.99206 155.225 9.17073 154.873 8.54006C154.536 7.9094 154.081 7.4474 153.509 7.15406C152.937 6.86073 152.277 6.71406 151.529 6.71406C150.81 6.71406 150.165 6.86073 149.593 7.15406C149.021 7.4474 148.559 7.9094 148.207 8.54006C147.87 9.17073 147.679 9.99206 147.635 11.0041C147.62 11.6494 147.613 12.2361 147.613 12.7641C147.613 13.2774 147.62 13.8641 147.635 14.5241C147.694 16.0347 148.082 17.1274 148.801 17.8021C149.52 18.4767 150.429 18.8141 151.529 18.8141Z" fill="#62500F"/>
<path d="M162.062 20.4641C161.9 20.4641 161.776 20.4201 161.688 20.3321C161.6 20.2294 161.556 20.1047 161.556 19.9581V5.59206C161.556 5.43073 161.6 5.30606 161.688 5.21806C161.776 5.1154 161.9 5.06406 162.062 5.06406H167.65C168.735 5.06406 169.674 5.24006 170.466 5.59206C171.272 5.94406 171.896 6.47206 172.336 7.17606C172.776 7.8654 172.996 8.73073 172.996 9.77206C172.996 10.8134 172.776 11.6787 172.336 12.3681C171.896 13.0574 171.272 13.5781 170.466 13.9301C169.674 14.2821 168.735 14.4581 167.65 14.4581H163.756V19.9581C163.756 20.1047 163.704 20.2294 163.602 20.3321C163.514 20.4201 163.389 20.4641 163.228 20.4641H162.062ZM163.734 12.6101H167.54C168.625 12.6101 169.439 12.3681 169.982 11.8841C170.524 11.4001 170.796 10.6961 170.796 9.77206C170.796 8.86273 170.532 8.15873 170.004 7.66006C169.476 7.1614 168.654 6.91206 167.54 6.91206H163.734V12.6101Z" fill="#62500F"/>
<path d="M180.203 20.4641C180.056 20.4641 179.932 20.4201 179.829 20.3321C179.741 20.2294 179.697 20.1047 179.697 19.9581V7.02206H175.473C175.326 7.02206 175.202 6.97806 175.099 6.89006C175.011 6.7874 174.967 6.66273 174.967 6.51606V5.59206C174.967 5.43073 175.011 5.30606 175.099 5.21806C175.202 5.1154 175.326 5.06406 175.473 5.06406H186.077C186.238 5.06406 186.363 5.1154 186.451 5.21806C186.554 5.30606 186.605 5.43073 186.605 5.59206V6.51606C186.605 6.66273 186.554 6.7874 186.451 6.89006C186.363 6.97806 186.238 7.02206 186.077 7.02206H181.875V19.9581C181.875 20.1047 181.824 20.2294 181.721 20.3321C181.633 20.4201 181.508 20.4641 181.347 20.4641H180.203Z" fill="#62500F"/>
<path d="M195.253 20.6841C194.006 20.6841 192.936 20.4714 192.041 20.0461C191.146 19.6061 190.457 18.9387 189.973 18.0441C189.489 17.1347 189.218 15.9981 189.159 14.6341C189.144 13.9887 189.137 13.3727 189.137 12.7861C189.137 12.1847 189.144 11.5614 189.159 10.9161C189.218 9.56673 189.496 8.44473 189.995 7.55006C190.508 6.64073 191.212 5.96606 192.107 5.52606C193.016 5.0714 194.065 4.84406 195.253 4.84406C196.456 4.84406 197.504 5.0714 198.399 5.52606C199.308 5.96606 200.02 6.64073 200.533 7.55006C201.046 8.44473 201.325 9.56673 201.369 10.9161C201.398 11.5614 201.413 12.1847 201.413 12.7861C201.413 13.3727 201.398 13.9887 201.369 14.6341C201.325 15.9981 201.054 17.1347 200.555 18.0441C200.071 18.9387 199.382 19.6061 198.487 20.0461C197.592 20.4714 196.514 20.6841 195.253 20.6841ZM195.253 18.8141C196.382 18.8141 197.299 18.4767 198.003 17.8021C198.722 17.1274 199.11 16.0347 199.169 14.5241C199.198 13.8641 199.213 13.2774 199.213 12.7641C199.213 12.2361 199.198 11.6494 199.169 11.0041C199.14 9.99206 198.949 9.17073 198.597 8.54006C198.26 7.9094 197.805 7.4474 197.233 7.15406C196.661 6.86073 196.001 6.71406 195.253 6.71406C194.534 6.71406 193.889 6.86073 193.317 7.15406C192.745 7.4474 192.283 7.9094 191.931 8.54006C191.594 9.17073 191.403 9.99206 191.359 11.0041C191.344 11.6494 191.337 12.2361 191.337 12.7641C191.337 13.2774 191.344 13.8641 191.359 14.5241C191.418 16.0347 191.806 17.1274 192.525 17.8021C193.244 18.4767 194.153 18.8141 195.253 18.8141Z" fill="#62500F"/>
<path d="M205.786 20.4641C205.624 20.4641 205.5 20.4201 205.412 20.3321C205.324 20.2294 205.28 20.1047 205.28 19.9581V5.59206C205.28 5.43073 205.324 5.30606 205.412 5.21806C205.5 5.1154 205.624 5.06406 205.786 5.06406H216.632C216.793 5.06406 216.918 5.1154 217.006 5.21806C217.108 5.30606 217.16 5.43073 217.16 5.59206V19.9581C217.16 20.1047 217.108 20.2294 217.006 20.3321C216.918 20.4201 216.793 20.4641 216.632 20.4641H215.51C215.363 20.4641 215.238 20.4201 215.136 20.3321C215.048 20.2294 215.004 20.1047 215.004 19.9581V7.04406H207.436V19.9581C207.436 20.1047 207.384 20.2294 207.282 20.3321C207.194 20.4201 207.069 20.4641 206.908 20.4641H205.786Z" fill="#62500F"/>
<path d="M222.129 20.4641C221.968 20.4641 221.843 20.4201 221.755 20.3321C221.667 20.2294 221.623 20.1047 221.623 19.9581V5.59206C221.623 5.43073 221.667 5.30606 221.755 5.21806C221.843 5.1154 221.968 5.06406 222.129 5.06406H231.215C231.377 5.06406 231.501 5.1154 231.589 5.21806C231.677 5.30606 231.721 5.43073 231.721 5.59206V6.42806C231.721 6.5894 231.677 6.71406 231.589 6.80206C231.501 6.89006 231.377 6.93406 231.215 6.93406H223.735V11.7521H230.731C230.893 11.7521 231.017 11.8034 231.105 11.9061C231.193 11.9941 231.237 12.1187 231.237 12.2801V13.0941C231.237 13.2407 231.193 13.3654 231.105 13.4681C231.017 13.5561 230.893 13.6001 230.731 13.6001H223.735V18.5941H231.391C231.553 18.5941 231.677 18.6381 231.765 18.7261C231.853 18.8141 231.897 18.9387 231.897 19.1001V19.9581C231.897 20.1047 231.853 20.2294 231.765 20.3321C231.677 20.4201 231.553 20.4641 231.391 20.4641H222.129Z" fill="#62500F"/>
<path d="M234.723 23.5221C234.577 23.5221 234.452 23.4781 234.349 23.3901C234.261 23.3021 234.217 23.1774 234.217 23.0161V18.9901C234.217 18.8434 234.261 18.7261 234.349 18.6381C234.452 18.5354 234.577 18.4841 234.723 18.4841H235.185C235.537 18.4841 235.845 18.3227 236.109 18.0001C236.373 17.6774 236.593 17.1861 236.769 16.5261C236.96 15.8514 237.099 15.0007 237.187 13.9741C237.275 12.9474 237.319 11.7301 237.319 10.3221V5.57006C237.319 5.4234 237.363 5.30606 237.451 5.21806C237.554 5.1154 237.679 5.06406 237.825 5.06406H246.405C246.567 5.06406 246.691 5.1154 246.779 5.21806C246.882 5.30606 246.933 5.43073 246.933 5.59206V18.4841H248.011C248.173 18.4841 248.297 18.5354 248.385 18.6381C248.488 18.7261 248.539 18.8434 248.539 18.9901V23.0161C248.539 23.1627 248.488 23.2801 248.385 23.3681C248.297 23.4707 248.173 23.5221 248.011 23.5221H246.889C246.728 23.5221 246.603 23.4707 246.515 23.3681C246.427 23.2801 246.383 23.1627 246.383 23.0161V20.4641H236.373V23.0161C236.373 23.1627 236.322 23.2801 236.219 23.3681C236.131 23.4707 236.007 23.5221 235.845 23.5221H234.723ZM238.001 18.4841H244.777V7.04406H239.431V10.5861C239.431 12.6687 239.307 14.3481 239.057 15.6241C238.823 16.9001 238.471 17.8534 238.001 18.4841Z" fill="#62500F"/>
<path d="M252.367 20.4641C252.206 20.4641 252.081 20.4201 251.993 20.3321C251.905 20.2294 251.861 20.1047 251.861 19.9581V5.57006C251.861 5.4234 251.905 5.30606 251.993 5.21806C252.081 5.1154 252.206 5.06406 252.367 5.06406H253.533C253.68 5.06406 253.797 5.1154 253.885 5.21806C253.988 5.30606 254.039 5.4234 254.039 5.57006V19.9581C254.039 20.1047 253.988 20.2294 253.885 20.3321C253.797 20.4201 253.68 20.4641 253.533 20.4641H252.367Z" fill="#62500F"/>
<path d="M259.043 20.4641C258.882 20.4641 258.757 20.4201 258.669 20.3321C258.581 20.2294 258.537 20.1047 258.537 19.9581V5.57006C258.537 5.4234 258.581 5.30606 258.669 5.21806C258.757 5.1154 258.882 5.06406 259.043 5.06406H260.209C260.356 5.06406 260.473 5.1154 260.561 5.21806C260.664 5.30606 260.715 5.4234 260.715 5.57006V19.9581C260.715 20.1047 260.664 20.2294 260.561 20.3321C260.473 20.4201 260.356 20.4641 260.209 20.4641H259.043ZM260.891 2.84206C260.73 2.84206 260.605 2.79806 260.517 2.71006C260.429 2.62206 260.385 2.50473 260.385 2.35806V1.17006C260.385 1.0234 260.429 0.906062 260.517 0.818062C260.605 0.715396 260.73 0.664062 260.891 0.664062H262.079C262.226 0.664062 262.343 0.715396 262.431 0.818062C262.534 0.906062 262.585 1.0234 262.585 1.17006V2.35806C262.585 2.50473 262.534 2.62206 262.431 2.71006C262.343 2.79806 262.226 2.84206 262.079 2.84206H260.891ZM257.151 2.84206C257.004 2.84206 256.887 2.79806 256.799 2.71006C256.711 2.62206 256.667 2.50473 256.667 2.35806V1.17006C256.667 1.0234 256.711 0.906062 256.799 0.818062C256.887 0.715396 257.004 0.664062 257.151 0.664062H258.361C258.508 0.664062 258.625 0.715396 258.713 0.818062C258.816 0.906062 258.867 1.0234 258.867 1.17006V2.35806C258.867 2.50473 258.816 2.62206 258.713 2.71006C258.625 2.79806 258.508 2.84206 258.361 2.84206H257.151Z" fill="#62500F"/>
<path d="M99.4557 49.3461C99.3157 49.3461 99.1967 49.3041 99.0987 49.2201C99.0147 49.1361 98.9727 49.0241 98.9727 48.8841V35.1291C98.9727 34.9751 99.0147 34.8561 99.0987 34.7721C99.1967 34.6881 99.3157 34.6461 99.4557 34.6461H99.9807C100.121 34.6461 100.226 34.6811 100.296 34.7511C100.366 34.8211 100.408 34.8771 100.422 34.9191L105.189 44.2011L109.977 34.9191C110.005 34.8771 110.047 34.8211 110.103 34.7511C110.173 34.6811 110.278 34.6461 110.418 34.6461H110.922C111.076 34.6461 111.195 34.6881 111.279 34.7721C111.363 34.8561 111.405 34.9751 111.405 35.1291V48.8841C111.405 49.0241 111.363 49.1361 111.279 49.2201C111.195 49.3041 111.076 49.3461 110.922 49.3461H110.544C110.404 49.3461 110.292 49.3041 110.208 49.2201C110.124 49.1361 110.082 49.0241 110.082 48.8841V37.5021L106.071 45.3981C106.015 45.5381 105.931 45.6431 105.819 45.7131C105.721 45.7831 105.588 45.8181 105.42 45.8181H104.958C104.79 45.8181 104.657 45.7831 104.559 45.7131C104.461 45.6431 104.377 45.5381 104.307 45.3981L100.296 37.5021V48.8841C100.296 49.0241 100.254 49.1361 100.17 49.2201C100.086 49.3041 99.9737 49.3461 99.8337 49.3461H99.4557Z" fill="#62500F"/>
<path d="M119.138 49.5561C117.78 49.5561 116.702 49.1151 115.904 48.2331C115.106 47.3371 114.651 46.1681 114.539 44.7261C114.525 44.5161 114.518 44.2361 114.518 43.8861C114.518 43.5361 114.525 43.2561 114.539 43.0461C114.609 42.0941 114.833 41.2541 115.211 40.5261C115.589 39.7981 116.107 39.2311 116.765 38.8251C117.437 38.4191 118.228 38.2161 119.138 38.2161C120.118 38.2161 120.951 38.4331 121.637 38.8671C122.323 39.3011 122.848 39.9241 123.212 40.7361C123.59 41.5481 123.779 42.5141 123.779 43.6341V43.9491C123.779 44.0891 123.73 44.2011 123.632 44.2851C123.548 44.3691 123.436 44.4111 123.296 44.4111H115.82C115.82 44.4111 115.82 44.4391 115.82 44.4951C115.82 44.5511 115.82 44.5931 115.82 44.6211C115.848 45.2511 115.995 45.8531 116.261 46.4271C116.527 46.9871 116.905 47.4491 117.395 47.8131C117.885 48.1631 118.466 48.3381 119.138 48.3381C119.74 48.3381 120.237 48.2471 120.629 48.0651C121.035 47.8831 121.357 47.6871 121.595 47.4771C121.833 47.2531 121.987 47.0851 122.057 46.9731C122.183 46.7911 122.281 46.6861 122.351 46.6581C122.421 46.6161 122.533 46.5951 122.687 46.5951H123.023C123.149 46.5951 123.254 46.6371 123.338 46.7211C123.436 46.7911 123.478 46.8891 123.464 47.0151C123.45 47.2111 123.338 47.4561 123.128 47.7501C122.932 48.0301 122.645 48.3101 122.267 48.5901C121.903 48.8701 121.455 49.1011 120.923 49.2831C120.391 49.4651 119.796 49.5561 119.138 49.5561ZM115.82 43.2351H122.498V43.1511C122.498 42.4511 122.365 41.8211 122.099 41.2611C121.833 40.7011 121.448 40.2601 120.944 39.9381C120.44 39.6021 119.838 39.4341 119.138 39.4341C118.438 39.4341 117.836 39.6021 117.332 39.9381C116.842 40.2601 116.464 40.7011 116.198 41.2611C115.946 41.8211 115.82 42.4511 115.82 43.1511V43.2351Z" fill="#62500F"/>
<path d="M125.73 51.6561C125.59 51.6561 125.478 51.6141 125.394 51.5301C125.31 51.4461 125.268 51.3341 125.268 51.1941V48.5901C125.268 48.4501 125.31 48.3381 125.394 48.2541C125.478 48.1701 125.59 48.1281 125.73 48.1281H125.793C126.185 48.1141 126.528 47.8901 126.822 47.4561C127.116 47.0221 127.34 46.3221 127.494 45.3561C127.662 44.3761 127.746 43.0811 127.746 41.4711V38.8881C127.746 38.7481 127.788 38.6361 127.872 38.5521C127.956 38.4681 128.068 38.4261 128.208 38.4261H134.256C134.396 38.4261 134.508 38.4681 134.592 38.5521C134.676 38.6361 134.718 38.7481 134.718 38.8881V48.0861H135.747C135.887 48.0861 135.999 48.1281 136.083 48.2121C136.167 48.2961 136.209 48.4081 136.209 48.5481V51.1941C136.209 51.3341 136.167 51.4461 136.083 51.5301C135.999 51.6141 135.887 51.6561 135.747 51.6561H135.39C135.25 51.6561 135.138 51.6141 135.054 51.5301C134.97 51.4461 134.928 51.3341 134.928 51.1941V49.3461H126.549V51.1941C126.549 51.3341 126.507 51.4461 126.423 51.5301C126.339 51.6141 126.227 51.6561 126.087 51.6561H125.73ZM127.641 48.1281L133.437 48.0861V39.6441H129.027V41.6181C129.027 43.2981 128.908 44.6631 128.67 45.7131C128.432 46.7631 128.089 47.5681 127.641 48.1281Z" fill="#62500F"/>
<path d="M139.069 49.3461C138.957 49.3461 138.859 49.3041 138.775 49.2201C138.691 49.1361 138.649 49.0381 138.649 48.9261V38.8881C138.649 38.7481 138.691 38.6361 138.775 38.5521C138.859 38.4681 138.971 38.4261 139.111 38.4261H139.468C139.608 38.4261 139.72 38.4681 139.804 38.5521C139.888 38.6361 139.93 38.7481 139.93 38.8881V48.3171L139.552 47.7081L146.398 38.7411C146.468 38.6571 146.538 38.5871 146.608 38.5311C146.692 38.4611 146.804 38.4261 146.944 38.4261H147.343C147.455 38.4261 147.553 38.4681 147.637 38.5521C147.721 38.6221 147.763 38.7131 147.763 38.8251V48.8841C147.763 49.0241 147.721 49.1361 147.637 49.2201C147.553 49.3041 147.441 49.3461 147.301 49.3461H146.944C146.804 49.3461 146.692 49.3041 146.608 49.2201C146.524 49.1361 146.482 49.0241 146.482 48.8841V40.0851L146.923 39.9801L140.014 49.0311C139.958 49.1011 139.888 49.1711 139.804 49.2411C139.72 49.3111 139.608 49.3461 139.468 49.3461H139.069Z" fill="#62500F"/>
<path d="M158.005 49.3461C157.865 49.3461 157.753 49.3041 157.669 49.2201C157.585 49.1361 157.543 49.0241 157.543 48.8841V44.6001C157.151 44.9921 156.675 45.2791 156.115 45.4611C155.555 45.6291 154.911 45.7131 154.183 45.7131C152.993 45.7131 152.062 45.4681 151.39 44.9781C150.732 44.4881 150.403 43.6901 150.403 42.5841V38.8881C150.403 38.7481 150.445 38.6361 150.529 38.5521C150.613 38.4681 150.725 38.4261 150.865 38.4261H151.222C151.362 38.4261 151.474 38.4681 151.558 38.5521C151.642 38.6361 151.684 38.7481 151.684 38.8881V42.4791C151.684 43.1651 151.894 43.6761 152.314 44.0121C152.748 44.3341 153.399 44.4951 154.267 44.4951C155.261 44.4951 156.052 44.3761 156.64 44.1381C157.242 43.9001 157.543 43.4591 157.543 42.8151V38.8881C157.543 38.7481 157.585 38.6361 157.669 38.5521C157.753 38.4681 157.865 38.4261 158.005 38.4261H158.362C158.502 38.4261 158.614 38.4681 158.698 38.5521C158.782 38.6361 158.824 38.7481 158.824 38.8881V48.8841C158.824 49.0241 158.782 49.1361 158.698 49.2201C158.614 49.3041 158.502 49.3461 158.362 49.3461H158.005Z" fill="#62500F"/>
<path d="M162.695 49.3461C162.555 49.3461 162.443 49.3041 162.359 49.2201C162.275 49.1361 162.233 49.0241 162.233 48.8841V38.8881C162.233 38.7481 162.275 38.6361 162.359 38.5521C162.443 38.4681 162.555 38.4261 162.695 38.4261H163.052C163.192 38.4261 163.304 38.4681 163.388 38.5521C163.472 38.6361 163.514 38.7481 163.514 38.8881V43.1511H170.066V38.8881C170.066 38.7481 170.108 38.6361 170.192 38.5521C170.276 38.4681 170.388 38.4261 170.528 38.4261H170.885C171.025 38.4261 171.137 38.4681 171.221 38.5521C171.305 38.6361 171.347 38.7481 171.347 38.8881V48.8841C171.347 49.0241 171.305 49.1361 171.221 49.2201C171.137 49.3041 171.025 49.3461 170.885 49.3461H170.528C170.388 49.3461 170.276 49.3041 170.192 49.2201C170.108 49.1361 170.066 49.0241 170.066 48.8841V44.3691H163.514V48.8841C163.514 49.0241 163.472 49.1361 163.388 49.2201C163.304 49.3041 163.192 49.3461 163.052 49.3461H162.695Z" fill="#62500F"/>
<path d="M175.163 49.3461C175.051 49.3461 174.953 49.3041 174.869 49.2201C174.785 49.1361 174.743 49.0381 174.743 48.9261V38.8881C174.743 38.7481 174.785 38.6361 174.869 38.5521C174.953 38.4681 175.065 38.4261 175.205 38.4261H175.562C175.702 38.4261 175.814 38.4681 175.898 38.5521C175.982 38.6361 176.024 38.7481 176.024 38.8881V48.3171L175.646 47.7081L182.492 38.7411C182.562 38.6571 182.632 38.5871 182.702 38.5311C182.786 38.4611 182.898 38.4261 183.038 38.4261H183.437C183.549 38.4261 183.647 38.4681 183.731 38.5521C183.815 38.6221 183.857 38.7131 183.857 38.8251V48.8841C183.857 49.0241 183.815 49.1361 183.731 49.2201C183.647 49.3041 183.535 49.3461 183.395 49.3461H183.038C182.898 49.3461 182.786 49.3041 182.702 49.2201C182.618 49.1361 182.576 49.0241 182.576 48.8841V40.0851L183.017 39.9801L176.108 49.0311C176.052 49.1011 175.982 49.1711 175.898 49.2411C175.814 49.3111 175.702 49.3461 175.562 49.3461H175.163Z" fill="#62500F"/>
<path d="M187.672 49.3461C187.56 49.3461 187.462 49.3041 187.378 49.2201C187.294 49.1361 187.252 49.0381 187.252 48.9261V38.8881C187.252 38.7481 187.294 38.6361 187.378 38.5521C187.462 38.4681 187.574 38.4261 187.714 38.4261H188.071C188.211 38.4261 188.323 38.4681 188.407 38.5521C188.491 38.6361 188.533 38.7481 188.533 38.8881V48.3171L188.155 47.7081L195.001 38.7411C195.071 38.6571 195.141 38.5871 195.211 38.5311C195.295 38.4611 195.407 38.4261 195.547 38.4261H195.946C196.058 38.4261 196.156 38.4681 196.24 38.5521C196.324 38.6221 196.366 38.7131 196.366 38.8251V48.8841C196.366 49.0241 196.324 49.1361 196.24 49.2201C196.156 49.3041 196.044 49.3461 195.904 49.3461H195.547C195.407 49.3461 195.295 49.3041 195.211 49.2201C195.127 49.1361 195.085 49.0241 195.085 48.8841V40.0851L195.526 39.9801L188.617 49.0311C188.561 49.1011 188.491 49.1711 188.407 49.2411C188.323 49.3111 188.211 49.3461 188.071 49.3461H187.672ZM191.809 36.9561C191.025 36.9561 190.416 36.8371 189.982 36.5991C189.562 36.3611 189.268 36.0531 189.1 35.6751C188.946 35.2971 188.869 34.9121 188.869 34.5201C188.869 34.4081 188.904 34.3171 188.974 34.2471C189.044 34.1631 189.142 34.1211 189.268 34.1211H189.583C189.709 34.1211 189.807 34.1631 189.877 34.2471C189.947 34.3171 189.982 34.4081 189.982 34.5201C189.982 34.8561 190.101 35.1711 190.339 35.4651C190.591 35.7591 191.081 35.9061 191.809 35.9061C192.551 35.9061 193.041 35.7591 193.279 35.4651C193.517 35.1711 193.636 34.8561 193.636 34.5201C193.636 34.4081 193.671 34.3171 193.741 34.2471C193.811 34.1631 193.909 34.1211 194.035 34.1211H194.35C194.476 34.1211 194.574 34.1631 194.644 34.2471C194.714 34.3171 194.749 34.4081 194.749 34.5201C194.749 34.9121 194.665 35.2971 194.497 35.6751C194.343 36.0531 194.049 36.3611 193.615 36.5991C193.195 36.8371 192.593 36.9561 191.809 36.9561Z" fill="#62500F"/>
<path d="M214.542 52.0761C214.402 52.0761 214.29 52.0341 214.206 51.9501C214.122 51.8661 214.08 51.7541 214.08 51.6141V49.3461H205.638C205.498 49.3461 205.386 49.3041 205.302 49.2201C205.218 49.1361 205.176 49.0241 205.176 48.8841V38.8881C205.176 38.7481 205.218 38.6361 205.302 38.5521C205.386 38.4681 205.498 38.4261 205.638 38.4261H205.995C206.135 38.4261 206.247 38.4681 206.331 38.5521C206.415 38.6361 206.457 38.7481 206.457 38.8881V48.1281H212.589V38.8881C212.589 38.7481 212.631 38.6361 212.715 38.5521C212.799 38.4681 212.911 38.4261 213.051 38.4261H213.408C213.548 38.4261 213.66 38.4681 213.744 38.5521C213.828 38.6361 213.87 38.7481 213.87 38.8881L213.849 48.1281H214.899C215.039 48.1281 215.151 48.1701 215.235 48.2541C215.319 48.3381 215.361 48.4501 215.361 48.5901V51.6141C215.361 51.7541 215.319 51.8661 215.235 51.9501C215.151 52.0341 215.039 52.0761 214.899 52.0761H214.542Z" fill="#62500F"/>
<path d="M221.842 49.5561C220.484 49.5561 219.406 49.1151 218.608 48.2331C217.81 47.3371 217.355 46.1681 217.243 44.7261C217.229 44.5161 217.222 44.2361 217.222 43.8861C217.222 43.5361 217.229 43.2561 217.243 43.0461C217.313 42.0941 217.537 41.2541 217.915 40.5261C218.293 39.7981 218.811 39.2311 219.469 38.8251C220.141 38.4191 220.932 38.2161 221.842 38.2161C222.822 38.2161 223.655 38.4331 224.341 38.8671C225.027 39.3011 225.552 39.9241 225.916 40.7361C226.294 41.5481 226.483 42.5141 226.483 43.6341V43.9491C226.483 44.0891 226.434 44.2011 226.336 44.2851C226.252 44.3691 226.14 44.4111 226 44.4111H218.524C218.524 44.4111 218.524 44.4391 218.524 44.4951C218.524 44.5511 218.524 44.5931 218.524 44.6211C218.552 45.2511 218.699 45.8531 218.965 46.4271C219.231 46.9871 219.609 47.4491 220.099 47.8131C220.589 48.1631 221.17 48.3381 221.842 48.3381C222.444 48.3381 222.941 48.2471 223.333 48.0651C223.739 47.8831 224.061 47.6871 224.299 47.4771C224.537 47.2531 224.691 47.0851 224.761 46.9731C224.887 46.7911 224.985 46.6861 225.055 46.6581C225.125 46.6161 225.237 46.5951 225.391 46.5951H225.727C225.853 46.5951 225.958 46.6371 226.042 46.7211C226.14 46.7911 226.182 46.8891 226.168 47.0151C226.154 47.2111 226.042 47.4561 225.832 47.7501C225.636 48.0301 225.349 48.3101 224.971 48.5901C224.607 48.8701 224.159 49.1011 223.627 49.2831C223.095 49.4651 222.5 49.5561 221.842 49.5561ZM218.524 43.2351H225.202V43.1511C225.202 42.4511 225.069 41.8211 224.803 41.2611C224.537 40.7011 224.152 40.2601 223.648 39.9381C223.144 39.6021 222.542 39.4341 221.842 39.4341C221.142 39.4341 220.54 39.6021 220.036 39.9381C219.546 40.2601 219.168 40.7011 218.902 41.2611C218.65 41.8211 218.524 42.4511 218.524 43.1511V43.2351Z" fill="#62500F"/>
<path d="M229.714 49.3461C229.574 49.3461 229.462 49.3041 229.378 49.2201C229.294 49.1361 229.252 49.0241 229.252 48.8841V38.8881C229.252 38.7481 229.294 38.6361 229.378 38.5521C229.462 38.4681 229.574 38.4261 229.714 38.4261H230.071C230.211 38.4261 230.323 38.4681 230.407 38.5521C230.491 38.6361 230.533 38.7481 230.533 38.8881V43.1511H237.085V38.8881C237.085 38.7481 237.127 38.6361 237.211 38.5521C237.295 38.4681 237.407 38.4261 237.547 38.4261H237.904C238.044 38.4261 238.156 38.4681 238.24 38.5521C238.324 38.6361 238.366 38.7481 238.366 38.8881V48.8841C238.366 49.0241 238.324 49.1361 238.24 49.2201C238.156 49.3041 238.044 49.3461 237.904 49.3461H237.547C237.407 49.3461 237.295 49.3041 237.211 49.2201C237.127 49.1361 237.085 49.0241 237.085 48.8841V44.3691H230.533V48.8841C230.533 49.0241 230.491 49.1361 230.407 49.2201C230.323 49.3041 230.211 49.3461 230.071 49.3461H229.714Z" fill="#62500F"/>
<path d="M245.101 49.3461C244.961 49.3461 244.849 49.3041 244.765 49.2201C244.681 49.1361 244.639 49.0241 244.639 48.8841V39.6441H240.796C240.656 39.6441 240.544 39.6021 240.46 39.5181C240.376 39.4341 240.334 39.3221 240.334 39.1821V38.8881C240.334 38.7481 240.376 38.6361 240.46 38.5521C240.544 38.4681 240.656 38.4261 240.796 38.4261H249.763C249.903 38.4261 250.015 38.4681 250.099 38.5521C250.183 38.6361 250.225 38.7481 250.225 38.8881V39.1821C250.225 39.3221 250.183 39.4341 250.099 39.5181C250.015 39.6021 249.903 39.6441 249.763 39.6441H245.92V48.8841C245.92 49.0241 245.878 49.1361 245.794 49.2201C245.71 49.3041 245.598 49.3461 245.458 49.3461H245.101Z" fill="#62500F"/>
<path d="M252.684 53.3361C252.544 53.3361 252.432 53.2941 252.348 53.2101C252.264 53.1261 252.222 53.0141 252.222 52.8741V38.8881C252.222 38.7481 252.264 38.6361 252.348 38.5521C252.432 38.4681 252.544 38.4261 252.684 38.4261H253.041C253.181 38.4261 253.293 38.4681 253.377 38.5521C253.461 38.6361 253.503 38.7481 253.503 38.8881V39.8751C253.853 39.3991 254.308 39.0071 254.868 38.6991C255.442 38.3771 256.163 38.2161 257.031 38.2161C257.857 38.2161 258.55 38.3631 259.11 38.6571C259.67 38.9371 260.125 39.3151 260.475 39.7911C260.825 40.2671 261.084 40.7991 261.252 41.3871C261.42 41.9751 261.511 42.5771 261.525 43.1931C261.539 43.4031 261.546 43.6341 261.546 43.8861C261.546 44.1381 261.539 44.3691 261.525 44.5791C261.511 45.1951 261.42 45.7971 261.252 46.3851C261.084 46.9731 260.825 47.5051 260.475 47.9811C260.125 48.4571 259.67 48.8421 259.11 49.1361C258.55 49.4161 257.857 49.5561 257.031 49.5561C256.163 49.5561 255.442 49.3951 254.868 49.0731C254.308 48.7511 253.853 48.3591 253.503 47.8971V52.8741C253.503 53.0141 253.461 53.1261 253.377 53.2101C253.293 53.2941 253.181 53.3361 253.041 53.3361H252.684ZM256.905 48.3381C257.731 48.3381 258.382 48.1561 258.858 47.7921C259.334 47.4281 259.677 46.9521 259.887 46.3641C260.097 45.7761 260.216 45.1461 260.244 44.4741C260.258 44.0821 260.258 43.6901 260.244 43.2981C260.216 42.6261 260.097 41.9961 259.887 41.4081C259.677 40.8201 259.334 40.3441 258.858 39.9801C258.382 39.6161 257.731 39.4341 256.905 39.4341C256.107 39.4341 255.463 39.6231 254.973 40.0011C254.483 40.3791 254.119 40.8551 253.881 41.4291C253.657 41.9891 253.531 42.5561 253.503 43.1301C253.489 43.3401 253.482 43.6131 253.482 43.9491C253.482 44.2851 253.489 44.5581 253.503 44.7681C253.517 45.3281 253.643 45.8811 253.881 46.4271C254.133 46.9731 254.504 47.4281 254.994 47.7921C255.498 48.1561 256.135 48.3381 256.905 48.3381Z" fill="#62500F"/>
<line opacity="0.3" x1="97" y1="28.6394" x2="261" y2="28.6394" stroke="#62500F" stroke-width="0.721277"/>
<line opacity="0.3" x1="87.3565" y1="4" x2="87.3565" y2="49" stroke="#62500F" stroke-width="0.71309"/>
</svg>
