<svg width="164" height="69" viewBox="0 0 164 69" fill="none" xmlns="http://www.w3.org/2000/svg">
<path fill-rule="evenodd" clip-rule="evenodd" d="M21.6176 8.00491C17.6455 11.1366 14.4895 15.1535 12.4113 19.7228L11.4119 19.2837C13.5612 14.5583 16.8249 10.4042 20.9327 7.16556C25.0405 3.92691 29.8742 1.69688 35.0334 0.660178C40.1927 -0.376525 45.529 -0.19006 50.6003 1.20412C55.6716 2.59831 60.332 5.16009 64.1955 8.67728L64.1954 9.91598C60.4596 6.51494 55.2093 3.5885 50.3054 2.24035C45.4016 0.892214 40.2415 0.711909 35.2527 1.71437C30.2638 2.71684 25.5898 4.87322 21.6176 8.00491Z" fill="#5D5955"/>
<path fill-rule="evenodd" clip-rule="evenodd" d="M22.159 56.7426C18.1868 53.6109 15.0309 49.594 12.9527 45.0247L11.9533 45.4639C14.1026 50.1893 17.3663 54.3433 21.4741 57.582C25.5819 60.8206 30.4156 63.0506 35.5748 64.0873C40.7341 65.124 46.0703 64.9376 51.1417 63.5434C56.213 62.1492 60.1296 59.9908 63.9931 56.4736V55.2808C60.2572 58.6818 55.7507 61.159 50.8468 62.5072C45.943 63.8553 40.7829 64.0356 35.7941 63.0331C30.8052 62.0307 26.1311 59.8743 22.159 56.7426Z" fill="#5D5955"/>
<path d="M18.6184 38.9569C18.6763 38.9569 18.7052 39.0119 18.7052 39.1217C18.7052 39.2316 18.6763 39.2865 18.6184 39.2865H15.3768L14.248 39.314C13.9779 39.314 13.7463 39.259 13.5534 39.1492C13.3604 39.0393 13.1385 38.8379 12.8877 38.5449C12.6368 38.252 12.1737 37.6752 11.4984 36.8146L10.3117 35.3039L6.59827 30.6898C6.45387 30.5104 6.38166 30.4207 6.28224 30.4151C6.18281 30.4095 6.10069 30.4906 5.93644 30.6527L5.69427 30.8917C5.63051 30.9546 5.59863 30.9861 5.58184 31.026C5.56505 31.066 5.56505 31.1104 5.56505 31.1992V37.0618C5.56505 37.6294 5.61329 38.0414 5.70977 38.2977C5.80624 38.5541 5.9992 38.728 6.28863 38.8196C6.59736 38.9111 7.07974 38.9569 7.73579 38.9569C7.81297 38.9569 7.85156 39.0119 7.85156 39.1217C7.85156 39.2316 7.81297 39.2865 7.73579 39.2865C7.11833 39.2865 6.6263 39.2774 6.25969 39.259L4.14684 39.2316L2.09187 39.259C1.72526 39.2774 1.21393 39.2865 0.557886 39.2865C0.519295 39.2865 0.5 39.2316 0.5 39.1217C0.5 39.0119 0.519295 38.9569 0.557886 38.9569C1.21393 38.9569 1.68667 38.9111 1.9761 38.8196C2.28483 38.728 2.49708 38.5541 2.61285 38.2977C2.72862 38.0231 2.78651 37.6111 2.78651 37.0618V24.345C2.78651 23.7957 2.72862 23.3928 2.61285 23.1365C2.51637 22.8801 2.31377 22.7062 2.00504 22.6146C1.69632 22.5048 1.22358 22.4498 0.586829 22.4498C0.548239 22.4498 0.528943 22.3949 0.528943 22.285C0.528943 22.1752 0.548239 22.1202 0.586829 22.1202L2.12082 22.1477C2.96982 22.1843 3.64516 22.2026 4.14684 22.2026C4.7257 22.2026 5.43963 22.1843 6.28863 22.1477L7.73579 22.1202C7.79367 22.1202 7.82262 22.1752 7.82262 22.285C7.82262 22.3949 7.79367 22.4498 7.73579 22.4498C7.09904 22.4498 6.6263 22.5048 6.31757 22.6146C6.02814 22.7245 5.82554 22.9167 5.70977 23.1914C5.61329 23.4478 5.56505 23.8506 5.56505 24.3999V29.1615C5.56505 29.6025 5.56505 29.823 5.70061 29.8792C5.83618 29.9353 5.99677 29.7814 6.31794 29.4735L11.2379 24.757C11.8361 24.1893 12.1351 23.7133 12.1351 23.3287C12.1351 23.0541 11.9808 22.8435 11.6721 22.697C11.3826 22.5322 10.9485 22.4498 10.3696 22.4498C10.331 22.4498 10.3117 22.3949 10.3117 22.285C10.3117 22.1752 10.331 22.1202 10.3696 22.1202L11.6721 22.1477C12.5211 22.1843 13.2929 22.2026 13.9875 22.2026C14.74 22.2026 15.5022 22.1843 16.274 22.1477L17.5186 22.1202C17.5765 22.1202 17.6054 22.1752 17.6054 22.285C17.6054 22.3949 17.5765 22.4498 17.5186 22.4498C16.6696 22.4498 15.7337 22.6695 14.7111 23.109C13.7077 23.5485 12.7912 24.1527 11.9615 24.9218L8.54391 28.1649C8.40739 28.2945 8.33913 28.3593 8.33318 28.4427C8.32722 28.5261 8.38562 28.5996 8.50241 28.7466L12.5114 33.7933C13.8235 35.4962 14.8076 36.7047 15.4636 37.4188C16.139 38.1146 16.6696 38.5449 17.0555 38.7097C17.4414 38.8745 17.9624 38.9569 18.6184 38.9569Z" fill="#5D5955"/>
<path d="M37.325 38.9569C37.3829 38.9569 37.4118 39.0119 37.4118 39.1217C37.4118 39.2316 37.3829 39.2865 37.325 39.2865H32.6651C32.2213 39.2865 31.3916 38.5266 30.176 37.0068C29.0164 35.516 27.6031 33.4574 25.9359 30.8312C25.86 30.7115 25.822 30.6517 25.7638 30.6243C25.7055 30.5969 25.6299 30.6059 25.4788 30.6239C25.2642 30.6494 25.0451 30.6622 24.8215 30.6622C24.405 30.6622 24.0608 30.6591 23.7887 30.6528C23.5629 30.6477 23.45 30.6451 23.3832 30.7092C23.3165 30.7733 23.3165 30.882 23.3165 31.0994V37.0618C23.3165 37.6294 23.3647 38.0414 23.4612 38.2977C23.577 38.5541 23.7796 38.728 24.069 38.8196C24.3777 38.9111 24.8601 38.9569 25.5162 38.9569C25.5547 38.9569 25.574 39.0119 25.574 39.1217C25.574 39.2316 25.5547 39.2865 25.5162 39.2865C24.8794 39.2865 24.3874 39.2774 24.0401 39.259L21.8983 39.2316L19.8144 39.259C19.4477 39.2774 18.9461 39.2865 18.3093 39.2865C18.2514 39.2865 18.2225 39.2316 18.2225 39.1217C18.2225 39.0119 18.2514 38.9569 18.3093 38.9569C18.9654 38.9569 19.4381 38.9111 19.7275 38.8196C20.0363 38.728 20.2485 38.5541 20.3643 38.2977C20.48 38.0231 20.5379 37.6111 20.5379 37.0618V24.345C20.5379 23.7957 20.48 23.3928 20.3643 23.1365C20.2678 22.8801 20.0652 22.7062 19.7565 22.6146C19.4477 22.5048 18.975 22.4498 18.3383 22.4498C18.2997 22.4498 18.2804 22.3949 18.2804 22.285C18.2804 22.1752 18.2997 22.1202 18.3383 22.1202L19.8433 22.1477C20.6923 22.1843 21.3773 22.2026 21.8983 22.2026C22.4771 22.2026 23.0849 22.1752 23.7217 22.1202C23.9532 22.1019 24.233 22.0836 24.561 22.0653C24.8891 22.047 25.246 22.0378 25.6319 22.0378C27.3492 22.0378 28.671 22.34 29.5971 22.9442C30.5233 23.5485 30.9864 24.3999 30.9864 25.4986C30.9864 26.3592 30.7163 27.174 30.176 27.943C29.7241 28.5863 29.1574 29.1271 28.4759 29.5655C28.2807 29.691 28.1831 29.7538 28.1648 29.8433C28.1466 29.9328 28.2089 30.0231 28.3334 30.2037C29.7965 32.3247 31.0281 34.0064 32.0284 35.249C33.1089 36.5491 34.064 37.4921 34.8937 38.078C35.7234 38.6639 36.5339 38.9569 37.325 38.9569ZM23.3165 29.4944C23.3165 29.6733 23.3165 29.7627 23.3732 29.8248C23.4299 29.8869 23.5169 29.8962 23.6908 29.9147C24.0722 29.9552 24.507 29.9755 24.9952 29.9755C26.1529 29.9755 26.9633 29.7283 27.4264 29.2339C27.8895 28.7395 28.121 27.8332 28.121 26.5148C28.121 25.0316 27.8605 24.0062 27.3396 23.4386C26.8186 22.8527 26.0854 22.5597 25.1399 22.5597C24.4453 22.5597 23.9629 22.6879 23.6927 22.9442C23.4419 23.2006 23.3165 23.6858 23.3165 24.3999V29.4944Z" fill="#5D5955"/>
<path d="M50.63 25.4711C50.63 24.5189 50.3985 23.7774 49.9354 23.2463C49.4916 22.7153 48.8452 22.4498 47.9962 22.4498C47.9576 22.4498 47.9383 22.3949 47.9383 22.285C47.9383 22.1752 47.9576 22.1202 47.9962 22.1202L49.3276 22.1477C50.0608 22.1843 50.6396 22.2026 51.0641 22.2026C51.4115 22.2026 51.9324 22.1843 52.6271 22.1477L53.9006 22.1202C53.9392 22.1202 53.9585 22.1752 53.9585 22.285C53.9585 22.3949 53.9392 22.4498 53.9006 22.4498C53.148 22.4498 52.5595 22.7153 52.135 23.2463C51.7298 23.7774 51.5272 24.5189 51.5272 25.4711V33.1616C51.5272 34.48 51.2282 35.6335 50.63 36.6223C50.0511 37.5928 49.2214 38.3435 48.1409 38.8745C47.0796 39.4055 45.8447 39.671 44.4362 39.671C43.0276 39.671 41.7734 39.4147 40.6735 38.902C39.5737 38.371 38.7151 37.6202 38.0976 36.6498C37.4994 35.661 37.2004 34.5074 37.2004 33.189V24.345C37.2004 23.7957 37.1425 23.3928 37.0267 23.1365C36.9109 22.8801 36.6987 22.7062 36.39 22.6146C36.1005 22.5048 35.6374 22.4498 35.0007 22.4498C34.9428 22.4498 34.9139 22.3949 34.9139 22.285C34.9139 22.1752 34.9428 22.1202 35.0007 22.1202L36.5057 22.1477C37.3547 22.1843 38.0397 22.2026 38.5607 22.2026C39.1396 22.2026 39.8535 22.1843 40.7025 22.1477L42.1496 22.1202C42.2075 22.1202 42.2365 22.1752 42.2365 22.285C42.2365 22.3949 42.2075 22.4498 42.1496 22.4498C41.5129 22.4498 41.0402 22.5048 40.7314 22.6146C40.442 22.7245 40.2394 22.9167 40.1236 23.1914C40.0079 23.4478 39.95 23.8506 39.95 24.3999V32.2277C39.95 34.4067 40.4227 36.0364 41.3682 37.1167C42.333 38.1787 43.674 38.7097 45.3913 38.7097C47.0314 38.7097 48.3145 38.2336 49.2407 37.2815C50.1669 36.311 50.63 34.9469 50.63 33.189V25.4711Z" fill="#5D5955"/>
<path d="M64.7592 39.6161C62.6367 39.6161 60.7844 39.2316 59.2021 38.4625C57.6392 37.6935 56.4429 36.6498 55.6132 35.3314C54.7835 33.9947 54.3686 32.5116 54.3686 30.8819C54.3686 29.1241 54.8414 27.5585 55.7868 26.1852C56.7516 24.7936 58.0637 23.7224 59.7231 22.9717C61.4018 22.2026 63.2831 21.8181 65.367 21.8181C66.2739 21.8181 67.1808 21.8913 68.0877 22.0378C68.9946 22.1843 69.7278 22.3857 70.2874 22.6421C70.4181 22.7041 70.5073 22.7662 70.555 22.8282C70.5668 22.8435 70.5726 22.8511 70.5765 22.8569C70.5804 22.8627 70.5867 22.8735 70.5992 22.895C70.6448 22.9733 70.6759 23.0996 70.6926 23.2738L71.0399 26.8444C71.0399 26.8993 70.9916 26.9359 70.8952 26.9543C70.7987 26.9726 70.7312 26.9451 70.6926 26.8719C70.1137 25.4986 69.2454 24.4274 68.0877 23.6583C66.93 22.8893 65.5696 22.5048 64.0067 22.5048C61.8842 22.5048 60.2537 23.1639 59.1153 24.4823C57.9769 25.7824 57.4077 27.5768 57.4077 29.8657C57.4077 31.6601 57.755 33.2623 58.4496 34.6722C59.1443 36.0821 60.0994 37.1808 61.315 37.9681C62.5499 38.7555 63.9295 39.1492 65.4539 39.1492C66.3029 39.1492 66.9589 39.0668 67.422 38.902C67.8851 38.7372 68.2228 38.4168 68.435 37.9407C68.6666 37.4646 68.7823 36.7596 68.7823 35.8258C68.7823 34.8736 68.7244 34.2144 68.6087 33.8482C68.4929 33.4637 68.2324 33.2074 67.8272 33.0792C67.4413 32.951 66.7563 32.8869 65.7722 32.8869C65.6565 32.8869 65.5986 32.8137 65.5986 32.6672C65.5986 32.6123 65.6082 32.5665 65.6275 32.5299C65.6661 32.4749 65.7047 32.4475 65.7433 32.4475C67.3448 32.539 68.628 32.5848 69.5927 32.5848C70.5575 32.5848 71.5609 32.5573 72.6028 32.5024C72.6108 32.5024 72.6184 32.5036 72.6256 32.5059C72.6428 32.5116 72.6514 32.5144 72.6905 32.5576C72.7297 32.6008 72.7348 32.6246 72.7451 32.6721C72.7467 32.6796 72.7475 32.6871 72.7475 32.6947C72.7475 32.8228 72.6993 32.8869 72.6028 32.8869C72.2169 32.8686 71.9468 32.9327 71.7924 33.0792C71.638 33.2074 71.5319 33.482 71.474 33.9032C71.4354 34.3243 71.4162 35.0567 71.4162 36.1005C71.4162 36.9244 71.4451 37.5104 71.503 37.8583C71.5802 38.2062 71.6188 38.4259 71.6188 38.5175C71.6188 38.6273 71.5898 38.7006 71.5319 38.7372C71.497 38.7538 71.4226 38.7853 71.3086 38.8319C71.2902 38.8394 71.281 38.8432 71.2713 38.8462C71.2615 38.8491 71.2517 38.8512 71.232 38.8554C68.8167 39.3625 66.6591 39.6161 64.7592 39.6161Z" fill="#5D5955"/>
<path d="M78.154 36.9519C78.154 37.4463 78.1926 37.8033 78.2698 38.0231C78.3663 38.2428 78.5399 38.3893 78.7908 38.4625C79.0416 38.5358 79.4468 38.5724 80.0064 38.5724H81.743C83.113 38.5724 84.2707 38.2153 85.2161 37.5012C86.1616 36.7688 86.7887 35.7892 87.0975 34.5623C87.1138 34.5159 87.1577 34.4956 87.2291 34.5016C87.2439 34.5028 87.2553 34.5037 87.2629 34.5044C87.2705 34.505 87.278 34.5057 87.2856 34.5065C87.2922 34.5072 87.3016 34.5082 87.3135 34.5095C87.3817 34.5168 87.4158 34.5436 87.4158 34.5898C87.2422 36.311 87.1553 37.7393 87.1553 38.8745C87.1553 39.0049 87.1324 39.1062 87.0866 39.1786C87.0829 39.1845 87.081 39.1874 87.0648 39.2039C87.0485 39.2205 87.047 39.2215 87.0439 39.2236C86.9805 39.2655 86.873 39.2865 86.7212 39.2865H73.1758C73.1372 39.2865 73.1179 39.2316 73.1179 39.1217C73.1179 39.0119 73.1372 38.9569 73.1758 38.9569C73.8319 38.9569 74.3046 38.9111 74.594 38.8196C74.9027 38.728 75.1054 38.5541 75.2018 38.2977C75.3176 38.0231 75.3755 37.6111 75.3755 37.0618V24.345C75.3755 23.7957 75.3176 23.3928 75.2018 23.1365C75.1054 22.8801 74.9027 22.7062 74.594 22.6146C74.2853 22.5048 73.8126 22.4498 73.1758 22.4498C73.1372 22.4498 73.1179 22.3949 73.1179 22.285C73.1179 22.1752 73.1372 22.1202 73.1758 22.1202L74.6519 22.1477C75.5009 22.1843 76.1955 22.2026 76.7358 22.2026C77.3147 22.2026 78.0286 22.1843 78.8776 22.1477L80.3248 22.1202C80.3826 22.1202 80.4116 22.1752 80.4116 22.285C80.4116 22.3949 80.3826 22.4498 80.3248 22.4498C79.688 22.4498 79.2153 22.5048 78.9065 22.6146C78.6171 22.7062 78.4145 22.8893 78.2987 23.1639C78.2023 23.4203 78.154 23.8231 78.154 24.3724V36.9519Z" fill="#5D5955"/>
<path d="M97.0544 39.6161C95.2599 39.6161 93.6584 39.2224 92.2498 38.4351C90.8605 37.6294 89.78 36.5491 89.0082 35.1941C88.2556 33.8208 87.8794 32.3284 87.8794 30.7171C87.8794 28.8311 88.3811 27.2198 89.3844 25.8831C90.3878 24.5281 91.6709 23.5118 93.2339 22.8343C94.8161 22.1569 96.4273 21.8181 98.0674 21.8181C99.9004 21.8181 101.512 22.2301 102.901 23.0541C104.29 23.8597 105.351 24.9309 106.085 26.2676C106.837 27.6043 107.213 29.0234 107.213 30.5248C107.213 32.1911 106.75 33.7201 105.824 35.1117C104.898 36.5033 103.653 37.6019 102.09 38.4076C100.547 39.2133 98.8681 39.6161 97.0544 39.6161ZM98.0384 38.9569C99.1962 38.9569 100.228 38.6639 101.135 38.078C102.062 37.4738 102.785 36.5948 103.306 35.4413C103.846 34.2877 104.116 32.9144 104.116 31.3214C104.116 29.6368 103.817 28.1261 103.219 26.7895C102.64 25.4528 101.801 24.4091 100.701 23.6583C99.6207 22.9076 98.3472 22.5322 96.8807 22.5322C95.009 22.5322 93.5522 23.1731 92.5103 24.4548C91.4876 25.7183 90.9763 27.4761 90.9763 29.7283C90.9763 31.4678 91.2754 33.0426 91.8735 34.4525C92.491 35.8624 93.3303 36.9702 94.3916 37.7759C95.4721 38.5632 96.6877 38.9569 98.0384 38.9569Z" fill="#5D5955"/>
<path d="M125.771 22.1202C125.829 22.1202 125.858 22.1752 125.858 22.285C125.858 22.3949 125.829 22.4498 125.771 22.4498C125.077 22.4498 124.44 22.697 123.861 23.1914C123.282 23.6858 122.81 24.3999 122.443 25.3338L116.828 39.259C116.809 39.3323 116.703 39.3689 116.51 39.3689C116.353 39.3689 116.254 39.3449 116.212 39.2969C116.208 39.2927 116.217 39.3032 116.209 39.2912C116.201 39.2792 116.191 39.2595 116.172 39.2201L108.869 24.3999C108.521 23.7224 108.174 23.228 107.827 22.9167C107.479 22.6055 107.064 22.4498 106.582 22.4498C106.524 22.4498 106.495 22.3949 106.495 22.285C106.495 22.1752 106.524 22.1202 106.582 22.1202L107.335 22.1477C107.759 22.1843 108.241 22.2026 108.782 22.2026C110.132 22.2026 111.348 22.1843 112.429 22.1477C112.737 22.1294 113.133 22.1202 113.615 22.1202C113.673 22.1202 113.702 22.1752 113.702 22.285C113.702 22.3949 113.673 22.4498 113.615 22.4498C112.4 22.4498 111.792 22.8527 111.792 23.6583C111.792 23.9696 111.888 24.3175 112.081 24.702L117.027 34.7438C117.215 35.1256 117.309 35.3166 117.453 35.3115C117.597 35.3064 117.677 35.1095 117.837 34.7155L121.69 25.2239C121.864 24.7844 121.951 24.3908 121.951 24.0429C121.951 23.5302 121.768 23.1365 121.401 22.8618C121.054 22.5872 120.523 22.4498 119.809 22.4498C119.751 22.4498 119.722 22.3949 119.722 22.285C119.722 22.1752 119.751 22.1202 119.809 22.1202L121.198 22.1477C121.932 22.1843 122.607 22.2026 123.224 22.2026C123.591 22.2026 124.044 22.1843 124.585 22.1477L125.771 22.1202Z" fill="#5D5955"/>
<path d="M72.8984 62.0336C72.2776 62.0336 71.5567 62.0064 70.7357 61.9518C70.4353 61.9336 70.0548 61.9154 69.5943 61.8972C69.1337 61.879 68.613 61.8699 68.0323 61.8699L65.8996 61.8972C65.5191 61.9154 64.9884 61.9245 64.3076 61.9245C64.2675 61.9245 64.2475 61.8699 64.2475 61.7608C64.2475 61.6517 64.2675 61.5971 64.3076 61.5971C64.9884 61.5971 65.4791 61.5516 65.7794 61.4607C66.0999 61.3697 66.3201 61.1969 66.4403 60.9423C66.5604 60.6694 66.6205 60.2602 66.6205 59.7145V47.0819C66.6205 46.5363 66.5604 46.1361 66.4403 45.8814C66.3401 45.6268 66.1299 45.454 65.8095 45.363C65.4891 45.2539 64.9985 45.1993 64.3376 45.1993C64.2976 45.1993 64.2776 45.1448 64.2776 45.0356C64.2776 44.9265 64.2976 44.8719 64.3376 44.8719L65.9296 44.8992C66.8108 44.9356 67.5116 44.9538 68.0323 44.9538C68.8333 44.9538 69.6443 44.9265 70.4653 44.8719C71.4666 44.8355 72.1375 44.8173 72.4779 44.8173C74.5205 44.8173 76.3327 45.1811 77.9147 45.9087C79.4967 46.6363 80.7183 47.6276 81.5793 48.8827C82.4605 50.1378 82.901 51.5474 82.901 53.1117C82.901 54.8761 82.4504 56.4404 81.5493 57.8046C80.6482 59.1506 79.4367 60.1965 77.9147 60.9423C76.3928 61.6699 74.7207 62.0336 72.8984 62.0336ZM72.598 61.488C73.9798 61.488 75.2013 61.1878 76.2626 60.5876C77.344 59.9873 78.1851 59.1051 78.7858 57.941C79.3866 56.7587 79.687 55.349 79.687 53.712C79.687 52.1477 79.3966 50.738 78.8159 49.4829C78.2552 48.2097 77.4541 47.2093 76.4128 46.4817C75.3715 45.7359 74.16 45.363 72.7783 45.363C71.9372 45.363 71.2864 45.4085 70.8258 45.4995C70.3652 45.5904 70.0248 45.7632 69.8045 46.0178C69.6043 46.2543 69.5041 46.6272 69.5041 47.1365V59.4144C69.5041 60.1601 69.7144 60.6967 70.1349 61.0241C70.5555 61.3334 71.3765 61.488 72.598 61.488Z" fill="#5D5955"/>
<path d="M97.5462 57.7298C97.5548 57.7026 97.5591 57.689 97.5961 57.6515C97.6331 57.614 97.5863 57.6298 97.605 57.6235C97.6246 57.6169 97.6514 57.6136 97.6855 57.6136C97.7077 57.6136 97.7286 57.6161 97.7481 57.6211C97.8121 57.6375 97.8441 57.6457 97.8804 57.6737C97.9167 57.7017 97.9189 57.7057 97.9233 57.7137C97.9263 57.7192 97.9253 57.7259 97.9244 57.7322C97.7251 59.1109 97.6254 60.3719 97.6254 61.5153C97.6254 61.6448 97.6016 61.7455 97.554 61.8174C97.5501 61.8232 97.5482 61.8262 97.5317 61.8423C97.5153 61.8585 97.5136 61.8595 97.5102 61.8617C97.4445 61.9036 97.3327 61.9245 97.1748 61.9245H84.1384C84.0784 61.9245 84.0483 61.8699 84.0483 61.7608C84.0483 61.6517 84.0784 61.5971 84.1384 61.5971C84.8193 61.5971 85.3099 61.5516 85.6103 61.4607C85.9307 61.3697 86.1409 61.1969 86.2411 60.9423C86.3612 60.6694 86.4213 60.2602 86.4213 59.7145V47.0819C86.4213 46.5363 86.3612 46.1361 86.2411 45.8814C86.1409 45.6268 85.9307 45.454 85.6103 45.363C85.2899 45.2539 84.7993 45.1993 84.1384 45.1993C84.0784 45.1993 84.0483 45.1448 84.0483 45.0356C84.0483 44.9265 84.0784 44.8719 84.1384 44.8719H96.6342C96.8344 44.8719 96.9345 44.9538 96.9345 45.1175L96.9946 48.6644C96.9946 48.7008 96.9345 48.7281 96.8144 48.7463C96.7143 48.7645 96.6542 48.7463 96.6342 48.6917C96.1535 46.6181 94.7618 45.5813 92.4589 45.5813H91.2574C90.5365 45.5813 90.0258 45.6995 89.7255 45.936C89.4251 46.1725 89.2749 46.5726 89.2749 47.1365V52.2667C89.2749 52.4721 89.2749 52.5748 89.3398 52.6386C89.4047 52.7025 89.5092 52.7025 89.7182 52.7025H92.1585C94.3613 52.7025 95.4627 52.0295 95.4627 50.6834C95.4627 50.6289 95.5127 50.6016 95.6129 50.6016C95.733 50.6016 95.7931 50.6289 95.7931 50.6834L95.7631 53.0572L95.7931 54.3395C95.8332 54.9216 95.8532 55.3945 95.8532 55.7583C95.8532 55.7947 95.7931 55.8129 95.673 55.8129C95.5528 55.8129 95.4927 55.7947 95.4927 55.7583C95.4927 54.194 94.3713 53.4119 92.1285 53.4119H89.7182C89.5092 53.4119 89.4047 53.4119 89.3398 53.4757C89.2749 53.5395 89.2749 53.6422 89.2749 53.8476V59.6054C89.2749 60.2056 89.3951 60.624 89.6354 60.8604C89.8957 61.0969 90.3462 61.2151 90.9871 61.2151H92.4589C95.1189 61.2151 96.8147 60.0533 97.5462 57.7298Z" fill="#5D5955"/>
<path d="M102.728 47.764C102.728 48.437 102.908 49.0373 103.269 49.5648C103.649 50.0741 104.11 50.5197 104.651 50.9017C105.211 51.2837 105.962 51.7384 106.903 52.2659C107.925 52.848 108.726 53.3482 109.306 53.7666C109.907 54.1849 110.408 54.7033 110.808 55.3217C111.229 55.922 111.439 56.6314 111.439 57.4499C111.439 58.3776 111.169 59.2052 110.628 59.9328C110.107 60.6603 109.356 61.2333 108.375 61.6517C107.414 62.0518 106.313 62.2519 105.071 62.2519C104.23 62.2519 103.359 62.1519 102.458 61.9518C101.577 61.7517 100.906 61.5062 100.445 61.2151C100.265 61.106 100.165 60.9332 100.145 60.6967L99.9646 56.5495V56.5223C99.9646 56.4601 100.001 56.4245 100.074 56.4154C100.098 56.4125 100.11 56.411 100.113 56.4107C100.117 56.4104 100.13 56.4096 100.155 56.4081C100.218 56.4044 100.261 56.4237 100.284 56.4661C100.29 56.4786 100.274 56.4472 100.275 56.4508C100.277 56.4545 100.287 56.4775 100.308 56.5235C100.965 58.0203 101.712 59.2477 102.548 60.2056C103.409 61.1697 104.5 61.6517 105.822 61.6517C106.683 61.6517 107.404 61.4425 107.985 61.0241C108.565 60.5876 108.856 59.8691 108.856 58.8687C108.856 58.0684 108.656 57.3681 108.255 56.7678C107.875 56.1676 107.394 55.6673 106.813 55.2672C106.253 54.867 105.482 54.3759 104.5 53.7938C103.539 53.23 102.788 52.757 102.247 52.3751C101.707 51.9749 101.246 51.4929 100.866 50.929C100.485 50.3469 100.295 49.6739 100.295 48.91C100.295 47.9641 100.585 47.1638 101.166 46.509C101.747 45.8541 102.498 45.3721 103.419 45.0629C104.36 44.7355 105.341 44.5718 106.363 44.5718C107.044 44.5718 107.724 44.6355 108.405 44.7628C109.086 44.8719 109.657 45.0174 110.117 45.1993C110.298 45.2539 110.418 45.3267 110.478 45.4176C110.538 45.4904 110.568 45.5904 110.568 45.7177L110.658 49.4284C110.658 49.4829 110.598 49.5284 110.478 49.5648C110.378 49.583 110.318 49.5557 110.298 49.4829C109.897 48.3734 109.356 47.373 108.676 46.4817C108.015 45.5722 107.013 45.1175 105.672 45.1175C104.771 45.1175 104.05 45.3539 103.509 45.8269C102.988 46.2998 102.728 46.9455 102.728 47.764Z" fill="#5D5955"/>
<path d="M118.072 59.7145C118.072 60.2784 118.123 60.6876 118.223 60.9423C118.323 61.1969 118.523 61.3697 118.823 61.4607C119.144 61.5516 119.644 61.5971 120.325 61.5971C120.385 61.5971 120.415 61.6517 120.415 61.7608C120.415 61.8699 120.385 61.9245 120.325 61.9245C119.685 61.9245 119.174 61.9154 118.793 61.8972L116.571 61.8699L114.408 61.8972C114.027 61.9154 113.507 61.9245 112.846 61.9245C112.786 61.9245 112.756 61.8699 112.756 61.7608C112.756 61.6517 112.786 61.5971 112.846 61.5971C113.527 61.5971 114.017 61.5516 114.318 61.4607C114.638 61.3697 114.858 61.1969 114.979 60.9423C115.099 60.6694 115.159 60.2602 115.159 59.7145V47.0819C115.159 46.5363 115.099 46.1361 114.979 45.8814C114.858 45.6268 114.638 45.454 114.318 45.363C114.017 45.2539 113.527 45.1993 112.846 45.1993C112.786 45.1993 112.756 45.1448 112.756 45.0356C112.756 44.9265 112.786 44.8719 112.846 44.8719L114.408 44.8992C115.289 44.9356 116.01 44.9538 116.571 44.9538C117.191 44.9538 117.942 44.9356 118.823 44.8992L120.325 44.8719C120.385 44.8719 120.415 44.9265 120.415 45.0356C120.415 45.1448 120.385 45.1993 120.325 45.1993C119.664 45.1993 119.174 45.2539 118.853 45.363C118.553 45.4722 118.343 45.6632 118.223 45.936C118.123 46.1907 118.072 46.5908 118.072 47.1365V59.7145Z" fill="#5D5955"/>
<path d="M132.457 62.2519C130.254 62.2519 128.331 61.8699 126.689 61.106C125.067 60.342 123.826 59.3052 122.965 57.9956C122.104 56.6678 121.673 55.1944 121.673 53.5756C121.673 51.8294 122.164 50.2742 123.145 48.91C124.146 47.5276 125.508 46.4635 127.23 45.7177C128.972 44.9538 130.925 44.5718 133.087 44.5718C134.029 44.5718 134.97 44.6446 135.911 44.7901C136.852 44.9356 137.613 45.1357 138.194 45.3903C138.329 45.4518 138.422 45.5133 138.471 45.5748C138.484 45.5901 138.49 45.5977 138.494 45.6037C138.498 45.6096 138.505 45.6204 138.518 45.6419C138.565 45.7198 138.597 45.8451 138.614 46.0178L138.975 49.5648C138.975 49.6194 138.925 49.6557 138.825 49.6739C138.725 49.6921 138.654 49.6648 138.614 49.5921C138.014 48.2279 137.112 47.1638 135.911 46.3998C134.709 45.6359 133.298 45.2539 131.676 45.2539C129.473 45.2539 127.781 45.9087 126.599 47.2184C125.418 48.5098 124.827 50.2924 124.827 52.566C124.827 54.3486 125.187 55.9402 125.908 57.3408C126.629 58.7414 127.621 59.8327 128.882 60.6149C130.164 61.397 131.596 61.7881 133.178 61.7881C134.059 61.7881 134.739 61.7062 135.22 61.5425C135.701 61.3788 136.051 61.0605 136.271 60.5876C136.512 60.1147 136.632 59.4144 136.632 58.4867C136.632 57.5409 136.572 56.886 136.452 56.5223C136.331 56.1403 136.061 55.8856 135.641 55.7583C135.24 55.631 134.529 55.5673 133.508 55.5673C133.388 55.5673 133.328 55.4945 133.328 55.349C133.328 55.2945 133.338 55.249 133.358 55.2126C133.398 55.158 133.438 55.1308 133.478 55.1308C135.14 55.2217 136.472 55.2672 137.473 55.2672C138.474 55.2672 139.516 55.2399 140.597 55.1853C140.605 55.1853 140.613 55.1864 140.62 55.1886C140.639 55.1945 140.649 55.1974 140.689 55.2412C140.73 55.2851 140.735 55.3084 140.745 55.3551C140.746 55.3622 140.747 55.3692 140.747 55.3763C140.747 55.5036 140.697 55.5673 140.597 55.5673C140.196 55.5491 139.916 55.6128 139.756 55.7583C139.596 55.8856 139.485 56.1585 139.425 56.5768C139.385 56.9952 139.365 57.7227 139.365 58.7595C139.365 59.5781 139.395 60.1601 139.455 60.5057C139.536 60.8513 139.576 61.0696 139.576 61.1606C139.576 61.2697 139.546 61.3424 139.485 61.3788C139.449 61.3954 139.371 61.4271 139.251 61.4739C139.233 61.4809 139.224 61.4844 139.215 61.4871C139.206 61.4899 139.196 61.4918 139.177 61.4957C136.669 61.9998 134.429 62.2519 132.457 62.2519Z" fill="#5D5955"/>
<path d="M161.767 44.8719C161.807 44.8719 161.827 44.9265 161.827 45.0356C161.827 45.1448 161.807 45.1993 161.767 45.1993C160.966 45.1993 160.346 45.4631 159.905 45.9906C159.465 46.4999 159.244 47.2365 159.244 48.2006V62.3065C159.244 62.3611 159.194 62.3974 159.094 62.4156C158.994 62.4338 158.924 62.4247 158.884 62.3883L145.564 48.3289C145.239 47.9864 145.077 47.8151 144.937 47.8694C144.796 47.9238 144.796 48.1578 144.796 48.6259V58.6231C144.796 59.5872 145.006 60.3238 145.427 60.8331C145.847 61.3425 146.458 61.5971 147.259 61.5971C147.299 61.5971 147.319 61.6517 147.319 61.7608C147.319 61.8699 147.299 61.9245 147.259 61.9245C146.718 61.9245 146.308 61.9154 146.028 61.8972L144.436 61.8699L142.663 61.8972C142.343 61.9154 141.882 61.9245 141.282 61.9245C141.222 61.9245 141.192 61.8699 141.192 61.7608C141.192 61.6517 141.222 61.5971 141.282 61.5971C142.143 61.5971 142.804 61.3425 143.264 60.8331C143.745 60.3238 143.985 59.5872 143.985 58.6231V46.8545C143.985 46.7641 143.985 46.719 143.967 46.678C143.949 46.6369 143.917 46.6066 143.852 46.5458C143.344 46.0674 142.877 45.7277 142.453 45.5267C142.013 45.3085 141.552 45.1993 141.071 45.1993C141.031 45.1993 141.011 45.1448 141.011 45.0356C141.011 44.9265 141.031 44.8719 141.071 44.8719L142.273 44.8992C142.533 44.9174 142.904 44.9265 143.384 44.9265L145.307 44.8992C145.547 44.881 145.837 44.8719 146.178 44.8719C146.338 44.8719 146.458 44.9083 146.538 44.9811C146.618 45.0538 146.739 45.1993 146.899 45.4176C147.239 45.836 147.489 46.127 147.65 46.2907L157.663 57.0329C157.988 57.3816 158.151 57.5559 158.292 57.5019C158.433 57.4479 158.433 57.2114 158.433 56.7385V48.2006C158.433 47.2365 158.223 46.4999 157.802 45.9906C157.382 45.4631 156.781 45.1993 156 45.1993C155.96 45.1993 155.94 45.1448 155.94 45.0356C155.94 44.9265 155.96 44.8719 156 44.8719L157.232 44.8992C157.873 44.9356 158.403 44.9538 158.824 44.9538C159.224 44.9538 159.765 44.9356 160.446 44.8992L161.767 44.8719Z" fill="#5D5955"/>
<path d="M163.608 66.6309C163.608 67.8875 162.572 68.9063 161.293 68.9063C160.015 68.9063 158.978 67.8875 158.978 66.6309C158.978 65.3742 160.015 64.3555 161.293 64.3555C162.572 64.3555 163.608 65.3742 163.608 66.6309Z" fill="#5D5955"/>
<path d="M56.5624 20.5983C55.9943 20.5983 55.4809 20.4551 55.022 20.1686C54.5687 19.8821 54.2109 19.4867 53.9487 18.9823C53.692 18.4716 53.5636 17.9018 53.5636 17.2728C53.5636 16.6438 53.692 16.0771 53.9487 15.5726C54.2109 15.062 54.5714 14.6634 55.0302 14.3769C55.4891 14.0905 56.0025 13.9472 56.5706 13.9472C56.9967 13.9472 57.39 14.0282 57.7505 14.1901C58.111 14.352 58.4169 14.5887 58.6681 14.9001L58.283 15.3391C57.8351 14.8222 57.2698 14.5638 56.587 14.5638C56.1336 14.5638 55.7212 14.6821 55.3498 14.9187C54.9783 15.1554 54.6861 15.4792 54.4731 15.8902C54.2655 16.3013 54.1617 16.7621 54.1617 17.2728C54.1617 17.7834 54.2655 18.2443 54.4731 18.6553C54.6861 19.0663 54.9783 19.3902 55.3498 19.6268C55.7212 19.8635 56.1336 19.9818 56.587 19.9818C57.2752 19.9818 57.8406 19.7202 58.283 19.1971L58.6681 19.6362C58.4169 19.9475 58.1083 20.1873 57.7423 20.3554C57.3818 20.5174 56.9885 20.5983 56.5624 20.5983Z" fill="#5D5955"/>
<path d="M63.4675 20.5423L62.1565 18.4405C62.009 18.4591 61.8561 18.4685 61.6977 18.4685H60.1573V20.5423H59.551V14.0033H61.6977C62.4296 14.0033 63.0032 14.2026 63.4183 14.6011C63.8335 14.9997 64.041 15.5477 64.041 16.2452C64.041 16.7559 63.9263 17.1887 63.6969 17.5437C63.473 17.8924 63.1507 18.1446 62.7301 18.3003L64.1312 20.5423H63.4675ZM61.6813 17.88C62.2494 17.88 62.6836 17.7367 62.9841 17.4503C63.2845 17.1638 63.4347 16.7621 63.4347 16.2452C63.4347 15.7159 63.2845 15.3111 62.9841 15.0308C62.6836 14.7444 62.2494 14.6011 61.6813 14.6011H60.1573V17.88H61.6813Z" fill="#5D5955"/>
<path d="M69.1182 19.9444V20.5423H65.0624V14.0033H68.9953V14.6011H65.6687V16.9271H68.6348V17.5157H65.6687V19.9444H69.1182Z" fill="#5D5955"/>
<path d="M73.7307 18.7954H70.5352L69.847 20.5423H69.2161L71.838 14.0033H72.4361L75.058 20.5423H74.419L73.7307 18.7954ZM73.5095 18.2349L72.133 14.7226L70.7565 18.2349H73.5095Z" fill="#5D5955"/>
<path d="M76.4234 14.6011H74.4078V14.0033H79.0453V14.6011H77.0297V20.5423H76.4234V14.6011Z" fill="#5D5955"/>
<path d="M79.6043 14.0033H80.2106V20.5423H79.6043V14.0033Z" fill="#5D5955"/>
<path d="M86.3717 14.0033L83.8317 20.5423H83.2336L80.6936 14.0033H81.3491L83.5449 19.6829L85.7572 14.0033H86.3717Z" fill="#5D5955"/>
<path d="M90.8502 19.9444V20.5423H86.7944V14.0033H90.7273V14.6011H87.4007V16.9271H90.3668V17.5157H87.4007V19.9444H90.8502Z" fill="#5D5955"/>
<path d="M97.1974 18.7954H94.0019L93.3137 20.5423H92.6828L95.3047 14.0033H95.9028L98.5248 20.5423H97.8857L97.1974 18.7954ZM96.9762 18.2349L95.5997 14.7226L94.2232 18.2349H96.9762Z" fill="#5D5955"/>
<path d="M103.023 17.2728H103.605V19.7669C103.337 20.0347 103.021 20.2402 102.655 20.3835C102.289 20.5267 101.903 20.5983 101.499 20.5983C100.926 20.5983 100.41 20.4551 99.9507 20.1686C99.4918 19.8821 99.1313 19.4867 98.8691 18.9823C98.6069 18.4716 98.4759 17.9018 98.4759 17.2728C98.4759 16.6438 98.6069 16.0771 98.8691 15.5726C99.1313 15.062 99.4918 14.6634 99.9507 14.3769C100.41 14.0905 100.928 13.9472 101.507 13.9472C101.944 13.9472 102.346 14.0282 102.712 14.1901C103.078 14.3458 103.386 14.5793 103.638 14.8907L103.261 15.3298C102.807 14.8191 102.231 14.5638 101.532 14.5638C101.068 14.5638 100.647 14.6821 100.27 14.9187C99.8988 15.1492 99.6066 15.473 99.3935 15.8902C99.1805 16.3013 99.074 16.7621 99.074 17.2728C99.074 17.7834 99.1805 18.2443 99.3935 18.6553C99.6066 19.0663 99.8988 19.3902 100.27 19.6268C100.642 19.8635 101.06 19.9818 101.524 19.9818C102.114 19.9818 102.614 19.8136 103.023 19.4774V17.2728Z" fill="#5D5955"/>
<path d="M108.967 19.9444V20.5423H104.911V14.0033H108.844V14.6011H105.518V16.9271H108.484V17.5157H105.518V19.9444H108.967Z" fill="#5D5955"/>
<path d="M114.776 14.0033V20.5423H114.276L110.589 15.2363V20.5423H109.983V14.0033H110.482L114.178 19.3092V14.0033H114.776Z" fill="#5D5955"/>
<path d="M118.729 20.5983C118.161 20.5983 117.648 20.4551 117.189 20.1686C116.735 19.8821 116.378 19.4867 116.115 18.9823C115.859 18.4716 115.73 17.9018 115.73 17.2728C115.73 16.6438 115.859 16.0771 116.115 15.5726C116.378 15.062 116.738 14.6634 117.197 14.3769C117.656 14.0905 118.169 13.9472 118.737 13.9472C119.163 13.9472 119.557 14.0282 119.917 14.1901C120.278 14.352 120.584 14.5887 120.835 14.9001L120.45 15.3391C120.002 14.8222 119.436 14.5638 118.754 14.5638C118.3 14.5638 117.888 14.6821 117.516 14.9187C117.145 15.1554 116.853 15.4792 116.64 15.8902C116.432 16.3013 116.328 16.7621 116.328 17.2728C116.328 17.7834 116.432 18.2443 116.64 18.6553C116.853 19.0663 117.145 19.3902 117.516 19.6268C117.888 19.8635 118.3 19.9818 118.754 19.9818C119.442 19.9818 120.007 19.7202 120.45 19.1971L120.835 19.6362C120.584 19.9475 120.275 20.1873 119.909 20.3554C119.548 20.5174 119.155 20.5983 118.729 20.5983Z" fill="#5D5955"/>
<path d="M123.564 18.2817V20.5423H122.966V18.2817L120.672 14.0033H121.319L123.285 17.6745L125.252 14.0033H125.858L123.564 18.2817Z" fill="#5D5955"/>
</svg>
