<svg width="44" height="44" viewBox="0 0 44 44" fill="none" xmlns="http://www.w3.org/2000/svg">
<g clip-path="url(#clip0_4626_25618)">
<path d="M16.5 20.1666C16.5 21.6253 17.0795 23.0243 18.1109 24.0557C19.1424 25.0872 20.5413 25.6666 22 25.6666C23.4587 25.6666 24.8576 25.0872 25.8891 24.0557C26.9205 23.0243 27.5 21.6253 27.5 20.1666C27.5 18.7079 26.9205 17.309 25.8891 16.2775C24.8576 15.2461 23.4587 14.6666 22 14.6666C20.5413 14.6666 19.1424 15.2461 18.1109 16.2775C17.0795 17.309 16.5 18.7079 16.5 20.1666Z" stroke="#EA8529" stroke-width="2" stroke-linecap="round" stroke-linejoin="round"/>
<path d="M32.3718 30.5378L24.593 38.3166C23.9055 39.0035 22.9734 39.3893 22.0016 39.3893C21.0298 39.3893 20.0977 39.0035 19.4102 38.3166L11.6295 30.5378C9.5784 28.4866 8.18161 25.8732 7.61575 23.0282C7.0499 20.1832 7.34039 17.2342 8.4505 14.5543C9.5606 11.8744 11.4405 9.58378 13.8524 7.97221C16.2643 6.36065 19.0999 5.50049 22.0007 5.50049C24.9014 5.50049 27.737 6.36065 30.1489 7.97221C32.5608 9.58378 34.4407 11.8744 35.5508 14.5543C36.6609 17.2342 36.9514 20.1832 36.3856 23.0282C35.8197 25.8732 34.4229 28.4866 32.3718 30.5378Z" stroke="#EA8529" stroke-width="2" stroke-linecap="round" stroke-linejoin="round"/>
</g>
<defs>
<clipPath id="clip0_4626_25618">
<rect width="44" height="44" fill="white"/>
</clipPath>
</defs>
</svg>
