<svg width="17" height="16" viewBox="0 0 17 16" fill="none" xmlns="http://www.w3.org/2000/svg">
<path d="M3.80274 6.92444C5.08274 9.44 7.14496 11.4933 9.66052 12.7822L11.6161 10.8267C11.8561 10.5867 12.2116 10.5067 12.5227 10.6133C13.5183 10.9422 14.5939 11.12 15.6961 11.12C16.185 11.12 16.585 11.52 16.585 12.0089V15.1111C16.585 15.6 16.185 16 15.6961 16C7.34941 16 0.584961 9.23556 0.584961 0.888889C0.584961 0.4 0.984961 0 1.47385 0H4.58496C5.07385 0 5.47385 0.4 5.47385 0.888889C5.47385 2 5.65163 3.06667 5.98052 4.06222C6.07829 4.37333 6.00718 4.72 5.75829 4.96889L3.80274 6.92444Z" fill="#5D5955"/>
</svg>
