<svg width="24" height="25" viewBox="0 0 24 25" fill="none" xmlns="http://www.w3.org/2000/svg">
<path d="M22.7168 23.2168L17.4431 17.9431M17.4431 17.9431C18.3452 17.041 19.0608 15.9701 19.549 14.7915C20.0372 13.6129 20.2884 12.3496 20.2884 11.0739C20.2884 9.79818 20.0372 8.53494 19.549 7.35632C19.0608 6.1777 18.3452 5.10677 17.4431 4.2047C16.541 3.30262 15.4701 2.58705 14.2915 2.09885C13.1129 1.61065 11.8496 1.35937 10.5739 1.35938C9.29818 1.35938 8.03494 1.61065 6.85632 2.09885C5.6777 2.58705 4.60677 3.30262 3.7047 4.2047C1.88287 6.02653 0.859375 8.49746 0.859375 11.0739C0.859375 13.6504 1.88287 16.1213 3.7047 17.9431C5.52653 19.765 7.99746 20.7884 10.5739 20.7884C13.1504 20.7884 15.6213 19.765 17.4431 17.9431Z" stroke="#B4AEA7" stroke-width="1.71429" stroke-linecap="round" stroke-linejoin="round"/>
</svg>
