<svg width="24" height="24" viewBox="0 0 24 24" fill="none" xmlns="http://www.w3.org/2000/svg">
<path d="M22.7168 22.7168L17.4431 17.4431M17.4431 17.4431C18.3452 16.541 19.0608 15.4701 19.549 14.2915C20.0372 13.1129 20.2884 11.8496 20.2884 10.5739C20.2884 9.29818 20.0372 8.03494 19.549 6.85632C19.0608 5.6777 18.3452 4.60677 17.4431 3.7047C16.541 2.80262 15.4701 2.08705 14.2915 1.59885C13.1129 1.11065 11.8496 0.859375 10.5739 0.859375C9.29818 0.859375 8.03494 1.11065 6.85632 1.59885C5.6777 2.08705 4.60677 2.80262 3.7047 3.7047C1.88287 5.52653 0.859375 7.99746 0.859375 10.5739C0.859375 13.1504 1.88287 15.6213 3.7047 17.4431C5.52653 19.265 7.99746 20.2884 10.5739 20.2884C13.1504 20.2884 15.6213 19.265 17.4431 17.4431Z" stroke="#B4AEA7" stroke-width="1.71429" stroke-linecap="round" stroke-linejoin="round"/>
</svg>
