<svg width="14" height="14" viewBox="0 0 14 14" fill="none" xmlns="http://www.w3.org/2000/svg">
<path d="M7.0012 0.328125C10.6832 0.328125 13.6679 3.31279 13.6679 6.99479C13.6679 10.6768 10.6832 13.6615 7.0012 13.6615C3.3192 13.6615 0.334534 10.6768 0.334534 6.99479C0.334534 3.31279 3.3192 0.328125 7.0012 0.328125ZM7.0012 1.66146C5.58671 1.66146 4.23016 2.22336 3.22996 3.22356C2.22977 4.22375 1.66787 5.5803 1.66787 6.99479C1.66787 8.40928 2.22977 9.76583 3.22996 10.766C4.23016 11.7662 5.58671 12.3281 7.0012 12.3281C8.41569 12.3281 9.77224 11.7662 10.7724 10.766C11.7726 9.76583 12.3345 8.40928 12.3345 6.99479C12.3345 5.5803 11.7726 4.22375 10.7724 3.22356C9.77224 2.22336 8.41569 1.66146 7.0012 1.66146ZM7.0012 2.99479C7.16449 2.99481 7.32209 3.05476 7.44412 3.16327C7.56614 3.27177 7.6441 3.42129 7.6632 3.58346L7.66787 3.66146V6.71879L9.47253 8.52346C9.5921 8.64343 9.66152 8.80441 9.66669 8.97371C9.67186 9.14301 9.61239 9.30793 9.50037 9.43498C9.38835 9.56202 9.23217 9.64166 9.06355 9.65772C8.89494 9.67379 8.72653 9.62507 8.59253 9.52146L8.52987 9.46613L6.52987 7.46613C6.42625 7.36242 6.35971 7.22746 6.34053 7.08212L6.33453 6.99479V3.66146C6.33453 3.48465 6.40477 3.31508 6.5298 3.19005C6.65482 3.06503 6.82439 2.99479 7.0012 2.99479Z" fill="#62500F" stroke="#62500F" stroke-width="0.2"/>
</svg>
