<svg width="62" height="78" viewBox="0 0 62 78" fill="none" xmlns="http://www.w3.org/2000/svg">
<path d="M30.6667 46.668C32.775 46.668 34.5805 45.9179 36.0832 44.4178C37.5858 42.9177 38.3359 41.1122 38.3333 39.0013C38.3333 36.893 37.5833 35.0887 36.0832 33.5886C34.5831 32.0885 32.7776 31.3372 30.6667 31.3346C28.5583 31.3346 26.7541 32.086 25.254 33.5886C23.7539 35.0913 23.0026 36.8955 23 39.0013C23 41.1096 23.7513 42.9151 25.254 44.4178C26.7567 45.9205 28.5609 46.6705 30.6667 46.668ZM15.3333 60.0013C15.3333 61.1059 16.2288 62.0013 17.3333 62.0013H44C45.1046 62.0013 46 61.1059 46 60.0013V59.7971C46 58.2638 45.5847 56.8582 44.7542 55.5805C43.9236 54.3027 42.7736 53.3444 41.3042 52.7055C39.6431 52.0027 37.9334 51.4596 36.1752 51.0763C34.4169 50.693 32.5808 50.5013 30.6667 50.5013C28.75 50.5013 26.9138 50.693 25.1582 51.0763C23.4025 51.4596 21.6928 52.0027 20.0292 52.7055C18.5597 53.3444 17.4097 54.3027 16.5792 55.5805C15.7486 56.8582 15.3333 58.2638 15.3333 59.7971V60.0013ZM53.6667 77.3346H7.66667C5.55833 77.3346 3.75411 76.5846 2.254 75.0845C0.753888 73.5844 0.00255556 71.7789 0 69.668V8.33464C0 6.2263 0.751333 4.42208 2.254 2.92197C3.75667 1.42186 5.56089 0.670524 7.66667 0.667969H37.5049C38.0353 0.667969 38.544 0.878682 38.9191 1.25376L60.7475 23.0822C61.1226 23.4573 61.3333 23.966 61.3333 24.4964V69.668C61.3333 71.7763 60.5833 73.5818 59.0832 75.0845C57.5831 76.5871 55.7776 77.3372 53.6667 77.3346ZM51.6667 69.668C52.7712 69.668 53.6667 68.7725 53.6667 67.668V27.7547C53.6667 27.2243 53.456 26.7156 53.0809 26.3405L35.6608 8.92042C35.2857 8.54535 34.777 8.33464 34.2466 8.33464H9.66667C8.5621 8.33464 7.66667 9.23007 7.66667 10.3346V67.668C7.66667 68.7725 8.5621 69.668 9.66667 69.668H51.6667Z" fill="#EA8529"/>
</svg>
