<svg width="64" height="80" viewBox="0 0 64 80" fill="none" xmlns="http://www.w3.org/2000/svg">
<path d="M31.6667 47.668C33.775 47.668 35.5805 46.9179 37.0832 45.4178C38.5858 43.9177 39.3359 42.1122 39.3333 40.0013C39.3333 37.893 38.5833 36.0887 37.0832 34.5886C35.5831 33.0885 33.7776 32.3372 31.6667 32.3346C29.5583 32.3346 27.7541 33.086 26.254 34.5886C24.7539 36.0913 24.0026 37.8955 24 40.0013C24 42.1096 24.7513 43.9151 26.254 45.4178C27.7567 46.9205 29.5609 47.6705 31.6667 47.668ZM16.3333 61.0013C16.3333 62.1059 17.2288 63.0013 18.3333 63.0013H45C46.1046 63.0013 47 62.1059 47 61.0013V60.7971C47 59.2638 46.5847 57.8582 45.7542 56.5805C44.9236 55.3027 43.7736 54.3444 42.3042 53.7055C40.6431 53.0027 38.9334 52.4596 37.1752 52.0763C35.4169 51.693 33.5808 51.5013 31.6667 51.5013C29.75 51.5013 27.9138 51.693 26.1582 52.0763C24.4025 52.4596 22.6928 53.0027 21.0292 53.7055C19.5597 54.3444 18.4097 55.3027 17.5792 56.5805C16.7486 57.8582 16.3333 59.2638 16.3333 60.7971V61.0013ZM54.6667 78.3346H8.66667C6.55833 78.3346 4.75411 77.5846 3.254 76.0845C1.75389 74.5844 1.00256 72.7789 1 70.668V9.33464C1 7.2263 1.75133 5.42208 3.254 3.92197C4.75667 2.42186 6.56089 1.67052 8.66667 1.66797H38.5049C39.0353 1.66797 39.544 1.87868 39.9191 2.25376L61.7475 24.0822C62.1226 24.4573 62.3333 24.966 62.3333 25.4964V70.668C62.3333 72.7763 61.5833 74.5818 60.0832 76.0845C58.5831 77.5871 56.7776 78.3372 54.6667 78.3346ZM52.6667 70.668C53.7712 70.668 54.6667 69.7725 54.6667 68.668V28.7547C54.6667 28.2243 54.456 27.7156 54.0809 27.3405L36.6608 9.92042C36.2857 9.54535 35.777 9.33464 35.2466 9.33464H10.6667C9.5621 9.33464 8.66667 10.2301 8.66667 11.3346V68.668C8.66667 69.7725 9.5621 70.668 10.6667 70.668H52.6667Z" fill="#EA8529" stroke="#FFF8F0" stroke-width="2" stroke-linejoin="round"/>
</svg>
