<svg width="1839" height="521" viewBox="0 0 1839 521" fill="none" xmlns="http://www.w3.org/2000/svg">
<path d="M18.96 513C13.68 513 9.36 511.32 6 507.96C2.64 504.6 0.960001 500.28 0.960001 495V451.8C0.960001 447.96 1.92 442.92 3.84 436.68C6.24 429.96 11.28 423.48 18.96 417.24L114 322.92C149.04 296.04 177.36 273.24 198.96 254.52C221.04 235.8 237.36 218.76 247.92 203.4C258.48 188.04 263.76 173.16 263.76 158.76C263.76 140.04 258.48 124.68 247.92 112.68C237.84 100.2 221.28 93.96 198.24 93.96C182.88 93.96 169.92 97.32 159.36 104.04C149.28 110.28 141.36 118.68 135.6 129.24C129.84 139.8 126 151.32 124.08 163.8C122.64 170.04 119.52 174.36 114.72 176.76C110.4 179.16 105.84 180.36 101.04 180.36H24.72C19.92 180.36 16.08 178.92 13.2 176.04C10.32 172.68 8.88 169.08 8.88 165.24C9.36 143.16 13.92 122.28 22.56 102.6C31.68 82.92 44.4 65.4 60.72 50.04C77.04 34.68 96.72 22.68 119.76 14.04C142.8 4.91999 168.96 0.359991 198.24 0.359991C238.56 0.359991 272.4 7.07999 299.76 20.52C327.12 33.48 347.76 51.48 361.68 74.52C375.6 97.56 382.56 124.2 382.56 154.44C382.56 177.48 377.76 198.84 368.16 218.52C359.04 238.2 345.6 257.16 327.84 275.4C310.08 293.16 288.96 311.64 264.48 330.84L179.52 415.8H375.36C380.64 415.8 384.96 417.48 388.32 420.84C391.68 424.2 393.36 428.52 393.36 433.8V495C393.36 500.28 391.68 504.6 388.32 507.96C384.96 511.32 380.64 513 375.36 513H18.96ZM674.008 520.2C639.448 520.2 609.688 515.4 584.728 505.8C560.248 495.72 539.848 482.04 523.528 464.76C507.688 447 495.688 426.6 487.528 403.56C479.848 380.04 475.288 355.08 473.848 328.68C473.368 315.72 472.888 301.32 472.408 285.48C472.408 269.16 472.408 252.84 472.408 236.52C472.888 220.2 473.368 205.32 473.848 191.88C474.808 165.48 479.368 140.76 487.528 117.72C496.168 94.68 508.648 74.52 524.968 57.24C541.288 39.96 561.688 26.52 586.168 16.92C611.128 6.83998 640.408 1.79997 674.008 1.79997C707.608 1.79997 736.648 6.83998 761.128 16.92C785.608 26.52 806.008 39.96 822.328 57.24C838.648 74.52 850.888 94.68 859.048 117.72C867.688 140.76 872.728 165.48 874.168 191.88C874.648 205.32 874.888 220.2 874.888 236.52C875.368 252.84 875.368 269.16 874.888 285.48C874.888 301.32 874.648 315.72 874.168 328.68C872.728 355.08 867.928 380.04 859.768 403.56C851.608 426.6 839.368 447 823.048 464.76C807.208 482.04 786.808 495.72 761.848 505.8C737.368 515.4 708.088 520.2 674.008 520.2ZM674.008 426.6C701.848 426.6 722.248 417.48 735.208 399.24C748.168 381 755.128 356.28 756.088 325.08C756.568 311.16 756.808 296.76 756.808 281.88C757.288 267 757.288 252.12 756.808 237.24C756.808 222.36 756.568 208.44 756.088 195.48C755.128 165.72 748.168 141.48 735.208 122.76C722.248 104.04 701.848 94.44 674.008 93.96C645.688 94.44 625.048 104.04 612.088 122.76C599.608 141.48 592.888 165.72 591.928 195.48C591.448 208.44 590.968 222.36 590.488 237.24C590.488 252.12 590.488 267 590.488 281.88C590.968 296.76 591.448 311.16 591.928 325.08C592.888 356.28 599.848 381 612.808 399.24C625.768 417.48 646.168 426.6 674.008 426.6ZM970.626 513C965.346 513 961.026 511.32 957.666 507.96C954.306 504.6 952.626 500.28 952.626 495V451.8C952.626 447.96 953.586 442.92 955.506 436.68C957.906 429.96 962.946 423.48 970.626 417.24L1065.67 322.92C1100.71 296.04 1129.03 273.24 1150.63 254.52C1172.71 235.8 1189.03 218.76 1199.59 203.4C1210.15 188.04 1215.43 173.16 1215.43 158.76C1215.43 140.04 1210.15 124.68 1199.59 112.68C1189.51 100.2 1172.95 93.96 1149.91 93.96C1134.55 93.96 1121.59 97.32 1111.03 104.04C1100.95 110.28 1093.03 118.68 1087.27 129.24C1081.51 139.8 1077.67 151.32 1075.75 163.8C1074.31 170.04 1071.19 174.36 1066.39 176.76C1062.07 179.16 1057.51 180.36 1052.71 180.36H976.386C971.586 180.36 967.746 178.92 964.866 176.04C961.986 172.68 960.546 169.08 960.546 165.24C961.026 143.16 965.586 122.28 974.226 102.6C983.346 82.92 996.066 65.4 1012.39 50.04C1028.71 34.68 1048.39 22.68 1071.43 14.04C1094.47 4.91999 1120.63 0.359991 1149.91 0.359991C1190.23 0.359991 1224.07 7.07999 1251.43 20.52C1278.79 33.48 1299.43 51.48 1313.35 74.52C1327.27 97.56 1334.23 124.2 1334.23 154.44C1334.23 177.48 1329.43 198.84 1319.83 218.52C1310.71 238.2 1297.27 257.16 1279.51 275.4C1261.75 293.16 1240.63 311.64 1216.15 330.84L1131.19 415.8H1327.03C1332.31 415.8 1336.63 417.48 1339.99 420.84C1343.35 424.2 1345.03 428.52 1345.03 433.8V495C1345.03 500.28 1343.35 504.6 1339.99 507.96C1336.63 511.32 1332.31 513 1327.03 513H970.626ZM1663.21 513C1658.41 513 1654.33 511.32 1650.97 507.96C1647.61 504.6 1645.93 500.28 1645.93 495V408.6H1419.13C1414.33 408.6 1410.25 406.92 1406.89 403.56C1403.53 400.2 1401.85 395.88 1401.85 390.6V332.28C1401.85 328.92 1402.57 325.32 1404.01 321.48C1405.45 317.64 1407.37 314.04 1409.77 310.68L1620.73 21.24C1626.97 13.08 1635.85 8.99997 1647.37 8.99997H1738.81C1743.61 8.99997 1747.69 10.68 1751.05 14.04C1754.41 17.4 1756.09 21.72 1756.09 27V312.84H1820.17C1825.93 312.84 1830.25 314.52 1833.13 317.88C1836.5 321.24 1838.18 325.32 1838.18 330.12V390.6C1838.18 395.88 1836.5 400.2 1833.13 403.56C1829.78 406.92 1825.7 408.6 1820.89 408.6H1756.09V495C1756.09 500.28 1754.41 504.6 1751.05 507.96C1747.69 511.32 1743.61 513 1738.81 513H1663.21ZM1513.45 316.44H1648.09V127.08L1513.45 316.44Z" fill="#EA8529" fill-opacity="0.04"/>
</svg>
