<svg width="40" height="40" viewBox="0 0 40 40" fill="none" xmlns="http://www.w3.org/2000/svg">
<path d="M32.5008 30.0002H31.2508V28.7002C31.2508 28.5477 31.1902 28.4014 31.0824 28.2936C30.9745 28.1857 30.8283 28.1252 30.6758 28.1252H23.7508C23.5983 28.1252 23.452 28.1857 23.3442 28.2936C23.2364 28.4014 23.1758 28.5477 23.1758 28.7002V30.0002H21.9258V28.7002C21.9258 28.2161 22.1181 27.7519 22.4603 27.4097C22.8026 27.0674 23.2668 26.8752 23.7508 26.8752H30.6758C31.1598 26.8752 31.624 27.0674 31.9663 27.4097C32.3085 27.7519 32.5008 28.2161 32.5008 28.7002V30.0002ZM25.6258 25.0002H24.3758V23.1252C24.3883 22.5508 24.5172 21.9849 24.7546 21.4618C24.992 20.9386 25.333 20.4691 25.757 20.0814L28.6758 17.1627C29.0312 16.8315 29.5013 16.6511 29.9871 16.6597C30.4728 16.6683 30.9363 16.8651 31.2798 17.2086C31.6234 17.5521 31.8201 18.0156 31.8287 18.5013C31.8373 18.9871 31.657 19.4572 31.3258 19.8127L28.5633 22.5752L27.682 21.6939L30.4445 18.9314C30.5469 18.8118 30.6004 18.658 30.5943 18.5007C30.5883 18.3434 30.5231 18.1942 30.4118 18.0829C30.3004 17.9716 30.1512 17.9064 29.9939 17.9003C29.8366 17.8943 29.6828 17.9478 29.5633 18.0502L26.6445 20.9689C26.3386 21.2415 26.0907 21.5729 25.9157 21.9433C25.7406 22.3138 25.642 22.7157 25.6258 23.1252V25.0002Z" fill="#2993DD"/>
<path d="M30 27.5H28.75V26.875C28.75 25.4063 30.0375 24.0813 30.1813 23.9313L32.0563 22.0563C32.6257 21.5046 33.0007 20.783 33.125 20H34.375C34.375 21.4687 33.0875 22.7937 32.9437 22.9437L31.0687 24.8187C30.4993 25.3704 30.1243 26.092 30 26.875V27.5ZM34.375 20H33.125V12.5C33.125 12.3342 33.0592 12.1753 32.9419 12.0581C32.8247 11.9408 32.6658 11.875 32.5 11.875C32.3342 11.875 32.1753 11.9408 32.0581 12.0581C31.9408 12.1753 31.875 12.3342 31.875 12.5V18.75H30.625V12.5C30.625 12.0027 30.8225 11.5258 31.1742 11.1742C31.5258 10.8225 32.0027 10.625 32.5 10.625C32.9973 10.625 33.4742 10.8225 33.8258 11.1742C34.1775 11.5258 34.375 12.0027 34.375 12.5V20ZM32.5 35H21.95C21.7842 35 21.6253 34.9342 21.5081 34.8169C21.3908 34.6997 21.325 34.5408 21.325 34.375V30C21.325 29.8342 21.3908 29.6753 21.5081 29.5581C21.6253 29.4408 21.7842 29.375 21.95 29.375H32.5C32.6658 29.375 32.8247 29.4408 32.9419 29.5581C33.0592 29.6753 33.125 29.8342 33.125 30V34.375C33.125 34.5408 33.0592 34.6997 32.9419 34.8169C32.8247 34.9342 32.6658 35 32.5 35ZM22.5625 33.75H31.875V30.625H22.575L22.5625 33.75ZM18.0625 30H16.8125V28.7C16.8125 28.5496 16.7537 28.4053 16.6485 28.2978C16.5434 28.1903 16.4003 28.1283 16.25 28.125H9.325C9.1725 28.125 9.02625 28.1856 8.91841 28.2934C8.81058 28.4012 8.75 28.5475 8.75 28.7V30H7.5V28.7C7.5 28.216 7.69228 27.7518 8.03453 27.4095C8.37678 27.0673 8.84098 26.875 9.325 26.875H16.25C16.734 26.875 17.1982 27.0673 17.5405 27.4095C17.8827 27.7518 18.075 28.216 18.075 28.7L18.0625 30Z" fill="#2993DD"/>
<path d="M15.625 27.5002H14.375V23.1252C14.3596 22.7147 14.2614 22.3116 14.0863 21.94C13.9112 21.5684 13.6629 21.236 13.3563 20.9627L10.4375 18.0439C10.3815 17.9785 10.3125 17.9254 10.235 17.8879C10.1574 17.8503 10.073 17.8293 9.98691 17.8259C9.90083 17.8226 9.815 17.8371 9.7348 17.8685C9.65459 17.9 9.58175 17.9476 9.52084 18.0085C9.45993 18.0694 9.41227 18.1423 9.38085 18.2225C9.34943 18.3027 9.33493 18.3885 9.33825 18.4746C9.34158 18.5607 9.36266 18.6451 9.40017 18.7227C9.43769 18.8002 9.49082 18.8692 9.55625 18.9252L12.3187 21.6877L11.4375 22.5752L8.675 19.8127C8.49078 19.641 8.34303 19.434 8.24055 19.204C8.13807 18.974 8.08296 18.7258 8.07852 18.474C8.07408 18.2222 8.12039 17.9722 8.21469 17.7387C8.309 17.5052 8.44936 17.2931 8.6274 17.1151C8.80545 16.937 9.01754 16.7967 9.25101 16.7024C9.48448 16.6081 9.73455 16.5618 9.98631 16.5662C10.2381 16.5707 10.4863 16.6258 10.7163 16.7282C10.9463 16.8307 11.1533 16.9785 11.325 17.1627L14.2438 20.0814C14.6678 20.4691 15.0088 20.9387 15.2462 21.4618C15.4836 21.985 15.6124 22.5508 15.625 23.1252V27.5002ZM11.25 27.5002H10V26.8752C9.87527 26.0923 9.5003 25.3709 8.93125 24.8189L7.05625 22.9439C6.9125 22.7939 5.625 21.4689 5.625 20.0002H6.875C6.99973 20.7831 7.3747 21.5045 7.94375 22.0564L9.81875 23.9314C9.9625 24.0814 11.25 25.4064 11.25 26.8752V27.5002Z" fill="#2993DD"/>
<path d="M6.875 20.0001H5.625V12.5001C5.625 12.0028 5.82254 11.5259 6.17417 11.1742C6.52581 10.8226 7.00272 10.6251 7.5 10.6251C7.99728 10.6251 8.47419 10.8226 8.82583 11.1742C9.17746 11.5259 9.375 12.0028 9.375 12.5001V18.7501H8.125V12.5001C8.125 12.3343 8.05915 12.1753 7.94194 12.0581C7.82473 11.9409 7.66576 11.8751 7.5 11.8751C7.33424 11.8751 7.17527 11.9409 7.05806 12.0581C6.94085 12.1753 6.875 12.3343 6.875 12.5001V20.0001ZM18.05 35.0001H7.5C7.33424 35.0001 7.17527 34.9342 7.05806 34.817C6.94085 34.6998 6.875 34.5408 6.875 34.3751V30.0001C6.875 29.8343 6.94085 29.6753 7.05806 29.5581C7.17527 29.4409 7.33424 29.3751 7.5 29.3751H18.0625C18.2283 29.3751 18.3872 29.4409 18.5044 29.5581C18.6217 29.6753 18.6875 29.8343 18.6875 30.0001V34.3751C18.6875 34.4582 18.6709 34.5405 18.6388 34.6172C18.6066 34.6938 18.5594 34.7633 18.5 34.8215C18.4407 34.8797 18.3703 34.9255 18.293 34.9561C18.2157 34.9868 18.1331 35.0017 18.05 35.0001ZM8.125 33.7501H17.4375V30.6251H8.125V33.7501ZM20 17.5001C19.7179 17.5029 19.4381 17.4491 19.1772 17.3417C18.9163 17.2343 18.6796 17.0757 18.4812 16.8751L13.55 11.7938L13.5187 11.7563C12.8976 11.2404 12.4249 10.5685 12.1492 9.80952C11.8735 9.05055 11.8047 8.23189 11.95 7.43757C12.0986 6.57814 12.4975 5.78167 13.0968 5.14795C13.696 4.51423 14.469 4.07145 15.3188 3.87507C15.9509 3.73715 16.6061 3.74306 17.2357 3.89235C17.8653 4.04164 18.4533 4.33049 18.9562 4.73757C19.372 5.06822 19.7254 5.47035 20 5.92507C20.2721 5.46141 20.6257 5.05066 21.0437 4.71257C21.5474 4.30458 22.1365 4.0152 22.7673 3.86589C23.3981 3.71658 24.0544 3.71117 24.6875 3.85007C25.5373 4.04645 26.3102 4.48923 26.9095 5.12295C27.5087 5.75667 27.9077 6.55314 28.0562 7.41257C28.2015 8.20689 28.1328 9.02555 27.8571 9.78452C27.5814 10.5435 27.1087 11.2154 26.4875 11.7313L26.4563 11.7688L21.5188 16.8751C21.3204 17.0757 21.0837 17.2343 20.8228 17.3417C20.5619 17.4491 20.2821 17.5029 20 17.5001ZM14.5438 10.9938L19.3813 15.9938C19.4631 16.0762 19.5605 16.1416 19.6678 16.1862C19.7751 16.2308 19.8901 16.2538 20.0062 16.2538C20.1224 16.2538 20.2374 16.2308 20.3447 16.1862C20.452 16.1416 20.5493 16.0762 20.6312 15.9938L25.475 10.9938C25.513 10.9334 25.5617 10.8805 25.6188 10.8376C26.0941 10.466 26.4584 9.9712 26.6722 9.40701C26.886 8.84283 26.941 8.23084 26.8313 7.63757C26.7283 7.02144 26.4456 6.44948 26.0186 5.99355C25.5916 5.53762 25.0393 5.21808 24.4313 5.07507C23.9799 4.9745 23.5115 4.97853 23.0619 5.08686C22.6123 5.19519 22.1935 5.40495 21.8375 5.70007C21.4585 6.0068 21.1529 6.39443 20.9431 6.83458C20.7333 7.27472 20.6246 7.75623 20.625 8.24382C20.625 8.40958 20.5592 8.56855 20.4419 8.68576C20.3247 8.80297 20.1658 8.86882 20 8.86882C19.8342 8.86882 19.6753 8.80297 19.5581 8.68576C19.4408 8.56855 19.375 8.40958 19.375 8.24382C19.378 7.75463 19.2712 7.27099 19.0625 6.82857C18.8537 6.38615 18.5483 5.99624 18.1687 5.68757C17.8125 5.39286 17.3937 5.18336 16.9442 5.07505C16.4947 4.96674 16.0264 4.96247 15.575 5.06257C14.9669 5.20558 14.4147 5.52513 13.9877 5.98105C13.5607 6.43698 13.2779 7.00894 13.175 7.62507C13.0627 8.21814 13.1151 8.83066 13.3267 9.39598C13.5383 9.96129 13.9009 10.4577 14.375 10.8313C14.441 10.8744 14.4982 10.9295 14.5438 10.9938Z" fill="#2993DD"/>
</svg>
