<svg width="40" height="40" viewBox="0 0 40 40" fill="none" xmlns="http://www.w3.org/2000/svg">
<g clip-path="url(#clip0_4329_22266)">
<path d="M39.819 27.9726L35.5946 21.5164C35.4942 21.3623 35.3568 21.2357 35.195 21.1482C35.0332 21.0607 34.8521 21.015 34.6681 21.0153H28.7775C28.6013 20.4907 28.332 20.11 28.0819 19.7586C27.706 19.2305 27.4091 18.8132 27.4091 17.9026C27.4091 16.9919 27.706 16.5747 28.0819 16.0466C28.7906 15.1814 29.237 13.8001 28.8138 12.3466C28.7925 12.2722 28.7566 12.2027 28.7082 12.1422C28.6599 12.0817 28.6 12.0314 28.532 11.9942C28.4641 11.957 28.3895 11.9336 28.3124 11.9254C28.2354 11.9173 28.1575 11.9244 28.0833 11.9466C28.0091 11.9687 27.94 12.0053 27.88 12.0543C27.82 12.1033 27.7703 12.1637 27.7338 12.232C27.6973 12.3003 27.6747 12.3752 27.6673 12.4523C27.6599 12.5294 27.6679 12.6072 27.6908 12.6812C27.9778 13.7447 27.7063 14.6481 27.1271 15.3672C25.9359 16.8155 25.9386 18.9933 27.1271 20.4381C27.2676 20.6355 27.397 20.8174 27.504 21.0154H21.1731C20.9969 20.4908 20.7275 20.1101 20.4774 19.7587C20.1016 19.2305 19.8047 18.8133 19.8047 17.9026C19.8047 16.992 20.1016 16.5748 20.4774 16.0467C21.6687 14.5983 21.6659 12.4205 20.4775 10.9755C20.1016 10.4472 19.8047 10.03 19.8047 9.1192C19.8047 8.68803 19.895 8.46725 20.0317 8.13295C20.2136 7.68826 20.4477 7.11545 20.5428 5.91842L21.3791 6.76873C21.9395 7.30428 22.7406 6.51537 22.2146 5.94693L20.4177 4.11998C20.1991 3.8885 19.8008 3.8885 19.5822 4.11998L17.7852 5.94693C17.6763 6.05773 17.6158 6.20726 17.6171 6.36265C17.6184 6.51804 17.6813 6.66656 17.7921 6.77553C17.9029 6.88449 18.0524 6.94498 18.2078 6.94369C18.3632 6.9424 18.5117 6.87944 18.6207 6.76865L19.3579 6.01912C19.2703 6.89811 19.0956 7.32561 18.947 7.68928C18.2853 9.10022 18.7431 10.7105 19.5224 11.6549C19.8984 12.1832 20.1952 12.6004 20.1952 13.5112C20.1952 14.4219 19.8984 14.839 19.5225 15.3672C18.3309 16.8169 18.3341 18.9928 19.5226 20.4381C19.663 20.6355 19.7924 20.8174 19.8995 21.0154H13.5685C13.3924 20.4908 13.123 20.1101 12.8729 19.7587C12.497 19.2305 12.2002 18.8133 12.2002 17.9026C12.2002 16.992 12.497 16.5748 12.8729 16.0467C14.0641 14.5983 14.0613 12.4205 12.873 10.9755C12.497 10.4472 12.2002 10.03 12.2002 9.1192C12.2002 8.68803 12.2905 8.46725 12.4272 8.13295C12.6091 7.68826 12.8432 7.11545 12.9383 5.91842L13.7746 6.76873C14.3349 7.30428 15.136 6.51537 14.6101 5.94693L12.8133 4.1199C12.5947 3.88842 12.1964 3.88842 11.9778 4.1199L10.1809 5.94686C10.0719 6.05765 10.0114 6.20719 10.0127 6.36258C10.014 6.51797 10.077 6.66648 10.1877 6.77545C10.2985 6.88441 10.4481 6.9449 10.6035 6.94361C10.7589 6.94232 10.9074 6.87936 11.0163 6.76857L11.7535 6.01904C11.6659 6.89803 11.4913 7.32553 11.3426 7.6892C10.6809 9.10014 11.1388 10.7104 11.9181 11.6548C12.294 12.1831 12.5909 12.6003 12.5909 13.5112C12.5909 14.4218 12.294 14.839 11.9181 15.3671C10.7266 16.8168 10.7298 18.9927 11.9182 20.438C12.0586 20.6355 12.1881 20.8173 12.2951 21.0153H5.33188C5.14791 21.015 4.96679 21.0607 4.80497 21.1482C4.64316 21.2357 4.50578 21.3623 4.40532 21.5164L0.181021 27.9727C0.0715188 28.1398 0.00929913 28.3335 0.000963733 28.5331C-0.00737167 28.7327 0.0384882 28.9309 0.133677 29.1065C0.228523 29.2822 0.369128 29.4289 0.540586 29.5311C0.712045 29.6333 0.907967 29.6873 1.10758 29.6872H4.05204C4.8268 29.6632 4.82618 28.539 4.05204 28.5153H1.22641L5.36696 22.1872H12.5887C12.5242 23.1058 13.8369 23.103 13.7603 22.1872H20.1931C20.1287 23.1058 21.4413 23.103 21.3648 22.1872H27.7976C27.7331 23.1058 29.0458 23.103 28.9692 22.1872H34.6331L38.7736 28.5153H6.80852C6.03376 28.5393 6.03438 29.6634 6.80852 29.6872H12.232C12.427 30.013 12.5909 30.4157 12.5909 31.0768C12.5909 31.9875 12.294 32.4047 11.9181 32.9328C11.501 33.5189 11.0283 34.1832 11.0283 35.4683C11.0283 35.6237 11.09 35.7728 11.1999 35.8827C11.3098 35.9925 11.4588 36.0543 11.6142 36.0543C11.7696 36.0543 11.9187 35.9925 12.0285 35.8827C12.1384 35.7728 12.2002 35.6237 12.2002 35.4683C12.2002 34.5576 12.497 34.1405 12.8729 33.6122C13.655 32.655 14.0596 31.1611 13.5298 29.6872H19.8359C20.029 30.011 20.1953 30.414 20.1953 31.0769C20.1953 31.9876 19.8984 32.4047 19.5226 32.9329C19.1055 33.519 18.6327 34.1833 18.6327 35.4684C18.6327 35.6238 18.6945 35.7729 18.8044 35.8827C18.9142 35.9926 19.0633 36.0544 19.2187 36.0544C19.3741 36.0544 19.5231 35.9926 19.633 35.8827C19.7429 35.7729 19.8046 35.6238 19.8046 35.4684C19.8046 34.5577 20.1015 34.1405 20.4773 33.6123C21.26 32.6589 21.6634 31.1521 21.1328 29.6873H27.4402C27.6585 30.054 27.7998 30.4487 27.7998 31.0769C27.7998 31.9876 27.5029 32.4048 27.127 32.933C26.7099 33.519 26.2372 34.1833 26.2372 35.4685C26.2372 35.6239 26.2989 35.7729 26.4088 35.8828C26.5187 35.9927 26.6677 36.0544 26.8231 36.0544C26.9785 36.0544 27.1276 35.9927 27.2375 35.8828C27.3473 35.7729 27.4091 35.6239 27.4091 35.4685C27.4091 34.5578 27.7059 34.1406 28.0818 33.6125C28.8657 32.6533 29.2672 31.1593 28.739 29.6874H38.8923C39.2994 29.6874 39.6726 29.4649 39.8663 29.1068C39.9615 28.9311 40.0074 28.7329 39.9991 28.5332C39.9907 28.3335 39.9285 28.1398 39.819 27.9726Z" fill="#2993DD"/>
<path d="M9.89595 26.9953C10.6707 26.9713 10.6701 25.8472 9.89595 25.8234H9.26876C8.49399 25.8474 8.49462 26.9715 9.26876 26.9953H9.89595ZM15.1042 26.9953C15.879 26.9713 15.8784 25.8472 15.1042 25.8234H14.477C13.7023 25.8474 13.7029 26.9715 14.477 26.9953H15.1042ZM20.3124 26.9953C21.0872 26.9713 21.0866 25.8472 20.3124 25.8234H19.6852C18.9105 25.8474 18.9111 26.9715 19.6852 26.9953H20.3124ZM25.5206 26.9953C26.2954 26.9713 26.2948 25.8472 25.5206 25.8234H24.8934C24.1187 25.8474 24.1193 26.9715 24.8934 26.9953H25.5206ZM30.7288 26.9953C31.5036 26.9713 31.503 25.8472 30.7288 25.8234H30.1016C29.3268 25.8474 29.3274 26.9715 30.1016 26.9953H30.7288ZM6.88946 24.3723H7.5872C8.36196 24.3483 8.36134 23.2242 7.5872 23.2005H6.88946C6.1147 23.2244 6.11524 24.3487 6.88946 24.3723ZM12.6913 24.3723C13.4661 24.3483 13.4655 23.2242 12.6913 23.2005H11.9937C11.2189 23.2244 11.2195 24.3486 11.9937 24.3723H12.6913ZM17.7956 24.3723C18.5703 24.3483 18.5697 23.2242 17.7956 23.2005H17.0979C16.3231 23.2244 16.3238 24.3486 17.0979 24.3723H17.7956ZM22.8998 24.3723C23.6745 24.3483 23.6739 23.2242 22.8998 23.2005H22.2021C21.4274 23.2244 21.428 24.3486 22.2021 24.3723H22.8998ZM28.004 24.3723C28.7788 24.3483 28.7781 23.2242 28.004 23.2005H27.3063C26.5315 23.2244 26.5321 24.3486 27.3063 24.3723H28.004ZM33.1082 24.3723C33.883 24.3483 33.8824 23.2242 33.1082 23.2005H32.4105C31.6357 23.2244 31.6363 24.3486 32.4105 24.3723H33.1082ZM26.2241 6.76865L26.9613 6.01912C26.8737 6.89811 26.699 7.32561 26.5503 7.68928C26.3958 8.06701 26.236 8.45764 26.236 9.11912C26.236 9.5417 26.2865 9.91889 26.3905 10.2722C26.4809 10.5855 26.8159 10.7604 27.118 10.669C27.1918 10.6473 27.2606 10.6113 27.3205 10.563C27.3804 10.5147 27.4302 10.455 27.4671 10.3875C27.5039 10.3199 27.5271 10.2458 27.5353 10.1693C27.5435 10.0927 27.5365 10.0154 27.5148 9.94154C27.3444 9.3885 27.3745 8.64022 27.635 8.13287C27.8169 7.68818 28.0509 7.11537 28.1461 5.91834L28.9824 6.76865C29.5427 7.3042 30.3438 6.51529 29.8179 5.94686L28.021 4.1199C27.8024 3.88842 27.4041 3.88842 27.1855 4.1199L25.3887 5.94686C25.2797 6.05765 25.2192 6.20719 25.2205 6.36258C25.2218 6.51797 25.2848 6.66648 25.3956 6.77545C25.4504 6.82942 25.5153 6.87205 25.5867 6.90091C25.658 6.92978 25.7343 6.94431 25.8112 6.94368C25.8882 6.94305 25.9642 6.92727 26.0351 6.89723C26.1059 6.8672 26.1701 6.82351 26.2241 6.76865Z" fill="#2993DD"/>
</g>
<defs>
<clipPath id="clip0_4329_22266">
<rect width="40" height="40" fill="white"/>
</clipPath>
</defs>
</svg>
