<svg width="40" height="40" viewBox="0 0 40 40" fill="none" xmlns="http://www.w3.org/2000/svg">
<path d="M28.8165 23.4338C29.8767 23.4338 30.7391 22.5713 30.7391 21.5113C30.7391 21.1876 30.4767 20.9253 30.1531 20.9253C29.8295 20.9253 29.5672 21.1876 29.5672 21.5113C29.5672 21.9252 29.2304 22.262 28.8165 22.262C28.4026 22.262 28.0658 21.9252 28.0658 21.5113C28.0658 21.1876 27.8034 20.9253 27.4799 20.9253C27.1563 20.9253 26.8939 21.1876 26.8939 21.5113C26.8938 22.5713 27.7563 23.4338 28.8165 23.4338ZM31.8886 20.1471C32.044 20.1471 32.193 20.0854 32.3029 19.9755C32.4128 19.8656 32.4745 19.7166 32.4745 19.5612V18.9489C32.6226 18.9306 32.7581 18.8564 32.8534 18.7416C32.9486 18.6268 32.9965 18.4799 32.9872 18.331C32.978 18.1821 32.9123 18.0424 32.8035 17.9402C32.6947 17.8381 32.5511 17.7814 32.4019 17.7815H31.8886C31.7332 17.7815 31.5842 17.8432 31.4743 17.9531C31.3644 18.063 31.3027 18.212 31.3027 18.3674V19.5612C31.3027 19.7166 31.3644 19.8656 31.4743 19.9755C31.5842 20.0854 31.7332 20.1471 31.8886 20.1471ZM25.1584 18.949V19.5613C25.1584 19.8849 25.4207 20.1472 25.7443 20.1472C26.0679 20.1472 26.3302 19.8849 26.3302 19.5613V18.3675C26.3302 18.2121 26.2685 18.0631 26.1586 17.9532C26.0487 17.8433 25.8997 17.7816 25.7443 17.7816H25.231C25.0818 17.7814 24.9382 17.8382 24.8294 17.9403C24.7207 18.0424 24.6549 18.1822 24.6457 18.3311C24.6364 18.48 24.6843 18.6269 24.7796 18.7417C24.8748 18.8565 25.0103 18.9306 25.1584 18.949Z" fill="#2993DD"/>
<path d="M37.5738 19.6665C37.7452 19.3041 37.834 18.9082 37.8337 18.5073C37.8337 17.8177 37.5755 17.1876 37.1513 16.7072C37.2212 16.6087 37.2586 16.4908 37.2585 16.3701C37.2585 14.6394 37.3449 13.6131 36.8243 12.1245C36.7174 11.819 36.3832 11.6577 36.0777 11.7648C36.0051 11.7902 35.9382 11.8297 35.8808 11.8809C35.8234 11.9322 35.7767 11.9943 35.7433 12.0636C35.7099 12.1329 35.6904 12.2082 35.6861 12.285C35.6818 12.3618 35.6926 12.4387 35.718 12.5114C36.1436 13.7279 36.0866 14.5717 36.0866 15.7841H32.477C30.7817 15.7841 29.4024 14.4049 29.4023 12.7096C29.4023 12.3859 29.14 12.1237 28.8164 12.1237C28.4928 12.1237 28.2305 12.3859 28.2305 12.7096C28.2305 14.4049 26.8512 15.7841 25.1558 15.7841H21.5462V14.6926C21.5462 11.0512 24.5087 8.08865 28.1502 8.08865C28.1945 8.08865 28.2305 8.12467 28.2305 8.16896C28.2305 8.49256 28.4928 8.75482 28.8164 8.75482C29.14 8.75482 29.4023 8.49256 29.4023 8.16896C29.4023 8.12467 29.4384 8.08865 29.4827 8.08865C30.4264 8.08877 31.3591 8.29108 32.218 8.68196C33.077 9.07283 33.8422 9.6432 34.4622 10.3547C34.5125 10.4134 34.574 10.4615 34.6431 10.4963C34.7121 10.5311 34.7874 10.5519 34.8645 10.5575C34.9417 10.5631 35.0191 10.5534 35.0925 10.5289C35.1658 10.5044 35.2336 10.4656 35.2919 10.4148C35.3502 10.3639 35.3979 10.3021 35.4321 10.2328C35.4664 10.1634 35.4866 10.088 35.4916 10.0108C35.4966 9.93365 35.4862 9.85626 35.4611 9.7831C35.4361 9.70995 35.3967 9.64248 35.3455 9.58459C34.6155 8.74696 33.7145 8.07546 32.7032 7.61528C31.692 7.15511 30.5938 6.91696 29.4827 6.91685C29.238 6.91685 29.0095 6.9874 28.8165 7.1092C28.6171 6.98327 28.3861 6.91656 28.1502 6.91685C23.8627 6.91685 20.3745 10.4051 20.3745 14.6926V16.3701C20.3745 16.4958 20.4144 16.6119 20.4816 16.7073C20.2833 16.9315 20.1232 17.1869 20.0079 17.4631C19.9746 17.0484 19.8544 16.6454 19.655 16.2802C19.4556 15.9151 19.1816 15.596 18.8507 15.3438V13.1115C18.8507 8.71654 15.2752 5.14099 10.8802 5.14099C9.78891 5.14099 10.2262 5.12217 8.7168 5.24014C6.63477 5.40264 4.77156 6.51678 3.64367 8.25006L1.87914 7.68607C1.51352 7.56889 1.13391 7.83092 1.11547 8.21623C1.10711 8.39279 0.930312 12.3167 1.64578 15.0497C0.671016 15.5386 0 16.5472 0 17.7101C0 19.219 1.12938 20.4691 2.58727 20.6596C2.95422 22.234 3.82109 23.6631 5.06117 24.723C5.38488 24.9991 5.73123 25.2475 6.09656 25.4656H4.86359C2.83773 25.4656 1.18961 27.1138 1.18961 29.1396V34.2742C1.18961 34.4296 1.25134 34.5786 1.36123 34.6885C1.47111 34.7984 1.62015 34.8601 1.77555 34.8601H2.74891C3.0725 34.8601 3.33484 34.5979 3.33484 34.2742C3.33484 33.9505 3.0725 33.6883 2.74891 33.6883H2.36148V29.1396C2.36148 27.7599 3.48391 26.6375 4.86359 26.6375H6.56812C6.8593 28.3651 8.4218 29.6641 10.2472 29.5463C11.8996 29.4398 13.2088 28.1965 13.4719 26.6375H15.1766C16.5563 26.6375 17.6788 27.7599 17.6788 29.1396V33.6883H5.48336C5.15977 33.6883 4.89742 33.9505 4.89742 34.2742C4.89742 34.5979 5.15977 34.8601 5.48336 34.8601H18.2648C18.4202 34.8601 18.5693 34.7984 18.6792 34.6885C18.789 34.5786 18.8508 34.4296 18.8508 34.2742V29.1396C18.851 28.6665 18.7594 28.1979 18.5809 27.7597H19.5223C20.0938 27.7601 20.6597 27.6481 21.1878 27.43C20.8137 28.007 20.615 28.6802 20.6155 29.3679V34.2742C20.6155 34.4296 20.6773 34.5786 20.7872 34.6885C20.897 34.7984 21.0461 34.8601 21.2015 34.8601H36.471C36.6264 34.8601 36.7755 34.7984 36.8853 34.6885C36.9952 34.5786 37.057 34.4296 37.057 34.2742V29.3679C37.0575 28.6886 36.8636 28.0233 36.498 27.4508C37.0112 27.6551 37.5586 27.7599 38.1109 27.7597H39.4141C39.5695 27.7597 39.7185 27.698 39.8284 27.5881C39.9383 27.4782 40 27.3292 40 27.1738V23.5852C40 21.916 39.0326 20.3983 37.5738 19.6665ZM25.1559 16.9561C26.7133 16.9561 28.0775 16.1136 28.8166 14.8602C29.5557 16.1136 30.9198 16.9561 32.4772 16.9561H35.1105C35.9659 16.9561 36.6618 17.6519 36.6618 18.5073C36.6618 18.9256 36.4947 19.305 36.2247 19.5842C35.9162 19.9029 35.4884 20.0747 35.0484 20.0569C34.752 20.0432 34.4945 20.2539 34.4457 20.5456C33.9999 23.2107 31.6945 25.3047 28.8166 25.3047C26.7833 25.3047 24.884 24.2297 23.862 22.4421C23.8525 22.4178 23.8415 22.3942 23.8288 22.3715C23.5916 21.9468 23.41 21.4933 23.2885 21.0223C23.2861 21.0129 23.2841 21.0034 23.2818 20.994C23.2441 20.8459 23.2126 20.6963 23.1874 20.5455C23.1388 20.2545 22.8801 20.0433 22.5848 20.0568C21.7079 20.0924 20.9713 19.385 20.9713 18.5072C20.9713 17.6518 21.6673 16.9559 22.5226 16.9559C22.5439 16.9559 22.5652 16.9569 22.5863 16.9576C22.6113 16.9586 22.6359 16.958 22.6603 16.9559H25.1559V16.9561ZM28.8262 28.9413C27.7113 28.9413 26.8043 28.0343 26.8043 26.9194V26.1769C27.4693 26.381 28.1638 26.4767 28.8165 26.4767C29.4906 26.4767 30.1927 26.3744 30.848 26.1711V26.9194C30.848 27.9995 29.9967 28.8845 28.93 28.9387C28.8956 28.9404 28.861 28.9413 28.8262 28.9413ZM24.1947 25.7879H24.194C23.8034 25.7881 23.4154 25.8524 23.0457 25.9784C23.4139 25.4811 23.6722 24.9112 23.8032 24.3065C23.9755 24.4904 24.1577 24.6648 24.3491 24.8288C24.7428 25.165 25.1733 25.4556 25.6324 25.6949V25.7879H24.1947ZM32.0199 25.6853C32.6832 25.3365 33.2901 24.8814 33.8298 24.3065C33.9594 24.9041 34.2133 25.4677 34.5748 25.9608C33.9059 25.7447 33.5568 25.7879 32.02 25.7879L32.0199 25.6853ZM2.26688 9.04021L3.72852 9.50732C3.85771 9.54856 3.99721 9.54373 4.12325 9.49364C4.24928 9.44355 4.35404 9.35131 4.41969 9.23264C5.31742 7.60857 6.95797 6.55271 8.80805 6.40842C10.2811 6.29342 9.83445 6.31279 10.8802 6.31279C14.6289 6.31279 17.6788 9.36264 17.6788 13.1115V14.804C17.1668 14.6938 17.3287 14.7377 9.29281 14.7377C8.72347 14.7379 8.16096 14.6136 7.64477 14.3734C6.53547 13.8576 5.69422 12.8355 5.44781 11.576C5.35367 11.0947 4.76133 10.95 4.44492 11.2882C3.59969 12.1918 3.00875 13.2622 2.68789 14.373C2.285 12.5505 2.25242 10.2248 2.26688 9.04021ZM3.64977 19.9997C3.62623 19.8589 3.55214 19.7316 3.4414 19.6416C3.33065 19.5516 3.19087 19.5051 3.04828 19.5108C3.02377 19.512 2.99923 19.5127 2.97469 19.5128C1.98063 19.5128 1.17188 18.7041 1.17188 17.7101C1.17188 16.7327 1.95094 15.9427 2.90922 15.9089L2.91633 15.9087C2.96077 15.9073 3.00526 15.9075 3.04969 15.9093C3.05148 15.9094 3.05328 15.9091 3.05508 15.9092C3.19655 15.9134 3.33477 15.8663 3.44412 15.7764C3.55346 15.6865 3.62653 15.5601 3.64977 15.4204C3.7999 14.521 4.14081 13.6641 4.64961 12.9073C5.45617 14.6987 7.25953 15.9097 9.29281 15.9097H17.1288C17.4237 15.9244 17.7106 16.0105 17.9648 16.1608C17.9694 16.1635 17.9742 16.1653 17.9788 16.1679C18.2443 16.3282 18.4637 16.5544 18.6158 16.8247C18.7679 17.0949 18.8475 17.3999 18.8468 17.71C18.8468 18.704 18.038 19.5127 17.044 19.5127C17.0193 19.5127 16.9948 19.5117 16.9703 19.5108C16.6755 19.5002 16.4176 19.7084 16.3688 19.9996C15.8378 23.1749 13.1055 25.3762 10.0093 25.3762C6.8893 25.3763 4.17703 23.1523 3.64977 19.9997ZM9.90258 28.3796C8.75602 28.3222 7.82117 27.4304 7.70383 26.293C7.70297 26.2845 7.7025 26.2758 7.70172 26.2672C7.69938 26.2419 7.69742 26.2165 7.69594 26.1909C8.46758 26.4372 9.27219 26.5481 10.0095 26.5481C10.7606 26.5481 11.5717 26.4333 12.3452 26.1836C12.2744 27.4597 11.1804 28.4434 9.90258 28.3796ZM15.1767 25.4656H13.9223C14.2876 25.2475 14.6339 24.9991 14.9577 24.723C16.1977 23.6632 17.0646 22.234 17.4315 20.6596C18.5206 20.5173 19.4263 19.7835 19.8147 18.7922C19.8463 19.0954 19.9289 19.3909 20.0591 19.6665C18.6004 20.3983 17.633 21.9159 17.633 23.5852V26.4101C16.9817 25.8234 16.1203 25.4656 15.1767 25.4656ZM18.8049 26.5879V23.5852C18.8049 22.2814 19.6104 21.1032 20.7989 20.6153C21.1881 20.9331 21.6568 21.1328 22.1254 21.2016C22.2607 21.7669 22.4738 22.319 22.731 22.8056V23.3789C22.731 25.1483 21.2916 26.5878 19.5222 26.5878H18.8049V26.5879ZM35.885 33.6883H21.7873V29.3679C21.7873 28.0401 22.8677 26.9598 24.1955 26.9598H25.6327C25.6543 28.6901 27.0688 30.1132 28.8262 30.1132C30.5634 30.1132 31.9977 28.7119 32.0197 26.9598H33.4769C34.8047 26.9598 35.8849 28.0401 35.8849 29.3679V33.6883H35.885ZM38.8281 26.5879H38.1108C36.3414 26.5879 34.902 25.1483 34.902 23.379V22.8057C35.163 22.3118 35.374 21.7597 35.5076 21.2017C35.9707 21.1329 36.4082 20.9457 36.7778 20.6583C36.7965 20.6438 36.8158 20.6304 36.8341 20.6154C38.0227 21.1033 38.8281 22.2814 38.8281 23.5852V26.5879Z" fill="#2993DD"/>
<path d="M10.008 23.1574C11.1548 23.1574 12.0879 22.2243 12.0879 21.0775C12.0879 20.7538 11.8255 20.4915 11.502 20.4915C11.1784 20.4915 10.916 20.7538 10.916 21.0775C10.916 21.5782 10.5087 21.9855 10.008 21.9855C9.50727 21.9855 9.09984 21.5782 9.09984 21.0775C9.09984 20.7538 8.8375 20.4915 8.51391 20.4915C8.19031 20.4915 7.92797 20.7538 7.92797 21.0775C7.92805 22.2243 8.86109 23.1574 10.008 23.1574ZM6.57422 16.9971C6.41882 16.9971 6.26978 17.0588 6.1599 17.1687C6.05001 17.2786 5.98828 17.4276 5.98828 17.583V18.8785C5.98828 19.2021 6.25062 19.4644 6.57422 19.4644C6.89781 19.4644 7.16016 19.2021 7.16016 18.8785V17.583C7.16016 17.4276 7.09842 17.2786 6.98854 17.1687C6.87865 17.0588 6.72962 16.9971 6.57422 16.9971ZM13.4417 19.4644C13.5971 19.4644 13.7462 19.4027 13.856 19.2928C13.9659 19.1829 14.0277 19.0339 14.0277 18.8785V17.583C14.0277 17.2593 13.7653 16.9971 13.4417 16.9971C13.1181 16.9971 12.8558 17.2593 12.8558 17.583V18.8785C12.8558 19.0339 12.9175 19.1829 13.0274 19.2928C13.1373 19.4027 13.2863 19.4644 13.4417 19.4644Z" fill="#2993DD"/>
</svg>
