<svg width="61" height="61" viewBox="0 0 61 61" fill="none" xmlns="http://www.w3.org/2000/svg">
<rect opacity="0.8" x="1" y="1.00049" width="59" height="59" rx="11.5" stroke="#B4AEA7" stroke-dasharray="4 4"/>
<path opacity="0.75" d="M29.3141 41.0005C29.0415 41.0005 28.8098 40.9044 28.619 40.7121C28.4281 40.5198 28.3327 40.2864 28.3327 40.0117V31.978H20.4814C20.2088 31.978 19.9771 31.8819 19.7862 31.6896C19.5954 31.4974 19.5 31.2639 19.5 30.9893V28.8057C19.5 28.5036 19.5954 28.2702 19.7862 28.1054C19.9771 27.9131 20.2088 27.817 20.4814 27.817H28.3327V19.9893C28.3327 19.7146 28.4281 19.4811 28.619 19.2889C28.8098 19.0966 29.0415 19.0005 29.3141 19.0005H31.6859C31.9857 19.0005 32.2175 19.0966 32.381 19.2889C32.5719 19.4811 32.6673 19.7146 32.6673 19.9893V27.817H40.5186C40.7912 27.817 41.0229 27.9131 41.2138 28.1054C41.4046 28.2702 41.5 28.5036 41.5 28.8057V30.9893C41.5 31.2639 41.4046 31.4974 41.2138 31.6896C41.0229 31.8819 40.7912 31.978 40.5186 31.978H32.6673V40.0117C32.6673 40.2864 32.5719 40.5198 32.381 40.7121C32.2175 40.9044 31.9857 41.0005 31.6859 41.0005H29.3141Z" fill="#B4AEA7"/>
</svg>
